<svg width="152" height="151" viewBox="0 0 152 151" fill="none" xmlns="http://www.w3.org/2000/svg">
<path d="M122.48 67.4781L114.458 67.7141L122.008 64.8828C144.422 55.4453 147.253 50.2547 145.602 46.2438C143.95 42.2328 138.288 40.8172 115.637 50.2547L109.739 52.85L114.458 48.1312C131.681 31.1437 132.625 25.2453 129.322 22.1781C126.255 19.1109 120.356 19.8187 103.369 37.0422C101.422 38.9505 99.5335 40.9175 97.7063 42.9406L101.009 35.6266C110.211 12.9766 108.559 7.07813 104.312 5.6625C100.302 4.01094 95.1109 6.84219 85.9094 29.4922L83.55 35.6266V29.0203C84.0219 4.71875 80.7188 0 76 0C71.2812 0 67.9781 4.71875 67.9781 29.0203L68.2141 37.0422L65.3828 29.4922C55.9453 7.07812 50.7547 4.24687 46.7438 5.89844C42.7328 7.55 41.3172 13.2125 50.7547 35.8625L53.35 41.7609L48.6312 37.0422C31.6437 19.8187 25.7453 18.875 22.6781 22.1781C19.375 25.2453 20.3187 31.1437 37.5422 48.1312C39.4505 50.0781 41.4175 51.9665 43.4406 53.7937L35.8906 50.4906C13.4766 41.2891 7.57813 42.9406 6.1625 47.1875C4.51094 51.1984 7.34219 56.3891 29.9922 65.5906L36.1266 67.95H29.5203C5.21875 67.4781 0.5 70.7812 0.5 75.5C0.5 80.2188 5.21875 83.5219 29.5203 83.5219L37.5422 83.2859L29.9922 86.1172C7.57812 95.5547 4.74687 100.745 6.39844 104.756C8.05 108.767 13.7125 110.183 36.3625 100.745L42.2609 98.15L37.5422 102.869C20.3187 119.856 19.375 125.755 22.6781 128.822C25.7453 132.125 31.6437 131.181 48.6312 113.958L54.0578 108.531L50.9906 115.609C41.7891 138.023 43.4406 143.922 47.4516 145.337C51.4625 146.989 56.6531 143.922 65.8547 121.508L68.2141 115.137V121.98C67.9781 146.281 71.2812 151 76 151C80.7188 151 84.0219 146.281 84.0219 121.98L83.7859 114.43L86.6172 121.508C96.0547 143.922 101.245 146.753 105.256 145.102C109.267 143.45 110.683 137.552 101.245 115.137L98.65 109.239L103.369 113.958C120.356 131.181 126.255 131.889 129.322 128.822C132.389 125.755 131.681 119.856 114.458 102.869C112.55 100.922 110.582 99.0335 108.559 97.2063L115.873 100.509C138.523 109.711 144.186 108.059 145.837 104.048C147.489 100.037 144.422 94.8469 122.008 85.6453L115.873 83.2859H122.48C146.781 83.5219 151.5 80.2188 151.5 75.5C151.5 70.7812 146.781 67.4781 122.48 67.4781Z" fill="white"/>
</svg>
