<svg width="150" height="150" viewBox="0 0 150 150" fill="none" xmlns="http://www.w3.org/2000/svg">
<path d="M58.6562 15.625V9.375H91.3438V15.625H58.6562ZM71.875 85.1H78.125V52.4062H71.875V85.1ZM75 131.25C68.0917 131.25 61.6063 129.946 55.5438 127.338C49.4813 124.729 44.1792 121.154 39.6375 116.613C35.0958 112.071 31.5208 106.767 28.9125 100.7C26.3042 94.6333 25 88.15 25 81.25C25 74.35 26.3042 67.8646 28.9125 61.7938C31.5208 55.7229 35.0958 50.4208 39.6375 45.8875C44.1792 41.3542 49.4833 37.7792 55.55 35.1625C61.6167 32.5458 68.1 31.2417 75 31.25C81.0583 31.25 86.9167 32.3333 92.575 34.5C98.2333 36.6667 103.425 39.7271 108.15 43.6812L114.975 36.85L119.4 41.275L112.575 48.1C116.533 52.8292 119.594 58.0229 121.756 63.6813C123.919 69.3396 125 75.1958 125 81.25C125 88.1583 123.696 94.6438 121.088 100.706C118.479 106.769 114.904 112.071 110.363 116.613C105.821 121.154 100.517 124.729 94.45 127.338C88.3833 129.946 81.9 131.25 75 131.25ZM75 125C87.0833 125 97.3958 120.729 105.938 112.188C114.479 103.646 118.75 93.3333 118.75 81.25C118.75 69.1667 114.479 58.8542 105.938 50.3125C97.3958 41.7708 87.0833 37.5 75 37.5C62.9167 37.5 52.6042 41.7708 44.0625 50.3125C35.5208 58.8542 31.25 69.1667 31.25 81.25C31.25 93.3333 35.5208 103.646 44.0625 112.188C52.6042 120.729 62.9167 125 75 125Z" fill="#7323F4"/>
</svg>
