<svg width="150" height="150" viewBox="0 0 150 150" fill="none" xmlns="http://www.w3.org/2000/svg">
<path d="M46.875 103.125H84.375V96.875H46.875V103.125ZM46.875 78.125H103.125V71.875H46.875V78.125ZM46.875 53.125H103.125V46.875H46.875V53.125ZM35.1 125C32.2208 125 29.8187 124.037 27.8937 122.112C25.9687 120.187 25.0042 117.783 25 114.9V35.1C25 32.2208 25.9646 29.8187 27.8937 27.8937C29.8229 25.9687 32.225 25.0042 35.1 25H114.906C117.781 25 120.183 25.9646 122.112 27.8937C124.042 29.8229 125.004 32.225 125 35.1V114.906C125 117.781 124.037 120.183 122.112 122.112C120.187 124.042 117.783 125.004 114.9 125H35.1ZM35.1 118.75H114.906C115.865 118.75 116.746 118.35 117.55 117.55C118.354 116.75 118.754 115.867 118.75 114.9V35.1C118.75 34.1375 118.35 33.2542 117.55 32.45C116.75 31.6458 115.867 31.2458 114.9 31.25H35.1C34.1375 31.25 33.2542 31.65 32.45 32.45C31.6458 33.25 31.2458 34.1333 31.25 35.1V114.906C31.25 115.865 31.65 116.746 32.45 117.55C33.25 118.354 34.1312 118.754 35.0937 118.75" fill="#7323F4"/>
</svg>
