<svg width="234" height="150" viewBox="0 0 234 150" fill="none" xmlns="http://www.w3.org/2000/svg">
<path d="M112.513 134.375C108.179 134.375 104.49 132.854 101.444 129.812C98.3979 126.779 96.875 123.092 96.875 118.75C96.875 117.917 96.9458 117.056 97.0875 116.169C97.2333 115.277 97.45 114.438 97.7375 113.65L49.35 85.1438C47.8208 86.8688 46.0417 88.2125 44.0125 89.175C41.9833 90.1375 39.8125 90.6208 37.5 90.625C33.1583 90.625 29.4708 89.1083 26.4375 86.075C23.3958 83.0375 21.875 79.35 21.875 75.0125C21.875 70.675 23.3958 66.9854 26.4375 63.9437C29.4792 60.9021 33.1667 59.3792 37.5 59.375C39.8167 59.375 41.9875 59.8583 44.0125 60.825C46.0375 61.7917 47.8167 63.1354 49.35 64.8563L97.7438 36.3438C97.4521 35.5604 97.2354 34.7229 97.0938 33.8313C96.9479 32.9438 96.875 32.0833 96.875 31.25C96.875 26.9083 98.3938 23.2208 101.431 20.1875C104.465 17.1458 108.15 15.625 112.487 15.625C116.825 15.625 120.515 17.1438 123.556 20.1813C126.598 23.2188 128.121 26.9042 128.125 31.2375C128.129 35.5708 126.608 39.2604 123.562 42.3062C120.533 45.3521 116.846 46.875 112.5 46.875C110.183 46.875 108.013 46.3917 105.988 45.425C103.963 44.4583 102.183 43.1146 100.65 41.3938L52.2625 69.9063C52.55 70.6896 52.7646 71.5229 52.9062 72.4062C53.0521 73.2938 53.125 74.15 53.125 74.975C53.125 75.8 53.0521 76.6646 52.9062 77.5688C52.7604 78.4729 52.5438 79.3167 52.2563 80.1L100.65 108.606C102.179 106.885 103.958 105.542 105.988 104.575C108.017 103.608 110.188 103.125 112.5 103.125C116.842 103.125 120.529 104.644 123.562 107.681C126.604 110.715 128.125 114.4 128.125 118.737C128.125 123.075 126.608 126.765 123.575 129.806C120.542 132.848 116.854 134.371 112.513 134.375ZM112.5 40.625C115.071 40.625 117.277 39.7062 119.119 37.8687C120.956 36.0271 121.875 33.8208 121.875 31.25C121.875 28.6792 120.956 26.4729 119.119 24.6313C117.277 22.7937 115.071 21.875 112.5 21.875C109.929 21.875 107.723 22.7937 105.881 24.6313C104.044 26.4729 103.125 28.6792 103.125 31.25C103.125 33.8208 104.044 36.0271 105.881 37.8687C107.723 39.7062 109.929 40.625 112.5 40.625ZM37.5 84.375C40.0708 84.375 42.2771 83.4563 44.1187 81.6188C45.9562 79.7771 46.875 77.5708 46.875 75C46.875 72.4292 45.9562 70.2229 44.1187 68.3812C42.2812 66.5396 40.075 65.6208 37.5 65.625C34.925 65.6292 32.7188 66.5479 30.8813 68.3812C29.0437 70.2229 28.125 72.4292 28.125 75C28.125 77.5708 29.0437 79.7771 30.8813 81.6188C32.7188 83.4604 34.925 84.3792 37.5 84.375ZM112.5 128.125C115.071 128.125 117.277 127.206 119.119 125.369C120.956 123.527 121.875 121.321 121.875 118.75C121.875 116.179 120.956 113.973 119.119 112.131C117.277 110.294 115.071 109.375 112.5 109.375C109.929 109.375 107.723 110.294 105.881 112.131C104.044 113.973 103.125 116.179 103.125 118.75C103.125 121.321 104.044 123.527 105.881 125.369C107.723 127.206 109.929 128.125 112.5 128.125Z" fill="#7323F4"/>
<path d="M173.347 101V61.7273H184.239V101H173.347ZM178.818 56.6648C177.199 56.6648 175.81 56.1278 174.651 55.054C173.509 53.9631 172.938 52.6591 172.938 51.142C172.938 49.642 173.509 48.3551 174.651 47.2812C175.81 46.1903 177.199 45.6449 178.818 45.6449C180.438 45.6449 181.818 46.1903 182.96 47.2812C184.119 48.3551 184.699 49.642 184.699 51.142C184.699 52.6591 184.119 53.9631 182.96 55.054C181.818 56.1278 180.438 56.6648 178.818 56.6648ZM203.856 78.2955V101H192.964V61.7273H203.344V68.6562H203.805C204.674 66.3722 206.131 64.5653 208.177 63.2358C210.222 61.8892 212.702 61.2159 215.617 61.2159C218.344 61.2159 220.722 61.8125 222.751 63.0057C224.779 64.1989 226.356 65.9034 227.481 68.1193C228.606 70.3182 229.168 72.9432 229.168 75.9943V101H218.276V77.9375C218.293 75.5341 217.68 73.6591 216.435 72.3125C215.191 70.9489 213.478 70.267 211.296 70.267C209.83 70.267 208.535 70.5824 207.41 71.2131C206.302 71.8437 205.433 72.7642 204.802 73.9744C204.188 75.1676 203.873 76.608 203.856 78.2955Z" fill="white"/>
</svg>
