<svg width="128" height="121" viewBox="0 0 128 121" fill="none" xmlns="http://www.w3.org/2000/svg">
<path d="M64.0002 117.219C70.6773 117.219 76.0902 114.201 76.0902 110.479C76.0902 106.756 70.6773 103.739 64.0002 103.739C57.323 103.739 51.9102 106.756 51.9102 110.479C51.9102 114.201 57.323 117.219 64.0002 117.219Z" fill="#424242"/>
<path d="M63.9998 3.78125C42.9198 3.78125 25.8198 18.5943 25.8198 36.8577C25.8198 41.6221 27.3398 46.7173 29.5698 51.2076C32.6998 57.5223 36.1098 62.1921 37.1098 63.9126C39.8898 68.6959 39.4898 73.7344 40.2598 76.8917C41.7098 82.7905 46.0498 84.9269 63.9898 84.9269C81.9298 84.9269 85.7898 82.8945 87.3998 77.4589C88.4998 73.7627 87.4298 69.7262 90.1998 64.9524C91.1998 63.232 95.2698 57.5317 98.4098 51.2076C100.64 46.7173 102.16 41.6221 102.16 36.8577C102.18 18.5943 85.0798 3.78125 63.9998 3.78125Z" fill="#FFD600"/>
<path d="M64.0001 85.6358C76.1172 85.6358 85.9401 83.7482 85.9401 81.4197C85.9401 79.0912 76.1172 77.2036 64.0001 77.2036C51.8829 77.2036 42.0601 79.0912 42.0601 81.4197C42.0601 83.7482 51.8829 85.6358 64.0001 85.6358Z" fill="#B26500"/>
<path d="M64.0001 85.6358C76.1172 85.6358 85.9401 83.7482 85.9401 81.4197C85.9401 79.0912 76.1172 77.2036 64.0001 77.2036C51.8829 77.2036 42.0601 79.0912 42.0601 81.4197C42.0601 83.7482 51.8829 85.6358 64.0001 85.6358Z" fill="#B26500"/>
<path d="M63.9998 83.3671C72.8308 83.3671 79.9898 82.4952 79.9898 81.4198C79.9898 80.3443 72.8308 79.4724 63.9998 79.4724C55.1687 79.4724 48.0098 80.3443 48.0098 81.4198C48.0098 82.4952 55.1687 83.3671 63.9998 83.3671Z" fill="#FFA000"/>
<path d="M53.3004 53.6654C52.6804 55.1401 51.0704 58.1745 51.9104 59.5358C53.8604 62.7025 58.5104 63.8369 58.5104 66.7485C58.5104 71.1915 55.0904 85.5886 55.0904 85.5886M74.0304 53.136C74.0304 53.136 76.2704 57.6735 75.3204 59.7059C74.6104 61.2184 70.3404 63.6573 69.7904 64.0638C67.2404 65.9544 70.6304 85.598 70.6304 85.598" stroke="#B26500" stroke-width="2" stroke-miterlimit="10"/>
<path d="M53.3002 53.6654C56.7402 47.2373 58.5102 32.566 54.1402 33.3128C46.7702 34.5701 55.8502 58.6756 60.3202 55.9058C64.7902 53.136 70.3302 33.3601 63.5302 33.2845C56.7302 33.2088 63.9902 58.4865 68.6102 55.6789C72.2602 53.4574 81.1702 33.3128 73.8502 33.3128C67.6202 33.3128 74.0402 53.136 74.0402 53.136" stroke="white" stroke-width="2" stroke-miterlimit="10"/>
<path d="M85.8902 82.299C85.8902 82.299 80.1302 84.9269 64.0002 84.9269C47.8702 84.9269 42.1102 82.299 42.1102 82.299C42.1102 82.299 41.7502 87.1579 42.9402 89.3604C44.3702 92.0073 45.4702 92.9243 45.4702 92.9243L46.0702 95.6184L45.8302 96.3274C45.5202 97.2538 45.7402 98.2747 46.4302 99.0026L46.9502 99.5509L47.5302 102.141L47.3302 102.661C46.9502 103.654 47.2102 104.76 47.9902 105.516L48.3702 105.885L48.8402 108.002C48.8402 108.002 51.2202 112.804 64.0002 112.804C76.7802 112.804 79.1602 108.002 79.1602 108.002L79.2002 107.822L79.4602 107.577C79.9802 107.095 80.1502 106.376 79.9002 105.733L79.7502 105.365L80.3702 102.566L81.4602 101.479C82.0002 100.941 82.1202 100.146 81.7702 99.4847L81.2702 98.5489L81.9002 95.7413L82.3002 95.4483C82.8902 94.8338 82.9002 93.9074 82.6402 93.274C82.4402 92.773 82.6002 92.2058 83.0102 91.8372C83.6402 91.27 84.4502 90.4097 85.0502 89.3415C86.2802 87.1768 85.8902 82.299 85.8902 82.299Z" fill="#82AEC0"/>
<path d="M45.4702 92.9242L46.0102 95.6373C51.8302 95.6089 59.6002 95.883 74.5102 93.6426C77.2002 93.066 80.4302 91.9222 76.8602 92.3948C76.8602 92.3854 63.1702 93.6237 45.4702 92.9242ZM47.4702 102.16C53.9102 102.056 67.0702 101.451 81.2102 98.5488L81.8402 95.7412C67.0502 98.9175 53.1402 99.4847 46.8902 99.5603L47.4702 102.16ZM80.3102 102.557C67.2202 105.242 54.9702 105.932 48.3402 106.083L48.7702 108.011C48.7702 108.011 48.9802 113.995 63.9302 113.995C78.8802 113.995 79.0902 108.011 79.0902 108.011C79.0902 108.011 72.7102 109.732 64.8602 108.891C64.7775 108.891 64.6954 108.876 64.6187 108.847C64.5421 108.818 64.4722 108.774 64.4133 108.719C64.2942 108.609 64.2265 108.458 64.2252 108.3C64.2239 108.142 64.289 107.99 64.4062 107.877C64.5234 107.765 64.6831 107.701 64.8502 107.699C69.5402 107.113 75.1402 106.244 79.6902 105.355L80.3102 102.557Z" fill="#2F7889"/>
<path d="M42.1802 82.299C42.1802 82.299 48.6402 84.9269 63.9402 84.9269C79.2402 84.9269 85.8202 82.299 85.8202 82.299" stroke="#82AEC0" stroke-width="3.997" stroke-miterlimit="10" stroke-linecap="round"/>
<path d="M49.8799 9.75559C53.7899 8.84809 57.8799 9.30184 60.6799 12.5159C61.4699 13.4234 62.0799 14.5011 62.2199 15.6732C62.4999 17.9325 61.0199 20.0689 59.2599 21.6382C54.2399 26.1189 47.1099 28.2932 43.8699 34.4755C43.1099 35.9218 42.5099 37.4816 41.3499 38.6632C40.1899 39.8449 38.2599 40.5633 36.7499 39.8071C35.9499 39.41 35.3999 38.6632 34.9499 37.9164C32.1099 33.1332 32.3199 27.0359 34.8199 22.0825C37.5699 16.6564 43.5999 11.2114 49.8799 9.75559Z" fill="#FFFF8D"/>
<path d="M46.4501 86.9026C45.5701 86.5245 45.9201 85.2766 46.8801 85.3428C50.1001 85.5791 55.5801 85.8722 62.8301 85.8722C70.4701 85.8722 77.1901 85.3334 81.1101 84.9363C82.0801 84.8418 82.4501 86.0991 81.5601 86.4866C78.5401 87.829 73.0101 89.3604 63.5301 89.3604C54.2801 89.3604 49.1801 88.0653 46.4501 86.9026Z" fill="#FFD600"/>
<path d="M51.9398 96.4502C51.2698 96.6771 50.5798 96.9891 50.2398 97.5752C50.1198 97.7926 50.0498 98.0384 50.0998 98.2841C50.1798 98.6434 50.5298 98.8986 50.8798 99.0593C51.5798 99.3807 52.3698 99.4658 53.1398 99.4752C54.7298 99.4941 56.3098 99.2105 57.8798 98.9269C58.3498 98.8419 58.8298 98.7568 59.2498 98.5394C59.6698 98.3219 60.0298 97.9533 60.0998 97.509C60.1998 96.9134 59.7498 96.3368 59.1998 96.0532C57.2998 95.0606 53.8598 95.798 51.9398 96.4502ZM53.4298 102.68C52.7598 102.907 52.0698 103.219 51.7298 103.805C51.6098 104.022 51.5398 104.268 51.5898 104.514C51.6698 104.873 52.0198 105.128 52.3698 105.289C53.0698 105.61 53.8598 105.695 54.6298 105.705C56.2198 105.724 57.7998 105.44 59.3698 105.157C59.8398 105.071 60.3198 104.986 60.7398 104.769C61.1598 104.552 61.5198 104.183 61.5898 103.739C61.6898 103.143 61.2398 102.566 60.6898 102.283C58.7898 101.3 55.3398 102.037 53.4298 102.68Z" fill="#94D1E0"/>
<path d="M50.0101 79.5954C50.9201 79.6804 51.8801 79.6048 52.6501 79.1416C53.4201 78.6784 53.9101 77.7331 53.6001 76.9201C53.4401 76.4947 53.0901 76.1544 52.7501 75.833C52.0001 75.1335 51.2501 74.434 50.5101 73.7344C49.6801 72.9498 48.8501 72.1747 47.9501 71.4657C46.5601 70.3691 44.6901 69.3387 42.8601 70.1422C41.3001 70.8229 40.9301 72.1652 41.6201 73.5737C43.0901 76.5326 46.5101 79.2551 50.0101 79.5954Z" fill="#FFFF8D"/>
</svg>
