<svg width="70" height="70" viewBox="0 0 70 70" fill="none" xmlns="http://www.w3.org/2000/svg">
<path d="M47.8924 23.1876C55.0091 30.3043 55.0091 41.8542 47.8924 48.9708C40.7757 56.0875 29.2257 56.0875 22.109 48.9708C14.9923 41.8542 14.9923 30.3043 22.109 23.1876C29.2257 16.0709 40.7757 16.0709 47.8924 23.1876Z" stroke="#FA6400" stroke-width="5" stroke-linecap="round" stroke-linejoin="round"/>
<path d="M24.0627 63.1166C18.2294 60.7833 13.1252 56.5541 9.74188 50.6916C6.41688 44.9457 5.30855 38.5582 6.09605 32.4624" stroke="#FA6400" stroke-width="5" stroke-linecap="round" stroke-linejoin="round"/>
<path d="M17.0625 13.0666C22.0208 9.18745 28.2333 6.8833 35 6.8833C41.6208 6.8833 47.7167 9.1291 52.6167 12.8624" stroke="#FA6400" stroke-width="5" stroke-linecap="round" stroke-linejoin="round"/>
<path d="M45.9375 63.1166C51.7708 60.7833 56.875 56.5541 60.2583 50.6916C63.5833 44.9457 64.6917 38.5582 63.9042 32.4624" stroke="#FA6400" stroke-width="5" stroke-linecap="round" stroke-linejoin="round"/>
</svg>
