<svg width="70" height="70" viewBox="0 0 70 70" fill="none" xmlns="http://www.w3.org/2000/svg">
<path d="M49.4668 17.9956C55.3001 22.0498 59.3251 28.4956 60.1418 35.9331" stroke="#FA6400" stroke-width="1.5" stroke-linecap="round" stroke-linejoin="round"/>
<path d="M10.1797 36.0791C10.938 28.6708 14.9047 22.2249 20.6797 18.1416" stroke="#FA6400" stroke-width="1.5" stroke-linecap="round" stroke-linejoin="round"/>
<path d="M23.8867 61.0752C27.2701 62.796 31.1201 63.7585 35.1742 63.7585C39.0826 63.7585 42.7576 62.8835 46.0534 61.2794" stroke="#FA6400" stroke-width="1.5" stroke-linecap="round" stroke-linejoin="round"/>
<path d="M35.1747 22.4584C39.6529 22.4584 43.2831 18.8281 43.2831 14.35C43.2831 9.87192 39.6529 6.2417 35.1747 6.2417C30.6966 6.2417 27.0664 9.87192 27.0664 14.35C27.0664 18.8281 30.6966 22.4584 35.1747 22.4584Z" stroke="#FA6400" stroke-width="1.5" stroke-linecap="round" stroke-linejoin="round"/>
<path d="M14.0869 58.1C18.565 58.1 22.1952 54.4697 22.1952 49.9916C22.1952 45.5135 18.565 41.8833 14.0869 41.8833C9.60874 41.8833 5.97852 45.5135 5.97852 49.9916C5.97852 54.4697 9.60874 58.1 14.0869 58.1Z" stroke="#FA6400" stroke-width="1.5" stroke-linecap="round" stroke-linejoin="round"/>
<path d="M55.913 58.1C60.3911 58.1 64.0214 54.4697 64.0214 49.9916C64.0214 45.5135 60.3911 41.8833 55.913 41.8833C51.4349 41.8833 47.8047 45.5135 47.8047 49.9916C47.8047 54.4697 51.4349 58.1 55.913 58.1Z" stroke="#FA6400" stroke-width="1.5" stroke-linecap="round" stroke-linejoin="round"/>
</svg>
