<svg width="181" height="180" viewBox="0 0 181 180" fill="none" xmlns="http://www.w3.org/2000/svg">
<path d="M145.906 80.4375L136.344 80.7188L145.344 77.3438C172.062 66.0938 175.438 59.9062 173.469 55.125C171.5 50.3438 164.75 48.6562 137.75 59.9062L130.719 63L136.344 57.375C156.875 37.125 158 30.0937 154.062 26.4375C150.406 22.7812 143.375 23.625 123.125 44.1562C120.804 46.431 118.553 48.7759 116.375 51.1875L120.312 42.4688C131.281 15.4688 129.312 8.4375 124.25 6.75C119.469 4.78125 113.281 8.15625 102.312 35.1562L99.5 42.4688V34.5938C100.062 5.625 96.125 0 90.5 0C84.875 0 80.9375 5.625 80.9375 34.5938L81.2188 44.1562L77.8438 35.1562C66.5938 8.4375 60.4062 5.0625 55.625 7.03125C50.8438 9 49.1562 15.75 60.4062 42.75L63.5 49.7813L57.875 44.1562C37.625 23.625 30.5937 22.5 26.9375 26.4375C23 30.0937 24.125 37.125 44.6562 57.375C46.931 59.6957 49.2759 61.9468 51.6875 64.125L42.6875 60.1875C15.9688 49.2188 8.9375 51.1875 7.25 56.25C5.28125 61.0312 8.65625 67.2188 35.6562 78.1875L42.9688 81H35.0938C6.125 80.4375 0.5 84.375 0.5 90C0.5 95.625 6.125 99.5625 35.0938 99.5625L44.6562 99.2812L35.6562 102.656C8.9375 113.906 5.5625 120.094 7.53125 124.875C9.5 129.656 16.25 131.344 43.25 120.094L50.2813 117L44.6562 122.625C24.125 142.875 23 149.906 26.9375 153.562C30.5937 157.5 37.625 156.375 57.875 135.844L64.3438 129.375L60.6875 137.812C49.7188 164.531 51.6875 171.562 56.4688 173.25C61.25 175.219 67.4375 171.562 78.4062 144.844L81.2188 137.25V145.406C80.9375 174.375 84.875 180 90.5 180C96.125 180 100.063 174.375 100.063 145.406L99.7812 136.406L103.156 144.844C114.406 171.562 120.594 174.938 125.375 172.969C130.156 171 131.844 163.969 120.594 137.25L117.5 130.219L123.125 135.844C143.375 156.375 150.406 157.219 154.062 153.562C157.719 149.906 156.875 142.875 136.344 122.625C134.069 120.304 131.724 118.053 129.312 115.875L138.031 119.812C165.031 130.781 171.781 128.812 173.75 124.031C175.719 119.25 172.062 113.062 145.344 102.094L138.031 99.2812H145.906C174.875 99.5625 180.5 95.625 180.5 90C180.5 84.375 174.875 80.4375 145.906 80.4375Z" fill="white"/>
</svg>
