<svg width="666" height="750" viewBox="0 0 666 750" fill="none" xmlns="http://www.w3.org/2000/svg">
<path d="M147.695 156.633C148.212 161.032 147.097 160.218 154.272 173.743C167.968 199.6 173.185 241.508 186.936 274.562C210.795 322.825 243.731 338.66 295.091 345.993C330.527 351.072 323.109 339.42 356.479 377.444C380.583 404.903 388.165 420.086 405.856 450.858C408.519 455.475 411.726 459.903 414.307 464.628C434.716 502.137 442.786 520.578 453.276 562.948C453.684 564.632 455.396 566.289 453.928 568.19C456.32 569.793 456.129 572.834 456.537 575.388C458.032 577.18 467.842 613.982 470.831 619.957C473.304 625.036 477.081 633.755 479.282 637.666C479.418 637.91 480.723 639.268 482.543 642.256C485.369 646.927 488.522 651.544 491.647 656.026L502.055 666.51C507.897 669.525 524.583 685.956 542.98 685.522C547.437 685.413 550.562 686.255 549.149 680.28C470.532 670.883 467.38 573.513 444.879 513.462C437.705 494.315 428.683 479.594 418.9 462.021C416.21 457.214 413.247 452.379 410.448 447.599C409.307 445.644 408.329 443.607 407.188 441.705C405.802 439.37 404.687 436.789 403.302 434.508C392.703 417.125 381.073 400.748 369.523 384.044C367.458 381.057 360.691 373.724 360.42 370.926L334.441 344.391C348.436 338.415 361.914 331.68 369.849 317.855L371.48 323.097C379.632 257.397 352.675 213.94 297.428 181.864C292.836 209.269 296.206 229.585 299.711 256.256C293.515 221.545 281.966 191.479 245.144 181.538C217.48 174.069 167.451 135.285 150.114 150.521C148.701 151.771 147.587 155.247 147.75 156.66L147.695 156.633Z" fill="#376643"/>
<path d="M275.472 138.381C248.406 119.287 200.524 86.7223 166.501 87.0754C140.277 87.347 132.288 109.564 125.141 131.346C109.08 180.289 116.553 251.34 137.913 297.702C150.006 310.142 158.702 329.534 170.822 343.603C198.975 376.304 230.905 397.814 272.075 410.933C301.56 413.92 327.376 406.886 350.827 388.499C346.778 377.988 343.572 374.239 337.24 365.412C318.19 338.877 292.972 317.23 274.059 290.559C276.83 286.784 336.805 346.781 341.697 351.534C349.469 359.084 357.295 366.662 364.985 374.267C380.529 356.748 387.378 331.055 386.671 307.697C386.562 304.574 386.671 301.07 386.318 298.001C386.073 295.882 381.888 274.969 381.453 273.801C377.024 261.661 346.398 213.289 337.267 201.854C315.201 174.259 285.852 151.01 275.526 138.354L275.472 138.381Z" fill="#839E3C"/>
<path d="M137.885 297.729C163.755 353.897 207.153 404.387 272.047 410.96C230.877 397.842 198.947 376.331 170.793 343.63C158.673 329.561 150.005 310.169 137.885 297.729Z" fill="#377755"/>
</svg>
