<svg width="154" height="120" viewBox="0 0 154 120" fill="none" xmlns="http://www.w3.org/2000/svg">
<path d="M13.6718 109.367C4.77607 99.8482 0 89.1724 0 71.8666C0 41.4141 21.2202 14.1198 52.079 0.625L59.7915 12.6146C30.9883 28.3108 25.3572 48.6792 23.1117 61.5215C27.7495 59.1027 33.8211 58.2587 39.7717 58.8155C55.3523 60.2686 67.6336 73.1544 67.6336 89.1724C67.6336 97.2489 64.4488 104.995 58.7799 110.706C53.111 116.417 45.4223 119.625 37.4053 119.625C28.1382 119.625 19.277 115.362 13.6718 109.367ZM100.038 109.367C91.1425 99.8482 86.3664 89.1724 86.3664 71.8666C86.3664 41.4141 107.587 14.1198 138.445 0.625L146.158 12.6146C117.355 28.3108 111.724 48.6792 109.478 61.5215C114.116 59.1027 120.188 58.2587 126.138 58.8155C141.719 60.2686 154 73.1544 154 89.1724C154 97.2489 150.815 104.995 145.146 110.706C139.477 116.417 131.789 119.625 123.772 119.625C114.505 119.625 105.643 115.362 100.038 109.367Z" fill="#E87B22"/>
</svg>
