<svg width="254" height="690" viewBox="0 0 254 690" fill="none" xmlns="http://www.w3.org/2000/svg">
<path d="M153.977 630.196C155.299 628.943 170.599 36.1489 174.333 36.5488C175.016 36.5666 175.557 37.1175 175.584 37.7928L194.618 630.196C194.982 641.437 186.174 650.848 174.954 651.212C163.273 651.63 153.569 641.899 153.977 630.196Z" fill="#78C932"/>
<path d="M177.144 84.1073C178.341 100.591 193.855 101.782 204.649 96.1924C193.996 100.404 181.632 96.539 177.898 83.6274C176.869 83.7785 177.197 84.0895 177.153 84.0984L177.144 84.1073Z" fill="#366542"/>
<path d="M209.581 51.5486C203.63 60.1326 187.975 67.7925 178.05 69.7208C169.996 71.2847 174.475 68.8499 178.014 62.5497C186.99 61.8743 194.512 56.7737 201.111 51.0154C202.317 50.9532 204.517 50.7755 205.581 50.8377C206.876 50.9088 208.304 51.362 209.581 51.5486Z" fill="#366542"/>
<path d="M211.966 87.2707C202.955 92.5402 185.535 92.869 175.725 90.4164C167.76 88.4348 172.851 88.1149 178.705 83.9028C187.122 87.0841 196.098 85.6356 204.498 83.2097C205.624 83.6629 207.691 84.4271 208.631 84.9336C209.775 85.5468 210.884 86.5598 211.966 87.2707Z" fill="#366542"/>
<path d="M153.099 60.5058C149.994 50.5267 153.578 33.4475 158.155 24.4103C161.871 17.0792 161.037 22.1177 163.822 28.7823C158.846 36.2911 158.243 45.3727 158.722 54.1256C158.03 55.1208 156.824 56.9691 156.115 57.7778C155.263 58.7552 154.03 59.6083 153.099 60.5058Z" fill="#366542"/>
<path d="M154.393 75.8789C144.903 71.5424 134.596 57.4668 130.933 48.0297C127.962 40.3699 131.155 44.3509 137.967 46.7146C140.228 55.4408 146.579 61.9543 153.409 67.4282C153.684 68.61 154.251 70.7427 154.384 71.809C154.544 73.0975 154.358 74.5904 154.402 75.8789H154.393Z" fill="#366542"/>
<path d="M154.792 82.0813C146.73 88.7104 129.585 91.8116 119.509 90.9586C111.331 90.2655 116.307 89.1458 121.425 84.054C130.241 85.8579 138.871 82.9966 146.783 79.2644C147.963 79.531 150.127 79.9575 151.138 80.313C152.362 80.7395 153.621 81.557 154.801 82.0902L154.792 82.0813Z" fill="#366542"/>
<path d="M118.145 66.335C121.692 76.163 134.855 87.5995 143.946 92.0248C151.326 95.6148 147.627 92.1048 145.827 85.1114C137.33 82.1434 131.369 75.2744 126.473 68.0144C125.32 67.6412 123.245 66.9037 122.198 66.6815C120.93 66.4149 119.431 66.486 118.145 66.335Z" fill="#366542"/>
<path d="M176.994 87.0132C176.019 87.1909 175.904 87.3509 175.841 87.3597L174.271 90.5588C174.617 90.7187 178.715 93.971 180.516 94.9307C187.549 98.6629 195.798 98.5741 203.426 97.3122C202.14 97.1789 196.375 95.4017 195.035 94.8241C190.538 92.8869 186.591 89.0126 186.086 88.8171C185.066 88.4083 178.866 88.0706 176.986 87.0132H176.994Z" fill="#839E3C"/>
<path d="M189.217 87.5995C186.423 87.9816 187.23 89.4656 183.425 85.9644C183.23 85.9556 183.194 85.8223 183.008 85.8223C181.997 85.8223 181.056 86.0355 180.072 86.2044C179.07 86.3821 178.138 86.7997 176.994 87.0041C178.866 88.0616 185.074 88.3992 186.094 88.808C186.6 89.0124 190.547 92.8779 195.044 94.815C196.383 95.3926 202.148 97.1788 203.435 97.3032C203.851 97.3476 204.818 97.6675 204.792 97.0277C203.009 95.2771 201.261 93.3488 199.239 91.8737C197.057 90.2831 191.673 87.2707 189.225 87.5995H189.217Z" fill="#58813A"/>
<path d="M183.424 85.9646C187.22 89.4657 186.422 87.9818 189.216 87.5997C187.85 86.7288 185.1 86.0623 183.424 85.9646Z" fill="#90AE3D"/>
<path d="M134.632 61.9987C140.495 71.0626 152.265 80.2153 163.662 77.6294C163.742 77.7272 165.064 78.909 165.436 79.4066C165.427 79.5399 165.454 79.6732 165.436 79.8065C165.259 81.3527 165.587 82.3302 164.248 84.454C160.673 90.1678 152.974 87.4664 153.684 80.5974C153.489 80.4285 150.872 82.3035 148.85 82.3746C148.717 82.3746 148.584 82.3746 148.451 82.3746C145.205 82.3035 138.171 79.3178 135.421 78.8113C135.129 78.758 134.925 78.6513 134.632 78.6158L141.346 76.7408C141.905 75.9233 132.885 74.6259 131.279 60.6213C132.512 60.9679 133.514 61.4033 134.632 62.0076V61.9987Z" fill="#366542"/>
<path d="M138.374 65.0554C139.989 79.06 149 80.3574 148.441 81.1749L141.727 83.0499C139.66 82.7922 137.008 83.5297 135.208 82.65C132.361 81.2549 125.62 70.0139 125.93 66.1306C126.276 64.9577 133.283 63.6336 138.374 65.0465V65.0554Z" fill="#839E3C"/>
<path d="M185.109 37.8194C184.373 38.3081 183.016 39.5078 182.253 40.1387C178.909 42.9289 176.036 46.2612 173.694 49.8068L173.188 49.9579C172.922 46.9277 173.259 32.1945 173.02 31.2348C172.727 30.0707 172.293 30.3995 172.009 31.2081C171.707 32.0612 171.991 46.1191 171.175 48.7938C170.9 49.6913 170.607 54.4098 170.332 54.8275C170.315 54.8541 170.368 54.9963 170.164 54.9785C170.146 54.8364 170.031 54.8186 169.995 54.6675C169.729 53.379 168.86 51.3086 167.982 50.3311C167.991 48.3939 164.86 44.5107 163.281 42.9823C161.818 41.5605 159.999 40.3964 158.332 39.1879C157.791 39.2323 158.163 39.9521 158.252 40.272C158.039 46.3323 158.873 52.7481 162.784 57.831C163.787 59.1373 166.971 61.9897 167.148 62.2385C168.097 63.5892 169.428 67.3214 169.383 68.9831C169.321 71.3735 169.029 71.7734 168.594 71.88C167.397 70.7692 165.019 67.588 163.946 66.3706C161.002 63.0294 158.234 59.004 155.165 55.4317C150.872 50.4377 147.484 44.7328 146.748 44.7506L146.163 45.1416C149.515 50.18 153.932 54.5431 157.578 59.3772C159.361 61.7409 160.833 64.3268 162.616 66.726C163.148 67.4369 163.574 68.37 164.124 69.0453C154.438 71.0713 144.433 63.9091 139.439 56.818C134.632 49.9845 132.982 37.7128 136.583 33.5274C140.3 29.1998 154.607 35.9977 158.323 39.019C157.436 31.8746 167.565 18.7053 172.257 19.0608C176.319 19.3629 186.014 32.2833 185.1 37.7839L185.109 37.8194Z" fill="#95BE5B"/>
<path d="M163.45 67.7034C163.663 67.7834 163.796 67.89 164.009 67.9789C165.809 71.1335 169.615 72.9285 173.162 72.7596C173.26 72.7863 173.357 72.804 173.455 72.8218C177.872 76.0741 181.216 82.4455 181.127 87.9638C180.888 87.8927 180.631 87.8749 180.391 87.8039C179.424 87.5195 178.449 87.324 177.473 87.013C176.4 86.6753 175.176 86.4887 174.111 86.1244C169.792 84.6582 165.641 82.5255 161.463 80.7305C159.743 80.9171 163.698 83.1297 163.991 83.2986C166.998 84.9514 170.422 85.8933 173.561 87.244C174.786 87.7772 176.018 88.2659 177.234 88.8169C177.979 89.1545 178.768 89.3945 179.495 89.7766C172.293 97.6764 160.514 96.4678 152.7 90.1143C147.245 85.6801 142.527 73.6927 144.442 68.4232C145.933 64.3356 155.414 65.9084 158.643 66.3438C159.84 67.2946 161.942 67.1702 163.441 67.7034H163.45Z" fill="#95BE5B"/>
<path d="M135.059 75.3012C135.28 75.3368 135.431 75.4256 135.653 75.479C137.968 78.2781 142.021 79.3889 145.489 78.6069C145.587 78.6069 145.693 78.6158 145.791 78.6158C150.705 81.0595 155.095 86.7555 155.955 92.2027C155.707 92.176 155.45 92.2027 155.202 92.1671C154.199 92.0516 153.206 92.025 152.195 91.8917C151.077 91.7406 149.844 91.7673 148.736 91.5984C144.23 90.9053 139.777 89.5191 135.342 88.4705C133.675 88.9503 137.959 90.4521 138.278 90.5587C141.525 91.6695 145.064 91.9983 148.381 92.7892C149.676 93.1002 150.98 93.3668 152.275 93.7044C153.064 93.9088 153.88 94.0066 154.669 94.2554C148.94 103.275 137.125 104.128 128.335 99.2138C122.198 95.7838 115.483 84.7916 116.468 79.2733C117.231 74.9902 126.845 74.9014 130.1 74.7681C131.44 75.4967 133.498 75.008 135.067 75.2746L135.059 75.3012Z" fill="#95BE5B"/>
<path d="M198.503 59.2351C194.192 67.3837 182.803 75.9588 173.49 71.3469C173.774 70.9115 174.014 70.4939 174.333 70.0762C174.883 69.3742 176.32 67.828 177.003 67.1171C180.542 63.4738 184.826 60.5591 188.249 56.7648L187.62 55.9917C183.841 59.3506 180.045 62.6829 175.885 65.562C175.362 65.7575 175.326 65.9264 175.042 66.1219C174.918 66.2107 174.386 66.4951 174.2 66.5484C178.821 61.0212 184.036 49.7447 183.477 42.3337C188.09 39.5879 193.748 37.1353 199.15 38.8148C203.727 42.7513 201.022 54.4899 198.52 59.2262L198.503 59.2351Z" fill="#839E3C"/>
<path d="M142.394 54.6231C146.722 64.5133 156.869 75.4522 168.532 74.7324C168.595 74.8479 169.703 76.2253 169.996 76.7762C169.96 76.9006 169.969 77.0428 169.934 77.1672C169.508 78.669 169.677 79.682 168.018 81.5659C163.574 86.6221 156.408 82.721 158.208 76.0564C158.04 75.8609 155.166 77.2916 153.144 77.0339C153.011 77.0161 152.886 76.9984 152.753 76.9717C149.56 76.3852 143.094 72.2976 140.46 71.3557C140.176 71.2579 139.999 71.1157 139.715 71.0358L146.642 70.2627C147.325 69.5429 138.633 66.806 139.298 52.7214C140.46 53.2635 141.382 53.85 142.385 54.632L142.394 54.6231Z" fill="#366542"/>
<path d="M139.299 52.7126C138.633 66.7971 147.326 69.5341 146.643 70.2538L139.715 71.0269C137.72 70.4405 134.979 70.7426 133.347 69.5874C130.766 67.7568 125.914 55.5651 126.846 51.7884C127.378 50.6866 134.5 50.5088 139.299 52.7215V52.7126Z" fill="#839E3C"/>
<path d="M191.504 28.4534C192.285 38.8768 184.959 54.7119 178.475 62.4784C173.206 68.7787 175.149 64.0601 173.934 56.9423C180.471 50.7487 183.096 42.0314 184.595 33.4029C185.491 32.5854 187.087 31.0659 187.948 30.435C188.994 29.6708 190.396 29.1198 191.504 28.4534Z" fill="#366542"/>
<path d="M199.549 57.4224C199.638 60.9502 198.937 64.5046 196.569 67.2149C196.658 67.5348 200.605 67.7214 202.84 69.081C201.651 70.2095 200.8 70.9293 199.106 71.3203C197.199 71.7646 192.711 71.8179 188.586 72.8132C186.883 73.2308 180.426 75.5767 179.113 76.4032L176.949 74.0128L176.878 78.3492C176.621 78.6158 176.373 78.9535 176.133 79.2467C172.381 78.5891 170.022 75.7811 170.465 71.9245C170.749 71.2048 171.113 70.8849 171.512 70.2806C181.402 75.1769 193.5 66.0775 198.068 57.4224C198.564 57.4224 199.061 57.4224 199.558 57.4224H199.549Z" fill="url(#paint0_linear_1577_10086)"/>
<path d="M202.831 69.0897C200.596 67.7301 196.649 67.5346 196.561 67.2236C198.938 64.5133 199.638 60.9677 199.541 57.431C202.61 57.3955 205.971 57.5199 208.641 59.1461C207.843 62.1674 205.04 66.9925 202.823 69.0897H202.831Z" fill="#839E3C"/>
<path d="M157.578 92.1226C151.068 107.531 132.761 103.994 122.02 95.4016C133.027 102.644 148.522 102.67 156.859 91.4473C158.004 91.9093 157.534 92.1048 157.578 92.1315V92.1226Z" fill="#366542"/>
<path d="M198.743 62.3186C202.752 62.4963 209.768 62.9317 212.996 65.4909C215.489 67.4725 214.61 70.2006 213.679 72.822C211.586 78.7224 205.59 84.996 200.1 87.8573C198.015 88.1506 195.745 89.368 193.536 89.8212C188.41 90.8697 183.744 90.5587 178.83 88.7637C175.779 86.8621 173.828 84.2584 172.95 80.7484C174.121 80.0375 174.706 79.9131 175.965 79.5399C179.762 78.4114 183.788 78.1981 187.585 77.0429C187.602 76.4742 177.81 80.7129 176.985 80.8017C175.682 80.9528 173.934 81.2371 172.622 81.3882C172.435 78.5535 173.713 72.5021 175.513 70.3072C175.753 70.014 176.001 69.6674 176.267 69.4008C176.453 69.2142 178.405 67.5169 178.529 67.437C179.85 66.6017 186.387 64.2291 188.108 63.8114C192.277 62.7984 196.818 62.754 198.743 62.3008V62.3186Z" fill="#839E3C"/>
<path d="M200.099 87.8662C193.447 91.3407 185.536 92.9669 178.83 88.7726C183.753 90.5765 188.409 90.8786 193.536 89.83C195.744 89.3769 198.015 88.1595 200.099 87.8662Z" fill="#377755"/>
<path d="M184.585 33.4029C183.087 42.0314 180.461 50.7487 173.924 56.9423L173.135 57.1378C172.523 52.206 174.971 42.6801 171.556 44.4751C171.724 41.0184 171.201 22.5263 171.556 21.4244C171.893 20.3847 173.392 20.5269 173.729 22.0198C174.004 23.2372 173.614 42.0758 173.924 45.9591L174.518 45.7636C177.277 41.2227 180.656 36.9663 184.585 33.4029Z" fill="#839E3C"/>
<path d="M169.384 69.0098C169.463 68.6365 168.745 69.223 168.594 69.4096C168.878 67.3125 167.929 63.4293 166.82 61.6965L169.783 59.7148C169.614 62.6028 169.987 66.2639 169.384 69.0098Z" fill="#366542"/>
<path d="M171.538 63.2339C171.494 64.2202 171.343 64.3624 171.343 64.4246L168.381 66.4062C168.177 66.0863 164.425 62.4341 163.245 60.7724C158.642 54.2678 157.657 46.0659 157.915 38.3171C158.207 39.579 160.717 45.0706 161.471 46.3324C163.973 50.5445 168.319 53.9745 168.576 54.4455C169.108 55.4052 170.252 61.5277 171.538 63.2517V63.2339Z" fill="#839E3C"/>
<path d="M169.374 51.1665C169.365 53.9923 167.787 53.388 171.742 56.7025C171.778 56.8891 171.92 56.9158 171.938 57.1024C172.071 58.1065 171.982 59.0751 171.938 60.0704C171.893 61.0834 171.592 62.0698 171.538 63.2338C170.252 61.5099 169.108 55.3874 168.576 54.4277C168.31 53.9567 163.973 50.5355 161.471 46.3146C160.726 45.0528 158.216 39.5612 157.915 38.2993C157.817 37.8906 157.374 36.9664 158.012 36.9131C159.972 38.4593 162.11 39.9433 163.84 41.756C165.702 43.7199 169.383 48.6695 169.365 51.1487L169.374 51.1665Z" fill="#58813A"/>
<path d="M171.743 56.7026C167.787 53.3792 169.357 53.9834 169.375 51.1665C170.413 52.4106 171.433 55.0497 171.743 56.7026Z" fill="#90AE3D"/>
<path d="M170.218 82.0457C170.785 82.8543 170.75 83.0587 170.785 83.1031L169.65 86.4799C169.295 86.3555 164.098 85.769 162.146 85.1736C154.536 82.8543 148.736 76.9717 144.203 70.6892C145.205 71.5067 150.554 74.3059 151.911 74.839C156.47 76.634 161.987 76.6785 162.492 76.8917C163.503 77.3183 168.142 81.4592 170.218 82.0368V82.0457Z" fill="#839E3C"/>
<path d="M161.126 73.844C162.837 76.0833 161.223 76.572 166.385 76.7675C166.527 76.8919 166.651 76.8297 166.784 76.963C167.503 77.6739 168.026 78.4914 168.594 79.3089C169.179 80.1442 169.543 81.1039 170.217 82.0547C168.141 81.486 163.503 77.3451 162.491 76.9097C161.995 76.6964 156.469 76.652 151.91 74.857C150.553 74.3238 145.205 71.5158 144.202 70.7071C143.874 70.4406 142.961 69.9874 143.431 69.5519C145.923 69.5697 148.522 69.4275 150.996 69.8096C153.666 70.2184 159.609 71.8801 161.108 73.844H161.126Z" fill="#58813A"/>
<path d="M166.385 76.7673C161.223 76.5718 162.846 76.0831 161.125 73.8438C162.704 74.1903 165.125 75.6565 166.385 76.7673Z" fill="#90AE3D"/>
<path d="M184.985 90.9675C185.34 92.2027 184.888 92.2916 184.196 93.1446C182.546 93.6334 181.774 93.8022 180.249 94.7264C179.805 95.0018 179.353 95.3751 178.865 95.5172C180.045 94.0954 182.786 92.878 179.655 91.5629C179.717 91.5629 179.788 91.5629 179.85 91.5629C181.553 91.3585 183.273 91.163 184.985 90.9675Z" fill="#835E39"/>
<path d="M161.49 92.3536C161.748 93.3666 160.586 92.629 160.302 93.2422C159.45 95.0994 165.455 95.677 165.633 97.0988C162.874 95.206 161.89 95.7747 161.686 95.7125C161.632 95.6947 162.085 95.4459 160.896 95.1171C159.858 94.8328 158.776 94.7528 157.739 94.5218C156.825 93.5621 156.896 93.2333 157.543 92.1492C158.874 92.2736 160.178 92.2558 161.49 92.3447V92.3536Z" fill="#835E39"/>
<path d="M213.811 128.956C224.491 130.697 224.535 132.483 213.714 133.905C202.813 135.327 167.743 135.14 155.068 134.892C147.945 134.758 132.752 134.625 126.437 133.114C118.365 131.177 127.607 129.471 130.481 128.956C134.056 128.316 137.825 127.996 141.444 127.765C146.429 127.445 157.968 128.085 161.685 126.379C161.073 128.343 160.452 127.018 159.911 127.667C160.363 129.071 161.56 128.68 161.294 129.747C155.405 130.004 149.515 130.262 143.617 130.342C142.837 130.999 142.978 131.284 143.812 131.728H206.21C206.787 131.239 206.512 130.733 206.015 130.342C198.148 130.271 190.28 129.542 182.422 129.356L184.595 127.872L183.211 125.997C187.025 128.174 199.576 127.569 204.835 127.978C207.78 128.209 210.902 128.494 213.82 128.965L213.811 128.956Z" fill="#7A493F"/>
<path d="M182.422 129.347C190.28 129.533 198.147 130.262 206.015 130.333C206.52 130.715 206.795 131.23 206.21 131.719H143.812C142.969 131.275 142.836 130.991 143.617 130.333C149.515 130.253 155.405 129.995 161.294 129.738C169.782 129.373 173.552 129.133 182.422 129.338V129.347Z" fill="#5B3B36"/>
<path d="M173.135 57.138C172.718 57.6445 172.815 56.3649 172.736 55.3607C172.638 53.9745 173.25 52.9615 171.849 51.7974C170.758 51.5752 171.476 52.8015 170.562 52.1973C170.882 51.6641 171.494 45.6837 171.547 44.4841C174.962 42.6891 172.514 52.215 173.126 57.1468L173.135 57.138Z" fill="#816C31"/>
<path d="M163.662 66.0417C164.922 67.5968 166.403 68.9742 167.813 70.396C167.946 70.5293 168.106 70.8136 168.212 70.9913C167.813 71.1335 166.385 69.5251 166.039 69.2141C164.922 68.1744 165.01 67.117 164.061 68.13C163.813 69.7473 163.245 70.236 164.851 71.3912C164.806 71.7555 165.081 71.8089 165.046 72.1821C164.665 71.6845 163.343 70.5026 163.272 70.4048C162.616 69.5429 162.119 68.3521 161.498 67.4369L163.671 66.0506L163.662 66.0417Z" fill="#816C31"/>
<path d="M172.745 55.3606H170.377C170.421 54.3654 170.51 53.3968 170.377 52.3927C170.616 52.4104 170.554 52.2327 170.572 52.1972C171.477 52.8014 170.767 51.5751 171.858 51.7973C173.26 52.9525 172.648 53.9744 172.745 55.3606Z" fill="#835E39"/>
<path d="M184.195 93.1445C184.887 92.3003 185.348 92.2026 184.985 90.9674C186.067 90.843 199.416 89.1369 199.398 89.8833C194.431 91.3939 189.162 91.6605 184.195 93.1445Z" fill="#816C31"/>
<path d="M172.825 87.262C171.752 87.4486 171.335 87.2175 170.802 88.3816C169.907 87.7685 158.722 80.2508 159.228 79.7087C163.964 81.8414 168.106 85.1115 172.825 87.2708V87.262Z" fill="#816C31"/>
<path d="M152.992 91.9537L152.593 93.5354C148.202 92.6824 143.564 92.4335 139.262 91.1628C138.836 91.0384 133.159 89.3056 135.315 88.5947C141.169 89.7233 147.058 91.2961 152.992 91.9537Z" fill="#839E3C"/>
<path d="M157.534 92.1581C156.896 93.2423 156.816 93.571 157.729 94.5307C156.017 94.1575 154.306 93.8732 152.594 93.5444L152.993 91.9626C154.456 92.1226 156.071 92.0249 157.534 92.1581Z" fill="#816C31"/>
<path d="M182.423 63.2694C182.76 61.821 183.203 61.5633 181.926 60.4969C181.66 60.9235 181.243 60.9323 180.844 61.0923C186.689 57.0402 192.019 52.3572 197.332 47.6387L198.219 48.7228C193.421 54.0545 187.398 58.1421 182.423 63.2605V63.2694Z" fill="#816C31"/>
<path d="M170.901 96.0592C171.238 94.6107 171.682 94.3531 170.404 93.2867C170.138 93.7133 169.721 93.7221 169.322 93.8821C175.167 89.83 180.498 85.147 185.811 80.4285L186.698 81.5126C181.899 86.8443 175.877 90.9319 170.901 96.0503V96.0592Z" fill="#816C31"/>
<path d="M171.893 84.8093C172.612 83.503 173.108 83.3786 172.159 82.0102C171.787 82.3478 171.388 82.2501 170.953 82.2856C177.667 79.9663 184.062 76.8829 190.449 73.7727L191.016 75.0612C184.958 78.9 178.067 81.2104 171.893 84.8093Z" fill="#85523C"/>
<path d="M182.422 63.2692C181.455 64.2645 179.442 66.4327 178.67 67.4279C178.75 65.9617 182.777 63.8113 179.654 61.8919C180.054 61.6075 180.107 61.3765 180.843 61.101C181.251 60.9499 181.659 60.9322 181.925 60.5056C183.202 61.5631 182.759 61.8297 182.422 63.2781V63.2692Z" fill="#835E39"/>
<path d="M166.031 69.2053C165.383 70.1205 164.975 70.2805 164.842 71.3824C163.237 70.2272 163.795 69.7295 164.053 68.1212C165.002 67.117 164.904 68.1656 166.031 69.2053Z" fill="#835E39"/>
<path d="M163.663 66.0418L161.49 67.428C159.397 64.3623 157.659 61.0478 155.565 58.0354C151.272 51.8506 146.084 46.2701 142.137 39.8365L142.829 39.3389C143.698 39.3123 153.002 50.9353 154.182 52.4904C157.499 56.8802 160.195 61.7675 163.663 66.0418Z" fill="#839E3C"/>
<path d="M172.745 55.3606C172.815 56.3737 172.727 57.6444 173.144 57.1379L173.933 56.9424C175.148 64.0602 173.215 68.7876 178.474 62.4784C178.732 62.4074 179.485 62.0075 179.663 61.8831C182.785 63.8025 178.749 65.9529 178.678 67.4191C178.226 68.0056 177.889 68.5921 177.49 69.1964C176.966 69.9961 176.488 70.4227 176.106 71.3735C175.76 72.2354 175.219 73.7638 175.122 74.6347C175.006 75.6566 174.918 90.2565 175.122 91.0563C175.689 93.3222 178.368 91.705 179.663 91.5539C182.794 92.869 180.053 94.0864 178.873 95.5082C178.288 96.2191 177.25 97.1433 176.896 97.7831C174.288 102.511 175.538 121.598 183.211 125.97L184.594 127.845L182.421 129.329C173.543 129.116 169.773 129.356 161.294 129.729C161.569 128.662 160.363 129.062 159.91 127.649C160.451 127.001 161.072 128.325 161.684 126.361C170.314 122.407 173.055 102.173 165.631 97.0811C165.454 95.6593 159.449 95.0817 160.3 93.2245C160.584 92.6025 161.737 93.3489 161.489 92.3359C161.817 92.3625 162.154 92.3092 162.473 92.3359C165.702 92.5758 168.931 94.8773 169.578 90.8519C170.367 85.9912 169.294 76.1009 165.037 72.5553C165.055 72.422 165.028 72.2887 165.037 72.1554C165.072 71.7822 164.797 71.7289 164.842 71.3646C164.966 70.2627 165.383 70.1028 166.03 69.1875C166.376 69.5074 167.804 71.1069 168.203 70.9647C168.78 70.7603 169.259 69.5696 169.392 68.9831C169.995 66.2284 169.622 62.5762 169.791 59.6882C169.791 59.626 169.942 59.4927 169.986 58.4975C170.039 57.3334 170.332 56.347 170.385 55.334H172.753L172.745 55.3606Z" fill="#84513B"/>
<path d="M175.317 54.9607C175.388 55.9738 175.299 57.2445 175.716 56.738L176.505 56.5425C177.72 63.6603 175.787 68.3877 181.047 62.0785C181.304 62.0075 182.058 61.6076 182.235 61.4832C185.357 63.4026 181.322 65.553 181.251 67.0192C180.798 67.6057 180.461 68.1922 180.062 68.7965C179.539 69.5962 179.06 70.0228 178.678 70.9736C178.332 71.8355 177.791 73.3639 177.694 74.2348C177.579 75.2567 177.49 89.8566 177.694 90.6564C178.262 92.9223 180.94 91.3051 182.235 91.154C185.366 92.4691 182.625 93.6865 181.446 95.1083C180.86 95.8192 179.823 96.7434 179.468 97.3832C176.86 102.111 178.111 121.198 185.783 125.57L187.167 127.445L184.994 128.929C176.115 128.716 172.345 128.956 163.866 129.329C164.141 128.263 162.935 128.662 162.482 127.25C163.023 126.601 163.644 127.925 164.256 125.961C172.887 122.007 175.627 101.773 168.203 96.6812C168.026 95.2594 162.021 94.6818 162.873 92.8246C163.157 92.2026 164.31 92.949 164.061 91.936C164.389 91.9626 164.726 91.9093 165.046 91.936C168.274 92.1759 171.503 94.4774 172.15 90.452C172.94 85.5913 171.867 75.701 167.609 72.1554C167.627 72.0221 167.6 71.8888 167.609 71.7555C167.645 71.3823 167.37 71.329 167.414 70.9647C167.538 69.8628 167.955 69.7029 168.602 68.7876C168.948 69.1075 170.376 70.707 170.776 70.5648C171.352 70.3604 171.831 69.1697 171.964 68.5832C172.567 65.8285 172.195 62.1763 172.363 59.2883C172.363 59.2261 172.514 59.0928 172.558 58.0975C172.612 56.9335 172.904 55.9471 172.957 54.9341H175.326L175.317 54.9607Z" fill="#84513B"/>
<path d="M174.297 195.211C185.338 195.211 194.289 186.243 194.289 175.181C194.289 164.12 185.338 155.152 174.297 155.152C163.255 155.152 154.305 164.12 154.305 175.181C154.305 186.243 163.255 195.211 174.297 195.211Z" fill="white" stroke="#78C932" stroke-width="5" stroke-miterlimit="10"/>
<path d="M174.297 268.584C188.243 268.584 199.549 257.257 199.549 243.285C199.549 229.313 188.243 217.986 174.297 217.986C160.351 217.986 149.045 229.313 149.045 243.285C149.045 257.257 160.351 268.584 174.297 268.584Z" fill="white" stroke="#78C932" stroke-width="10" stroke-miterlimit="10"/>
<path d="M174.297 354.441C191.682 354.441 205.775 340.322 205.775 322.905C205.775 305.487 191.682 291.368 174.297 291.368C156.912 291.368 142.818 305.487 142.818 322.905C142.818 340.322 156.912 354.441 174.297 354.441Z" fill="white" stroke="#78C932" stroke-width="15" stroke-miterlimit="10"/>
<path d="M174.298 460.258C195.381 460.258 212.473 443.134 212.473 422.012C212.473 400.889 195.381 383.766 174.298 383.766C153.215 383.766 136.123 400.889 136.123 422.012C136.123 443.134 153.215 460.258 174.298 460.258Z" fill="white" stroke="#78C932" stroke-width="20" stroke-miterlimit="10"/>
<path d="M174.297 579.536C199.089 579.536 219.187 559.401 219.187 534.564C219.187 509.726 199.089 489.591 174.297 489.591C149.506 489.591 129.408 509.726 129.408 534.564C129.408 559.401 149.506 579.536 174.297 579.536Z" fill="white" stroke="#78C932" stroke-width="25" stroke-miterlimit="10"/>
<path fill-rule="evenodd" clip-rule="evenodd" d="M163.805 630.205C163.805 624.634 168.736 620.093 174.812 620.093C180.888 620.093 185.828 624.625 185.828 630.205C185.828 635.786 180.896 640.3 174.812 640.3C168.727 640.3 163.805 635.777 163.805 630.205Z" fill="#89D04C"/>
<path fill-rule="evenodd" clip-rule="evenodd" d="M111.846 630.205C111.846 624.634 116.777 620.093 122.862 620.093C128.946 620.093 133.869 624.625 133.869 630.205C133.869 635.786 128.938 640.3 122.862 640.3C116.786 640.3 111.846 635.777 111.846 630.205Z" fill="#89D04C"/>
<path d="M93.7168 667.536C89.0957 667.643 85.2462 664.301 85.1398 660.054C85.0156 655.815 88.6611 652.287 93.291 652.181C97.9032 652.074 101.762 655.415 101.868 659.654C101.992 663.893 98.3467 667.42 93.7168 667.536Z" fill="#89D04C"/>
<path d="M93.6891 647.764C89.0592 647.871 85.2186 644.53 85.0945 640.291C84.9792 636.052 88.6246 632.516 93.2457 632.409C97.8667 632.293 101.716 635.643 101.831 639.882C101.947 644.13 98.3014 647.649 93.6803 647.764H93.6891Z" fill="#89D04C"/>
<path d="M93.6549 627.992C89.0338 628.099 85.1844 624.758 85.0691 620.519C84.9538 616.28 88.5992 612.753 93.2203 612.637C97.8414 612.522 101.691 615.872 101.806 620.119C101.93 624.349 98.2848 627.895 93.6549 627.992Z" fill="#89D04C"/>
<path d="M93.6368 608.203C89.0157 608.327 85.1663 604.977 85.0421 600.739C84.918 596.5 88.5723 592.972 93.1933 592.857C97.8144 592.741 101.664 596.091 101.779 600.33C101.894 604.569 98.2579 608.105 93.628 608.203H93.6368Z" fill="#89D04C"/>
<path d="M74.3009 658.028C69.6798 658.134 65.8304 654.793 65.7062 650.554C65.582 646.316 69.2363 642.779 73.8574 642.663C78.4785 642.557 82.3279 645.907 82.4432 650.146C82.5585 654.384 78.9131 657.912 74.3009 658.028Z" fill="#89D04C"/>
<path d="M74.2564 638.256C69.6354 638.372 65.7948 635.022 65.6706 630.783C65.5553 626.535 69.2007 623.016 73.8307 622.901C78.4518 622.785 82.3012 626.135 82.4165 630.383C82.5318 634.613 78.8864 638.149 74.2653 638.256H74.2564Z" fill="#89D04C"/>
<path d="M74.2389 618.475C69.6089 618.582 65.7684 615.241 65.6531 610.993C65.5377 606.755 69.1832 603.227 73.8043 603.12C78.4253 603.005 82.2748 606.346 82.3901 610.602C82.5142 614.832 78.86 618.378 74.2389 618.475Z" fill="#89D04C"/>
<path d="M54.1308 648.724C49.5097 648.839 45.6692 645.489 45.5539 641.242C45.4297 637.012 49.084 633.475 53.6962 633.369C58.3261 633.253 62.1667 636.612 62.282 640.851C62.4062 645.081 58.7519 648.617 54.1308 648.724Z" fill="#89D04C"/>
<path d="M54.1143 628.934C49.4932 629.05 45.6438 625.709 45.5285 621.47C45.4043 617.231 49.0586 613.704 53.6797 613.579C58.3008 613.473 62.1502 616.823 62.2655 621.061C62.3808 625.3 58.7354 628.828 54.1143 628.934Z" fill="#89D04C"/>
<path d="M34.378 639.225C29.7569 639.331 25.9074 635.981 25.7921 631.743C25.668 627.504 29.3134 623.976 33.9433 623.861C38.5644 623.745 42.405 627.095 42.5292 631.343C42.6445 635.59 38.999 639.109 34.378 639.225Z" fill="#89D04C"/>
<defs>
<linearGradient id="paint0_linear_1577_10086" x1="198.547" y1="62.7096" x2="174.245" y2="77.9087" gradientUnits="userSpaceOnUse">
<stop stop-color="#4C7035"/>
<stop offset="1" stop-color="#396441"/>
</linearGradient>
</defs>
</svg>
