<svg width="40" height="40" viewBox="0 0 40 40" fill="none" xmlns="http://www.w3.org/2000/svg">
<path d="M20 40C8.94118 40 0 31.0588 0 20C0 8.94118 8.94118 0 20 0C31.0588 0 40 8.94118 40 20C40 31.0588 31.0588 40 20 40ZM20 2.35294C10.2353 2.35294 2.35294 10.2353 2.35294 20C2.35294 29.7647 10.2353 37.6471 20 37.6471C29.7647 37.6471 37.6471 29.7647 37.6471 20C37.6471 10.2353 29.7647 2.35294 20 2.35294Z" fill="white"/>
<path d="M11.6872 16.2824C11.5918 16.1922 11.4795 16.1217 11.3567 16.0749C11.234 16.028 11.1033 16.0059 10.972 16.0096C10.8407 16.0133 10.7114 16.0428 10.5915 16.0965C10.4716 16.1502 10.3635 16.227 10.2732 16.3224C10.183 16.4179 10.1125 16.5302 10.0657 16.6529C10.0189 16.7757 9.99669 16.9064 10.0004 17.0377C10.0041 17.169 10.0337 17.2983 10.0873 17.4182C10.141 17.5381 10.2178 17.6462 10.3132 17.7364L19.3132 26.2364C19.4989 26.412 19.7447 26.5098 20.0002 26.5098C20.2558 26.5098 20.5016 26.412 20.6872 26.2364L29.6882 17.7364C29.7858 17.6468 29.8646 17.5387 29.92 17.4184C29.9754 17.298 30.0064 17.1679 30.0111 17.0355C30.0158 16.9031 29.9942 16.7711 29.9474 16.6471C29.9007 16.5232 29.8298 16.4097 29.7388 16.3134C29.6479 16.2171 29.5387 16.1398 29.4176 16.0861C29.2965 16.0323 29.166 16.0031 29.0335 16.0002C28.9011 15.9973 28.7694 16.0208 28.6461 16.0692C28.5228 16.1177 28.4103 16.1902 28.3153 16.2824L20.0002 24.1344L11.6872 16.2824Z" fill="white"/>
</svg>
