<svg width="1452" height="606" viewBox="0 0 1452 606" fill="none" xmlns="http://www.w3.org/2000/svg">
<path d="M1213.32 292.817C1217.65 355.834 1273.94 360.38 1313.09 339.025C1274.44 355.144 1229.6 340.354 1216.03 290.999C1212.29 291.588 1213.48 292.777 1213.32 292.817Z" fill="#366542"/>
<path d="M1331 168.373C1309.41 201.18 1252.61 230.45 1216.59 237.825C1187.38 243.811 1203.62 234.487 1216.46 210.424C1249.02 207.846 1276.32 188.339 1300.25 166.344C1304.64 166.095 1312.61 165.415 1316.48 165.655C1321.18 165.935 1326.37 167.654 1331 168.373Z" fill="#366542"/>
<path d="M1339.65 304.928C1306.97 325.055 1243.76 326.314 1208.17 316.97C1179.28 309.385 1197.73 308.166 1219 292.067C1249.55 304.219 1282.1 298.693 1312.58 289.409C1316.65 291.138 1324.15 294.066 1327.57 296.005C1331.72 298.343 1335.74 302.22 1339.65 304.938V304.928Z" fill="#366542"/>
<path d="M1126.1 202.59C1114.83 164.446 1127.83 99.1513 1144.43 64.6252C1157.9 36.6147 1154.89 55.8713 1165 81.3437C1146.93 110.044 1144.76 144.77 1146.5 178.217C1143.99 182.024 1139.61 189.079 1137.05 192.167C1133.95 195.904 1129.49 199.182 1126.1 202.6V202.59Z" fill="#366542"/>
<path d="M1130.79 261.369C1096.36 244.78 1058.96 190.997 1045.67 154.903C1034.89 125.623 1046.48 140.832 1071.2 149.886C1079.4 183.243 1102.45 208.126 1127.2 229.071C1128.22 233.578 1130.26 241.732 1130.74 245.8C1131.32 250.726 1130.65 256.422 1130.8 261.369H1130.79Z" fill="#366542"/>
<path d="M1132.21 285.083C1102.96 310.435 1040.76 322.267 1004.21 318.999C974.548 316.351 992.583 312.054 1011.15 292.597C1043.14 299.483 1074.44 288.56 1103.15 274.29C1107.43 275.309 1115.28 276.958 1118.94 278.287C1123.38 279.906 1127.94 283.054 1132.21 285.083Z" fill="#366542"/>
<path d="M999.257 224.874C1012.12 262.448 1059.87 306.168 1092.88 323.076C1119.65 336.796 1106.23 323.376 1099.69 296.634C1068.87 285.302 1047.24 259.03 1029.48 231.28C1025.3 229.851 1017.76 227.033 1013.96 226.203C1009.36 225.194 1003.91 225.444 999.257 224.884V224.874Z" fill="#366542"/>
<path d="M1212.76 303.919C1209.23 304.579 1208.8 305.218 1208.59 305.258C1206.69 309.335 1204.78 313.413 1202.88 317.49C1204.13 318.109 1219.01 330.541 1225.55 334.188C1251.06 348.438 1281 348.099 1308.68 343.292C1304.02 342.792 1283.11 335.987 1278.23 333.768C1261.91 326.344 1247.59 311.564 1245.76 310.794C1242.06 309.245 1219.56 307.956 1212.76 303.909V303.919Z" fill="#859E3C"/>
<path d="M1257.11 306.178C1246.98 307.627 1249.89 313.303 1236.1 299.932C1235.4 299.892 1235.26 299.382 1234.59 299.382C1230.93 299.382 1227.5 300.182 1223.94 300.851C1220.31 301.531 1216.91 303.14 1212.76 303.919C1219.56 307.956 1242.07 309.245 1245.76 310.804C1247.58 311.574 1261.91 326.354 1278.23 333.778C1283.1 335.997 1304.02 342.802 1308.68 343.302C1310.18 343.462 1313.71 344.681 1313.6 342.243C1307.13 335.557 1300.79 328.172 1293.45 322.526C1285.54 316.441 1266.01 304.918 1257.11 306.198V306.178Z" fill="#58823A"/>
<path d="M1236.1 299.932C1249.89 313.313 1246.97 307.637 1257.11 306.178C1252.17 302.85 1242.19 300.302 1236.1 299.932Z" fill="#90AF3D"/>
<path d="M1059.09 208.316C1080.37 242.962 1123.07 277.967 1164.4 268.054C1164.68 268.434 1169.47 272.961 1170.85 274.859C1170.8 275.359 1170.9 275.879 1170.85 276.368C1170.19 282.294 1171.38 286.002 1166.55 294.136C1153.59 315.961 1125.65 305.648 1128.23 279.386C1127.52 278.747 1118.04 285.912 1110.67 286.192C1110.2 286.212 1109.72 286.202 1109.25 286.192C1097.47 285.932 1071.94 274.51 1061.97 272.581C1060.9 272.371 1060.17 271.972 1059.1 271.822C1067.21 269.43 1075.33 267.035 1083.46 264.637C1085.48 261.499 1052.77 256.542 1046.92 203.009C1051.41 204.318 1055.04 205.997 1059.1 208.306L1059.09 208.316Z" fill="#366542"/>
<path d="M1072.67 220.007C1078.52 273.54 1111.23 278.497 1109.21 281.635C1101.09 284.026 1092.97 286.421 1084.85 288.82C1077.35 287.82 1067.72 290.668 1061.21 287.311C1050.89 281.984 1026.41 239.004 1027.54 224.165C1028.79 219.688 1054.21 214.621 1072.67 220.007H1072.67Z" fill="#859E3C"/>
<path d="M571.677 521.319C568.553 521.619 565.429 521.918 562.305 522.218C563.043 518.531 563.782 514.853 564.596 510.766C563.867 510.256 562.702 509.697 561.841 508.808C560.336 507.259 558.253 505.67 557.912 503.791C557.723 502.742 560.355 500.653 562.059 499.794C565.41 498.115 569.007 496.966 572.501 495.597C575.615 489.661 580.415 485.194 586.086 482.855C594.408 479.418 603.136 476.57 611.941 475.061C617.895 474.032 613.834 479.538 614.383 482.656C619.221 482.306 624.115 481.856 629.019 481.616C639.556 481.107 649.174 483.655 657.193 491.36C657.865 492.009 658.831 492.309 659.664 492.769C663.413 496.016 667.19 499.234 670.901 502.532C674.016 505.3 677.405 507.848 680.047 511.066C683.218 514.933 682.461 517.182 677.831 518.571C674.395 519.61 670.759 519.87 667.257 520.659C665.912 520.959 664.672 521.789 663.384 522.388C661.093 522.388 658.784 522.228 656.502 522.418C647.082 523.218 637.691 523.647 628.527 520.469C624.162 516.152 619.561 515.503 614.326 518.911C612.414 520.16 609.99 520.529 607.803 521.299C607.093 521.419 606.383 521.549 605.673 521.669C605.759 521.269 605.711 520.709 605.948 520.499C611.732 515.463 617.611 510.556 623.301 505.41C624.73 504.121 625.564 502.112 627.163 499.704C617.28 495.996 607.822 494.108 598.459 495.257C586.077 496.776 578.238 506.319 571.166 516.202C570.456 517.202 571.478 519.58 571.696 521.319H571.677Z" fill="#CB8E33"/>
<path d="M882.112 505.57C884.356 509.907 886.685 514.204 888.824 518.611C890.367 521.788 888.881 523.537 885.88 523.447C875.949 523.127 865.791 522.348 857.517 516.192C853.143 512.944 850.492 507.109 847.065 502.442C844.907 498.355 842.739 494.267 840.58 490.18C840.58 488.681 840.561 487.192 840.552 485.693C856.324 485.963 870.894 489.271 880.986 503.721C881.364 504.34 881.733 504.96 882.112 505.57Z" fill="#FBB044"/>
<path d="M572.511 495.607C569.017 496.976 565.42 498.115 562.069 499.804C560.365 500.663 557.733 502.752 557.922 503.801C558.263 505.68 560.346 507.269 561.851 508.818C562.712 509.707 563.877 510.267 564.606 510.776C563.792 514.863 563.053 518.551 562.315 522.228C553.605 522.008 544.858 522.128 536.176 521.449C529.833 520.949 529.218 518.701 533.156 513.444C533.819 512.555 534.33 511.546 534.917 510.596C539.414 506.689 543.826 502.662 548.446 498.904C552.933 495.257 557.969 494.018 563.688 495.337C566.518 495.986 569.567 495.557 572.52 495.617L572.511 495.607Z" fill="#FBB044"/>
<path d="M663.385 522.398C664.672 521.808 665.912 520.979 667.257 520.669C670.769 519.87 674.404 519.61 677.831 518.58C682.461 517.181 683.218 514.933 680.047 511.076C677.405 507.858 674.016 505.31 670.901 502.542C667.19 499.244 663.413 496.026 659.664 492.778C664.994 494.767 670.324 496.756 675.654 498.744C676.572 500.643 677.5 502.552 678.418 504.45C681.116 508.387 683.796 512.335 686.513 516.262C688.359 518.92 687.885 520.999 685.206 522.598C679.393 522.967 673.581 523.447 667.758 523.647C666.31 523.697 664.833 522.848 663.375 522.408L663.385 522.398Z" fill="#FAB044"/>
<path d="M319.305 265.826C317.326 267.334 313.681 271.012 311.627 272.971C302.633 281.575 294.918 291.828 288.594 302.76L287.24 303.24C286.53 293.896 287.429 248.508 286.785 245.57C286.009 241.982 282.592 241.642 281.815 244.141C281.001 246.779 282.203 291.338 281.815 299.672C281.683 302.56 280.282 316.97 279.562 318.259C279.515 318.339 279.657 318.789 279.108 318.739C279.051 318.299 278.738 318.249 278.653 317.79C277.934 313.812 275.605 307.427 273.238 304.449C273.267 298.473 264.85 286.531 260.6 281.804C256.652 277.427 251.767 273.85 247.279 270.123C245.822 270.252 246.835 272.481 247.052 273.46C246.475 292.117 248.718 311.894 259.246 327.563C261.944 331.58 270.512 340.374 270.985 341.143C273.532 345.31 275.69 354.674 275.046 359.73C274.535 360.38 274.403 361.789 273.238 362.109C270.019 358.691 266.64 355.373 263.752 351.626C255.838 341.343 249.665 329.561 242.082 318.979C239.384 315.221 218.102 287.221 216.114 287.281L214.533 288.47C223.546 303.979 235.417 317.42 245.235 332.319C250.025 339.594 253.992 347.569 258.782 354.964C260.211 357.162 261.357 360.03 262.843 362.109C236.79 368.354 209.885 346.29 196.47 324.455C183.538 303.409 179.107 265.616 188.792 252.725C198.799 239.404 237.254 260.329 247.27 269.643C244.894 247.638 272.121 207.086 284.75 208.155C295.666 209.085 321.757 248.887 319.295 265.826H319.305Z" fill="#97BF5B"/>
<path d="M196.479 364.487C197.151 364.577 197.605 364.837 198.287 364.967C205.548 373.481 217.818 376.439 228.089 373.551C228.392 373.551 228.695 373.561 228.989 373.551C243.975 380.596 257.797 397.964 261.044 415.022C260.296 414.962 259.529 415.082 258.791 415.022C255.781 414.792 252.798 414.842 249.759 414.542C246.408 414.223 242.716 414.463 239.374 414.063C225.817 412.464 212.336 408.687 198.959 405.958C194.036 407.687 207.016 411.854 207.991 412.154C217.827 415.222 228.44 415.812 238.465 417.87C242.385 418.68 246.304 419.359 250.204 420.249C252.59 420.798 255.052 420.998 257.428 421.678C241.41 450.837 206.211 455.054 179.315 440.744C160.532 430.751 139.118 397.015 141.39 379.497C143.151 365.896 171.874 364.377 181.578 363.528C185.677 365.646 191.755 363.858 196.479 364.477V364.487Z" fill="#97BF5B"/>
<path d="M375.747 318.249C361.897 345.84 325.307 374.85 295.372 359.241C296.281 357.772 297.048 356.353 298.08 354.954C299.831 352.576 304.451 347.339 306.657 344.941C318.036 332.6 331.801 322.746 342.783 309.905L340.748 307.287C328.601 318.649 316.408 329.941 303.04 339.695C301.355 340.364 301.251 340.924 300.333 341.603C299.945 341.893 298.212 342.862 297.625 343.032C312.46 324.315 329.217 286.162 327.428 261.049C342.243 251.766 360.43 243.441 377.773 249.137C392.476 262.468 383.794 302.201 375.738 318.249H375.747Z" fill="#859E3C"/>
<path d="M196.479 324.445C209.894 346.28 236.809 368.345 262.853 362.099C263.023 362.339 266.053 365.187 266.914 366.386C266.886 366.696 266.952 367.026 266.914 367.336C266.498 371.073 267.255 373.411 264.207 378.538C256.036 392.298 238.428 385.793 240.047 369.244C239.602 368.845 233.628 373.361 228.98 373.531C228.677 373.541 228.374 373.531 228.08 373.531C220.658 373.371 204.564 366.166 198.278 364.947C197.606 364.817 197.142 364.558 196.47 364.468L211.825 359.941C213.103 357.962 192.475 354.834 188.792 321.098C191.623 321.927 193.904 322.976 196.47 324.435L196.479 324.445Z" fill="#366542"/>
<path d="M188.801 321.118C192.484 354.864 213.103 357.982 211.835 359.961L196.479 364.488C191.755 363.858 185.677 365.657 181.578 363.538C175.074 360.181 159.643 333.089 160.353 323.736C161.139 320.918 177.166 317.72 188.801 321.118Z" fill="#859E3C"/>
<path d="M327.428 261.059C329.217 286.172 312.46 324.325 297.626 343.042C285.584 358.232 290.024 346.85 287.24 329.702C302.189 314.782 308.2 293.776 311.627 272.981C313.682 271.022 317.317 267.345 319.305 265.836C321.71 264.007 324.891 262.658 327.437 261.069L327.428 261.059Z" fill="#366542"/>
<path d="M380.263 318.25C380.537 329.512 378.417 340.834 371.231 349.468C371.496 350.477 383.434 351.097 390.194 355.424C386.587 359.011 384.021 361.32 378.909 362.569C373.134 363.988 359.549 364.148 347.071 367.336C341.912 368.655 323.432 379.317 319.465 381.955C316.19 378.138 322.58 388.171 319.304 384.354C319.191 391.269 321.946 387.642 316.275 389.38C315.196 389.71 310.093 386.902 309.364 387.821C298.013 385.713 290.884 376.759 292.21 364.468C293.071 362.169 294.179 361.15 295.372 359.221C325.307 374.83 361.897 345.821 375.747 318.23C377.252 318.22 378.758 318.25 380.263 318.23V318.25Z" fill="url(#paint0_linear_1490_9741)"/>
<path d="M390.194 355.434C383.434 351.107 371.497 350.487 371.231 349.478C378.417 340.844 380.538 329.522 380.263 318.26C389.55 318.14 399.727 318.549 407.803 323.746C405.389 333.389 396.897 348.769 390.194 355.444V355.434Z" fill="#859E3C"/>
<path d="M259.246 423.117C248.473 461.8 205.956 458.373 179.325 440.755C206.221 455.065 241.42 450.848 257.438 421.688C260.155 422.467 259.132 423.077 259.246 423.117Z" fill="#366542"/>
<path d="M378.9 362.579C390.904 363.138 411.893 364.508 421.568 372.592C429.037 378.828 426.387 387.432 423.603 395.706C417.336 414.303 399.396 434.089 382.961 443.133C376.723 444.062 369.925 447.91 363.317 449.329C347.962 452.636 334.026 451.667 319.295 445.991C310.169 439.985 304.328 431.801 301.687 420.729C305.18 418.49 306.941 418.1 310.718 416.911C322.088 413.344 334.13 412.694 345.491 409.047C345.538 407.248 314.997 411.375 312.526 411.665C308.617 412.135 304.688 412.594 300.787 413.094C300.219 404.14 303.968 394.747 309.364 387.831C310.084 386.912 310.832 385.813 311.618 384.973C312.167 384.394 318.008 379.027 318.387 378.778C322.353 376.139 341.893 368.655 347.062 367.336C359.53 364.148 373.116 363.988 378.9 362.569V362.579Z" fill="#859E3C"/>
<path d="M382.971 443.133C363.061 454.085 339.384 459.212 319.305 445.991C334.035 451.667 347.98 452.636 363.326 449.329C369.934 447.91 376.732 444.062 382.971 443.133Z" fill="#387755"/>
<path d="M311.627 272.971C308.2 293.766 302.198 314.772 287.24 329.691L285.431 330.171C284.021 318.289 289.625 295.335 281.815 299.662C282.203 291.328 281.001 246.769 281.815 244.131C282.591 241.632 285.999 241.972 286.785 245.56C287.419 248.498 286.53 293.886 287.24 303.23L288.593 302.75C294.908 291.818 302.633 281.565 311.627 272.961V272.971Z" fill="#859E3C"/>
<path d="M276.855 358.771C277.044 357.872 275.397 359.281 275.047 359.721C275.69 354.664 273.523 345.3 270.985 341.133L277.754 336.367C277.366 343.322 278.228 352.136 276.855 358.771Z" fill="#366542"/>
<path d="M278.208 333.509C278.104 335.897 277.763 336.227 277.754 336.367L270.985 341.134C270.512 340.364 261.944 331.56 259.246 327.553C248.718 311.884 246.475 292.108 247.052 273.451C247.724 276.479 253.471 289.719 255.184 292.757C260.912 302.91 270.834 311.165 271.439 312.304C272.661 314.612 275.264 329.362 278.208 333.509Z" fill="#859E3C"/>
<path d="M273.248 304.429C273.219 311.234 269.622 309.775 278.663 317.77C278.748 318.229 279.061 318.279 279.117 318.719C279.42 321.127 279.221 323.466 279.117 325.864C279.013 328.312 278.332 330.681 278.218 333.489C275.274 329.332 272.67 314.592 271.449 312.284C270.843 311.144 260.922 302.9 255.194 292.737C253.481 289.709 247.744 276.468 247.062 273.43C246.844 272.451 245.831 270.223 247.289 270.093C251.777 273.81 256.662 277.388 260.609 281.775C264.86 286.501 273.276 298.443 273.248 304.419V304.429Z" fill="#58823A"/>
<path d="M278.663 317.78C269.612 309.775 273.219 311.234 273.248 304.439C275.624 307.427 277.943 313.802 278.663 317.78Z" fill="#90AF3D"/>
<path d="M228.089 373.541C217.818 376.439 205.548 373.481 198.287 364.957C204.573 366.176 220.667 373.371 228.089 373.541Z" fill="#859E3C"/>
<path d="M284.532 325.884C284.693 328.323 284.485 331.39 285.432 330.171L287.24 329.692C290.023 346.85 285.583 358.222 297.625 343.032C298.212 342.862 299.945 341.893 300.333 341.603C307.471 346.23 298.25 351.407 298.08 354.944C297.038 356.353 296.281 357.762 295.372 359.231C294.179 361.16 293.081 362.179 292.21 364.478C291.424 366.546 290.175 370.244 289.957 372.342C289.692 374.8 289.503 409.986 289.957 411.905C291.264 417.361 297.379 413.474 300.342 413.094C307.5 416.262 301.232 419.2 298.534 422.627C297.19 424.336 294.823 426.564 294.018 428.113C288.064 439.506 290.913 485.494 308.465 496.036L311.627 500.563L306.657 504.141C286.36 503.641 277.745 504.211 258.347 505.09C258.971 502.522 256.216 503.481 255.185 500.084C256.425 498.525 257.854 501.712 259.246 496.986C278.985 487.452 285.252 438.706 268.278 426.445C267.87 423.027 254.134 421.628 256.084 417.151C256.728 415.662 259.369 417.451 258.792 415.002C259.539 415.062 260.306 414.943 261.045 415.002C268.42 415.572 275.813 421.128 277.3 411.425C279.098 399.713 276.646 375.89 266.914 367.336C266.952 367.026 266.886 366.696 266.914 366.386C266.99 365.487 266.365 365.357 266.46 364.478C266.744 361.819 267.7 361.44 269.167 359.231C269.953 359.991 273.229 363.858 274.138 363.518C275.463 363.019 276.552 360.16 276.845 358.751C278.218 352.126 277.366 343.312 277.745 336.347C277.745 336.207 278.095 335.877 278.199 333.489C278.322 330.681 278.994 328.313 279.098 325.864H284.514L284.532 325.884Z" fill="#85513B"/>
<path d="M312.526 411.675C313.35 414.643 312.299 414.873 310.718 416.921C306.941 418.11 305.18 418.5 301.686 420.739C300.664 421.388 299.651 422.297 298.524 422.647C301.223 419.22 307.49 416.282 300.333 413.114C300.484 413.094 300.636 413.134 300.787 413.114C304.687 412.614 308.616 412.154 312.526 411.685V411.675Z" fill="#845E39"/>
<path d="M258.792 415.012C259.369 417.46 256.728 415.672 256.084 417.161C254.134 421.638 267.871 423.037 268.278 426.454C261.963 421.887 259.71 423.276 259.246 423.117C259.133 423.077 260.164 422.467 257.438 421.688C255.052 421.008 252.6 420.808 250.215 420.259C248.122 417.95 248.293 417.161 249.76 414.542C252.799 414.832 255.781 414.792 258.792 415.022V415.012Z" fill="#845E39"/>
<path d="M378.455 503.191C402.871 507.398 402.985 511.695 378.228 515.103C353.301 518.541 273.106 518.071 244.118 517.481C227.835 517.152 193.091 516.842 178.644 513.194C160.183 508.527 181.332 504.42 187.903 503.181C196.063 501.652 204.697 500.873 212.962 500.323C224.36 499.554 250.745 501.093 259.246 496.985C257.845 501.712 256.425 498.524 255.185 500.083C256.207 503.481 258.972 502.522 258.347 505.09C244.885 505.709 231.413 506.329 217.932 506.519C216.143 508.108 216.465 508.787 218.386 509.857H361.074C362.399 508.677 361.775 507.448 360.62 506.519C342.623 506.349 324.635 504.58 306.657 504.141L311.628 500.563L308.465 496.036C317.194 501.273 345.879 499.814 357.912 500.803C364.652 501.352 371.791 502.042 378.455 503.181V503.191Z" fill="#7A493F"/>
<path d="M306.657 504.141C324.635 504.59 342.622 506.349 360.619 506.519C361.765 507.448 362.399 508.678 361.073 509.857H218.386C216.464 508.788 216.152 508.108 217.932 506.519C231.413 506.329 244.875 505.71 258.346 505.09C277.744 504.201 286.369 503.631 306.657 504.141Z" fill="#5B3B35"/>
<path d="M263.761 351.616L258.791 354.954C254.001 347.569 250.034 339.585 245.244 332.31C235.426 317.41 223.555 303.97 214.542 288.46L216.123 287.271C218.111 287.211 239.393 315.202 242.091 318.969C249.674 329.552 255.847 341.334 263.761 351.616Z" fill="#859E3C"/>
<path d="M285.432 330.171C284.476 331.38 284.694 328.312 284.533 325.884C284.305 322.546 285.697 320.098 282.497 317.3C279.998 316.76 281.636 319.718 279.562 318.249C280.291 316.96 281.683 302.55 281.816 299.662C289.617 295.325 284.021 318.289 285.432 330.171Z" fill="#826C31"/>
<path d="M263.762 351.616C266.649 355.364 270.019 358.681 273.248 362.099C273.55 362.419 273.929 363.098 274.147 363.528C273.238 363.868 269.962 360 269.177 359.241C266.611 356.733 266.829 354.194 264.661 356.623C264.083 360.51 262.786 361.699 266.469 364.487C266.374 365.357 266.999 365.497 266.924 366.396C266.053 365.197 263.033 362.349 262.862 362.109C261.366 360.03 260.23 357.162 258.801 354.964L263.771 351.626L263.762 351.616Z" fill="#826C31"/>
<path d="M284.532 325.884H279.117C279.221 323.476 279.42 321.148 279.117 318.739C279.666 318.789 279.524 318.35 279.572 318.26C281.645 319.719 280.007 316.761 282.506 317.31C285.706 320.108 284.315 322.557 284.542 325.894L284.532 325.884Z" fill="#845E39"/>
<path d="M310.718 416.921C312.289 414.873 313.34 414.643 312.526 411.675C314.997 411.375 345.538 407.258 345.49 409.057C334.13 412.704 322.088 413.354 310.718 416.921Z" fill="#826C31"/>
<path d="M239.374 414.053L238.475 417.87C228.44 415.802 217.827 415.212 208.001 412.154C207.026 411.854 194.046 407.687 198.969 405.958C212.346 408.687 225.827 412.464 239.384 414.063L239.374 414.053Z" fill="#859E3C"/>
<path d="M249.759 414.533C248.292 417.151 248.122 417.941 250.214 420.249C246.304 419.35 242.394 418.67 238.475 417.871L239.374 414.053C242.716 414.443 246.408 414.203 249.759 414.533Z" fill="#826C31"/>
<path d="M306.657 344.941C307.433 341.443 308.446 340.824 305.53 338.266C304.915 339.285 303.978 339.325 303.05 339.695C316.417 329.941 328.611 318.649 340.757 307.287L342.793 309.905C331.811 322.746 318.046 332.6 306.666 344.941H306.657Z" fill="#826C31"/>
<path d="M306.657 344.941C304.451 347.329 299.831 352.575 298.08 354.954C298.26 351.416 307.481 346.23 300.333 341.613C301.252 340.934 301.356 340.374 303.041 339.704C303.969 339.335 304.906 339.295 305.521 338.275C308.437 340.834 307.424 341.453 306.648 344.951L306.657 344.941Z" fill="#845E39"/>
<path d="M269.177 359.241C267.709 361.44 266.753 361.829 266.469 364.488C262.796 361.699 264.083 360.51 264.661 356.623C266.829 354.205 266.611 356.743 269.177 359.241Z" fill="#845E39"/>
<path d="M1242.22 115.88C1239.54 117.759 1234.63 122.315 1231.86 124.754C1219.73 135.426 1209.31 148.147 1200.79 161.718L1198.96 162.308C1198.01 150.716 1199.22 94.3947 1198.36 90.7472C1197.31 86.3003 1195.72 87.5395 1194.68 90.6473C1193.58 93.925 1194.63 147.648 1191.66 157.881C1190.66 161.308 1189.59 179.346 1188.61 180.945C1188.54 181.045 1188.74 181.594 1188 181.534C1187.93 180.985 1187.51 180.925 1187.4 180.355C1186.42 175.419 1183.29 167.504 1180.09 163.797C1180.12 156.382 1168.76 141.562 1163.03 135.706C1157.71 130.27 1151.11 125.833 1145.06 121.216C1143.1 121.376 1144.46 124.144 1144.76 125.353C1143.97 148.497 1147.01 173.04 1161.2 192.487C1164.84 197.463 1176.4 208.386 1177.04 209.345C1180.48 214.521 1185.31 228.782 1185.16 235.127C1184.94 244.261 1183.87 245.8 1182.31 246.2C1177.97 241.952 1169.35 229.781 1165.46 225.124C1154.78 212.363 1144.73 196.964 1133.58 183.323C1117.99 164.226 1105.71 142.431 1103.03 142.511L1100.9 143.99C1113.07 163.237 1129.08 179.915 1142.32 198.403C1148.79 207.426 1154.14 217.33 1160.59 226.493C1162.53 229.221 1164.06 232.789 1166.08 235.367C1130.93 243.122 1094.63 215.741 1076.53 188.639C1059.09 162.528 1053.11 115.63 1066.17 99.6311C1079.67 83.1025 1131.55 109.075 1145.06 120.627C1141.85 93.3255 1178.59 42.9903 1195.62 44.3294C1210.34 45.4886 1245.54 94.8744 1242.22 115.89V115.88Z" fill="#97BF5B"/>
<path d="M1163.62 230.101C1164.4 230.39 1164.88 230.82 1165.65 231.16C1172.17 243.231 1185.99 250.077 1198.86 249.447C1199.21 249.537 1199.57 249.627 1199.93 249.697C1215.96 262.128 1228.09 286.481 1227.77 307.567C1226.9 307.297 1225.96 307.227 1225.09 306.947C1221.58 305.858 1218.04 305.099 1214.51 303.919C1210.62 302.62 1206.18 301.901 1202.33 300.522C1186.66 294.936 1171.6 286.781 1156.43 279.906C1150.17 280.616 1164.53 289.08 1165.61 289.709C1176.52 296.015 1188.95 299.612 1200.33 304.799C1204.78 306.827 1209.25 308.696 1213.66 310.825C1216.36 312.124 1219.21 313.033 1221.87 314.492C1195.76 344.681 1153.01 340.074 1124.65 315.791C1104.84 298.833 1087.73 253.015 1094.69 232.879C1100.1 217.249 1134.51 223.285 1146.21 224.914C1150.56 228.542 1158.19 228.072 1163.63 230.111L1163.62 230.101Z" fill="#97BF5B"/>
<path d="M1060.63 259.15C1061.45 259.29 1061.99 259.63 1062.8 259.82C1071.2 270.522 1085.92 274.75 1098.5 271.792C1098.86 271.812 1099.23 271.842 1099.6 271.842C1117.42 281.165 1133.35 302.95 1136.47 323.776C1135.57 323.666 1134.64 323.766 1133.74 323.656C1130.1 323.216 1126.49 323.116 1122.82 322.596C1118.78 322.027 1114.29 322.127 1110.26 321.467C1093.91 318.809 1077.76 313.523 1061.67 309.515C1055.62 311.354 1071.15 317.08 1072.32 317.5C1084.09 321.727 1096.93 323.006 1108.98 326.044C1113.69 327.233 1118.4 328.262 1123.1 329.552C1125.96 330.341 1128.93 330.711 1131.78 331.67C1110.99 366.156 1068.14 369.404 1036.23 350.637C1013.95 337.536 989.601 295.525 993.179 274.42C995.953 258.041 1030.84 257.721 1042.63 257.202C1047.5 259.99 1054.94 258.131 1060.63 259.14V259.15Z" fill="#97BF5B"/>
<path d="M1290.81 197.763C1275.17 228.911 1233.86 261.679 1200.06 244.051C1201.09 242.392 1201.95 240.793 1203.12 239.204C1205.1 236.516 1210.32 230.6 1212.81 227.902C1225.65 213.962 1241.2 202.84 1253.59 188.35L1251.3 185.392C1237.58 198.223 1223.82 210.974 1208.72 221.986C1206.82 222.746 1206.71 223.375 1205.67 224.135C1205.22 224.455 1203.27 225.554 1202.61 225.754C1219.37 204.618 1238.28 161.538 1236.26 133.188C1252.98 122.705 1273.53 113.302 1293.1 119.737C1309.7 134.787 1299.91 179.646 1290.81 197.773V197.763Z" fill="#859E3C"/>
<path d="M1087.22 180.105C1102.94 217.919 1139.74 259.72 1182.05 256.972C1182.26 257.401 1186.31 262.678 1187.37 264.786C1187.25 265.266 1187.26 265.806 1187.14 266.275C1185.59 272.011 1186.19 275.879 1180.18 283.084C1164.06 302.42 1138.06 287.491 1144.6 262.018C1144 261.269 1133.56 266.725 1126.25 265.756C1125.77 265.696 1125.3 265.606 1124.84 265.516C1113.25 263.257 1089.8 247.648 1080.25 244.041C1079.23 243.651 1078.57 243.131 1077.53 242.812L1102.67 239.864C1105.14 237.116 1073.61 226.653 1076.02 172.83C1080.25 174.889 1083.56 177.157 1087.22 180.125V180.105Z" fill="#366542"/>
<path d="M1076.02 172.81C1073.61 226.643 1105.15 237.096 1102.67 239.844L1077.53 242.792C1070.28 240.533 1060.34 241.702 1054.43 237.275C1045.06 230.26 1027.46 183.683 1030.84 169.233C1032.75 165.026 1058.62 164.346 1076.02 172.8V172.81Z" fill="#859E3C"/>
<path d="M1265.4 80.0845C1268.24 119.927 1241.66 180.455 1218.13 210.154C1199.03 234.248 1206.06 216.2 1201.65 188.979C1225.38 165.305 1234.9 131.988 1240.34 98.9914C1243.59 95.8835 1249.37 90.0476 1252.51 87.6492C1256.32 84.7412 1261.37 82.6127 1265.4 80.0845Z" fill="#366542"/>
<path d="M1294.6 190.828C1294.93 204.328 1292.39 217.899 1283.77 228.252C1284.09 229.461 1298.41 230.2 1306.51 235.397C1302.18 239.704 1299.11 242.462 1292.97 243.971C1286.04 245.67 1269.76 245.86 1254.81 249.687C1248.62 251.266 1225.19 260.24 1220.44 263.397L1212.59 254.254L1212.31 270.822C1211.37 271.832 1210.47 273.141 1209.61 274.25C1195.99 271.722 1187.44 260.989 1189.03 246.249C1190.07 243.501 1191.39 242.272 1192.82 239.964C1228.71 258.681 1272.58 223.895 1289.18 190.818C1290.98 190.798 1292.78 190.838 1294.59 190.818L1294.6 190.828Z" fill="url(#paint1_linear_1490_9741)"/>
<path d="M1306.51 235.407C1298.41 230.211 1284.09 229.471 1283.77 228.262C1292.39 217.909 1294.92 204.339 1294.6 190.838C1305.74 190.698 1317.93 191.178 1327.62 197.413C1324.72 208.975 1314.55 227.413 1306.51 235.417V235.407Z" fill="#859E3C"/>
<path d="M1142.32 323.446C1118.72 382.355 1052.29 368.834 1013.33 335.977C1053.27 363.668 1109.47 363.748 1139.72 320.848C1143.88 322.596 1142.15 323.366 1142.32 323.446Z" fill="#366542"/>
<path d="M1291.67 209.535C1306.24 210.214 1331.66 211.863 1343.4 221.666C1352.45 229.221 1349.24 239.654 1345.86 249.687C1338.27 272.231 1316.52 296.215 1296.61 307.177C1289.04 308.306 1280.81 312.963 1272.8 314.692C1254.19 318.699 1237.29 317.53 1219.43 310.645C1208.36 303.36 1201.28 293.437 1198.08 280.026C1202.32 277.318 1204.45 276.848 1209.03 275.399C1222.8 271.072 1237.41 270.283 1251.17 265.866C1251.23 263.687 1215.7 279.886 1212.71 280.246C1207.98 280.815 1201.62 281.895 1196.89 282.504C1196.21 271.652 1200.84 248.538 1207.38 240.154C1208.25 239.034 1209.16 237.705 1210.12 236.686C1210.78 235.977 1217.87 229.481 1218.32 229.171C1223.13 225.974 1246.82 216.91 1253.08 215.301C1268.2 211.434 1284.66 211.244 1291.67 209.525L1291.67 209.535Z" fill="#859E3C"/>
<path d="M1296.6 307.177C1272.47 320.458 1243.77 326.664 1219.42 310.645C1237.28 317.52 1254.18 318.699 1272.79 314.692C1280.8 312.963 1289.03 308.306 1296.6 307.177Z" fill="#387755"/>
<path d="M1240.33 98.9913C1234.89 131.988 1225.36 165.305 1201.64 188.979L1198.78 189.738C1196.54 170.891 1205.42 134.467 1193.05 141.342C1193.66 128.121 1191.75 57.4301 1193.05 53.243C1194.28 49.2758 1199.69 49.8154 1200.92 55.5115C1201.94 60.1782 1200.52 132.188 1201.64 147.008L1203.79 146.249C1213.81 128.901 1226.06 112.632 1240.33 98.9813V98.9913Z" fill="#859E3C"/>
<path d="M1185.16 235.107C1185.45 233.678 1182.85 235.906 1182.29 236.616C1183.31 228.591 1179.88 213.742 1175.85 207.126L1186.59 199.562C1185.98 210.604 1187.34 224.584 1185.16 235.107Z" fill="#366542"/>
<path d="M1192.99 213.012C1192.83 216.8 1192.29 217.319 1192.27 217.549L1181.53 225.114C1180.78 223.885 1167.17 209.925 1162.9 203.559C1146.2 178.706 1142.64 147.328 1143.56 117.729C1144.63 122.535 1153.75 143.551 1156.46 148.357C1165.55 164.476 1181.29 177.557 1182.25 179.366C1184.19 183.033 1188.31 206.427 1192.99 213.012Z" fill="#859E3C"/>
<path d="M1185.11 166.884C1185.07 177.677 1179.36 175.369 1193.71 188.06C1193.84 188.789 1194.34 188.879 1194.43 189.569C1194.91 193.396 1194.59 197.093 1194.43 200.911C1194.26 204.798 1193.19 208.556 1193 213.012C1188.32 206.427 1184.2 183.033 1182.26 179.366C1181.3 177.557 1165.56 164.476 1156.47 148.357C1153.76 143.551 1144.64 122.535 1143.57 117.728C1143.22 116.17 1141.62 112.642 1143.93 112.432C1151.05 118.328 1158.81 124.014 1165.06 130.959C1171.81 138.454 1185.16 157.401 1185.12 166.874L1185.11 166.884Z" fill="#58823A"/>
<path d="M1193.71 188.06C1179.36 175.368 1185.07 177.677 1185.11 166.884C1188.88 171.621 1192.56 181.744 1193.71 188.06Z" fill="#90AF3D"/>
<path d="M1188.19 284.942C1190.25 288.04 1190.13 288.8 1190.25 288.99L1186.15 301.911C1184.84 301.421 1165.99 299.183 1158.92 296.914C1131.3 288.06 1110.28 265.556 1093.83 241.562C1097.47 244.67 1116.86 255.393 1121.8 257.441C1138.33 264.307 1158.37 264.467 1160.18 265.286C1163.84 266.935 1180.67 282.754 1188.19 284.942Z" fill="#859E3C"/>
<path d="M1155.21 253.574C1161.44 262.138 1155.58 264.007 1174.28 264.757C1174.81 265.246 1175.25 264.996 1175.73 265.486C1178.33 268.194 1180.23 271.332 1182.31 274.45C1184.43 277.628 1185.77 281.295 1188.2 284.943C1180.68 282.754 1163.84 266.935 1160.19 265.286C1158.38 264.477 1138.35 264.307 1121.81 257.442C1116.88 255.393 1097.48 244.671 1093.84 241.563C1092.67 240.553 1089.35 238.795 1091.06 237.146C1100.11 237.206 1109.54 236.686 1118.51 238.135C1128.2 239.694 1149.75 246.05 1155.21 253.564V253.574Z" fill="#58823A"/>
<path d="M1174.28 264.756C1155.57 263.997 1161.43 262.138 1155.21 253.574C1160.94 254.883 1169.72 260.499 1174.28 264.756Z" fill="#90AF3D"/>
<path d="M1241.76 319.049C1243.05 323.756 1241.39 324.125 1238.89 327.363C1232.89 329.252 1230.1 329.871 1224.56 333.409C1222.94 334.448 1221.33 335.877 1219.55 336.437C1223.83 331.001 1233.77 326.334 1222.41 321.317C1222.65 321.287 1222.9 321.347 1223.13 321.317C1229.33 320.528 1235.56 319.798 1241.76 319.049Z" fill="#845E39"/>
<path d="M1156.5 324.345C1157.42 328.222 1153.23 325.384 1152.21 327.753C1149.11 334.858 1170.9 337.066 1171.55 342.503C1161.53 335.268 1157.96 337.456 1157.22 337.206C1157.04 337.146 1158.67 336.177 1154.36 334.938C1150.58 333.849 1146.68 333.539 1142.89 332.669C1139.58 329.002 1139.84 327.753 1142.17 323.596C1146.99 324.065 1151.72 323.985 1156.5 324.355L1156.5 324.345Z" fill="#845E39"/>
<path d="M1346.36 464.238C1385.09 470.914 1385.27 477.729 1346 483.145C1306.44 488.591 1179.22 487.852 1133.23 486.922C1107.39 486.403 1052.26 485.913 1029.35 480.117C1000.07 472.712 1033.61 466.197 1044.04 464.238C1056.99 461.81 1070.68 460.581 1083.8 459.701C1101.88 458.482 1143.73 460.92 1157.22 454.405C1155.01 461.9 1152.75 456.853 1150.78 459.322C1152.41 464.708 1156.78 463.189 1155.79 467.266C1134.43 468.245 1113.06 469.225 1091.67 469.534C1088.84 472.053 1089.35 473.132 1092.39 474.831H1318.77C1320.87 472.962 1319.88 471.013 1318.05 469.534C1289.5 469.265 1260.96 466.467 1232.44 465.757C1235.07 463.865 1237.69 461.973 1240.32 460.081C1238.64 457.689 1236.97 455.294 1235.3 452.896C1249.15 461.21 1294.66 458.892 1313.74 460.461C1324.43 461.34 1335.76 462.419 1346.34 464.238H1346.36Z" fill="#7A493F"/>
<path d="M1232.45 465.747C1260.97 466.457 1289.51 469.255 1318.06 469.525C1319.88 470.994 1320.88 472.942 1318.78 474.821H1092.4C1089.36 473.132 1088.85 472.053 1091.68 469.525C1113.07 469.215 1134.44 468.235 1155.8 467.256C1186.58 465.847 1200.26 464.948 1232.46 465.747H1232.45Z" fill="#5B3B35"/>
<path d="M1198.78 189.738C1197.26 191.667 1197.6 186.8 1197.35 182.933C1196.99 177.647 1199.2 173.749 1194.12 169.322C1190.16 168.463 1192.75 173.16 1189.46 170.831C1190.61 168.783 1192.83 145.919 1193.04 141.342C1205.42 134.467 1196.54 170.891 1198.77 189.738H1198.78Z" fill="#826C31"/>
<path d="M1164.39 223.765C1168.97 229.711 1174.32 234.977 1179.43 240.404C1179.92 240.913 1180.51 241.993 1180.86 242.672C1179.42 243.212 1174.23 237.076 1172.99 235.867C1168.92 231.89 1169.26 227.862 1165.82 231.71C1164.9 237.885 1162.85 239.764 1168.69 244.191C1168.54 245.58 1169.53 245.79 1169.41 247.219C1168.04 245.32 1163.24 240.793 1162.96 240.414C1160.6 237.116 1158.78 232.569 1156.51 229.071L1164.39 223.775V223.765Z" fill="#826C31"/>
<path d="M1197.35 182.933H1188.75C1188.91 179.116 1189.23 175.418 1188.75 171.591C1189.62 171.671 1189.39 170.961 1189.47 170.831C1192.76 173.15 1190.16 168.463 1194.13 169.322C1199.2 173.749 1197 177.647 1197.36 182.933H1197.35Z" fill="#845E39"/>
<path d="M1238.9 327.363C1241.4 324.115 1243.06 323.745 1241.77 319.049C1245.67 318.579 1294.14 312.034 1294.06 314.892C1276.05 320.678 1256.93 321.697 1238.9 327.373V327.363Z" fill="#826C31"/>
<path d="M1197.66 304.899C1193.76 305.608 1192.27 304.729 1190.32 309.176C1187.07 306.817 1146.5 278.107 1148.33 276.009C1165.51 284.153 1180.55 296.644 1197.67 304.899H1197.66Z" fill="#826C31"/>
<path d="M1125.71 322.826C1125.23 324.845 1124.75 326.86 1124.28 328.872C1108.37 325.595 1091.52 324.655 1075.92 319.799C1074.37 319.319 1053.79 312.713 1061.6 309.965C1082.82 314.292 1104.21 320.288 1125.72 322.816L1125.71 322.826Z" fill="#859E3C"/>
<path d="M1142.18 323.586C1139.85 327.743 1139.58 328.992 1142.9 332.66C1136.71 331.241 1130.49 330.161 1124.28 328.882C1124.76 326.864 1125.24 324.848 1125.71 322.836C1131.01 323.466 1136.87 323.076 1142.18 323.596V323.586Z" fill="#826C31"/>
<path d="M1232.45 213.182C1233.67 207.636 1235.29 206.657 1230.66 202.6C1229.68 204.229 1228.2 204.279 1226.72 204.868C1247.93 189.399 1267.27 171.471 1286.54 153.444L1289.77 157.601C1272.35 177.977 1250.51 193.596 1232.46 213.182H1232.45Z" fill="#826C31"/>
<path d="M1190.66 338.486C1191.88 332.94 1193.5 331.96 1188.87 327.903C1187.9 329.532 1186.41 329.582 1184.93 330.171C1206.14 314.702 1225.48 296.775 1244.76 278.747L1247.99 282.904C1230.57 303.28 1208.73 318.899 1190.67 338.486H1190.66Z" fill="#826C31"/>
<path d="M1194.26 295.515C1196.85 290.528 1198.65 290.029 1195.24 284.812C1193.88 286.102 1192.43 285.732 1190.86 285.882C1215.23 276.998 1238.43 265.236 1261.58 253.344L1263.63 258.261C1241.65 272.931 1216.64 281.785 1194.26 295.515Z" fill="#85523C"/>
<path d="M1232.45 213.183C1228.96 216.98 1221.62 225.294 1218.84 229.062C1219.11 223.445 1233.75 215.221 1222.41 207.886C1223.87 206.817 1224.04 205.928 1226.71 204.858C1228.19 204.269 1229.68 204.219 1230.65 202.59C1235.28 206.647 1233.67 207.636 1232.44 213.173L1232.45 213.183Z" fill="#845E39"/>
<path d="M1172.99 235.866C1170.66 239.364 1169.14 239.974 1168.69 244.181C1162.86 239.754 1164.91 237.875 1165.82 231.699C1169.26 227.862 1168.92 231.889 1172.99 235.856V235.866Z" fill="#845E39"/>
<path d="M721.409 279.966C721.617 283.084 721.342 287.001 722.564 285.452L724.874 284.843C728.433 306.787 722.762 321.347 738.156 301.911C738.904 301.691 741.119 300.452 741.621 300.082C750.757 305.998 738.961 312.633 738.733 317.15C737.408 318.949 736.433 320.758 735.268 322.636C733.744 325.105 732.334 326.404 731.226 329.342C730.222 331.99 728.623 336.717 728.339 339.405C728.007 342.543 727.752 387.561 728.339 390.01C730.005 396.995 737.825 392.018 741.621 391.539C750.785 395.586 742.766 399.353 739.311 403.73C737.588 405.909 734.568 408.767 733.536 410.745C725.915 425.315 729.56 484.145 752.025 497.635C753.376 499.567 754.723 501.499 756.068 503.431C753.947 504.957 751.829 506.482 749.715 508.008C723.756 507.358 712.727 508.088 687.905 509.227C688.7 505.939 685.178 507.169 683.862 502.822C685.443 500.833 687.27 504.9 689.06 498.854C714.318 486.663 722.327 424.306 700.61 408.617C700.089 404.24 682.518 402.461 685.017 396.725C685.841 394.816 689.221 397.115 688.482 393.977C689.438 394.047 690.413 393.907 691.37 393.977C700.808 394.707 710.256 401.812 712.169 389.4C714.469 374.411 711.326 343.932 698.887 332.999C698.934 332.6 698.849 332.18 698.887 331.78C698.981 330.631 698.186 330.461 698.309 329.342C698.678 325.944 699.89 325.455 701.774 322.636C702.778 323.616 706.971 328.562 708.126 328.123C709.821 327.483 711.222 323.826 711.591 322.027C713.352 313.543 712.254 302.271 712.746 293.367C712.756 293.177 713.191 292.757 713.324 289.709C713.475 286.122 714.346 283.084 714.479 279.956H721.409V279.966Z" fill="#85513B"/>
<path d="M757.222 389.72C758.273 393.517 756.929 393.807 754.913 396.425C750.075 397.944 747.831 398.444 743.363 401.302C742.056 402.141 740.75 403.29 739.32 403.74C742.776 399.363 750.794 395.596 741.63 391.548C741.82 391.528 742.018 391.568 742.208 391.548C747.197 390.909 752.224 390.319 757.222 389.72Z" fill="#845E39"/>
<path d="M688.482 393.987C689.22 397.115 685.84 394.826 685.017 396.735C682.527 402.471 700.088 404.25 700.609 408.627C692.534 402.791 689.656 404.559 689.059 404.36C688.917 404.31 690.233 403.53 686.749 402.531C683.701 401.651 680.558 401.402 677.509 400.702C674.83 397.744 675.048 396.735 676.932 393.387C680.823 393.767 684.638 393.707 688.482 393.997V393.987Z" fill="#845E39"/>
<path d="M841.555 506.789C872.787 512.175 872.929 517.671 841.262 522.028C809.367 526.425 706.782 525.826 669.7 525.076C648.872 524.656 604.415 524.257 585.945 519.59C562.334 513.614 589.381 508.368 597.788 506.789C608.23 504.83 619.269 503.841 629.843 503.131C644.423 502.152 678.173 504.111 689.05 498.864C687.261 504.91 685.434 500.843 683.853 502.831C685.169 507.168 688.691 505.949 687.895 509.237C670.665 510.026 653.445 510.816 636.196 511.066C633.914 513.094 634.312 513.964 636.773 515.333H819.308C821.002 513.824 820.198 512.255 818.73 511.066C795.706 510.846 772.701 508.587 749.706 508.018C751.826 506.492 753.944 504.967 756.058 503.441C754.708 501.509 753.36 499.577 752.016 497.645C763.177 504.35 799.872 502.482 815.265 503.741C823.88 504.45 833.025 505.32 841.546 506.789H841.555Z" fill="#7A493F"/>
<path d="M749.715 508.008C772.71 508.577 795.725 510.836 818.739 511.056C820.207 512.245 821.011 513.814 819.317 515.323H636.782C634.321 513.954 633.923 513.084 636.205 511.056C653.454 510.806 670.674 510.016 687.904 509.227C712.727 508.088 723.747 507.358 749.715 508.008Z" fill="#5B3B35"/>
<path d="M721.408 279.966H714.479C714.611 276.888 714.867 273.9 714.479 270.822C715.179 270.882 714.999 270.323 715.056 270.213C717.707 272.081 715.615 268.304 718.814 268.993C722.904 272.571 721.124 275.709 721.418 279.966H721.408Z" fill="#845E39"/>
<path d="M749.714 304.359C746.893 307.417 740.986 314.123 738.742 317.16C738.969 312.634 750.765 306.008 741.63 300.092C742.804 299.233 742.946 298.513 745.095 297.654C746.287 297.184 747.48 297.134 748.276 295.825C752.006 299.093 750.709 299.892 749.724 304.359H749.714Z" fill="#845E39"/>
<path d="M685.188 496.566C685.462 496.406 685.822 496.306 685.983 496.066C695.829 482.036 710.257 480.127 725.177 479.538C726.407 479.578 727.648 479.647 728.878 479.647C729.314 479.647 729.749 479.458 729.285 479.568C729.56 474.441 729.816 469.734 730.071 465.038C730.573 465.567 731.075 466.077 731.576 466.587C733.773 466.537 735.969 466.487 738.166 466.447C754.127 467.916 768.867 472.552 780.654 484.794C773.762 488.531 767.135 492.599 763.566 500.383C761.388 505.13 759.249 509.897 757.09 514.643C751.609 509.457 746.127 504.27 740.513 498.964C738.705 501.123 736.035 504.33 733.356 507.528C731.794 509.177 730.223 510.826 728.661 512.475C726.407 514.264 724.145 516.052 721.892 517.831C717.366 519.08 712.851 520.339 708.325 521.588C700.619 521.918 692.913 522.258 685.207 522.588C687.877 520.989 688.35 518.91 686.513 516.252C683.796 512.335 681.117 508.378 678.419 504.44C680.672 501.812 682.925 499.194 685.178 496.566H685.188Z" fill="#CB8E33"/>
<path d="M842.246 504.66C843.07 505.65 843.941 506.609 844.698 507.648C845.266 508.428 845.986 509.287 846.099 510.197C846.251 511.386 845.938 513.704 845.73 513.714C840.182 514.024 843.78 524.077 836.585 522.938C831.908 522.198 827.023 523.118 822.261 522.788C815.89 522.338 809.547 521.389 803.763 520.719C800.828 521.559 798.064 523.158 795.47 522.918C788.294 522.238 781.174 520.789 774.036 519.65C778.315 517.012 783.068 514.963 786.76 511.606C794.191 504.85 796.075 494.817 798.897 485.474C800.601 479.818 799.503 478.548 794.04 479.578C793.273 476.55 792.506 473.532 791.645 470.094C798.603 468.845 803.867 471.593 809.149 473.672C817.831 477.089 825.982 481.506 831.567 489.781C832.202 490.72 832.921 491.709 833.167 492.779C834.426 498.285 837.759 501.952 842.265 504.65L842.246 504.66Z" fill="#CB8E33"/>
<path d="M794.021 479.578C799.483 478.548 800.591 479.818 798.877 485.474C796.056 494.827 794.182 504.85 786.741 511.605C783.048 514.963 778.296 517.012 774.017 519.65C769.794 520.669 765.591 521.838 761.331 522.668C755.641 523.777 754.742 522.628 756.474 516.972C756.711 516.202 756.881 515.413 757.09 514.633C759.248 509.877 761.388 505.12 763.565 500.373C767.134 492.589 773.761 488.521 780.653 484.784C785.112 483.045 789.562 481.316 794.021 479.578Z" fill="#FBB044"/>
<path d="M571.678 521.319C571.46 519.58 570.438 517.201 571.148 516.202C578.22 506.329 586.058 496.776 598.441 495.257C607.804 494.107 617.262 495.996 627.145 499.704C625.545 502.122 624.703 504.121 623.283 505.41C617.593 510.556 611.714 515.463 605.93 520.499C605.693 520.709 605.74 521.269 605.655 521.668C595.876 521.778 586.096 521.928 576.326 521.978C574.774 521.978 573.23 521.548 571.678 521.319Z" fill="#FBB044"/>
<path d="M607.795 521.299C609.982 520.529 612.405 520.149 614.317 518.91C619.553 515.503 624.163 516.152 628.518 520.469C621.711 523.607 614.8 523.787 607.785 521.299H607.795Z" fill="#F9AF43"/>
<path d="M1164.39 223.765L1156.51 229.061C1148.91 217.339 1142.63 204.678 1135.02 193.146C1119.44 169.503 1100.61 148.187 1086.31 123.574L1088.82 121.686C1091.97 121.586 1125.73 166.005 1130.01 171.971C1142.04 188.759 1151.84 207.446 1164.39 223.775V223.765Z" fill="#859E3C"/>
<path d="M1197.35 182.933C1197.6 186.801 1197.27 191.667 1198.78 189.739L1201.64 188.979C1206.06 216.2 1199.02 234.248 1218.12 210.154C1219.05 209.875 1221.8 208.346 1222.41 207.886C1233.75 215.221 1219.11 223.445 1218.84 229.061C1217.19 231.29 1215.99 233.528 1214.54 235.867C1212.64 238.924 1210.89 240.543 1209.52 244.181C1208.28 247.469 1206.29 253.325 1205.94 256.662C1205.53 260.559 1205.21 316.381 1205.94 319.429C1208.01 328.093 1217.71 321.917 1222.41 321.317C1233.77 326.344 1223.83 331.011 1219.55 336.437C1217.41 339.145 1213.66 342.683 1212.38 345.131C1202.93 363.208 1207.46 436.168 1235.31 452.886C1236.98 455.278 1238.65 457.673 1240.33 460.071C1237.7 461.963 1235.08 463.855 1232.45 465.747C1200.25 464.948 1186.57 465.847 1155.79 467.256C1156.78 463.189 1152.41 464.698 1150.78 459.312C1152.75 456.843 1155.01 461.89 1157.22 454.395C1188.54 439.276 1198.48 361.939 1171.55 342.483C1170.9 337.056 1149.11 334.848 1152.21 327.733C1153.23 325.375 1157.42 328.213 1156.5 324.325C1157.69 324.415 1158.9 324.235 1160.08 324.325C1171.78 325.235 1183.51 334.049 1185.87 318.649C1188.72 300.062 1184.83 262.268 1169.4 248.698C1169.46 248.208 1169.35 247.678 1169.4 247.189C1169.52 245.76 1168.54 245.55 1168.68 244.161C1169.13 239.944 1170.65 239.334 1172.98 235.847C1174.22 237.056 1179.42 243.192 1180.85 242.652C1182.96 241.862 1184.69 237.316 1185.15 235.087C1187.33 224.564 1185.98 210.584 1186.58 199.542C1186.59 199.312 1187.13 198.792 1187.3 195.005C1187.49 190.548 1188.57 186.791 1188.73 182.903H1197.33L1197.35 182.933Z" fill="#85513B"/>
<path d="M1206.67 181.425C1206.93 185.292 1206.6 190.158 1208.1 188.23L1210.97 187.47C1215.38 214.691 1208.35 232.739 1227.44 208.646C1228.38 208.366 1231.12 206.837 1231.74 206.377C1243.07 213.712 1228.44 221.936 1228.16 227.553C1226.51 229.781 1225.31 232.019 1223.86 234.358C1221.97 237.416 1220.22 239.035 1218.85 242.672C1217.61 245.96 1215.62 251.816 1215.27 255.153C1214.85 259.051 1214.54 314.872 1215.27 317.92C1217.33 326.584 1227.03 320.408 1231.74 319.809C1243.1 324.835 1233.16 329.502 1228.87 334.928C1226.73 337.636 1222.98 341.174 1221.7 343.622C1212.26 361.7 1216.78 434.659 1244.63 451.377C1246.31 453.769 1247.98 456.164 1249.65 458.562C1247.03 460.454 1244.4 462.346 1241.77 464.238C1209.58 463.439 1195.9 464.338 1165.12 465.747C1166.1 461.68 1161.73 463.189 1160.1 457.803C1162.07 455.335 1164.33 460.381 1166.55 452.886C1197.87 437.767 1207.81 360.43 1180.87 340.974C1180.23 335.548 1158.44 333.339 1161.53 326.224C1162.55 323.866 1166.75 326.704 1165.83 322.817C1167.01 322.906 1168.23 322.727 1169.41 322.817C1181.11 323.726 1192.84 332.54 1195.2 317.14C1198.05 298.553 1194.16 260.76 1178.72 247.189C1178.78 246.699 1178.68 246.17 1178.72 245.68C1178.85 244.251 1177.86 244.041 1178 242.652C1178.46 238.435 1179.97 237.825 1182.3 234.338C1183.54 235.547 1188.75 241.683 1190.18 241.143C1192.28 240.354 1194.01 235.807 1194.48 233.578C1196.65 223.056 1195.3 209.075 1195.91 198.033C1195.92 197.803 1196.46 197.284 1196.63 193.496C1196.82 189.039 1197.89 185.282 1198.06 181.395H1206.65L1206.67 181.425Z" fill="#85513B"/>
<defs>
<linearGradient id="paint0_linear_1490_9741" x1="377.233" y1="335.108" x2="301.574" y2="380.002" gradientUnits="userSpaceOnUse">
<stop stop-color="#4C6F35"/>
<stop offset="1" stop-color="#396441"/>
</linearGradient>
<linearGradient id="paint1_linear_1490_9741" x1="1290.97" y1="211.034" x2="1200.26" y2="264.858" gradientUnits="userSpaceOnUse">
<stop stop-color="#4C6F35"/>
<stop offset="1" stop-color="#396441"/>
</linearGradient>
</defs>
</svg>
