<svg width="1078" height="237" viewBox="0 0 1078 237" fill="none" xmlns="http://www.w3.org/2000/svg">
<circle cx="119" cy="118.5" r="118.5" fill="#7323F4"/>
<path d="M85.9379 81.8409L84.131 82.3523C84.0174 82.0511 83.8498 81.7585 83.6282 81.4744C83.4123 81.1847 83.1168 80.946 82.7418 80.7585C82.3668 80.571 81.8867 80.4773 81.3015 80.4773C80.5004 80.4773 79.8327 80.6619 79.2987 81.0312C78.7702 81.3949 78.506 81.858 78.506 82.4205C78.506 82.9205 78.6879 83.3153 79.0515 83.6051C79.4151 83.8949 79.9833 84.1364 80.756 84.3295L82.6992 84.8068C83.8697 85.0909 84.7418 85.5256 85.3157 86.1108C85.8896 86.6903 86.1765 87.4375 86.1765 88.3523C86.1765 89.1023 85.9606 89.7727 85.5288 90.3636C85.1026 90.9545 84.506 91.4205 83.739 91.7614C82.9719 92.1023 82.0799 92.2727 81.0629 92.2727C79.7276 92.2727 78.6225 91.983 77.7475 91.4034C76.8725 90.8239 76.3185 89.9773 76.0856 88.8636L77.9947 88.3864C78.1765 89.0909 78.5202 89.6193 79.0259 89.9716C79.5373 90.3239 80.2049 90.5 81.0288 90.5C81.9663 90.5 82.7106 90.3011 83.2617 89.9034C83.8185 89.5 84.0969 89.017 84.0969 88.4545C84.0969 88 83.9379 87.6193 83.6197 87.3125C83.3015 87 82.8129 86.767 82.1538 86.6136L79.9719 86.1023C78.7731 85.8182 77.8924 85.3778 77.3299 84.7812C76.7731 84.179 76.4947 83.4261 76.4947 82.5227C76.4947 81.7841 76.7021 81.1307 77.1168 80.5625C77.5373 79.9943 78.1083 79.5483 78.8299 79.2244C79.5572 78.9006 80.381 78.7386 81.3015 78.7386C82.5969 78.7386 83.614 79.0227 84.3526 79.5909C85.0969 80.1591 85.6254 80.9091 85.9379 81.8409ZM89.2042 96.9091V78.9091H91.1474V80.9886H91.386C91.5337 80.7614 91.7383 80.4716 91.9996 80.1193C92.2667 79.7614 92.6474 79.4432 93.1417 79.1648C93.6417 78.8807 94.3178 78.7386 95.1701 78.7386C96.2724 78.7386 97.244 79.0142 98.0849 79.5653C98.9258 80.1165 99.582 80.8977 100.054 81.9091C100.525 82.9205 100.761 84.1136 100.761 85.4886C100.761 86.875 100.525 88.0767 100.054 89.0938C99.582 90.1051 98.9286 90.8892 98.0934 91.446C97.2582 91.9972 96.2951 92.2727 95.2042 92.2727C94.3633 92.2727 93.69 92.1335 93.1843 91.8551C92.6786 91.571 92.2894 91.25 92.0167 90.892C91.744 90.5284 91.5337 90.2273 91.386 89.9886H91.2156V96.9091H89.2042ZM91.1815 85.4545C91.1815 86.4432 91.3263 87.3153 91.6161 88.071C91.9059 88.821 92.3292 89.4091 92.886 89.8352C93.4428 90.2557 94.1246 90.4659 94.9315 90.4659C95.7724 90.4659 96.4741 90.2443 97.0366 89.8011C97.6048 89.3523 98.0309 88.75 98.315 87.9943C98.6048 87.233 98.7496 86.3864 98.7496 85.4545C98.7496 84.5341 98.6076 83.7045 98.3235 82.9659C98.0451 82.2216 97.6218 81.6335 97.0536 81.2017C96.4911 80.7642 95.7837 80.5455 94.9315 80.5455C94.1133 80.5455 93.4258 80.7528 92.869 81.1676C92.3121 81.5767 91.8917 82.1506 91.6076 82.8892C91.3235 83.6222 91.1815 84.4773 91.1815 85.4545ZM107.681 92.3068C106.852 92.3068 106.099 92.1506 105.423 91.8381C104.747 91.5199 104.21 91.0625 103.812 90.4659C103.414 89.8636 103.216 89.1364 103.216 88.2841C103.216 87.5341 103.363 86.9261 103.659 86.4602C103.954 85.9886 104.349 85.6193 104.843 85.3523C105.338 85.0852 105.883 84.8864 106.48 84.7557C107.082 84.6193 107.687 84.5114 108.295 84.4318C109.091 84.3295 109.735 84.2528 110.23 84.2017C110.73 84.1449 111.093 84.0511 111.321 83.9205C111.554 83.7898 111.67 83.5625 111.67 83.2386V83.1705C111.67 82.3295 111.44 81.6761 110.98 81.2102C110.525 80.7443 109.835 80.5114 108.909 80.5114C107.949 80.5114 107.196 80.7216 106.65 81.142C106.105 81.5625 105.721 82.0114 105.5 82.4886L103.591 81.8068C103.931 81.0114 104.386 80.392 104.954 79.9489C105.528 79.5 106.153 79.1875 106.829 79.0114C107.511 78.8295 108.181 78.7386 108.841 78.7386C109.261 78.7386 109.744 78.7898 110.289 78.892C110.841 78.9886 111.372 79.1903 111.883 79.4972C112.4 79.804 112.829 80.267 113.17 80.8864C113.511 81.5057 113.681 82.3352 113.681 83.375V92H111.67V90.2273H111.568C111.431 90.5114 111.204 90.8153 110.886 91.1392C110.568 91.4631 110.145 91.7386 109.616 91.9659C109.088 92.1932 108.443 92.3068 107.681 92.3068ZM107.988 90.5C108.784 90.5 109.454 90.3438 110 90.0312C110.551 89.7188 110.966 89.3153 111.244 88.821C111.528 88.3267 111.67 87.8068 111.67 87.2614V85.4205C111.585 85.5227 111.397 85.6165 111.108 85.7017C110.824 85.7812 110.494 85.8523 110.119 85.9148C109.75 85.9716 109.389 86.0227 109.037 86.0682C108.69 86.108 108.409 86.142 108.193 86.1705C107.67 86.2386 107.181 86.3494 106.727 86.5028C106.278 86.6506 105.914 86.875 105.636 87.1761C105.363 87.4716 105.227 87.875 105.227 88.3864C105.227 89.0852 105.485 89.6136 106.002 89.9716C106.525 90.3239 107.187 90.5 107.988 90.5ZM122.671 92.2727C121.444 92.2727 120.387 91.983 119.5 91.4034C118.614 90.8239 117.932 90.0256 117.455 89.0085C116.978 87.9915 116.739 86.8295 116.739 85.5227C116.739 84.1932 116.983 83.0199 117.472 82.0028C117.966 80.9801 118.654 80.1818 119.534 79.608C120.421 79.0284 121.455 78.7386 122.637 78.7386C123.557 78.7386 124.387 78.9091 125.125 79.25C125.864 79.5909 126.469 80.0682 126.941 80.6818C127.412 81.2955 127.705 82.0114 127.819 82.8295H125.807C125.654 82.233 125.313 81.7045 124.784 81.2443C124.262 80.7784 123.557 80.5455 122.671 80.5455C121.887 80.5455 121.199 80.75 120.608 81.1591C120.023 81.5625 119.566 82.1335 119.236 82.8722C118.912 83.6051 118.75 84.4659 118.75 85.4545C118.75 86.4659 118.909 87.3466 119.228 88.0966C119.551 88.8466 120.006 89.429 120.591 89.8438C121.182 90.2585 121.875 90.4659 122.671 90.4659C123.194 90.4659 123.668 90.375 124.094 90.1932C124.52 90.0114 124.881 89.75 125.176 89.4091C125.472 89.0682 125.682 88.6591 125.807 88.1818H127.819C127.705 88.9545 127.424 89.6506 126.975 90.2699C126.532 90.8835 125.944 91.3722 125.211 91.7358C124.483 92.0938 123.637 92.2727 122.671 92.2727ZM136.248 92.2727C134.986 92.2727 133.898 91.9943 132.983 91.4375C132.074 90.875 131.373 90.0909 130.878 89.0852C130.39 88.0739 130.145 86.8977 130.145 85.5568C130.145 84.2159 130.39 83.0341 130.878 82.0114C131.373 80.983 132.06 80.1818 132.941 79.608C133.827 79.0284 134.861 78.7386 136.043 78.7386C136.725 78.7386 137.398 78.8523 138.063 79.0795C138.728 79.3068 139.333 79.6761 139.878 80.1875C140.424 80.6932 140.858 81.3636 141.182 82.1989C141.506 83.0341 141.668 84.0625 141.668 85.2841V86.1364H131.577V84.3977H139.623C139.623 83.6591 139.475 83 139.179 82.4205C138.89 81.8409 138.475 81.3835 137.935 81.0483C137.401 80.7131 136.77 80.5455 136.043 80.5455C135.242 80.5455 134.549 80.7443 133.963 81.142C133.384 81.5341 132.938 82.0455 132.625 82.6761C132.313 83.3068 132.157 83.983 132.157 84.7045V85.8636C132.157 86.8523 132.327 87.6903 132.668 88.3778C133.015 89.0597 133.495 89.5795 134.108 89.9375C134.722 90.2898 135.435 90.4659 136.248 90.4659C136.776 90.4659 137.253 90.392 137.679 90.2443C138.111 90.0909 138.483 89.8636 138.796 89.5625C139.108 89.2557 139.35 88.875 139.52 88.4205L141.463 88.9659C141.259 89.625 140.915 90.2045 140.432 90.7045C139.949 91.1989 139.353 91.5852 138.642 91.8636C137.932 92.1364 137.134 92.2727 136.248 92.2727ZM154 81.8409L152.194 82.3523C152.08 82.0511 151.912 81.7585 151.691 81.4744C151.475 81.1847 151.179 80.946 150.804 80.7585C150.429 80.571 149.949 80.4773 149.364 80.4773C148.563 80.4773 147.895 80.6619 147.361 81.0312C146.833 81.3949 146.569 81.858 146.569 82.4205C146.569 82.9205 146.75 83.3153 147.114 83.6051C147.478 83.8949 148.046 84.1364 148.819 84.3295L150.762 84.8068C151.932 85.0909 152.804 85.5256 153.378 86.1108C153.952 86.6903 154.239 87.4375 154.239 88.3523C154.239 89.1023 154.023 89.7727 153.591 90.3636C153.165 90.9545 152.569 91.4205 151.801 91.7614C151.034 92.1023 150.142 92.2727 149.125 92.2727C147.79 92.2727 146.685 91.983 145.81 91.4034C144.935 90.8239 144.381 89.9773 144.148 88.8636L146.057 88.3864C146.239 89.0909 146.583 89.6193 147.088 89.9716C147.6 90.3239 148.267 90.5 149.091 90.5C150.029 90.5 150.773 90.3011 151.324 89.9034C151.881 89.5 152.159 89.017 152.159 88.4545C152.159 88 152 87.6193 151.682 87.3125C151.364 87 150.875 86.767 150.216 86.6136L148.034 86.1023C146.836 85.8182 145.955 85.3778 145.392 84.7812C144.836 84.179 144.557 83.4261 144.557 82.5227C144.557 81.7841 144.765 81.1307 145.179 80.5625C145.6 79.9943 146.171 79.5483 146.892 79.2244C147.62 78.9006 148.444 78.7386 149.364 78.7386C150.659 78.7386 151.676 79.0227 152.415 79.5909C153.159 80.1591 153.688 80.9091 154 81.8409ZM99.5838 128.307C98.7543 128.307 98.0014 128.151 97.3253 127.838C96.6491 127.52 96.1122 127.062 95.7145 126.466C95.3168 125.864 95.1179 125.136 95.1179 124.284C95.1179 123.534 95.2656 122.926 95.5611 122.46C95.8565 121.989 96.2514 121.619 96.7457 121.352C97.2401 121.085 97.7855 120.886 98.3821 120.756C98.9844 120.619 99.5895 120.511 100.197 120.432C100.993 120.33 101.638 120.253 102.132 120.202C102.632 120.145 102.996 120.051 103.223 119.92C103.456 119.79 103.572 119.562 103.572 119.239V119.17C103.572 118.33 103.342 117.676 102.882 117.21C102.428 116.744 101.737 116.511 100.811 116.511C99.8509 116.511 99.098 116.722 98.5526 117.142C98.0071 117.562 97.6236 118.011 97.402 118.489L95.4929 117.807C95.8338 117.011 96.2884 116.392 96.8565 115.949C97.4304 115.5 98.0554 115.187 98.7315 115.011C99.4134 114.83 100.084 114.739 100.743 114.739C101.163 114.739 101.646 114.79 102.192 114.892C102.743 114.989 103.274 115.19 103.786 115.497C104.303 115.804 104.732 116.267 105.072 116.886C105.413 117.506 105.584 118.335 105.584 119.375V128H103.572V126.227H103.47C103.334 126.511 103.107 126.815 102.788 127.139C102.47 127.463 102.047 127.739 101.518 127.966C100.99 128.193 100.345 128.307 99.5838 128.307ZM99.8906 126.5C100.686 126.5 101.357 126.344 101.902 126.031C102.453 125.719 102.868 125.315 103.146 124.821C103.43 124.327 103.572 123.807 103.572 123.261V121.42C103.487 121.523 103.3 121.616 103.01 121.702C102.726 121.781 102.396 121.852 102.021 121.915C101.652 121.972 101.291 122.023 100.939 122.068C100.592 122.108 100.311 122.142 100.095 122.17C99.5724 122.239 99.0838 122.349 98.6293 122.503C98.1804 122.651 97.8168 122.875 97.5384 123.176C97.2656 123.472 97.1293 123.875 97.1293 124.386C97.1293 125.085 97.3878 125.614 97.9048 125.972C98.4276 126.324 99.0895 126.5 99.8906 126.5ZM111.266 120.125V128H109.255V114.909H111.198V116.955H111.369C111.675 116.29 112.141 115.756 112.766 115.352C113.391 114.943 114.198 114.739 115.187 114.739C116.073 114.739 116.849 114.92 117.513 115.284C118.178 115.642 118.695 116.188 119.065 116.92C119.434 117.648 119.619 118.568 119.619 119.682V128H117.607V119.818C117.607 118.79 117.34 117.989 116.806 117.415C116.272 116.835 115.539 116.545 114.607 116.545C113.965 116.545 113.391 116.685 112.886 116.963C112.386 117.241 111.991 117.648 111.701 118.182C111.411 118.716 111.266 119.364 111.266 120.125ZM128.237 128.273C127.146 128.273 126.183 127.997 125.348 127.446C124.513 126.889 123.859 126.105 123.388 125.094C122.916 124.077 122.68 122.875 122.68 121.489C122.68 120.114 122.916 118.92 123.388 117.909C123.859 116.898 124.516 116.116 125.357 115.565C126.197 115.014 127.169 114.739 128.271 114.739C129.124 114.739 129.797 114.881 130.291 115.165C130.791 115.443 131.172 115.761 131.433 116.119C131.7 116.472 131.908 116.761 132.055 116.989H132.226V110.545H134.237V128H132.294V125.989H132.055C131.908 126.227 131.697 126.528 131.425 126.892C131.152 127.25 130.763 127.571 130.257 127.855C129.751 128.134 129.078 128.273 128.237 128.273ZM128.51 126.466C129.317 126.466 129.999 126.256 130.555 125.835C131.112 125.409 131.536 124.821 131.825 124.071C132.115 123.315 132.26 122.443 132.26 121.455C132.26 120.477 132.118 119.622 131.834 118.889C131.55 118.151 131.129 117.577 130.572 117.168C130.016 116.753 129.328 116.545 128.51 116.545C127.658 116.545 126.947 116.764 126.379 117.202C125.817 117.634 125.393 118.222 125.109 118.966C124.831 119.705 124.692 120.534 124.692 121.455C124.692 122.386 124.834 123.233 125.118 123.994C125.408 124.75 125.834 125.352 126.396 125.801C126.964 126.244 127.669 126.466 128.51 126.466ZM61.5256 164L57.5369 150.909H59.6506L62.4801 160.932H62.6165L65.4119 150.909H67.5597L70.321 160.898H70.4574L73.2869 150.909H75.4006L71.4119 164H69.4347L66.571 153.943H66.3665L63.5028 164H61.5256ZM82.9325 164.273C81.7507 164.273 80.7138 163.991 79.8217 163.429C78.9354 162.866 78.2422 162.08 77.7422 161.068C77.2479 160.057 77.0007 158.875 77.0007 157.523C77.0007 156.159 77.2479 154.969 77.7422 153.952C78.2422 152.935 78.9354 152.145 79.8217 151.582C80.7138 151.02 81.7507 150.739 82.9325 150.739C84.1143 150.739 85.1484 151.02 86.0348 151.582C86.9268 152.145 87.62 152.935 88.1143 153.952C88.6143 154.969 88.8643 156.159 88.8643 157.523C88.8643 158.875 88.6143 160.057 88.1143 161.068C87.62 162.08 86.9268 162.866 86.0348 163.429C85.1484 163.991 84.1143 164.273 82.9325 164.273ZM82.9325 162.466C83.8303 162.466 84.5689 162.236 85.1484 161.776C85.728 161.315 86.157 160.71 86.4354 159.96C86.7138 159.21 86.853 158.398 86.853 157.523C86.853 156.648 86.7138 155.832 86.4354 155.077C86.157 154.321 85.728 153.71 85.1484 153.244C84.5689 152.778 83.8303 152.545 82.9325 152.545C82.0348 152.545 81.2962 152.778 80.7166 153.244C80.1371 153.71 79.7081 154.321 79.4297 155.077C79.1513 155.832 79.0121 156.648 79.0121 157.523C79.0121 158.398 79.1513 159.21 79.4297 159.96C79.7081 160.71 80.1371 161.315 80.7166 161.776C81.2962 162.236 82.0348 162.466 82.9325 162.466ZM91.9347 164V150.909H93.8778V152.886H94.0142C94.2528 152.239 94.6847 151.713 95.3097 151.31C95.9347 150.906 96.6392 150.705 97.4233 150.705C97.571 150.705 97.7557 150.707 97.9773 150.713C98.1989 150.719 98.3665 150.727 98.4801 150.739V152.784C98.4119 152.767 98.2557 152.741 98.0114 152.707C97.7727 152.668 97.5199 152.648 97.2528 152.648C96.6165 152.648 96.0483 152.781 95.5483 153.048C95.054 153.31 94.6619 153.673 94.3722 154.139C94.0881 154.599 93.946 155.125 93.946 155.716V164H91.9347ZM102.739 159.227L102.705 156.739H103.114L108.842 150.909H111.33L105.228 157.08H105.058L102.739 159.227ZM100.864 164V146.545H102.876V164H100.864ZM109.183 164L104.069 157.523L105.501 156.125L111.739 164H109.183ZM123.192 153.841L121.385 154.352C121.271 154.051 121.104 153.759 120.882 153.474C120.666 153.185 120.371 152.946 119.996 152.759C119.621 152.571 119.141 152.477 118.555 152.477C117.754 152.477 117.087 152.662 116.553 153.031C116.024 153.395 115.76 153.858 115.76 154.42C115.76 154.92 115.942 155.315 116.305 155.605C116.669 155.895 117.237 156.136 118.01 156.33L119.953 156.807C121.124 157.091 121.996 157.526 122.57 158.111C123.143 158.69 123.43 159.437 123.43 160.352C123.43 161.102 123.214 161.773 122.783 162.364C122.357 162.955 121.76 163.42 120.993 163.761C120.226 164.102 119.334 164.273 118.317 164.273C116.982 164.273 115.876 163.983 115.001 163.403C114.126 162.824 113.572 161.977 113.339 160.864L115.249 160.386C115.43 161.091 115.774 161.619 116.28 161.972C116.791 162.324 117.459 162.5 118.283 162.5C119.22 162.5 119.964 162.301 120.516 161.903C121.072 161.5 121.351 161.017 121.351 160.455C121.351 160 121.192 159.619 120.874 159.312C120.555 159 120.067 158.767 119.408 158.614L117.226 158.102C116.027 157.818 115.146 157.378 114.584 156.781C114.027 156.179 113.749 155.426 113.749 154.523C113.749 153.784 113.956 153.131 114.371 152.562C114.791 151.994 115.362 151.548 116.084 151.224C116.811 150.901 117.635 150.739 118.555 150.739C119.851 150.739 120.868 151.023 121.607 151.591C122.351 152.159 122.879 152.909 123.192 153.841ZM128.469 156.125V164H126.458V146.545H128.469V152.955H128.64C128.947 152.278 129.407 151.741 130.021 151.344C130.64 150.94 131.464 150.739 132.492 150.739C133.384 150.739 134.165 150.918 134.836 151.276C135.506 151.628 136.026 152.17 136.396 152.903C136.771 153.631 136.958 154.557 136.958 155.682V164H134.947V155.818C134.947 154.778 134.677 153.974 134.137 153.406C133.603 152.832 132.862 152.545 131.913 152.545C131.254 152.545 130.663 152.685 130.14 152.963C129.623 153.241 129.214 153.648 128.913 154.182C128.617 154.716 128.469 155.364 128.469 156.125ZM145.956 164.273C144.774 164.273 143.737 163.991 142.845 163.429C141.959 162.866 141.266 162.08 140.766 161.068C140.271 160.057 140.024 158.875 140.024 157.523C140.024 156.159 140.271 154.969 140.766 153.952C141.266 152.935 141.959 152.145 142.845 151.582C143.737 151.02 144.774 150.739 145.956 150.739C147.138 150.739 148.172 151.02 149.058 151.582C149.95 152.145 150.643 152.935 151.138 153.952C151.638 154.969 151.888 156.159 151.888 157.523C151.888 158.875 151.638 160.057 151.138 161.068C150.643 162.08 149.95 162.866 149.058 163.429C148.172 163.991 147.138 164.273 145.956 164.273ZM145.956 162.466C146.854 162.466 147.592 162.236 148.172 161.776C148.751 161.315 149.18 160.71 149.459 159.96C149.737 159.21 149.876 158.398 149.876 157.523C149.876 156.648 149.737 155.832 149.459 155.077C149.18 154.321 148.751 153.71 148.172 153.244C147.592 152.778 146.854 152.545 145.956 152.545C145.058 152.545 144.32 152.778 143.74 153.244C143.161 153.71 142.732 154.321 142.453 155.077C142.175 155.832 142.036 156.648 142.036 157.523C142.036 158.398 142.175 159.21 142.453 159.96C142.732 160.71 143.161 161.315 143.74 161.776C144.32 162.236 145.058 162.466 145.956 162.466ZM154.958 168.909V150.909H156.901V152.989H157.14C157.288 152.761 157.492 152.472 157.754 152.119C158.021 151.761 158.401 151.443 158.896 151.165C159.396 150.881 160.072 150.739 160.924 150.739C162.026 150.739 162.998 151.014 163.839 151.565C164.68 152.116 165.336 152.898 165.808 153.909C166.279 154.92 166.515 156.114 166.515 157.489C166.515 158.875 166.279 160.077 165.808 161.094C165.336 162.105 164.683 162.889 163.847 163.446C163.012 163.997 162.049 164.273 160.958 164.273C160.117 164.273 159.444 164.134 158.938 163.855C158.433 163.571 158.043 163.25 157.771 162.892C157.498 162.528 157.288 162.227 157.14 161.989H156.969V168.909H154.958ZM156.935 157.455C156.935 158.443 157.08 159.315 157.37 160.071C157.66 160.821 158.083 161.409 158.64 161.835C159.197 162.256 159.879 162.466 160.685 162.466C161.526 162.466 162.228 162.244 162.79 161.801C163.359 161.352 163.785 160.75 164.069 159.994C164.359 159.233 164.504 158.386 164.504 157.455C164.504 156.534 164.362 155.705 164.077 154.966C163.799 154.222 163.376 153.634 162.808 153.202C162.245 152.764 161.538 152.545 160.685 152.545C159.867 152.545 159.18 152.753 158.623 153.168C158.066 153.577 157.646 154.151 157.362 154.889C157.077 155.622 156.935 156.477 156.935 157.455ZM178.856 153.841L177.049 154.352C176.935 154.051 176.768 153.759 176.546 153.474C176.33 153.185 176.035 152.946 175.66 152.759C175.285 152.571 174.805 152.477 174.219 152.477C173.418 152.477 172.751 152.662 172.217 153.031C171.688 153.395 171.424 153.858 171.424 154.42C171.424 154.92 171.606 155.315 171.969 155.605C172.333 155.895 172.901 156.136 173.674 156.33L175.617 156.807C176.788 157.091 177.66 157.526 178.234 158.111C178.808 158.69 179.094 159.437 179.094 160.352C179.094 161.102 178.879 161.773 178.447 162.364C178.021 162.955 177.424 163.42 176.657 163.761C175.89 164.102 174.998 164.273 173.981 164.273C172.646 164.273 171.54 163.983 170.665 163.403C169.79 162.824 169.237 161.977 169.004 160.864L170.913 160.386C171.094 161.091 171.438 161.619 171.944 161.972C172.455 162.324 173.123 162.5 173.947 162.5C174.884 162.5 175.629 162.301 176.18 161.903C176.737 161.5 177.015 161.017 177.015 160.455C177.015 160 176.856 159.619 176.538 159.312C176.219 159 175.731 158.767 175.072 158.614L172.89 158.102C171.691 157.818 170.81 157.378 170.248 156.781C169.691 156.179 169.413 155.426 169.413 154.523C169.413 153.784 169.62 153.131 170.035 152.562C170.455 151.994 171.026 151.548 171.748 151.224C172.475 150.901 173.299 150.739 174.219 150.739C175.515 150.739 176.532 151.023 177.271 151.591C178.015 152.159 178.543 152.909 178.856 153.841Z" fill="white"/>
<circle cx="539" cy="118.5" r="118.5" fill="#FA6400"/>
<path d="M502.044 104.648V96.9091H504.055V110H502.044V107.784H501.908C501.601 108.449 501.124 109.014 500.476 109.48C499.828 109.94 499.01 110.17 498.021 110.17C497.203 110.17 496.476 109.991 495.839 109.634C495.203 109.27 494.703 108.724 494.339 107.997C493.976 107.264 493.794 106.341 493.794 105.227V96.9091H495.805V105.091C495.805 106.045 496.072 106.807 496.607 107.375C497.146 107.943 497.834 108.227 498.669 108.227C499.169 108.227 499.678 108.099 500.195 107.844C500.717 107.588 501.155 107.196 501.507 106.668C501.865 106.139 502.044 105.466 502.044 104.648ZM509.751 102.125V110H507.739V96.9091H509.683V98.9545H509.853C510.16 98.2898 510.626 97.7557 511.251 97.3523C511.876 96.9432 512.683 96.7386 513.671 96.7386C514.558 96.7386 515.333 96.9205 515.998 97.2841C516.663 97.642 517.18 98.1875 517.549 98.9205C517.918 99.6477 518.103 100.568 518.103 101.682V110H516.092V101.818C516.092 100.79 515.825 99.9886 515.29 99.4148C514.756 98.8352 514.023 98.5455 513.092 98.5455C512.45 98.5455 511.876 98.6847 511.37 98.9631C510.87 99.2415 510.475 99.6477 510.185 100.182C509.896 100.716 509.751 101.364 509.751 102.125ZM523.79 102.125V110H521.778V92.5455H523.79V98.9545H523.96C524.267 98.2784 524.727 97.7415 525.341 97.3438C525.96 96.9403 526.784 96.7386 527.812 96.7386C528.705 96.7386 529.486 96.9176 530.156 97.2756C530.827 97.6278 531.347 98.1705 531.716 98.9034C532.091 99.6307 532.278 100.557 532.278 101.682V110H530.267V101.818C530.267 100.778 529.997 99.9744 529.457 99.4062C528.923 98.8324 528.182 98.5455 527.233 98.5455C526.574 98.5455 525.983 98.6847 525.46 98.9631C524.943 99.2415 524.534 99.6477 524.233 100.182C523.938 100.716 523.79 101.364 523.79 102.125ZM541.447 110.273C540.185 110.273 539.097 109.994 538.183 109.438C537.273 108.875 536.572 108.091 536.077 107.085C535.589 106.074 535.344 104.898 535.344 103.557C535.344 102.216 535.589 101.034 536.077 100.011C536.572 98.983 537.259 98.1818 538.14 97.608C539.026 97.0284 540.06 96.7386 541.242 96.7386C541.924 96.7386 542.597 96.8523 543.262 97.0795C543.927 97.3068 544.532 97.6761 545.077 98.1875C545.623 98.6932 546.058 99.3636 546.381 100.199C546.705 101.034 546.867 102.062 546.867 103.284V104.136H536.776V102.398H544.822C544.822 101.659 544.674 101 544.379 100.42C544.089 99.8409 543.674 99.3835 543.134 99.0483C542.6 98.7131 541.969 98.5455 541.242 98.5455C540.441 98.5455 539.748 98.7443 539.163 99.142C538.583 99.5341 538.137 100.045 537.825 100.676C537.512 101.307 537.356 101.983 537.356 102.705V103.864C537.356 104.852 537.526 105.69 537.867 106.378C538.214 107.06 538.694 107.58 539.308 107.938C539.921 108.29 540.634 108.466 541.447 108.466C541.975 108.466 542.452 108.392 542.879 108.244C543.31 108.091 543.683 107.864 543.995 107.562C544.308 107.256 544.549 106.875 544.719 106.42L546.663 106.966C546.458 107.625 546.114 108.205 545.631 108.705C545.148 109.199 544.552 109.585 543.842 109.864C543.131 110.136 542.333 110.273 541.447 110.273ZM553.779 110.307C552.95 110.307 552.197 110.151 551.521 109.838C550.844 109.52 550.308 109.062 549.91 108.466C549.512 107.864 549.313 107.136 549.313 106.284C549.313 105.534 549.461 104.926 549.756 104.46C550.052 103.989 550.447 103.619 550.941 103.352C551.435 103.085 551.981 102.886 552.577 102.756C553.18 102.619 553.785 102.511 554.393 102.432C555.188 102.33 555.833 102.253 556.327 102.202C556.827 102.145 557.191 102.051 557.418 101.92C557.651 101.79 557.768 101.562 557.768 101.239V101.17C557.768 100.33 557.538 99.6761 557.077 99.2102C556.623 98.7443 555.933 98.5114 555.006 98.5114C554.046 98.5114 553.293 98.7216 552.748 99.142C552.202 99.5625 551.819 100.011 551.597 100.489L549.688 99.8068C550.029 99.0114 550.484 98.392 551.052 97.9489C551.626 97.5 552.251 97.1875 552.927 97.0114C553.609 96.8295 554.279 96.7386 554.938 96.7386C555.359 96.7386 555.842 96.7898 556.387 96.892C556.938 96.9886 557.469 97.1903 557.981 97.4972C558.498 97.804 558.927 98.267 559.268 98.8864C559.609 99.5057 559.779 100.335 559.779 101.375V110H557.768V108.227H557.665C557.529 108.511 557.302 108.815 556.984 109.139C556.665 109.463 556.242 109.739 555.714 109.966C555.185 110.193 554.54 110.307 553.779 110.307ZM554.086 108.5C554.881 108.5 555.552 108.344 556.097 108.031C556.648 107.719 557.063 107.315 557.342 106.821C557.626 106.327 557.768 105.807 557.768 105.261V103.42C557.683 103.523 557.495 103.616 557.205 103.702C556.921 103.781 556.592 103.852 556.217 103.915C555.847 103.972 555.487 104.023 555.134 104.068C554.788 104.108 554.506 104.142 554.29 104.17C553.768 104.239 553.279 104.349 552.825 104.503C552.376 104.651 552.012 104.875 551.734 105.176C551.461 105.472 551.325 105.875 551.325 106.386C551.325 107.085 551.583 107.614 552.1 107.972C552.623 108.324 553.285 108.5 554.086 108.5ZM563.45 110V96.9091H565.393V98.8864H565.53C565.768 98.2386 566.2 97.7131 566.825 97.3097C567.45 96.9062 568.155 96.7045 568.939 96.7045C569.087 96.7045 569.271 96.7074 569.493 96.7131C569.714 96.7187 569.882 96.7273 569.996 96.7386V98.7841C569.928 98.767 569.771 98.7415 569.527 98.7074C569.288 98.6676 569.036 98.6477 568.768 98.6477C568.132 98.6477 567.564 98.7812 567.064 99.0483C566.57 99.3097 566.178 99.6733 565.888 100.139C565.604 100.599 565.462 101.125 565.462 101.716V110H563.45ZM576.925 110.273C575.834 110.273 574.871 109.997 574.036 109.446C573.2 108.889 572.547 108.105 572.075 107.094C571.604 106.077 571.368 104.875 571.368 103.489C571.368 102.114 571.604 100.92 572.075 99.9091C572.547 98.8977 573.203 98.1165 574.044 97.5653C574.885 97.0142 575.857 96.7386 576.959 96.7386C577.811 96.7386 578.484 96.8807 578.979 97.1648C579.479 97.4432 579.859 97.7614 580.121 98.1193C580.388 98.4716 580.595 98.7614 580.743 98.9886H580.913V92.5455H582.925V110H580.982V107.989H580.743C580.595 108.227 580.385 108.528 580.112 108.892C579.839 109.25 579.45 109.571 578.945 109.855C578.439 110.134 577.766 110.273 576.925 110.273ZM577.197 108.466C578.004 108.466 578.686 108.256 579.243 107.835C579.8 107.409 580.223 106.821 580.513 106.071C580.803 105.315 580.947 104.443 580.947 103.455C580.947 102.477 580.805 101.622 580.521 100.889C580.237 100.151 579.817 99.5767 579.26 99.1676C578.703 98.7528 578.016 98.5455 577.197 98.5455C576.345 98.5455 575.635 98.7642 575.067 99.2017C574.504 99.6335 574.081 100.222 573.797 100.966C573.518 101.705 573.379 102.534 573.379 103.455C573.379 104.386 573.521 105.233 573.805 105.994C574.095 106.75 574.521 107.352 575.084 107.801C575.652 108.244 576.357 108.466 577.197 108.466ZM514.635 132.909L509.794 146H507.749L502.908 132.909H505.09L508.703 143.341H508.84L512.453 132.909H514.635ZM522.14 146.273C520.958 146.273 519.921 145.991 519.029 145.429C518.142 144.866 517.449 144.08 516.949 143.068C516.455 142.057 516.208 140.875 516.208 139.523C516.208 138.159 516.455 136.969 516.949 135.952C517.449 134.935 518.142 134.145 519.029 133.582C519.921 133.02 520.958 132.739 522.14 132.739C523.321 132.739 524.355 133.02 525.242 133.582C526.134 134.145 526.827 134.935 527.321 135.952C527.821 136.969 528.071 138.159 528.071 139.523C528.071 140.875 527.821 142.057 527.321 143.068C526.827 144.08 526.134 144.866 525.242 145.429C524.355 145.991 523.321 146.273 522.14 146.273ZM522.14 144.466C523.037 144.466 523.776 144.236 524.355 143.776C524.935 143.315 525.364 142.71 525.642 141.96C525.921 141.21 526.06 140.398 526.06 139.523C526.06 138.648 525.921 137.832 525.642 137.077C525.364 136.321 524.935 135.71 524.355 135.244C523.776 134.778 523.037 134.545 522.14 134.545C521.242 134.545 520.503 134.778 519.924 135.244C519.344 135.71 518.915 136.321 518.637 137.077C518.358 137.832 518.219 138.648 518.219 139.523C518.219 140.398 518.358 141.21 518.637 141.96C518.915 142.71 519.344 143.315 519.924 143.776C520.503 144.236 521.242 144.466 522.14 144.466ZM531.142 146V132.909H533.153V146H531.142ZM532.164 130.727C531.772 130.727 531.434 130.594 531.15 130.327C530.872 130.06 530.733 129.739 530.733 129.364C530.733 128.989 530.872 128.668 531.15 128.401C531.434 128.134 531.772 128 532.164 128C532.556 128 532.892 128.134 533.17 128.401C533.454 128.668 533.596 128.989 533.596 129.364C533.596 129.739 533.454 130.06 533.17 130.327C532.892 130.594 532.556 130.727 532.164 130.727ZM542.155 146.273C540.928 146.273 539.871 145.983 538.985 145.403C538.098 144.824 537.417 144.026 536.939 143.009C536.462 141.991 536.223 140.83 536.223 139.523C536.223 138.193 536.468 137.02 536.956 136.003C537.451 134.98 538.138 134.182 539.019 133.608C539.905 133.028 540.939 132.739 542.121 132.739C543.042 132.739 543.871 132.909 544.61 133.25C545.348 133.591 545.953 134.068 546.425 134.682C546.897 135.295 547.189 136.011 547.303 136.83H545.292C545.138 136.233 544.797 135.705 544.269 135.244C543.746 134.778 543.042 134.545 542.155 134.545C541.371 134.545 540.684 134.75 540.093 135.159C539.507 135.562 539.05 136.134 538.721 136.872C538.397 137.605 538.235 138.466 538.235 139.455C538.235 140.466 538.394 141.347 538.712 142.097C539.036 142.847 539.49 143.429 540.076 143.844C540.667 144.259 541.36 144.466 542.155 144.466C542.678 144.466 543.152 144.375 543.578 144.193C544.005 144.011 544.365 143.75 544.661 143.409C544.956 143.068 545.167 142.659 545.292 142.182H547.303C547.189 142.955 546.908 143.651 546.459 144.27C546.016 144.884 545.428 145.372 544.695 145.736C543.968 146.094 543.121 146.273 542.155 146.273ZM555.732 146.273C554.471 146.273 553.382 145.994 552.468 145.438C551.559 144.875 550.857 144.091 550.363 143.085C549.874 142.074 549.63 140.898 549.63 139.557C549.63 138.216 549.874 137.034 550.363 136.011C550.857 134.983 551.544 134.182 552.425 133.608C553.311 133.028 554.346 132.739 555.527 132.739C556.209 132.739 556.882 132.852 557.547 133.08C558.212 133.307 558.817 133.676 559.363 134.188C559.908 134.693 560.343 135.364 560.667 136.199C560.99 137.034 561.152 138.062 561.152 139.284V140.136H551.061V138.398H559.107C559.107 137.659 558.959 137 558.664 136.42C558.374 135.841 557.959 135.384 557.419 135.048C556.885 134.713 556.255 134.545 555.527 134.545C554.726 134.545 554.033 134.744 553.448 135.142C552.868 135.534 552.422 136.045 552.11 136.676C551.797 137.307 551.641 137.983 551.641 138.705V139.864C551.641 140.852 551.811 141.69 552.152 142.378C552.499 143.06 552.979 143.58 553.593 143.938C554.206 144.29 554.919 144.466 555.732 144.466C556.26 144.466 556.738 144.392 557.164 144.244C557.596 144.091 557.968 143.864 558.28 143.562C558.593 143.256 558.834 142.875 559.005 142.42L560.948 142.966C560.743 143.625 560.4 144.205 559.917 144.705C559.434 145.199 558.837 145.585 558.127 145.864C557.417 146.136 556.618 146.273 555.732 146.273ZM573.485 135.841L571.678 136.352C571.564 136.051 571.397 135.759 571.175 135.474C570.959 135.185 570.664 134.946 570.289 134.759C569.914 134.571 569.434 134.477 568.848 134.477C568.047 134.477 567.38 134.662 566.846 135.031C566.317 135.395 566.053 135.858 566.053 136.42C566.053 136.92 566.235 137.315 566.598 137.605C566.962 137.895 567.53 138.136 568.303 138.33L570.246 138.807C571.417 139.091 572.289 139.526 572.863 140.111C573.436 140.69 573.723 141.437 573.723 142.352C573.723 143.102 573.507 143.773 573.076 144.364C572.65 144.955 572.053 145.42 571.286 145.761C570.519 146.102 569.627 146.273 568.61 146.273C567.275 146.273 566.169 145.983 565.294 145.403C564.419 144.824 563.865 143.977 563.632 142.864L565.542 142.386C565.723 143.091 566.067 143.619 566.573 143.972C567.084 144.324 567.752 144.5 568.576 144.5C569.513 144.5 570.257 144.301 570.809 143.903C571.365 143.5 571.644 143.017 571.644 142.455C571.644 142 571.485 141.619 571.167 141.312C570.848 141 570.36 140.767 569.701 140.614L567.519 140.102C566.32 139.818 565.439 139.378 564.877 138.781C564.32 138.179 564.042 137.426 564.042 136.523C564.042 135.784 564.249 135.131 564.664 134.562C565.084 133.994 565.655 133.548 566.377 133.224C567.104 132.901 567.928 132.739 568.848 132.739C570.144 132.739 571.161 133.023 571.9 133.591C572.644 134.159 573.172 134.909 573.485 135.841Z" fill="white"/>
<circle cx="959" cy="118.5" r="118.5" fill="#7323F4"/>
<path d="M946.043 81.8409L944.237 82.3523C944.123 82.0511 943.955 81.7585 943.734 81.4744C943.518 81.1847 943.222 80.946 942.847 80.7585C942.472 80.571 941.992 80.4773 941.407 80.4773C940.606 80.4773 939.938 80.6619 939.404 81.0312C938.876 81.3949 938.612 81.858 938.612 82.4205C938.612 82.9205 938.793 83.3153 939.157 83.6051C939.521 83.8949 940.089 84.1364 940.862 84.3295L942.805 84.8068C943.975 85.0909 944.847 85.5256 945.421 86.1108C945.995 86.6903 946.282 87.4375 946.282 88.3523C946.282 89.1023 946.066 89.7727 945.634 90.3636C945.208 90.9545 944.612 91.4205 943.844 91.7614C943.077 92.1023 942.185 92.2727 941.168 92.2727C939.833 92.2727 938.728 91.983 937.853 91.4034C936.978 90.8239 936.424 89.9773 936.191 88.8636L938.1 88.3864C938.282 89.0909 938.626 89.6193 939.131 89.9716C939.643 90.3239 940.31 90.5 941.134 90.5C942.072 90.5 942.816 90.3011 943.367 89.9034C943.924 89.5 944.202 89.017 944.202 88.4545C944.202 88 944.043 87.6193 943.725 87.3125C943.407 87 942.918 86.767 942.259 86.6136L940.077 86.1023C938.879 85.8182 937.998 85.3778 937.435 84.7812C936.879 84.179 936.6 83.4261 936.6 82.5227C936.6 81.7841 936.808 81.1307 937.222 80.5625C937.643 79.9943 938.214 79.5483 938.935 79.2244C939.663 78.9006 940.487 78.7386 941.407 78.7386C942.702 78.7386 943.719 79.0227 944.458 79.5909C945.202 80.1591 945.731 80.9091 946.043 81.8409ZM953.162 92.3068C952.332 92.3068 951.58 92.1506 950.903 91.8381C950.227 91.5199 949.69 91.0625 949.293 90.4659C948.895 89.8636 948.696 89.1364 948.696 88.2841C948.696 87.5341 948.844 86.9261 949.139 86.4602C949.435 85.9886 949.83 85.6193 950.324 85.3523C950.818 85.0852 951.364 84.8864 951.96 84.7557C952.563 84.6193 953.168 84.5114 953.776 84.4318C954.571 84.3295 955.216 84.2528 955.71 84.2017C956.21 84.1449 956.574 84.0511 956.801 83.9205C957.034 83.7898 957.151 83.5625 957.151 83.2386V83.1705C957.151 82.3295 956.92 81.6761 956.46 81.2102C956.006 80.7443 955.315 80.5114 954.389 80.5114C953.429 80.5114 952.676 80.7216 952.131 81.142C951.585 81.5625 951.202 82.0114 950.98 82.4886L949.071 81.8068C949.412 81.0114 949.866 80.392 950.435 79.9489C951.009 79.5 951.634 79.1875 952.31 79.0114C952.991 78.8295 953.662 78.7386 954.321 78.7386C954.741 78.7386 955.224 78.7898 955.77 78.892C956.321 78.9886 956.852 79.1903 957.364 79.4972C957.881 79.804 958.31 80.267 958.651 80.8864C958.991 81.5057 959.162 82.3352 959.162 83.375V92H957.151V90.2273H957.048C956.912 90.5114 956.685 90.8153 956.366 91.1392C956.048 91.4631 955.625 91.7386 955.097 91.9659C954.568 92.1932 953.923 92.3068 953.162 92.3068ZM953.469 90.5C954.264 90.5 954.935 90.3438 955.48 90.0312C956.031 89.7188 956.446 89.3153 956.724 88.821C957.009 88.3267 957.151 87.8068 957.151 87.2614V85.4205C957.065 85.5227 956.878 85.6165 956.588 85.7017C956.304 85.7812 955.974 85.8523 955.599 85.9148C955.23 85.9716 954.869 86.0227 954.517 86.0682C954.17 86.108 953.889 86.142 953.673 86.1705C953.151 86.2386 952.662 86.3494 952.207 86.5028C951.759 86.6506 951.395 86.875 951.116 87.1761C950.844 87.4716 950.707 87.875 950.707 88.3864C950.707 89.0852 950.966 89.6136 951.483 89.9716C952.006 90.3239 952.668 90.5 953.469 90.5ZM968.663 78.9091V80.6136H961.606V78.9091H968.663ZM963.719 92V77.1023C963.719 76.3523 963.896 75.7273 964.248 75.2273C964.6 74.7273 965.058 74.3523 965.62 74.1023C966.183 73.8523 966.776 73.7273 967.401 73.7273C967.896 73.7273 968.299 73.767 968.612 73.8466C968.924 73.9261 969.157 74 969.31 74.0682L968.731 75.8068C968.629 75.7727 968.487 75.7301 968.305 75.679C968.129 75.6278 967.896 75.6023 967.606 75.6023C966.941 75.6023 966.461 75.7699 966.165 76.1051C965.876 76.4403 965.731 76.9318 965.731 77.5795V92H963.719ZM976.431 92.2727C975.17 92.2727 974.082 91.9943 973.167 91.4375C972.258 90.875 971.556 90.0909 971.062 89.0852C970.573 88.0739 970.329 86.8977 970.329 85.5568C970.329 84.2159 970.573 83.0341 971.062 82.0114C971.556 80.983 972.244 80.1818 973.124 79.608C974.011 79.0284 975.045 78.7386 976.227 78.7386C976.908 78.7386 977.582 78.8523 978.246 79.0795C978.911 79.3068 979.516 79.6761 980.062 80.1875C980.607 80.6932 981.042 81.3636 981.366 82.1989C981.69 83.0341 981.852 84.0625 981.852 85.2841V86.1364H971.761V84.3977H979.806C979.806 83.6591 979.658 83 979.363 82.4205C979.073 81.8409 978.658 81.3835 978.119 81.0483C977.585 80.7131 976.954 80.5455 976.227 80.5455C975.425 80.5455 974.732 80.7443 974.147 81.142C973.567 81.5341 973.121 82.0455 972.809 82.6761C972.496 83.3068 972.34 83.983 972.34 84.7045V85.8636C972.34 86.8523 972.511 87.6903 972.852 88.3778C973.198 89.0597 973.678 89.5795 974.292 89.9375C974.906 90.2898 975.619 90.4659 976.431 90.4659C976.96 90.4659 977.437 90.392 977.863 90.2443C978.295 90.0909 978.667 89.8636 978.979 89.5625C979.292 89.2557 979.533 88.875 979.704 88.4205L981.647 88.9659C981.442 89.625 981.099 90.2045 980.616 90.7045C980.133 91.1989 979.536 91.5852 978.826 91.8636C978.116 92.1364 977.317 92.2727 976.431 92.2727ZM918.947 128L914.959 114.909H917.072L919.902 124.932H920.038L922.834 114.909H924.982L927.743 124.898H927.879L930.709 114.909H932.822L928.834 128H926.857L923.993 117.943H923.788L920.925 128H918.947ZM940.354 128.273C939.173 128.273 938.136 127.991 937.244 127.429C936.357 126.866 935.664 126.08 935.164 125.068C934.67 124.057 934.423 122.875 934.423 121.523C934.423 120.159 934.67 118.969 935.164 117.952C935.664 116.935 936.357 116.145 937.244 115.582C938.136 115.02 939.173 114.739 940.354 114.739C941.536 114.739 942.57 115.02 943.457 115.582C944.349 116.145 945.042 116.935 945.536 117.952C946.036 118.969 946.286 120.159 946.286 121.523C946.286 122.875 946.036 124.057 945.536 125.068C945.042 126.08 944.349 126.866 943.457 127.429C942.57 127.991 941.536 128.273 940.354 128.273ZM940.354 126.466C941.252 126.466 941.991 126.236 942.57 125.776C943.15 125.315 943.579 124.71 943.857 123.96C944.136 123.21 944.275 122.398 944.275 121.523C944.275 120.648 944.136 119.832 943.857 119.077C943.579 118.321 943.15 117.71 942.57 117.244C941.991 116.778 941.252 116.545 940.354 116.545C939.457 116.545 938.718 116.778 938.138 117.244C937.559 117.71 937.13 118.321 936.852 119.077C936.573 119.832 936.434 120.648 936.434 121.523C936.434 122.398 936.573 123.21 936.852 123.96C937.13 124.71 937.559 125.315 938.138 125.776C938.718 126.236 939.457 126.466 940.354 126.466ZM949.357 128V114.909H951.3V116.886H951.436C951.675 116.239 952.107 115.713 952.732 115.31C953.357 114.906 954.061 114.705 954.845 114.705C954.993 114.705 955.178 114.707 955.399 114.713C955.621 114.719 955.788 114.727 955.902 114.739V116.784C955.834 116.767 955.678 116.741 955.433 116.707C955.195 116.668 954.942 116.648 954.675 116.648C954.038 116.648 953.47 116.781 952.97 117.048C952.476 117.31 952.084 117.673 951.794 118.139C951.51 118.599 951.368 119.125 951.368 119.716V128H949.357ZM960.161 123.227L960.127 120.739H960.536L966.263 114.909H968.752L962.65 121.08H962.479L960.161 123.227ZM958.286 128V110.545H960.298V128H958.286ZM966.604 128L961.491 121.523L962.923 120.125L969.161 128H966.604ZM971.341 128V114.909H973.352V128H971.341ZM972.364 112.727C971.972 112.727 971.634 112.594 971.349 112.327C971.071 112.06 970.932 111.739 970.932 111.364C970.932 110.989 971.071 110.668 971.349 110.401C971.634 110.134 971.972 110 972.364 110C972.756 110 973.091 110.134 973.369 110.401C973.653 110.668 973.795 110.989 973.795 111.364C973.795 111.739 973.653 112.06 973.369 112.327C973.091 112.594 972.756 112.727 972.364 112.727ZM979.048 120.125V128H977.036V114.909H978.979V116.955H979.15C979.457 116.29 979.923 115.756 980.548 115.352C981.173 114.943 981.979 114.739 982.968 114.739C983.854 114.739 984.63 114.92 985.295 115.284C985.96 115.642 986.477 116.188 986.846 116.92C987.215 117.648 987.4 118.568 987.4 119.682V128H985.388V119.818C985.388 118.79 985.121 117.989 984.587 117.415C984.053 116.835 983.32 116.545 982.388 116.545C981.746 116.545 981.173 116.685 980.667 116.963C980.167 117.241 979.772 117.648 979.482 118.182C979.192 118.716 979.048 119.364 979.048 120.125ZM996.359 133.182C995.388 133.182 994.553 133.057 993.854 132.807C993.155 132.562 992.572 132.239 992.107 131.835C991.646 131.438 991.28 131.011 991.007 130.557L992.609 129.432C992.791 129.67 993.021 129.943 993.3 130.25C993.578 130.562 993.959 130.832 994.442 131.06C994.93 131.293 995.57 131.409 996.359 131.409C997.416 131.409 998.288 131.153 998.976 130.642C999.663 130.131 1000.01 129.33 1000.01 128.239V125.58H999.837C999.689 125.818 999.479 126.114 999.206 126.466C998.939 126.812 998.553 127.122 998.047 127.395C997.547 127.662 996.871 127.795 996.018 127.795C994.962 127.795 994.013 127.545 993.172 127.045C992.337 126.545 991.675 125.818 991.186 124.864C990.703 123.909 990.462 122.75 990.462 121.386C990.462 120.045 990.697 118.878 991.169 117.884C991.641 116.884 992.297 116.111 993.138 115.565C993.979 115.014 994.95 114.739 996.053 114.739C996.905 114.739 997.581 114.881 998.081 115.165C998.587 115.443 998.973 115.761 999.24 116.119C999.513 116.472 999.723 116.761 999.871 116.989H1000.08V114.909H1002.02V128.375C1002.02 129.5 1001.76 130.415 1001.25 131.119C1000.75 131.83 1000.06 132.349 999.206 132.679C998.354 133.014 997.405 133.182 996.359 133.182ZM996.291 125.989C997.098 125.989 997.78 125.804 998.337 125.435C998.893 125.065 999.317 124.534 999.607 123.841C999.896 123.148 1000.04 122.318 1000.04 121.352C1000.04 120.409 999.899 119.577 999.615 118.855C999.331 118.134 998.911 117.568 998.354 117.159C997.797 116.75 997.109 116.545 996.291 116.545C995.439 116.545 994.729 116.761 994.161 117.193C993.598 117.625 993.175 118.205 992.891 118.932C992.612 119.659 992.473 120.466 992.473 121.352C992.473 122.261 992.615 123.065 992.899 123.764C993.189 124.457 993.615 125.003 994.178 125.401C994.746 125.793 995.45 125.989 996.291 125.989ZM898.29 164.273C897.029 164.273 895.941 163.994 895.026 163.438C894.117 162.875 893.415 162.091 892.921 161.085C892.433 160.074 892.188 158.898 892.188 157.557C892.188 156.216 892.433 155.034 892.921 154.011C893.415 152.983 894.103 152.182 894.984 151.608C895.87 151.028 896.904 150.739 898.086 150.739C898.768 150.739 899.441 150.852 900.106 151.08C900.771 151.307 901.376 151.676 901.921 152.188C902.467 152.693 902.901 153.364 903.225 154.199C903.549 155.034 903.711 156.062 903.711 157.284V158.136H893.62V156.398H901.665C901.665 155.659 901.518 155 901.222 154.42C900.933 153.841 900.518 153.384 899.978 153.048C899.444 152.713 898.813 152.545 898.086 152.545C897.285 152.545 896.592 152.744 896.006 153.142C895.427 153.534 894.981 154.045 894.668 154.676C894.356 155.307 894.2 155.983 894.2 156.705V157.864C894.2 158.852 894.37 159.69 894.711 160.378C895.058 161.06 895.538 161.58 896.151 161.938C896.765 162.29 897.478 162.466 898.29 162.466C898.819 162.466 899.296 162.392 899.722 162.244C900.154 162.091 900.526 161.864 900.839 161.562C901.151 161.256 901.393 160.875 901.563 160.42L903.506 160.966C903.302 161.625 902.958 162.205 902.475 162.705C901.992 163.199 901.396 163.585 900.685 163.864C899.975 164.136 899.177 164.273 898.29 164.273ZM912.089 164.273C910.862 164.273 909.805 163.983 908.918 163.403C908.032 162.824 907.35 162.026 906.873 161.009C906.396 159.991 906.157 158.83 906.157 157.523C906.157 156.193 906.401 155.02 906.89 154.003C907.384 152.98 908.072 152.182 908.952 151.608C909.839 151.028 910.873 150.739 912.055 150.739C912.975 150.739 913.805 150.909 914.543 151.25C915.282 151.591 915.887 152.068 916.359 152.682C916.83 153.295 917.123 154.011 917.237 154.83H915.225C915.072 154.233 914.731 153.705 914.202 153.244C913.68 152.778 912.975 152.545 912.089 152.545C911.305 152.545 910.617 152.75 910.026 153.159C909.441 153.562 908.984 154.134 908.654 154.872C908.33 155.605 908.168 156.466 908.168 157.455C908.168 158.466 908.327 159.347 908.646 160.097C908.969 160.847 909.424 161.429 910.009 161.844C910.6 162.259 911.293 162.466 912.089 162.466C912.612 162.466 913.086 162.375 913.512 162.193C913.938 162.011 914.299 161.75 914.594 161.409C914.89 161.068 915.1 160.659 915.225 160.182H917.237C917.123 160.955 916.842 161.651 916.393 162.27C915.95 162.884 915.362 163.372 914.629 163.736C913.901 164.094 913.055 164.273 912.089 164.273ZM925.495 164.273C924.313 164.273 923.276 163.991 922.384 163.429C921.498 162.866 920.805 162.08 920.305 161.068C919.81 160.057 919.563 158.875 919.563 157.523C919.563 156.159 919.81 154.969 920.305 153.952C920.805 152.935 921.498 152.145 922.384 151.582C923.276 151.02 924.313 150.739 925.495 150.739C926.677 150.739 927.711 151.02 928.597 151.582C929.489 152.145 930.183 152.935 930.677 153.952C931.177 154.969 931.427 156.159 931.427 157.523C931.427 158.875 931.177 160.057 930.677 161.068C930.183 162.08 929.489 162.866 928.597 163.429C927.711 163.991 926.677 164.273 925.495 164.273ZM925.495 162.466C926.393 162.466 927.131 162.236 927.711 161.776C928.29 161.315 928.719 160.71 928.998 159.96C929.276 159.21 929.415 158.398 929.415 157.523C929.415 156.648 929.276 155.832 928.998 155.077C928.719 154.321 928.29 153.71 927.711 153.244C927.131 152.778 926.393 152.545 925.495 152.545C924.597 152.545 923.859 152.778 923.279 153.244C922.7 153.71 922.271 154.321 921.992 155.077C921.714 155.832 921.575 156.648 921.575 157.523C921.575 158.398 921.714 159.21 921.992 159.96C922.271 160.71 922.7 161.315 923.279 161.776C923.859 162.236 924.597 162.466 925.495 162.466ZM943.77 153.841L941.963 154.352C941.849 154.051 941.682 153.759 941.46 153.474C941.244 153.185 940.949 152.946 940.574 152.759C940.199 152.571 939.719 152.477 939.134 152.477C938.332 152.477 937.665 152.662 937.131 153.031C936.602 153.395 936.338 153.858 936.338 154.42C936.338 154.92 936.52 155.315 936.884 155.605C937.247 155.895 937.815 156.136 938.588 156.33L940.531 156.807C941.702 157.091 942.574 157.526 943.148 158.111C943.722 158.69 944.009 159.437 944.009 160.352C944.009 161.102 943.793 161.773 943.361 162.364C942.935 162.955 942.338 163.42 941.571 163.761C940.804 164.102 939.912 164.273 938.895 164.273C937.56 164.273 936.455 163.983 935.58 163.403C934.705 162.824 934.151 161.977 933.918 160.864L935.827 160.386C936.009 161.091 936.352 161.619 936.858 161.972C937.369 162.324 938.037 162.5 938.861 162.5C939.798 162.5 940.543 162.301 941.094 161.903C941.651 161.5 941.929 161.017 941.929 160.455C941.929 160 941.77 159.619 941.452 159.312C941.134 159 940.645 158.767 939.986 158.614L937.804 158.102C936.605 157.818 935.724 157.378 935.162 156.781C934.605 156.179 934.327 155.426 934.327 154.523C934.327 153.784 934.534 153.131 934.949 152.562C935.369 151.994 935.94 151.548 936.662 151.224C937.389 150.901 938.213 150.739 939.134 150.739C940.429 150.739 941.446 151.023 942.185 151.591C942.929 152.159 943.457 152.909 943.77 153.841ZM948.332 168.909C947.991 168.909 947.687 168.881 947.42 168.824C947.153 168.773 946.968 168.722 946.866 168.67L947.377 166.898C947.866 167.023 948.298 167.068 948.673 167.034C949.048 167 949.38 166.832 949.67 166.531C949.965 166.236 950.235 165.756 950.479 165.091L950.854 164.068L946.013 150.909H948.195L951.809 161.341H951.945L955.559 150.909H957.741L952.184 165.909C951.934 166.585 951.624 167.145 951.255 167.588C950.886 168.037 950.457 168.369 949.968 168.585C949.485 168.801 948.94 168.909 948.332 168.909ZM969.668 153.841L967.862 154.352C967.748 154.051 967.58 153.759 967.359 153.474C967.143 153.185 966.847 152.946 966.472 152.759C966.097 152.571 965.617 152.477 965.032 152.477C964.231 152.477 963.563 152.662 963.029 153.031C962.501 153.395 962.237 153.858 962.237 154.42C962.237 154.92 962.418 155.315 962.782 155.605C963.146 155.895 963.714 156.136 964.487 156.33L966.43 156.807C967.6 157.091 968.472 157.526 969.046 158.111C969.62 158.69 969.907 159.437 969.907 160.352C969.907 161.102 969.691 161.773 969.259 162.364C968.833 162.955 968.237 163.42 967.469 163.761C966.702 164.102 965.81 164.273 964.793 164.273C963.458 164.273 962.353 163.983 961.478 163.403C960.603 162.824 960.049 161.977 959.816 160.864L961.725 160.386C961.907 161.091 962.251 161.619 962.756 161.972C963.268 162.324 963.935 162.5 964.759 162.5C965.697 162.5 966.441 162.301 966.992 161.903C967.549 161.5 967.827 161.017 967.827 160.455C967.827 160 967.668 159.619 967.35 159.312C967.032 159 966.543 158.767 965.884 158.614L963.702 158.102C962.504 157.818 961.623 157.378 961.06 156.781C960.504 156.179 960.225 155.426 960.225 154.523C960.225 153.784 960.433 153.131 960.847 152.562C961.268 151.994 961.839 151.548 962.56 151.224C963.288 150.901 964.112 150.739 965.032 150.739C966.327 150.739 967.344 151.023 968.083 151.591C968.827 152.159 969.356 152.909 969.668 153.841ZM978.628 150.909V152.614H971.844V150.909H978.628ZM973.821 147.773H975.832V160.25C975.832 160.818 975.915 161.244 976.08 161.528C976.25 161.807 976.466 161.994 976.727 162.091C976.994 162.182 977.276 162.227 977.571 162.227C977.793 162.227 977.974 162.216 978.116 162.193C978.259 162.165 978.372 162.142 978.457 162.125L978.866 163.932C978.73 163.983 978.54 164.034 978.295 164.085C978.051 164.142 977.741 164.17 977.366 164.17C976.798 164.17 976.241 164.048 975.696 163.804C975.156 163.56 974.707 163.188 974.349 162.688C973.997 162.188 973.821 161.557 973.821 160.795V147.773ZM987.001 164.273C985.74 164.273 984.652 163.994 983.737 163.438C982.828 162.875 982.126 162.091 981.632 161.085C981.143 160.074 980.899 158.898 980.899 157.557C980.899 156.216 981.143 155.034 981.632 154.011C982.126 152.983 982.814 152.182 983.695 151.608C984.581 151.028 985.615 150.739 986.797 150.739C987.479 150.739 988.152 150.852 988.817 151.08C989.482 151.307 990.087 151.676 990.632 152.188C991.178 152.693 991.612 153.364 991.936 154.199C992.26 155.034 992.422 156.062 992.422 157.284V158.136H982.331V156.398H990.376C990.376 155.659 990.229 155 989.933 154.42C989.643 153.841 989.229 153.384 988.689 153.048C988.155 152.713 987.524 152.545 986.797 152.545C985.996 152.545 985.303 152.744 984.717 153.142C984.138 153.534 983.692 154.045 983.379 154.676C983.067 155.307 982.911 155.983 982.911 156.705V157.864C982.911 158.852 983.081 159.69 983.422 160.378C983.768 161.06 984.249 161.58 984.862 161.938C985.476 162.29 986.189 162.466 987.001 162.466C987.53 162.466 988.007 162.392 988.433 162.244C988.865 162.091 989.237 161.864 989.55 161.562C989.862 161.256 990.104 160.875 990.274 160.42L992.217 160.966C992.013 161.625 991.669 162.205 991.186 162.705C990.703 163.199 990.107 163.585 989.396 163.864C988.686 164.136 987.888 164.273 987.001 164.273ZM995.482 164V150.909H997.425V152.955H997.595C997.868 152.256 998.308 151.713 998.916 151.327C999.524 150.935 1000.25 150.739 1001.11 150.739C1001.97 150.739 1002.69 150.935 1003.26 151.327C1003.84 151.713 1004.29 152.256 1004.62 152.955H1004.75C1005.09 152.278 1005.59 151.741 1006.26 151.344C1006.93 150.94 1007.74 150.739 1008.67 150.739C1009.85 150.739 1010.8 151.105 1011.55 151.838C1012.29 152.565 1012.66 153.699 1012.66 155.239V164H1010.65V155.239C1010.65 154.273 1010.39 153.582 1009.86 153.168C1009.33 152.753 1008.71 152.545 1007.99 152.545C1007.07 152.545 1006.36 152.824 1005.85 153.381C1005.35 153.932 1005.1 154.631 1005.1 155.477V164H1003.05V155.034C1003.05 154.29 1002.81 153.69 1002.33 153.236C1001.84 152.776 1001.22 152.545 1000.46 152.545C999.936 152.545 999.447 152.685 998.993 152.963C998.544 153.241 998.18 153.628 997.902 154.122C997.629 154.611 997.493 155.176 997.493 155.818V164H995.482ZM1025.61 153.841L1023.81 154.352C1023.69 154.051 1023.53 153.759 1023.3 153.474C1023.09 153.185 1022.79 152.946 1022.42 152.759C1022.04 152.571 1021.56 152.477 1020.98 152.477C1020.18 152.477 1019.51 152.662 1018.97 153.031C1018.45 153.395 1018.18 153.858 1018.18 154.42C1018.18 154.92 1018.36 155.315 1018.73 155.605C1019.09 155.895 1019.66 156.136 1020.43 156.33L1022.38 156.807C1023.55 157.091 1024.42 157.526 1024.99 158.111C1025.57 158.69 1025.85 159.437 1025.85 160.352C1025.85 161.102 1025.64 161.773 1025.2 162.364C1024.78 162.955 1024.18 163.42 1023.41 163.761C1022.65 164.102 1021.76 164.273 1020.74 164.273C1019.4 164.273 1018.3 163.983 1017.42 163.403C1016.55 162.824 1015.99 161.977 1015.76 160.864L1017.67 160.386C1017.85 161.091 1018.2 161.619 1018.7 161.972C1019.21 162.324 1019.88 162.5 1020.7 162.5C1021.64 162.5 1022.39 162.301 1022.94 161.903C1023.49 161.5 1023.77 161.017 1023.77 160.455C1023.77 160 1023.61 159.619 1023.3 159.312C1022.98 159 1022.49 158.767 1021.83 158.614L1019.65 158.102C1018.45 157.818 1017.57 157.378 1017.01 156.781C1016.45 156.179 1016.17 155.426 1016.17 154.523C1016.17 153.784 1016.38 153.131 1016.79 152.562C1017.21 151.994 1017.78 151.548 1018.51 151.224C1019.23 150.901 1020.06 150.739 1020.98 150.739C1022.27 150.739 1023.29 151.023 1024.03 151.591C1024.77 152.159 1025.3 152.909 1025.61 153.841Z" fill="white"/>
<path d="M229.307 77.56C256.656 118.158 373.993 164.663 429.5 158" stroke="#FA6400" stroke-width="2" stroke-dasharray="30 30"/>
<path d="M652.5 148.963C683.516 197.894 821.592 67.6891 849.5 77.5338" stroke="#FA6400" stroke-width="2" stroke-dasharray="30 30"/>
</svg>
