<svg width="53" height="55" viewBox="0 0 53 55" fill="none" xmlns="http://www.w3.org/2000/svg">
<path d="M26.3393 0C21.1298 0 16.0374 1.61285 11.706 4.63458C7.37449 7.65632 3.99852 11.9512 2.00497 16.9762C0.0114123 22.0012 -0.510192 27.5305 0.506113 32.865C1.52242 38.1995 4.03099 43.0995 7.7146 46.9454C11.3982 50.7914 16.0914 53.4105 21.2007 54.4716C26.31 55.5327 31.606 54.9881 36.4188 52.9067C41.2317 50.8253 45.3453 47.3005 48.2395 42.7782C51.1337 38.2558 52.6785 32.939 52.6785 27.5C52.6706 20.2091 49.8931 13.2191 44.9552 8.06363C40.0174 2.90816 33.3224 0.00821178 26.3393 0ZM26.3393 50.7692C21.9313 50.7692 17.6223 49.4045 13.9572 46.8477C10.2921 44.2908 7.43556 40.6566 5.7487 36.4047C4.06185 32.1528 3.62049 27.4742 4.48044 22.9604C5.34039 18.4466 7.46303 14.3004 10.5799 11.0462C13.6968 7.79191 17.668 5.57573 21.9913 4.67788C26.3145 3.78003 30.7957 4.24084 34.8681 6.00203C38.9406 7.76323 42.4213 10.7457 44.8703 14.5723C47.3192 18.3989 48.6263 22.8978 48.6263 27.5C48.6199 33.6693 46.2697 39.584 42.0915 43.9464C37.9132 48.3088 32.2482 50.7625 26.3393 50.7692Z" fill="white"/>
<path d="M38.4137 31.1668L36.0175 33.6658V20.4489C36.0175 19.8878 35.8041 19.3498 35.4241 18.9531C35.0441 18.5564 34.5288 18.3335 33.9914 18.3335C33.4541 18.3335 32.9387 18.5564 32.5588 18.9531C32.1788 19.3498 31.9653 19.8878 31.9653 20.4489V33.6743L29.5799 31.1668C29.1959 30.7932 28.6879 30.5897 28.163 30.5994C27.6381 30.6091 27.1373 30.8311 26.766 31.2187C26.3948 31.6062 26.1822 32.1291 26.1729 32.6771C26.1637 33.2252 26.3585 33.7556 26.7164 34.1566L32.5515 40.2771C32.7373 40.473 32.9587 40.6283 33.2026 40.734C33.4499 40.842 33.7153 40.8976 33.9833 40.8976C34.2514 40.8976 34.5167 40.842 34.764 40.734C35.008 40.6283 35.2293 40.473 35.4151 40.2771L41.2692 34.165C41.627 33.764 41.8219 33.2336 41.8126 32.6856C41.8034 32.1376 41.5907 31.6147 41.2195 31.2271C40.8483 30.8395 40.3475 30.6175 39.8226 30.6079C39.2977 30.5982 38.7897 30.8016 38.4056 31.1753L38.4137 31.1668Z" fill="white"/>
<path d="M25.9674 20.8351L20.1241 14.7231C19.9383 14.5271 19.717 14.3718 19.4731 14.2661C19.2258 14.1581 18.9604 14.1025 18.6924 14.1025C18.4243 14.1025 18.1589 14.1581 17.9116 14.2661C17.6677 14.3718 17.4464 14.5271 17.2606 14.7231L11.3984 20.8351C11.0176 21.2316 10.8033 21.7697 10.8025 22.3312C10.8017 22.8927 11.0146 23.4315 11.3944 23.8291C11.7741 24.2267 12.2895 24.4505 12.8273 24.4513C13.3651 24.4521 13.8812 24.2298 14.262 23.8333L16.6582 21.3343V34.5513C16.6582 35.1123 16.8716 35.6503 17.2516 36.0471C17.6316 36.4438 18.1469 36.6666 18.6843 36.6666C19.2216 36.6666 19.737 36.4438 20.1169 36.0471C20.4969 35.6503 20.7104 35.1123 20.7104 34.5513V21.3259L23.1039 23.8248C23.4879 24.1985 23.9959 24.4019 24.5208 24.3923C25.0457 24.3826 25.5465 24.1606 25.9177 23.773C26.289 23.3854 26.5016 22.8626 26.5109 22.3145C26.5201 21.7665 26.3253 21.2361 25.9674 20.8351Z" fill="white"/>
</svg>
