<svg width="185" height="210" viewBox="0 0 185 210" fill="none" xmlns="http://www.w3.org/2000/svg">
<path d="M42.5784 192C40.6451 195.214 37.6377 196.5 35.06 195C33.5563 194.143 32.6971 192.857 32.6971 191.357L29.6897 196.5L27.9712 195.429L35.9192 181.286L37.6377 182.143L36.5637 184.071H36.7785C38.0674 183.214 39.7858 183.214 41.2895 184.071C43.8673 185.571 44.5117 188.786 42.5784 192ZM40.6451 190.929C41.934 188.571 41.7192 186.429 39.7858 185.357C37.8525 184.286 35.9192 185.143 34.4155 187.5C33.1267 189.857 33.3415 192 35.2748 193.071C37.4229 194.143 39.3562 193.5 40.6451 190.929Z" fill="white"/>
<path d="M49.8824 183.428L51.8157 184.285L44.7269 199.714L42.7936 198.857L49.8824 183.428Z" fill="white"/>
<path d="M48.8079 197.785C49.4524 195.857 51.3857 195.214 54.1782 195.857L57.6152 196.928L58.0448 195.857C58.4745 194.571 58.0448 193.285 56.3263 192.857C54.8227 192.428 53.7486 192.643 53.1042 193.5L51.1709 192.857C52.0301 190.928 54.393 190.285 56.9708 191.143C59.7633 192.214 60.8374 194.143 59.9782 196.5L57.1856 204.428L55.4671 203.785L56.1115 202.071C55.0375 203.143 53.319 203.357 51.8153 202.714C49.2376 201.857 48.1635 199.928 48.8079 197.785ZM56.756 199.5L57.1856 198.428L54.1782 197.571C52.4597 197.143 51.3857 197.357 50.9561 198.428C50.5264 199.5 51.1709 200.571 52.6745 201C54.393 201.857 56.1115 201 56.756 199.5Z" fill="white"/>
<path d="M63.8454 193.714L65.7788 194.142L65.3491 196.071H65.5639C66.4232 195 67.9269 194.357 69.6454 194.785C72.2231 195.428 73.2972 197.357 72.6527 200.142L70.9342 207.857L69.0009 207.428L70.7194 200.142C71.1491 198.214 70.5046 196.928 68.7861 196.5C66.8528 196.071 65.3491 197.142 64.9195 199.071L63.201 206.142L61.2677 205.714L63.8454 193.714Z" fill="white"/>
<path d="M85.5424 206.357C84.898 208.5 82.7499 209.571 80.1721 209.357C76.7351 208.928 75.0166 206.357 75.2314 202.5C75.6611 198.642 78.024 196.5 81.461 196.714C84.6832 197.142 86.4017 199.714 85.972 203.357V204.214L77.3796 203.357C77.1647 205.714 78.4536 207.428 80.3869 207.642C81.8906 207.857 83.1795 207.214 83.6091 206.142L85.5424 206.357ZM77.3796 201.642L84.0387 202.285C84.2535 200.142 83.1795 198.642 81.2462 198.428C79.0981 198.428 77.8092 199.714 77.3796 201.642Z" fill="white"/>
<path d="M91.556 194.571V197.571H94.1337V199.286H91.556L91.3411 206.357C91.3411 207.643 91.7708 208.071 93.0596 208.286C93.2744 208.286 93.7041 208.286 93.9189 208.286V210C93.7041 210 93.0596 210 92.63 210C90.2671 210 89.4078 208.928 89.4078 206.786L89.6226 199.5H87.6893V197.786H89.6226V194.786L91.556 194.571Z" fill="white"/>
<path d="M113.252 204.857C113.037 207 111.319 208.714 108.741 208.929C105.304 209.357 102.941 207.214 102.512 203.357C102.082 199.5 103.801 196.714 107.238 196.286C110.46 195.857 112.823 198 113.252 201.643V202.5L104.66 203.571C105.089 205.929 106.593 207.214 108.741 207C110.245 206.786 111.319 205.929 111.534 204.857H113.252ZM104.23 202.071L110.675 201.214C110.46 199.071 108.956 198 107.023 198.214C105.304 198.429 104.015 200.143 104.23 202.071Z" fill="white"/>
<path d="M116.045 204.214C115.615 202.071 116.689 200.571 119.482 199.714L122.704 198.643L122.489 197.571C122.059 196.071 120.985 195.643 119.267 196.071C117.763 196.5 116.904 197.357 117.119 198.428L115.185 198.857C114.971 196.928 116.259 195 119.052 194.357C121.845 193.714 123.993 194.786 124.637 197.143L126.785 205.286L124.852 205.714L124.422 203.786H124.207C123.778 205.286 122.704 206.357 120.985 206.786C118.408 207.214 116.474 206.357 116.045 204.214ZM123.348 201.214L123.133 200.143L120.126 201.214C118.408 201.643 117.763 202.714 117.978 203.786C118.193 204.857 119.482 205.5 120.77 205.071C122.704 204.429 123.778 202.714 123.348 201.214Z" fill="white"/>
<path d="M126.139 192.429L127.858 191.786L128.502 193.5C128.502 192.214 129.361 190.928 130.865 190.5C131.08 190.286 131.509 190.286 131.724 190.286L132.369 192.214C132.154 192.214 131.724 192.429 131.295 192.429C129.576 193.071 128.932 194.571 129.576 196.071L132.154 203.143L130.22 203.786L126.139 192.429Z" fill="white"/>
<path d="M135.162 185.571L136.451 188.357L138.814 187.286L139.458 188.786L137.095 189.857L139.888 196.286C140.318 197.357 141.177 197.786 142.251 197.357C142.466 197.143 142.895 197.143 143.11 196.928L143.755 198.428C143.54 198.643 143.11 198.857 142.68 199.071C140.532 200.143 139.243 199.5 138.384 197.571L135.377 190.928L133.658 191.786L133.014 190.286L134.732 189.428L133.444 186.643L135.162 185.571Z" fill="white"/>
<path d="M138.6 182.143L140.318 181.071L143.54 186.857C143.326 185.357 144.185 184.071 145.689 183.214C148.051 181.928 150.2 182.571 151.703 184.928L155.57 191.786L153.851 192.857L150.2 186.428C149.125 184.714 147.837 184.286 146.118 185.143C144.4 186.214 143.97 187.928 145.044 189.643L148.481 195.857L146.763 196.928L138.6 182.143Z" fill="white"/>
<path d="M185 91.9286C185 86.5714 179.2 82.2857 149.556 82.2857C146.334 82.2857 143.112 82.5 139.675 82.5C142.897 81.4286 145.904 80.1429 148.912 79.0714C176.408 67.5 179.845 61.2857 177.911 56.3572C175.763 51.4286 168.889 49.7143 141.393 61.0714C139.03 62.1429 136.453 63.2143 133.875 64.5C136.023 62.5714 137.956 60.8571 139.89 58.9286C160.941 37.9286 161.8 30.8571 158.149 27C154.282 23.1429 147.193 24.2143 126.142 45.2143C123.993 47.3571 121.631 49.9286 119.482 52.2857C120.986 49.2857 122.275 46.2857 123.564 43.2857C134.734 15.8571 133.016 8.78571 127.86 6.85714C122.705 4.71429 116.475 8.35714 105.305 35.7857C104.231 38.1429 103.371 40.7143 102.512 43.5C102.727 40.7143 102.727 37.9286 102.727 35.3571C102.727 5.78571 98.4308 0 93.0605 0C87.6902 0 83.394 5.78571 83.394 35.3571C83.394 38.5714 83.6088 41.7857 83.6088 45.2143C82.5347 42 81.2459 39 80.1718 36C68.572 8.57143 62.3424 5.14286 57.4017 7.07143C52.4611 9.21428 50.7426 16.0714 62.1276 43.5C63.2017 45.8571 64.2757 48.4286 65.5646 51C63.6313 48.8572 61.9128 46.9286 59.9795 45C38.9279 24 31.8391 23.1429 27.9725 26.7857C24.1059 30.6429 25.18 37.7143 46.2315 58.7143C48.3796 60.8571 50.9574 63.2143 53.3203 65.3571C50.3129 63.8571 47.3056 62.5714 44.2982 61.2857C16.8023 50.1429 9.7135 51.8571 7.7802 57C5.41727 62.1429 9.06907 68.3571 36.565 79.5C38.9279 80.5714 41.5057 81.4286 44.2982 82.2857C41.5057 82.0714 38.7131 82.0714 36.1354 82.0714C6.49133 82.0714 0.691406 86.3572 0.691406 91.7143C0.691406 97.0714 6.49133 101.357 36.1354 101.357C39.3575 101.357 42.5797 101.143 46.0167 101.143C42.7945 102.214 39.7872 103.5 36.7798 104.571C9.28388 116.143 5.84689 122.357 7.7802 127.286C9.92832 132.214 16.8023 133.929 44.2982 122.571C46.6611 121.5 49.2389 120.429 51.8166 119.143C49.6685 121.071 47.7352 122.786 45.8019 124.714C24.7503 145.714 23.8911 152.786 27.5429 156.643C31.4095 160.5 38.4983 159.429 59.5499 138.429C61.698 136.286 64.0609 133.714 66.209 131.357C64.7053 134.357 63.4165 137.357 62.1276 140.357C50.9574 167.786 52.6759 174.857 57.8314 176.786C62.772 178.714 69.0016 175.071 80.3866 147.643C81.4607 145.286 82.3199 142.714 83.1792 139.929C82.9644 142.714 82.9644 145.5 82.9644 148.071C82.9644 177.643 87.2606 183.429 92.6309 183.429C98.0012 183.429 102.297 177.643 102.297 148.071C102.297 144.857 102.083 141.643 102.083 138.214C103.157 141.429 104.446 144.429 105.52 147.429C117.119 174.857 123.349 178.286 128.29 176.357C133.23 174.214 134.949 167.357 123.564 139.929C122.49 137.571 121.416 135 120.127 132.429C122.06 134.571 123.779 136.5 125.712 138.429C146.763 159.429 153.852 160.286 157.719 156.643C161.585 152.786 160.511 145.714 139.46 124.714C137.312 122.571 134.734 120.214 132.371 118.071C135.378 119.571 138.386 120.857 141.393 122.143C168.889 133.286 175.978 131.571 177.911 126.429C179.845 121.5 176.193 115.286 148.697 103.929C146.334 102.857 143.756 102 140.964 101.143C143.756 101.357 146.549 101.357 149.126 101.357C179.415 101.786 185 97.2857 185 91.9286ZM113.038 57.4286C121.416 57.4286 128.29 64.2857 128.29 72.6429C128.29 81 121.416 87.8571 113.038 87.8571C104.66 87.8571 97.7864 81.2143 97.7864 72.6429C97.7864 64.2857 104.66 57.4286 113.038 57.4286ZM97.7864 48.6429C101.438 48.6429 104.231 51.4286 104.231 55.0714C104.231 58.7143 101.438 61.5 97.7864 61.5C94.1346 61.5 91.342 58.7143 91.342 55.0714C91.342 51.4286 94.1346 48.6429 97.7864 48.6429ZM78.6681 52.5C87.0458 52.5 93.9198 59.3571 93.9198 67.7143C93.9198 76.0714 87.0458 82.9286 78.6681 82.9286C70.2905 82.9286 63.4165 76.0714 63.4165 67.7143C63.4165 59.3571 70.2905 52.5 78.6681 52.5ZM47.95 97.2857C47.95 88.9286 54.824 82.0714 63.2017 82.0714C71.5793 82.0714 78.4533 88.9286 78.4533 97.2857C78.4533 105.643 71.5793 112.5 63.2017 112.5C54.824 112.5 47.95 105.857 47.95 97.2857ZM64.9202 126.643C61.2684 126.643 58.4758 123.857 58.4758 120.214C58.4758 116.571 61.2684 113.786 64.9202 113.786C68.572 113.786 71.3645 116.571 71.3645 120.214C71.3645 123.643 68.572 126.643 64.9202 126.643ZM87.905 137.571C79.5274 137.571 72.6534 130.714 72.6534 122.357C72.6534 114 79.5274 107.143 87.905 107.143C96.2827 107.143 103.157 114 103.157 122.357C103.157 130.714 96.2827 137.571 87.905 137.571ZM117.764 120.857C109.386 120.857 102.512 114 102.512 105.643C102.512 97.2857 109.386 90.4286 117.764 90.4286C126.142 90.4286 133.016 97.2857 133.016 105.643C133.016 114 126.142 120.857 117.764 120.857ZM131.082 93.6429C127.43 93.6429 124.638 90.8571 124.638 87.2143C124.638 83.5714 127.43 80.7857 131.082 80.7857C134.734 80.7857 137.527 83.5714 137.527 87.2143C137.527 90.8571 134.519 93.6429 131.082 93.6429Z" fill="white"/>
</svg>
