<svg width="42" height="42" viewBox="0 0 42 42" fill="none" xmlns="http://www.w3.org/2000/svg">
<path d="M36.8284 0.513672C38.0241 0.513672 39.1708 0.988655 40.0163 1.83413C40.8617 2.67961 41.3367 3.82632 41.3367 5.02201V36.5803C41.3367 37.776 40.8617 38.9227 40.0163 39.7682C39.1708 40.6137 38.0241 41.0887 36.8284 41.0887H5.27005C4.07437 41.0887 2.92766 40.6137 2.08218 39.7682C1.2367 38.9227 0.761719 37.776 0.761719 36.5803V5.02201C0.761719 3.82632 1.2367 2.67961 2.08218 1.83413C2.92766 0.988655 4.07437 0.513672 5.27005 0.513672H36.8284ZM35.7013 35.4533V23.5062C35.7013 21.5572 34.9271 19.6881 33.549 18.3099C32.1708 16.9318 30.3017 16.1576 28.3527 16.1576C26.4367 16.1576 24.2051 17.3298 23.1231 19.088V16.5859H16.8339V35.4533H23.1231V24.3402C23.1231 22.6045 24.5206 21.1844 26.2563 21.1844C27.0933 21.1844 27.896 21.5169 28.4879 22.1087C29.0797 22.7005 29.4122 23.5032 29.4122 24.3402V35.4533H35.7013ZM9.50788 13.0468C10.5123 13.0468 11.4755 12.6479 12.1857 11.9377C12.8959 11.2275 13.2949 10.2642 13.2949 9.25984C13.2949 7.16346 11.6043 5.4503 9.50788 5.4503C8.49753 5.4503 7.52856 5.85166 6.81413 6.56609C6.0997 7.28051 5.69834 8.24949 5.69834 9.25984C5.69834 11.3562 7.41151 13.0468 9.50788 13.0468ZM12.6412 35.4533V16.5859H6.39714V35.4533H12.6412Z" fill="white"/>
</svg>
