<svg width="23" height="24" viewBox="0 0 23 24" fill="none" xmlns="http://www.w3.org/2000/svg">
<path d="M5.50163 22.95V7.46999H0.747635V22.95H5.50163ZM3.12002 5.34999L3.33233 5.36999C3.98697 5.36475 4.61341 5.08072 5.07632 4.57925C5.53923 4.07778 5.80143 3.39915 5.80626 2.68999C5.80567 2.32149 5.73546 1.95702 5.59995 1.61903C5.46444 1.28103 5.2665 0.976664 5.01831 0.724665C4.77012 0.472665 4.47694 0.278368 4.15683 0.153739C3.83671 0.029109 3.49643 -0.0232157 3.15694 -1.34772e-05H2.94463C2.29 0.00522041 1.66355 0.289257 1.20064 0.790725C0.737731 1.29219 0.475535 1.97082 0.470703 2.67999C0.472745 3.04496 0.543075 3.4057 0.677441 3.74041C0.811808 4.07511 1.00742 4.37683 1.25246 4.62732C1.4975 4.87782 1.78688 5.0719 2.10311 5.19783C2.41934 5.32375 2.75586 5.37892 3.09233 5.35999H3.12002V5.34999ZM8.12326 22.95C8.12326 22.95 8.18787 8.91999 8.12326 7.46999H12.8773V9.71999H12.8496C13.2769 8.89742 13.9055 8.21852 14.6661 7.75803C15.4267 7.29753 16.2898 7.07329 17.1605 7.10999C20.2806 7.10999 22.6253 9.31999 22.6253 14.07V22.95H17.8713V14.67C17.8713 12.59 17.1882 11.17 15.4712 11.17C14.9352 11.1709 14.4127 11.3524 13.9761 11.6892C13.5395 12.026 13.2103 12.5016 13.0342 13.05C12.9049 13.45 12.8496 13.88 12.8773 14.3V22.95H8.12326Z" fill="white"/>
</svg>
