<svg width="32" height="32" viewBox="0 0 32 32" fill="none" xmlns="http://www.w3.org/2000/svg">
<path d="M15.6273 28.917C17.0481 28.917 18.2106 27.7545 18.2106 26.3337H13.0439C13.0439 27.7545 14.2064 28.917 15.6273 28.917ZM23.3773 21.167V14.7087C23.3773 10.7432 21.2719 7.42366 17.5648 6.54533V5.66699C17.5648 4.59491 16.6994 3.72949 15.6273 3.72949C14.5552 3.72949 13.6898 4.59491 13.6898 5.66699V6.54533C9.99561 7.42366 7.87728 10.7303 7.87728 14.7087V21.167L5.29395 23.7503V25.042H25.9606V23.7503L23.3773 21.167ZM20.7939 22.4587H10.4606V14.7087C10.4606 11.5053 12.411 8.89616 15.6273 8.89616C18.8435 8.89616 20.7939 11.5053 20.7939 14.7087V22.4587Z" fill="#0F294A"/>
<circle cx="23" cy="7" r="4" fill="#E87B22"/>
</svg>
