<svg width="16" height="16" viewBox="0 0 16 16" fill="none" xmlns="http://www.w3.org/2000/svg">
<path fill-rule="evenodd" clip-rule="evenodd" d="M6.72859 0.436523C5.65556 0.436615 4.59811 0.693312 3.64446 1.1852C2.69082 1.67708 1.86863 2.3899 1.24649 3.26416C0.624353 4.13843 0.22031 5.1488 0.0680716 6.21097C-0.0841671 7.27315 0.0198125 8.35633 0.371335 9.37015C0.722858 10.384 1.31173 11.299 2.08882 12.039C2.86592 12.7789 3.80869 13.3223 4.8385 13.6238C5.86831 13.9253 6.95528 13.9761 8.00873 13.7721C9.06219 13.568 10.0516 13.115 10.8943 12.4509L13.7855 15.342C13.9348 15.4862 14.1348 15.566 14.3424 15.5642C14.5499 15.5624 14.7485 15.4792 14.8953 15.3324C15.0421 15.1856 15.1253 14.987 15.1271 14.7795C15.1289 14.5719 15.0491 14.3719 14.9049 14.2226L12.0138 11.3314C12.7959 10.3392 13.2829 9.14676 13.419 7.89064C13.5552 6.63452 13.3349 5.36546 12.7834 4.22868C12.232 3.09191 11.3716 2.13335 10.3008 1.46271C9.23004 0.792066 7.99207 0.436439 6.72859 0.436523ZM1.58276 7.16569C1.58276 5.80093 2.12491 4.49207 3.08994 3.52704C4.05497 2.56201 5.36383 2.01986 6.72859 2.01986C8.09335 2.01986 9.40222 2.56201 10.3672 3.52704C11.3323 4.49207 11.8744 5.80093 11.8744 7.16569C11.8744 8.53045 11.3323 9.83931 10.3672 10.8043C9.40222 11.7694 8.09335 12.3115 6.72859 12.3115C5.36383 12.3115 4.05497 11.7694 3.08994 10.8043C2.12491 9.83931 1.58276 8.53045 1.58276 7.16569Z" fill="#0F294A"/>
</svg>
