<svg width="134" height="135" viewBox="0 0 134 135" fill="none" xmlns="http://www.w3.org/2000/svg">
<circle cx="67" cy="68" r="62" stroke="#F6F6F6" stroke-width="10"/>
<path d="M67 130C101.242 130 129 102.018 129 67.5C129 32.9822 101.242 5 67 5" stroke="#AAE4E4" stroke-width="10"/>
<path d="M30 38H102V74C102 93.8822 85.8822 110 66 110C46.1178 110 30 93.8822 30 74V38Z" stroke="#AAE4E4" stroke-width="8"/>
<path d="M63.032 67.408H55.256V71.512C55.592 71.096 56.072 70.76 56.696 70.504C57.32 70.232 57.984 70.096 58.688 70.096C59.968 70.096 61.016 70.376 61.832 70.936C62.648 71.496 63.24 72.216 63.608 73.096C63.976 73.96 64.16 74.888 64.16 75.88C64.16 77.72 63.632 79.2 62.576 80.32C61.536 81.44 60.048 82 58.112 82C56.288 82 54.832 81.544 53.744 80.632C52.656 79.72 52.04 78.528 51.896 77.056H55.16C55.304 77.696 55.624 78.208 56.12 78.592C56.632 78.976 57.28 79.168 58.064 79.168C59.008 79.168 59.72 78.872 60.2 78.28C60.68 77.688 60.92 76.904 60.92 75.928C60.92 74.936 60.672 74.184 60.176 73.672C59.696 73.144 58.984 72.88 58.04 72.88C57.368 72.88 56.808 73.048 56.36 73.384C55.912 73.72 55.592 74.168 55.4 74.728H52.184V64.456H63.032V67.408ZM66.7173 73.024C66.7173 70.256 67.2133 68.088 68.2053 66.52C69.2133 64.952 70.8773 64.168 73.1973 64.168C75.5173 64.168 77.1733 64.952 78.1653 66.52C79.1733 68.088 79.6773 70.256 79.6773 73.024C79.6773 75.808 79.1733 77.992 78.1653 79.576C77.1733 81.16 75.5173 81.952 73.1973 81.952C70.8773 81.952 69.2133 81.16 68.2053 79.576C67.2133 77.992 66.7173 75.808 66.7173 73.024ZM76.3653 73.024C76.3653 71.84 76.2853 70.848 76.1253 70.048C75.9813 69.232 75.6773 68.568 75.2133 68.056C74.7653 67.544 74.0933 67.288 73.1973 67.288C72.3013 67.288 71.6213 67.544 71.1573 68.056C70.7093 68.568 70.4053 69.232 70.2453 70.048C70.1013 70.848 70.0293 71.84 70.0293 73.024C70.0293 74.24 70.1013 75.264 70.2453 76.096C70.3893 76.912 70.6933 77.576 71.1573 78.088C71.6213 78.584 72.3013 78.832 73.1973 78.832C74.0933 78.832 74.7733 78.584 75.2373 78.088C75.7013 77.576 76.0053 76.912 76.1493 76.096C76.2933 75.264 76.3653 74.24 76.3653 73.024Z" fill="#AAE4E4"/>
</svg>
