<svg width="44" height="44" viewBox="0 0 44 44" fill="none" xmlns="http://www.w3.org/2000/svg">
<path d="M17.2382 29.3811L18.4115 29.1794C18.6388 29.1391 18.9102 29.0804 19.2237 28.9997C23.0993 28.0281 25.666 25.1314 25.666 22.0001C25.666 18.0859 21.6767 14.6667 16.4993 14.6667C11.322 14.6667 7.33268 18.0859 7.33268 22.0001C7.33268 24.2331 8.61968 26.3597 10.8728 27.7751L10.9388 27.8117L12.8327 28.8567V33.9222L17.2382 29.3811ZM19.0385 32.7911L12.3157 39.7211C12.0616 39.9832 11.7351 40.1634 11.3779 40.2388C11.0208 40.3142 10.6493 40.2812 10.311 40.1442C9.97266 40.0071 9.68297 39.7722 9.47899 39.4695C9.27501 39.1668 9.16603 38.8101 9.16602 38.4451V31.0201C9.08411 30.9758 9.00342 30.9294 8.92402 30.8807C5.73585 28.8787 3.66602 25.6466 3.66602 22.0001C3.66602 15.9244 9.41168 11.0001 16.4993 11.0001C23.587 11.0001 29.3327 15.9244 29.3327 22.0001C29.3327 26.9977 25.4442 31.2181 20.1183 32.5564C19.7614 32.6479 19.4012 32.7262 19.0385 32.7911ZM16.382 9.16675C18.6003 5.87958 22.751 3.66675 27.4993 3.66675C34.587 3.66675 40.3327 8.59108 40.3327 14.6667C40.3327 18.3132 38.261 21.5454 35.0747 23.5474C34.9953 23.596 34.9146 23.6425 34.8327 23.6867V31.1117C34.8327 31.4768 34.7237 31.8335 34.5197 32.1362C34.3157 32.4389 34.026 32.6738 33.6877 32.8109C33.3494 32.9479 32.9779 32.9809 32.6208 32.9055C32.2636 32.8301 31.9371 32.6498 31.683 32.3877L28.5022 29.1097L30.4144 25.8134L31.166 26.5889V21.5234L33.0599 20.4784L33.1259 20.4417C35.3808 19.0264 36.666 16.8997 36.666 14.6667C36.666 10.7526 32.6767 7.33341 27.4993 7.33341C25.1527 7.33341 23.0517 8.03558 21.4548 9.16675H16.382Z" fill="#0F294A"/>
<circle cx="37" cy="7" r="7" fill="#E87B22"/>
</svg>
