<svg width="134" height="135" viewBox="0 0 134 135" fill="none" xmlns="http://www.w3.org/2000/svg">
<circle cx="67" cy="68" r="62" stroke="#F6F6F6" stroke-width="10"/>
<path d="M66 130C100.794 130 129 102.018 129 67.5C129 32.9822 100.794 5 66 5" stroke="#E87B22" stroke-width="10"/>
<path d="M31 38H103V74C103 93.8822 86.8822 110 67 110C47.1178 110 31 93.8822 31 74V38Z" stroke="#E87B22" stroke-width="8"/>
<path d="M64.0515 67.408H56.2755V71.512C56.6115 71.096 57.0915 70.76 57.7155 70.504C58.3395 70.232 59.0035 70.096 59.7075 70.096C60.9875 70.096 62.0355 70.376 62.8515 70.936C63.6675 71.496 64.2595 72.216 64.6275 73.096C64.9955 73.96 65.1795 74.888 65.1795 75.88C65.1795 77.72 64.6515 79.2 63.5955 80.32C62.5555 81.44 61.0675 82 59.1315 82C57.3075 82 55.8515 81.544 54.7635 80.632C53.6755 79.72 53.0595 78.528 52.9155 77.056H56.1795C56.3235 77.696 56.6435 78.208 57.1395 78.592C57.6515 78.976 58.2995 79.168 59.0835 79.168C60.0275 79.168 60.7395 78.872 61.2195 78.28C61.6995 77.688 61.9395 76.904 61.9395 75.928C61.9395 74.936 61.6915 74.184 61.1955 73.672C60.7155 73.144 60.0035 72.88 59.0595 72.88C58.3875 72.88 57.8275 73.048 57.3795 73.384C56.9315 73.72 56.6115 74.168 56.4195 74.728H53.2035V64.456H64.0515V67.408ZM67.7368 73.024C67.7368 70.256 68.2328 68.088 69.2248 66.52C70.2328 64.952 71.8968 64.168 74.2168 64.168C76.5368 64.168 78.1928 64.952 79.1848 66.52C80.1928 68.088 80.6968 70.256 80.6968 73.024C80.6968 75.808 80.1928 77.992 79.1848 79.576C78.1928 81.16 76.5368 81.952 74.2168 81.952C71.8968 81.952 70.2328 81.16 69.2248 79.576C68.2328 77.992 67.7368 75.808 67.7368 73.024ZM77.3848 73.024C77.3848 71.84 77.3048 70.848 77.1448 70.048C77.0008 69.232 76.6968 68.568 76.2328 68.056C75.7848 67.544 75.1128 67.288 74.2168 67.288C73.3208 67.288 72.6408 67.544 72.1768 68.056C71.7288 68.568 71.4248 69.232 71.2648 70.048C71.1208 70.848 71.0488 71.84 71.0488 73.024C71.0488 74.24 71.1208 75.264 71.2648 76.096C71.4088 76.912 71.7128 77.576 72.1768 78.088C72.6408 78.584 73.3208 78.832 74.2168 78.832C75.1128 78.832 75.7928 78.584 76.2568 78.088C76.7208 77.576 77.0248 76.912 77.1688 76.096C77.3128 75.264 77.3848 74.24 77.3848 73.024Z" fill="#E87B22"/>
</svg>
