<svg width="135" height="135" viewBox="0 0 135 135" fill="none" xmlns="http://www.w3.org/2000/svg">
<circle cx="67" cy="68" r="62" stroke="#F6F6F6" stroke-width="10"/>
<path d="M67 130C101.794 130 130 102.018 130 67.5C130 32.9822 101.794 5 67 5" stroke="#AE8E51" stroke-width="10"/>
<path d="M31 38H103V74C103 93.8822 86.8822 110 67 110C47.1178 110 31 93.8822 31 74V38Z" stroke="#AE8E51" stroke-width="8"/>
<path d="M64.032 67.408H56.256V71.512C56.592 71.096 57.072 70.76 57.696 70.504C58.32 70.232 58.984 70.096 59.688 70.096C60.968 70.096 62.016 70.376 62.832 70.936C63.648 71.496 64.24 72.216 64.608 73.096C64.976 73.96 65.16 74.888 65.16 75.88C65.16 77.72 64.632 79.2 63.576 80.32C62.536 81.44 61.048 82 59.112 82C57.288 82 55.832 81.544 54.744 80.632C53.656 79.72 53.04 78.528 52.896 77.056H56.16C56.304 77.696 56.624 78.208 57.12 78.592C57.632 78.976 58.28 79.168 59.064 79.168C60.008 79.168 60.72 78.872 61.2 78.28C61.68 77.688 61.92 76.904 61.92 75.928C61.92 74.936 61.672 74.184 61.176 73.672C60.696 73.144 59.984 72.88 59.04 72.88C58.368 72.88 57.808 73.048 57.36 73.384C56.912 73.72 56.592 74.168 56.4 74.728H53.184V64.456H64.032V67.408ZM67.7173 73.024C67.7173 70.256 68.2133 68.088 69.2053 66.52C70.2133 64.952 71.8773 64.168 74.1973 64.168C76.5173 64.168 78.1733 64.952 79.1653 66.52C80.1733 68.088 80.6773 70.256 80.6773 73.024C80.6773 75.808 80.1733 77.992 79.1653 79.576C78.1733 81.16 76.5173 81.952 74.1973 81.952C71.8773 81.952 70.2133 81.16 69.2053 79.576C68.2133 77.992 67.7173 75.808 67.7173 73.024ZM77.3653 73.024C77.3653 71.84 77.2853 70.848 77.1253 70.048C76.9813 69.232 76.6773 68.568 76.2133 68.056C75.7653 67.544 75.0933 67.288 74.1973 67.288C73.3013 67.288 72.6213 67.544 72.1573 68.056C71.7093 68.568 71.4053 69.232 71.2453 70.048C71.1013 70.848 71.0293 71.84 71.0293 73.024C71.0293 74.24 71.1013 75.264 71.2453 76.096C71.3893 76.912 71.6933 77.576 72.1573 78.088C72.6213 78.584 73.3013 78.832 74.1973 78.832C75.0933 78.832 75.7733 78.584 76.2373 78.088C76.7013 77.576 77.0053 76.912 77.1493 76.096C77.2933 75.264 77.3653 74.24 77.3653 73.024Z" fill="#AE8E51"/>
</svg>
