<svg width="39" height="38" viewBox="0 0 39 38" fill="none" xmlns="http://www.w3.org/2000/svg">
<path d="M30.875 3.16666H8.125C6.3375 3.16666 4.875 4.59166 4.875 6.33332V28.5C4.875 30.2432 6.3375 31.6667 8.125 31.6667H19.5V20.5833H16.25V16.6646H19.5V13.4187C19.5 9.99241 21.4695 7.58574 25.6197 7.58574L28.5496 7.58891V11.7135H26.6045C24.9893 11.7135 24.375 12.8947 24.375 13.9903V16.6662H28.548L27.625 20.5833H24.375V31.6667H30.875C32.6625 31.6667 34.125 30.2432 34.125 28.5V6.33332C34.125 4.59166 32.6625 3.16666 30.875 3.16666Z" fill="white"/>
</svg>
