<svg width="38" height="37" viewBox="0 0 38 37" fill="none" xmlns="http://www.w3.org/2000/svg">
<path fill-rule="evenodd" clip-rule="evenodd" d="M10.8576 5.39584C9.2382 5.39584 7.68506 6.02208 6.53972 7.13685C5.39438 8.25162 4.75062 9.76365 4.75 11.3405V27.1989C4.75 28.7761 5.39348 30.2888 6.53889 31.404C7.68429 32.5193 9.2378 33.1458 10.8576 33.1458H27.1447C28.7641 33.1452 30.317 32.5184 31.4619 31.4032C32.6068 30.288 33.25 28.7758 33.25 27.1989V11.3405C33.2494 9.76405 32.6059 8.25236 31.4611 7.13765C30.3163 6.02295 28.7637 5.39645 27.1447 5.39584H10.8576ZM28.9015 11.3496C28.9015 11.8039 28.7161 12.2395 28.3862 12.5608C28.0563 12.882 27.6089 13.0624 27.1424 13.0624C26.6758 13.0624 26.2284 12.882 25.8985 12.5608C25.5686 12.2395 25.3832 11.8039 25.3832 11.3496C25.3832 10.8953 25.5686 10.4597 25.8985 10.1385C26.2284 9.81725 26.6758 9.63679 27.1424 9.63679C27.6089 9.63679 28.0563 9.81725 28.3862 10.1385C28.7161 10.4597 28.9015 10.8953 28.9015 11.3496ZM19.0035 14.5195C17.7096 14.5195 16.4687 15.0199 15.5538 15.9108C14.6389 16.8016 14.1249 18.0099 14.1249 19.2697C14.1249 20.5295 14.6389 21.7378 15.5538 22.6286C16.4687 23.5195 17.7096 24.0199 19.0035 24.0199C20.2974 24.0199 21.5383 23.5195 22.4532 22.6286C23.3681 21.7378 23.8821 20.5295 23.8821 19.2697C23.8821 18.0099 23.3681 16.8016 22.4532 15.9108C21.5383 15.0199 20.2974 14.5195 19.0035 14.5195ZM11.7771 19.2697C11.7771 17.4042 12.5382 15.615 13.893 14.2959C15.2477 12.9768 17.0852 12.2357 19.0012 12.2357C20.9171 12.2357 22.7546 12.9768 24.1094 14.2959C25.4642 15.615 26.2253 17.4042 26.2253 19.2697C26.2253 21.1352 25.4642 22.9244 24.1094 24.2435C22.7546 25.5626 20.9171 26.3037 19.0012 26.3037C17.0852 26.3037 15.2477 25.5626 13.893 24.2435C12.5382 22.9244 11.7771 21.1352 11.7771 19.2697Z" fill="white"/>
</svg>
