<svg width="38" height="37" viewBox="0 0 38 37" fill="none" xmlns="http://www.w3.org/2000/svg">
<path d="M30.0833 5.39584C30.9232 5.39584 31.7286 5.72069 32.3225 6.29893C32.9164 6.87717 33.25 7.66143 33.25 8.47918V30.0625C33.25 30.8803 32.9164 31.6645 32.3225 32.2428C31.7286 32.821 30.9232 33.1458 30.0833 33.1458H7.91667C7.07681 33.1458 6.27136 32.821 5.6775 32.2428C5.08363 31.6645 4.75 30.8803 4.75 30.0625V8.47918C4.75 7.66143 5.08363 6.87717 5.6775 6.29893C6.27136 5.72069 7.07681 5.39584 7.91667 5.39584H30.0833ZM29.2917 29.2917V21.1208C29.2917 19.7879 28.7479 18.5096 27.7799 17.567C26.8118 16.6245 25.499 16.095 24.13 16.095C22.7842 16.095 21.2167 16.8967 20.4567 18.0992V16.3879H16.0392V29.2917H20.4567V21.6913C20.4567 20.5042 21.4383 19.5329 22.6575 19.5329C23.2454 19.5329 23.8092 19.7603 24.2249 20.1651C24.6406 20.5699 24.8742 21.1188 24.8742 21.6913V29.2917H29.2917ZM10.8933 13.9675C11.5988 13.9675 12.2754 13.6946 12.7742 13.2089C13.2731 12.7232 13.5533 12.0644 13.5533 11.3775C13.5533 9.94376 12.3658 8.77209 10.8933 8.77209C10.1837 8.77209 9.50305 9.04659 9.00123 9.5352C8.49942 10.0238 8.2175 10.6865 8.2175 11.3775C8.2175 12.8113 9.42083 13.9675 10.8933 13.9675ZM13.0942 29.2917V16.3879H8.70833V29.2917H13.0942Z" fill="white"/>
</svg>
