<svg width="40" height="40" viewBox="0 0 40 40" fill="none" xmlns="http://www.w3.org/2000/svg">
<path d="M18.0754 28.1563C17.797 28.5499 17.5334 28.7439 17.2814 28.7439C17.1134 28.7439 17.0178 28.6455 16.9874 28.4503C16.9754 28.4099 16.9754 28.2567 16.9754 27.9623V22.8583H15.7202V28.3399C15.7202 28.8299 15.7618 29.1603 15.831 29.3703C15.9562 29.7215 16.2354 29.8859 16.6402 29.8859C17.1018 29.8859 17.5762 29.6071 18.075 29.0343V29.7907H19.3322V22.8587H18.0754V28.1563ZM11.1582 21.7967H12.6358V29.7907H14.0326V21.7967H15.5374V20.4871H11.1582V21.7967ZM19.7118 15.7359C20.121 15.7359 20.317 15.4119 20.317 14.7635V11.8163C20.317 11.1687 20.121 10.8459 19.7118 10.8459C19.3022 10.8459 19.1058 11.1687 19.1058 11.8163V14.7635C19.1062 15.4115 19.3022 15.7359 19.7118 15.7359ZM22.973 22.7739C22.5114 22.7739 22.081 23.0267 21.6758 23.5259V20.4871H20.4194V29.7907H21.6758V29.1179C22.095 29.6375 22.5266 29.8859 22.973 29.8859C23.4734 29.8859 23.8094 29.6227 23.9774 29.1071C24.061 28.8131 24.1038 28.3515 24.1038 27.7103V24.9499C24.1038 24.2939 24.061 23.8355 23.9774 23.5567C23.809 23.0371 23.4734 22.7739 22.973 22.7739ZM22.8478 27.8088C22.8478 28.4347 22.6634 28.7435 22.3014 28.7435C22.095 28.7435 21.8854 28.6451 21.6754 28.4351V24.2095C21.8854 24.0027 22.0946 23.9043 22.3014 23.9043C22.6638 23.9043 22.8478 24.2251 22.8478 24.8503V27.8088ZM26.9734 22.7739C26.3326 22.7739 25.8318 23.0103 25.4694 23.4851C25.2022 23.8351 25.081 24.3767 25.081 25.1171V27.5459C25.081 28.2819 25.2178 28.8295 25.4846 29.1756C25.8474 29.6488 26.3474 29.8855 27.005 29.8855C27.661 29.8855 28.1758 29.6371 28.5238 29.1347C28.6772 28.9091 28.7775 28.6516 28.817 28.3815C28.8282 28.2555 28.8438 27.9763 28.8438 27.5723V27.3883H27.5618C27.5618 27.8923 27.5462 28.1711 27.5346 28.2395C27.463 28.5751 27.2822 28.7431 26.9734 28.7431C26.5422 28.7431 26.3326 28.4231 26.3326 27.7815V26.5527H28.8442V25.1167C28.8442 24.3759 28.7182 23.8347 28.4554 23.4847C28.1038 23.0099 27.6038 22.7739 26.9734 22.7739ZM27.5882 25.5075H26.3326V24.8663C26.3326 24.2255 26.5422 23.9047 26.9622 23.9047C27.3778 23.9047 27.5882 24.2255 27.5882 24.8663V25.5075Z" fill="white"/>
<path d="M31.5996 5.49023H8.39961C6.85961 5.49023 5.59961 6.75023 5.59961 8.29023V31.4902C5.59961 33.0302 6.85961 34.2902 8.39961 34.2902H31.5996C33.1396 34.2902 34.3996 33.0302 34.3996 31.4902V8.29023C34.3996 6.75023 33.1396 5.49023 31.5996 5.49023ZM22.6316 9.67823H23.8968V14.835C23.8968 15.1334 23.8968 15.2882 23.9124 15.329C23.9404 15.5258 24.0396 15.6262 24.21 15.6262C24.4636 15.6262 24.7304 15.4294 25.0116 15.0318V9.67823H26.2812V16.6822H25.0116V15.9182C24.5064 16.4978 24.0244 16.7794 23.5616 16.7794C23.1528 16.7794 22.8708 16.6134 22.744 16.2582C22.674 16.0466 22.6316 15.711 22.6316 15.2166V9.67823ZM17.8368 11.9614C17.8368 11.213 17.9644 10.6654 18.2344 10.3114C18.5856 9.83303 19.08 9.59343 19.712 9.59343C20.348 9.59343 20.8416 9.83303 21.1932 10.3114C21.4588 10.6654 21.5872 11.213 21.5872 11.9614V14.4154C21.5872 15.1594 21.4592 15.7114 21.1932 16.063C20.8416 16.5402 20.3484 16.7798 19.712 16.7798C19.0796 16.7798 18.5852 16.5402 18.2344 16.063C17.9644 15.7114 17.8368 15.1594 17.8368 14.4154V11.9614ZM14.4424 7.28303L15.442 10.9738L16.4016 7.28303H17.8248L16.132 12.8758V16.6822H14.724V12.8758C14.5968 12.2006 14.3152 11.2126 13.864 9.90183C13.5672 9.02983 13.258 8.15383 12.9616 7.28303H14.4424ZM30.0288 30.0974C29.7752 31.2026 28.8704 32.0178 27.7824 32.139C25.2048 32.427 22.5964 32.4286 19.9996 32.427C17.4024 32.4286 14.794 32.427 12.2168 32.139C11.1284 32.0174 10.2252 31.2022 9.97121 30.0974C9.60921 28.523 9.60921 26.8046 9.60921 25.1846C9.60921 23.563 9.61321 21.8458 9.97561 20.271C10.2292 19.1662 11.1328 18.3514 12.2212 18.2298C14.7984 17.941 17.4068 17.9402 20.004 17.941C22.6008 17.9402 25.2092 17.941 27.7868 18.2298C28.8744 18.3514 29.7788 19.1662 30.0328 20.271C30.3948 21.8462 30.3928 23.563 30.3928 25.1846C30.3932 26.8046 30.3912 28.523 30.0288 30.0974Z" fill="white"/>
</svg>
