<svg width="388" height="444" viewBox="0 0 388 444" fill="none" xmlns="http://www.w3.org/2000/svg">
<path d="M225.316 248.817C229.652 311.834 285.943 316.38 325.09 295.025C286.436 311.144 241.6 296.354 228.033 246.999C224.294 247.588 225.477 248.777 225.316 248.817Z" fill="#366542"/>
<path d="M343.002 124.373C321.408 157.18 264.605 186.45 228.593 193.825C199.377 199.811 215.623 190.487 228.46 166.424C261.017 163.846 288.32 144.339 312.253 122.344C316.636 122.095 324.607 121.415 328.479 121.655C333.175 121.935 338.373 123.654 343.002 124.373Z" fill="#366542"/>
<path d="M351.655 260.928C318.965 281.055 255.763 282.314 220.167 272.97C191.283 265.385 209.734 264.166 230.997 248.067C261.547 260.219 294.095 254.693 324.579 245.409C328.65 247.138 336.148 250.066 339.575 252.005C343.721 254.343 347.745 258.22 351.655 260.938V260.928Z" fill="#366542"/>
<path d="M138.097 158.59C126.831 120.446 139.83 55.1513 156.425 20.6252C169.897 -7.38534 166.886 11.8713 176.997 37.3437C158.934 66.0438 156.757 100.77 158.499 134.217C155.99 138.024 151.607 145.079 149.051 148.167C145.955 151.904 141.486 155.182 138.097 158.6V158.59Z" fill="#366542"/>
<path d="M142.792 217.369C108.361 200.78 70.9563 146.997 57.674 110.903C46.891 81.6228 58.4787 96.8323 83.1971 105.886C91.3956 139.243 114.448 164.126 139.204 185.071C140.217 189.578 142.262 197.732 142.745 201.8C143.322 206.726 142.65 212.422 142.802 217.369H142.792Z" fill="#366542"/>
<path d="M144.212 241.083C114.959 266.435 52.7606 278.267 16.2083 274.999C-13.452 272.351 4.58272 268.054 23.1476 248.597C55.1368 255.483 86.4444 244.56 115.148 230.29C119.428 231.309 127.276 232.958 130.94 234.287C135.38 235.906 139.943 239.054 144.212 241.083Z" fill="#366542"/>
<path d="M11.2568 180.874C24.1226 218.448 71.8744 262.168 104.877 279.076C131.649 292.796 118.225 279.376 111.693 252.634C80.868 241.302 59.2359 215.03 41.4757 187.28C37.3007 185.851 29.765 183.033 25.9592 182.203C21.3582 181.194 15.9146 181.444 11.2568 180.884V180.874Z" fill="#366542"/>
<path d="M224.758 259.919C221.227 260.579 220.801 261.218 220.592 261.258C218.686 265.335 216.784 269.413 214.884 273.49C216.133 274.109 231.006 286.541 237.548 290.188C263.062 304.438 292.996 304.099 320.678 299.292C316.02 298.792 295.108 291.987 290.232 289.768C273.911 282.344 259.587 267.564 257.76 266.794C254.058 265.245 231.555 263.956 224.758 259.909V259.919Z" fill="#859E3C"/>
<path d="M269.111 262.178C258.981 263.627 261.888 269.303 248.103 255.932C247.403 255.892 247.261 255.382 246.589 255.382C242.934 255.382 239.498 256.182 235.938 256.851C232.312 257.531 228.914 259.14 224.758 259.919C231.555 263.956 254.068 265.245 257.76 266.804C259.578 267.574 273.911 282.354 290.232 289.778C295.098 291.997 316.02 298.802 320.678 299.302C322.183 299.462 325.715 300.681 325.601 298.243C319.135 291.557 312.792 284.172 305.455 278.526C297.541 272.441 278.01 260.918 269.111 262.198V262.178Z" fill="#58823A"/>
<path d="M248.104 255.932C261.888 269.313 258.972 263.637 269.111 262.178C264.169 258.85 254.191 256.302 248.104 255.932Z" fill="#90AF3D"/>
<path d="M71.089 164.316C92.3709 198.962 135.067 233.967 176.4 224.054C176.675 224.434 181.475 228.961 182.848 230.859C182.8 231.359 182.904 231.879 182.848 232.368C182.194 238.294 183.378 242.002 178.55 250.136C165.589 271.961 137.652 261.648 140.227 235.386C139.517 234.747 130.04 241.912 122.675 242.192C122.202 242.212 121.719 242.202 121.245 242.192C109.468 241.932 83.9358 230.51 73.967 228.581C72.8972 228.371 72.1682 227.972 71.0984 227.822C79.2149 225.43 87.3344 223.035 95.4572 220.637C97.4831 217.499 64.765 212.542 58.9238 159.009C63.4112 160.318 67.0371 161.997 71.0984 164.306L71.089 164.316Z" fill="#366542"/>
<path d="M84.6746 176.007C90.5158 229.54 123.234 234.497 121.208 237.635C113.092 240.026 104.972 242.421 96.8492 244.82C89.3513 243.82 79.7232 246.668 73.2099 243.311C62.8908 237.984 38.4091 195.004 39.5357 180.165C40.7853 175.688 66.2139 170.621 84.6651 176.007H84.6746Z" fill="#859E3C"/>
<path d="M254.219 71.8798C251.54 73.7585 246.627 78.3154 243.862 80.7537C231.735 91.4263 221.312 104.147 212.791 117.718L210.964 118.308C210.008 106.716 211.22 50.3947 210.358 46.7472C209.307 42.3003 207.717 43.5395 206.676 46.6473C205.577 49.925 206.628 103.648 203.656 113.881C202.662 117.308 201.592 135.346 200.607 136.945C200.541 137.045 200.74 137.594 200.001 137.534C199.926 136.985 199.509 136.925 199.395 136.355C198.42 131.419 195.287 123.504 192.087 119.797C192.125 112.382 180.764 97.562 175.027 91.7061C169.707 86.2699 163.108 81.8329 157.059 77.2161C155.099 77.376 156.462 80.1441 156.756 81.3533C155.97 104.497 159.009 129.04 173.2 148.487C176.835 153.463 188.404 164.386 189.039 165.345C192.475 170.521 197.313 184.782 197.161 191.127C196.943 200.261 195.874 201.8 194.312 202.2C189.966 197.952 181.351 185.781 177.46 181.124C166.781 168.363 156.727 152.964 145.585 139.323C129.992 120.226 117.714 98.4314 115.035 98.5114L112.904 99.9903C125.07 119.237 141.078 135.915 154.323 154.403C160.789 163.426 166.138 173.33 172.594 182.493C174.526 185.221 176.059 188.789 178.076 191.367C142.934 199.122 106.628 171.741 88.5268 144.639C71.0885 118.528 65.1052 71.63 78.1698 55.6311C91.6698 39.1025 143.549 65.0745 157.059 76.6265C153.849 49.3255 190.591 -1.00966 207.622 0.329413C222.344 1.48861 257.542 50.8744 254.219 71.8898V71.8798Z" fill="#97BF5B"/>
<path d="M175.624 186.101C176.4 186.39 176.883 186.82 177.65 187.16C184.173 199.231 197.985 206.077 210.86 205.447C211.21 205.537 211.57 205.627 211.93 205.697C227.958 218.128 240.094 242.481 239.773 263.567C238.902 263.297 237.964 263.227 237.093 262.947C233.581 261.858 230.04 261.099 226.509 259.919C222.618 258.62 218.178 257.901 214.325 256.522C198.657 250.936 183.605 242.781 168.429 235.906C162.171 236.616 176.533 245.08 177.612 245.709C188.518 252.015 200.948 255.612 212.328 260.799C216.777 262.827 221.246 264.696 225.657 266.825C228.355 268.124 231.214 269.033 233.865 270.492C207.755 300.681 165.011 296.074 136.648 271.791C116.843 254.833 99.7264 209.015 106.694 188.879C112.1 173.249 146.513 179.285 158.214 180.914C162.559 184.542 170.19 184.072 175.633 186.111L175.624 186.101Z" fill="#97BF5B"/>
<path d="M72.6321 215.15C73.4463 215.29 73.986 215.63 74.8001 215.82C83.1974 226.522 97.9186 230.75 110.5 227.792C110.86 227.812 111.229 227.842 111.599 227.842C129.416 237.165 145.349 258.95 148.473 279.776C147.573 279.666 146.636 279.766 145.737 279.656C142.101 279.216 138.485 279.116 134.821 278.596C130.779 278.027 126.291 278.127 122.258 277.467C105.909 274.809 89.758 269.523 73.6735 265.515C67.6241 267.354 83.15 273.08 84.3239 273.5C96.0915 277.727 108.929 279.006 120.98 282.044C125.686 283.233 130.4 284.262 135.096 285.552C137.964 286.341 140.927 286.711 143.777 287.67C122.987 322.156 80.1396 325.404 48.2262 306.637C25.9502 293.536 1.60083 251.525 5.17938 230.42C7.95323 214.041 42.8393 213.721 54.6258 213.202C59.5013 215.99 66.9424 214.131 72.6321 215.14V215.15Z" fill="#97BF5B"/>
<path d="M302.814 153.763C287.174 184.911 245.86 217.679 212.062 200.051C213.094 198.392 213.946 196.793 215.12 195.204C217.099 192.516 222.315 186.6 224.805 183.902C237.652 169.962 253.197 158.84 265.589 144.35L263.298 141.392C249.58 154.223 235.815 166.974 220.725 177.986C218.822 178.746 218.708 179.375 217.667 180.135C217.222 180.455 215.272 181.554 214.609 181.754C231.366 160.618 250.281 117.538 248.255 89.1878C264.983 78.7051 285.527 69.3016 305.105 75.7371C321.7 90.7867 311.912 135.646 302.814 153.773V153.763Z" fill="#859E3C"/>
<path d="M99.2249 136.105C114.94 173.919 151.739 215.72 194.047 212.972C194.265 213.401 198.307 218.678 199.367 220.786C199.254 221.266 199.263 221.806 199.14 222.275C197.587 228.011 198.193 231.879 192.182 239.084C176.059 258.42 150.063 243.491 156.605 218.018C155.999 217.269 145.557 222.725 138.248 221.756C137.775 221.696 137.301 221.606 136.837 221.516C125.25 219.257 101.8 203.648 92.2476 200.041C91.2252 199.651 90.5719 199.131 89.5305 198.812L114.666 195.864C117.136 193.116 85.6111 182.653 88.0158 128.83C92.2475 130.889 95.5611 133.157 99.2249 136.125V136.105Z" fill="#366542"/>
<path d="M88.0159 128.81C85.6113 182.643 117.146 193.096 114.666 195.844L89.5306 198.792C82.2788 196.533 72.3385 197.702 66.4311 193.275C57.0587 186.26 39.4594 139.683 42.8391 125.233C44.7515 121.026 70.6249 120.346 88.0159 128.8V128.81Z" fill="#859E3C"/>
<path d="M277.404 36.0845C280.245 75.9269 253.661 136.455 230.126 166.154C211.031 190.248 218.065 172.2 213.653 144.979C237.378 121.305 246.902 87.9885 252.336 54.9914C255.592 51.8835 261.367 46.0476 264.51 43.6492C268.316 40.7412 273.371 38.6127 277.404 36.0845Z" fill="#366542"/>
<path d="M306.601 146.828C306.932 160.328 304.385 173.899 295.77 184.252C296.092 185.461 310.406 186.2 318.51 191.397C314.184 195.704 311.107 198.462 304.972 199.971C298.042 201.67 281.759 201.86 266.81 205.687C260.619 207.266 237.188 216.24 232.436 219.397L224.587 210.254L224.313 226.822C223.366 227.832 222.467 229.141 221.605 230.25C207.992 227.722 199.443 216.989 201.033 202.249C202.075 199.501 203.391 198.272 204.82 195.964C240.71 214.681 284.58 179.895 301.176 146.818C302.984 146.798 304.783 146.838 306.591 146.818L306.601 146.828Z" fill="url(#paint0_linear_1074_3927)"/>
<path d="M318.51 191.407C310.407 186.211 296.092 185.471 295.771 184.262C304.386 173.909 306.923 160.339 306.601 146.838C317.743 146.698 329.928 147.178 339.622 153.413C336.725 164.975 326.548 183.413 318.51 191.417V191.407Z" fill="#859E3C"/>
<path d="M154.323 279.446C130.722 338.355 64.2916 324.834 25.3252 291.977C65.2667 319.668 121.473 319.748 151.72 276.848C155.876 278.596 154.153 279.366 154.323 279.446Z" fill="#366542"/>
<path d="M303.675 165.535C318.235 166.214 343.664 167.863 355.403 177.666C364.453 185.221 361.244 195.654 357.864 205.687C350.272 228.231 328.516 252.215 308.607 263.177C301.043 264.306 292.807 268.963 284.798 270.692C266.185 274.699 249.287 273.53 231.432 266.645C220.365 259.36 213.283 249.437 210.084 236.026C214.315 233.318 216.445 232.848 221.027 231.399C234.802 227.072 249.41 226.283 263.175 221.866C263.232 219.687 227.702 235.886 224.71 236.246C219.977 236.815 213.624 237.895 208.891 238.504C208.209 227.652 212.838 204.538 219.38 196.154C220.251 195.034 221.16 193.705 222.116 192.686C222.779 191.977 229.87 185.481 230.324 185.171C235.133 181.974 258.82 172.91 265.078 171.301C280.197 167.434 296.66 167.244 303.665 165.525L303.675 165.535Z" fill="#859E3C"/>
<path d="M308.598 263.177C284.467 276.458 255.772 282.664 231.423 266.645C249.278 273.52 266.176 274.699 284.789 270.692C292.798 268.963 301.034 264.306 308.598 263.177Z" fill="#387755"/>
<path d="M252.326 54.9913C246.892 87.9885 237.359 121.305 213.644 144.979L210.775 145.738C208.541 126.891 217.421 90.4667 205.048 97.342C205.663 84.1211 203.751 13.4301 205.048 9.24303C206.278 5.27578 211.694 5.81541 212.924 11.5115C213.937 16.1782 212.517 88.1883 213.644 103.008L215.793 102.249C225.809 84.9006 238.059 68.6319 252.326 54.9813V54.9913Z" fill="#859E3C"/>
<path d="M197.161 191.107C197.455 189.678 194.851 191.906 194.293 192.616C195.306 184.591 191.879 169.742 187.846 163.126L198.591 155.562C197.985 166.604 199.339 180.584 197.161 191.107Z" fill="#366542"/>
<path d="M204.991 169.012C204.83 172.8 204.29 173.319 204.271 173.549L193.526 181.114C192.778 179.885 179.174 165.925 174.904 159.559C158.204 134.706 154.635 103.328 155.563 73.7285C156.633 78.5352 165.75 99.5506 168.457 104.357C177.546 120.476 193.289 133.557 194.245 135.366C196.186 139.033 200.314 162.427 204.991 169.012Z" fill="#859E3C"/>
<path d="M197.114 122.884C197.067 133.677 191.358 131.369 205.71 144.06C205.843 144.789 206.335 144.879 206.43 145.569C206.913 149.396 206.591 153.093 206.43 156.911C206.259 160.798 205.19 164.556 205 169.012C200.324 162.427 196.196 139.033 194.255 135.366C193.299 133.557 177.555 120.476 168.467 104.357C165.759 99.5506 156.642 78.5351 155.573 73.7285C155.222 72.1695 153.623 68.642 155.932 68.4321C163.052 74.328 170.805 80.0141 177.063 86.9593C183.813 94.4541 197.161 113.401 197.124 122.874L197.114 122.884Z" fill="#58823A"/>
<path d="M205.71 144.06C191.358 131.368 197.067 133.677 197.114 122.884C200.882 127.621 204.565 137.744 205.71 144.06Z" fill="#90AF3D"/>
<path d="M200.191 240.942C202.255 244.04 202.132 244.8 202.255 244.99L198.146 257.911C196.84 257.421 177.991 255.183 170.919 252.914C143.304 244.06 122.277 221.556 105.833 197.562C109.468 200.67 128.857 211.393 133.799 213.441C150.328 220.307 170.37 220.467 172.178 221.286C175.842 222.935 192.674 238.754 200.191 240.942Z" fill="#859E3C"/>
<path d="M167.208 209.574C173.437 218.138 167.577 220.007 186.284 220.757C186.814 221.246 187.25 220.996 187.733 221.486C190.327 224.194 192.23 227.332 194.312 230.45C196.433 233.628 197.768 237.295 200.201 240.943C192.684 238.754 175.842 222.935 172.188 221.286C170.38 220.477 150.347 220.307 133.808 213.442C128.876 211.393 109.478 200.671 105.843 197.563C104.669 196.553 101.346 194.795 103.059 193.146C112.11 193.206 121.539 192.686 130.514 194.135C140.199 195.694 161.746 202.05 167.208 209.564V209.574Z" fill="#58823A"/>
<path d="M186.284 220.756C167.568 219.997 173.428 218.138 167.208 209.574C172.936 210.883 181.721 216.499 186.284 220.756Z" fill="#90AF3D"/>
<path d="M253.756 275.049C255.053 279.756 253.386 280.125 250.887 283.363C244.894 285.252 242.102 285.871 236.563 289.409C234.935 290.448 233.326 291.877 231.546 292.437C235.834 287.001 245.775 282.334 234.414 277.317C234.651 277.287 234.897 277.347 235.134 277.317C241.325 276.528 247.564 275.798 253.756 275.049Z" fill="#845E39"/>
<path d="M168.505 280.345C169.423 284.222 165.229 281.384 164.207 283.753C161.111 290.858 182.904 293.066 183.548 298.503C173.532 291.268 169.963 293.456 169.224 293.206C169.044 293.146 170.673 292.177 166.356 290.938C162.578 289.849 158.678 289.539 154.891 288.669C151.578 285.002 151.843 283.753 154.172 279.596C158.99 280.065 163.724 279.985 168.495 280.355L168.505 280.345Z" fill="#845E39"/>
<path d="M358.357 420.238C397.087 426.914 397.267 433.729 357.997 439.145C318.444 444.591 191.216 443.852 145.225 442.922C119.39 442.403 64.2629 441.913 41.3526 436.117C12.071 428.712 45.6128 422.197 56.036 420.238C68.987 417.81 82.6763 416.581 95.7977 415.701C113.88 414.482 155.734 416.92 169.224 410.405C167.009 417.9 164.746 412.853 162.777 415.322C164.405 420.708 168.779 419.189 167.795 423.266C146.427 424.245 125.06 425.225 103.674 425.534C100.844 428.053 101.345 429.132 104.394 430.831H330.77C332.872 428.962 331.878 427.013 330.05 425.534C301.498 425.265 272.964 422.467 244.44 421.757C247.065 419.865 249.691 417.973 252.316 416.081C250.644 413.689 248.971 411.294 247.299 408.896C261.149 417.21 306.657 414.892 325.743 416.461C336.431 417.34 347.763 418.419 358.338 420.238H358.357Z" fill="#7A493F"/>
<path d="M244.45 421.747C272.974 422.457 301.508 425.255 330.06 425.525C331.878 426.994 332.881 428.942 330.78 430.821H104.403C101.355 429.132 100.853 428.053 103.684 425.525C125.07 425.215 146.437 424.235 167.804 423.256C198.582 421.847 212.262 420.948 244.459 421.747H244.45Z" fill="#5B3B35"/>
<path d="M210.776 145.738C209.261 147.667 209.602 142.8 209.346 138.933C208.986 133.647 211.201 129.749 206.118 125.322C202.16 124.463 204.754 129.16 201.46 126.831C202.615 124.783 204.83 101.919 205.038 97.3418C217.421 90.4666 208.541 126.891 210.766 145.738H210.776Z" fill="#826C31"/>
<path d="M176.391 179.765C180.973 185.711 186.322 190.977 191.434 196.404C191.917 196.913 192.514 197.993 192.864 198.672C191.425 199.212 186.228 193.076 184.987 191.867C180.917 187.89 181.257 183.862 177.821 187.71C176.902 193.885 174.848 195.764 180.689 200.191C180.538 201.58 181.532 201.79 181.409 203.219C180.036 201.32 175.236 196.793 174.962 196.414C172.595 193.116 170.777 188.569 168.515 185.071L176.391 179.775V179.765Z" fill="#826C31"/>
<path d="M209.346 138.933H200.75C200.911 135.116 201.233 131.418 200.75 127.591C201.621 127.671 201.394 126.961 201.47 126.831C204.764 129.15 202.161 124.463 206.127 125.322C211.202 129.749 208.996 133.647 209.356 138.933H209.346Z" fill="#845E39"/>
<path d="M250.896 283.363C253.396 280.115 255.062 279.745 253.765 275.049C257.675 274.579 306.137 268.034 306.061 270.892C288.045 276.678 268.931 277.697 250.896 283.373V283.363Z" fill="#826C31"/>
<path d="M209.658 260.899C205.758 261.608 204.271 260.729 202.321 265.176C199.074 262.817 158.498 234.107 160.335 232.009C177.508 240.153 192.551 252.644 209.668 260.899H209.658Z" fill="#826C31"/>
<path d="M137.709 278.826C137.229 280.845 136.752 282.86 136.279 284.872C120.365 281.595 103.523 280.655 87.9215 275.799C86.3689 275.319 65.7875 268.713 73.5978 265.965C94.8229 270.292 116.209 276.288 137.718 278.816L137.709 278.826Z" fill="#859E3C"/>
<path d="M154.182 279.586C151.853 283.743 151.578 284.992 154.901 288.66C148.71 287.241 142.49 286.161 136.279 284.882C136.759 282.864 137.235 280.848 137.709 278.836C143.01 279.466 148.871 279.076 154.182 279.596V279.586Z" fill="#826C31"/>
<path d="M244.449 169.182C245.67 163.636 247.289 162.657 242.66 158.6C241.685 160.229 240.199 160.279 238.722 160.868C259.928 145.399 279.269 127.471 298.544 109.444L301.772 113.601C284.353 133.977 262.512 149.596 244.459 169.182H244.449Z" fill="#826C31"/>
<path d="M202.662 294.486C203.883 288.94 205.502 287.96 200.873 283.903C199.898 285.532 198.411 285.582 196.935 286.171C218.141 270.702 237.482 252.775 256.757 234.747L259.985 238.904C242.566 259.28 220.725 274.899 202.672 294.486H202.662Z" fill="#826C31"/>
<path d="M206.26 251.515C208.854 246.528 210.653 246.029 207.235 240.812C205.881 242.102 204.433 241.732 202.861 241.882C227.23 232.998 250.433 221.236 273.58 209.344L275.625 214.261C253.652 228.931 228.64 237.785 206.26 251.515Z" fill="#85523C"/>
<path d="M244.45 169.183C240.956 172.98 233.619 181.294 230.836 185.062C231.11 179.445 245.747 171.221 234.415 163.886C235.872 162.817 236.043 161.928 238.713 160.858C240.189 160.269 241.676 160.219 242.651 158.59C247.28 162.647 245.671 163.636 244.44 169.173L244.45 169.183Z" fill="#845E39"/>
<path d="M184.987 191.866C182.658 195.364 181.144 195.974 180.689 200.181C174.858 195.754 176.912 193.875 177.821 187.699C181.257 183.862 180.916 187.889 184.987 191.856V191.866Z" fill="#845E39"/>
<path d="M176.391 179.765L168.514 185.061C160.912 173.339 154.626 160.678 147.024 149.146C131.441 125.503 112.611 104.187 98.3066 79.5744L100.815 77.6857C103.968 77.5858 137.727 122.005 142.007 127.971C154.039 144.759 163.838 163.446 176.391 179.775V179.765Z" fill="#859E3C"/>
<path d="M209.346 138.933C209.601 142.801 209.27 147.667 210.775 145.739L213.644 144.979C218.055 172.2 211.021 190.248 230.116 166.154C231.054 165.875 233.799 164.346 234.414 163.886C245.747 171.221 231.11 179.445 230.836 185.061C229.189 187.29 227.986 189.528 226.538 191.867C224.645 194.924 222.893 196.543 221.52 200.181C220.28 203.469 218.292 209.325 217.942 212.662C217.525 216.559 217.213 272.381 217.942 275.429C220.006 284.093 229.709 277.917 234.414 277.317C245.775 282.344 235.835 287.011 231.546 292.437C229.406 295.145 225.657 298.683 224.379 301.131C214.931 319.208 219.457 392.168 247.309 408.886C248.981 411.278 250.654 413.673 252.326 416.071C249.701 417.963 247.075 419.855 244.45 421.747C212.252 420.948 198.572 421.847 167.795 423.256C168.779 419.189 164.406 420.698 162.777 415.312C164.746 412.843 167.009 417.89 169.224 410.395C200.541 395.276 210.482 317.939 183.548 298.483C182.904 293.056 161.111 290.848 164.207 283.733C165.229 281.375 169.423 284.213 168.505 280.325C169.688 280.415 170.9 280.235 172.083 280.325C183.785 281.235 195.514 290.049 197.872 274.649C200.721 256.062 196.83 218.268 181.399 204.698C181.456 204.208 181.352 203.678 181.399 203.189C181.522 201.76 180.537 201.55 180.679 200.161C181.134 195.944 182.649 195.334 184.978 191.847C186.218 193.056 191.425 199.192 192.854 198.652C194.956 197.862 196.688 193.316 197.152 191.087C199.33 180.564 197.976 166.584 198.582 155.542C198.591 155.312 199.131 154.792 199.301 151.005C199.491 146.548 200.57 142.791 200.731 138.903H209.327L209.346 138.933Z" fill="#85513B"/>
<path d="M218.671 137.425C218.927 141.292 218.595 146.158 220.1 144.23L222.969 143.47C227.381 170.691 220.347 188.739 239.442 164.646C240.379 164.366 243.124 162.837 243.74 162.377C255.072 169.712 240.436 177.936 240.161 183.553C238.514 185.781 237.312 188.019 235.863 190.358C233.97 193.416 232.218 195.035 230.846 198.672C229.605 201.96 227.617 207.816 227.267 211.153C226.851 215.051 226.538 270.872 227.267 273.92C229.331 282.584 239.035 276.408 243.74 275.809C255.1 280.835 245.16 285.502 240.871 290.928C238.732 293.636 234.983 297.174 233.705 299.622C224.256 317.7 228.782 390.659 256.634 407.377C258.306 409.769 259.979 412.164 261.651 414.562C259.026 416.454 256.4 418.346 253.775 420.238C221.577 419.439 207.897 420.338 177.12 421.747C178.105 417.68 173.731 419.189 172.103 413.803C174.072 411.335 176.334 416.381 178.55 408.886C209.867 393.767 219.807 316.43 192.873 296.974C192.229 291.548 170.436 289.339 173.532 282.224C174.555 279.866 178.748 282.704 177.83 278.817C179.013 278.906 180.225 278.727 181.409 278.817C193.11 279.726 204.84 288.54 207.197 273.14C210.046 254.553 206.155 216.76 190.724 203.189C190.781 202.699 190.677 202.17 190.724 201.68C190.847 200.251 189.863 200.041 190.005 198.652C190.459 194.435 191.974 193.825 194.303 190.338C195.543 191.547 200.75 197.683 202.179 197.143C204.281 196.354 206.013 191.807 206.477 189.578C208.655 179.056 207.301 165.075 207.907 154.033C207.916 153.803 208.456 153.284 208.626 149.496C208.816 145.039 209.895 141.282 210.056 137.395H218.652L218.671 137.425Z" fill="#85513B"/>
<defs>
<linearGradient id="paint0_linear_1074_3927" x1="302.975" y1="167.034" x2="212.264" y2="220.858" gradientUnits="userSpaceOnUse">
<stop stop-color="#4C6F35"/>
<stop offset="1" stop-color="#396441"/>
</linearGradient>
</defs>
</svg>
