<svg width="286" height="310" viewBox="0 0 286 310" fill="none" xmlns="http://www.w3.org/2000/svg">
<path d="M178.305 57.8255C176.326 59.3345 172.681 63.0119 170.627 64.9706C161.633 73.5746 153.918 83.8275 147.594 94.7599L146.24 95.2396C145.53 85.8961 146.429 40.5075 145.785 37.5696C145.009 33.9821 141.592 33.6423 140.815 36.1406C140.001 38.7787 141.203 83.3379 140.815 91.6721C140.683 94.5601 139.282 108.97 138.562 110.259C138.515 110.339 138.657 110.789 138.108 110.739C138.051 110.299 137.738 110.249 137.653 109.79C136.934 105.812 134.605 99.4267 132.238 96.4488C132.267 90.4729 123.85 78.5312 119.6 73.8045C115.652 69.4275 110.767 65.85 106.279 62.1225C104.822 62.2525 105.835 64.4809 106.052 65.4602C105.475 84.1173 107.718 103.894 118.246 119.563C120.944 123.58 129.512 132.374 129.985 133.143C132.532 137.31 134.69 146.674 134.046 151.73C133.535 152.38 133.403 153.789 132.238 154.109C129.019 150.691 125.64 147.373 122.752 143.626C114.838 133.343 108.665 121.561 101.082 110.979C98.3839 107.221 77.102 79.2207 75.1139 79.2807L73.5329 80.4698C82.5456 95.9791 94.4173 109.42 104.235 124.319C109.025 131.594 112.992 139.569 117.782 146.964C119.211 149.162 120.357 152.03 121.843 154.109C95.79 160.354 68.8846 138.29 55.4698 116.455C42.5378 95.4095 38.1072 57.6157 47.792 44.7246C57.7987 31.4038 96.2539 52.3293 106.27 61.6429C103.894 39.6381 131.121 -0.913762 143.75 0.155497C154.666 1.08485 180.757 40.8873 178.295 57.8255H178.305Z" fill="#97BF5B"/>
<path d="M55.4789 156.487C56.1511 156.577 56.6055 156.837 57.2871 156.967C64.5483 165.481 76.8176 168.439 87.0894 165.551C87.3923 165.551 87.6953 165.561 87.9888 165.551C102.975 172.596 116.797 189.964 120.044 207.022C119.296 206.962 118.529 207.082 117.791 207.022C114.781 206.792 111.798 206.842 108.759 206.542C105.408 206.223 101.716 206.463 98.3741 206.063C84.8173 204.464 71.3362 200.687 57.9593 197.958C53.0364 199.687 66.0157 203.854 66.9908 204.154C76.8271 207.222 87.4397 207.812 97.4653 209.87C101.385 210.68 105.304 211.359 109.204 212.249C111.59 212.798 114.052 212.998 116.428 213.678C100.41 242.837 65.211 247.054 38.3151 232.744C19.5325 222.751 -1.88197 189.015 0.390119 171.497C2.15099 157.896 30.874 156.377 40.5778 155.528C44.677 157.646 50.7548 155.858 55.4789 156.477V156.487Z" fill="#97BF5B"/>
<path d="M234.747 110.249C220.897 137.84 184.307 166.85 154.372 151.241C155.281 149.772 156.048 148.353 157.08 146.954C158.831 144.576 163.451 139.339 165.657 136.941C177.036 124.6 190.801 114.746 201.783 101.905L199.748 99.2871C187.601 110.649 175.408 121.941 162.04 131.695C160.355 132.364 160.251 132.924 159.333 133.603C158.945 133.893 157.212 134.862 156.625 135.032C171.46 116.315 188.217 78.1617 186.428 53.0491C201.243 43.7656 219.43 35.4413 236.773 41.1374C251.476 54.4681 242.794 94.2006 234.738 110.249H234.747Z" fill="#859E3C"/>
<path d="M55.4792 116.445C68.8941 138.28 95.8089 160.345 121.853 154.099C122.023 154.339 125.053 157.187 125.914 158.386C125.886 158.696 125.952 159.026 125.914 159.336C125.498 163.073 126.255 165.411 123.207 170.538C115.036 184.298 97.4278 177.793 99.0466 161.244C98.6017 160.845 92.628 165.361 87.9796 165.531C87.6767 165.541 87.3737 165.531 87.0803 165.531C79.6581 165.371 63.5641 158.166 57.278 156.947C56.6058 156.817 56.1419 156.558 55.4698 156.468L70.8253 151.941C72.1034 149.962 51.4747 146.834 47.792 113.098C50.6226 113.927 52.9042 114.976 55.4698 116.435L55.4792 116.445Z" fill="#366542"/>
<path d="M47.8013 113.118C51.484 146.864 72.1032 149.982 70.8346 151.961L55.4791 156.488C50.755 155.858 44.6772 157.657 40.5779 155.538C34.0741 152.181 18.6428 125.089 19.3528 115.736C20.1386 112.918 36.1663 109.72 47.8013 113.118Z" fill="#859E3C"/>
<path d="M186.428 53.0591C188.217 78.1717 171.46 116.325 156.626 135.042C144.584 150.232 149.024 138.85 146.24 121.702C161.189 106.782 167.2 85.7764 170.627 64.9808C172.682 63.0222 176.317 59.3447 178.305 57.8358C180.71 56.007 183.891 54.658 186.437 53.0691L186.428 53.0591Z" fill="#366542"/>
<path d="M239.263 110.25C239.537 121.512 237.417 132.834 230.231 141.468C230.496 142.477 242.434 143.097 249.194 147.424C245.587 151.011 243.021 153.32 237.909 154.569C232.134 155.988 218.549 156.148 206.071 159.336C200.912 160.655 182.432 171.317 178.465 173.955C175.19 170.138 181.58 180.171 178.304 176.354C178.191 183.269 180.946 179.642 175.275 181.38C174.196 181.71 169.093 178.902 168.364 179.821C157.013 177.713 149.884 168.759 151.21 156.468C152.071 154.169 153.179 153.15 154.372 151.221C184.307 166.83 220.897 137.821 234.747 110.23C236.252 110.22 237.758 110.25 239.263 110.23V110.25Z" fill="url(#paint0_linear_1074_3927)"/>
<path d="M249.194 147.434C242.434 143.107 230.497 142.487 230.231 141.478C237.417 132.844 239.538 121.522 239.263 110.26C248.55 110.14 258.727 110.549 266.803 115.746C264.389 125.389 255.897 140.769 249.194 147.444V147.434Z" fill="#859E3C"/>
<path d="M118.246 215.117C107.473 253.8 64.956 250.373 38.3252 232.755C65.2211 247.065 100.42 242.848 116.438 213.688C119.155 214.467 118.132 215.077 118.246 215.117Z" fill="#366542"/>
<path d="M237.9 154.579C249.904 155.138 270.893 156.508 280.568 164.592C288.037 170.828 285.387 179.432 282.603 187.706C276.336 206.303 258.396 226.089 241.961 235.133C235.723 236.062 228.925 239.91 222.317 241.329C206.962 244.636 193.026 243.667 178.295 237.991C169.169 231.985 163.328 223.801 160.687 212.729C164.18 210.49 165.941 210.1 169.718 208.911C181.088 205.344 193.13 204.694 204.491 201.047C204.538 199.248 173.997 203.375 171.526 203.665C167.617 204.135 163.688 204.594 159.787 205.094C159.219 196.14 162.968 186.747 168.364 179.831C169.084 178.912 169.832 177.813 170.618 176.973C171.167 176.394 177.008 171.027 177.387 170.778C181.353 168.139 200.893 160.655 206.062 159.336C218.53 156.148 232.116 155.988 237.9 154.569V154.579Z" fill="#859E3C"/>
<path d="M241.971 235.133C222.061 246.085 198.384 251.212 178.305 237.991C193.035 243.667 206.98 244.636 222.326 241.329C228.934 239.91 235.732 236.062 241.971 235.133Z" fill="#387755"/>
<path d="M170.627 64.9707C167.2 85.7663 161.198 106.772 146.24 121.691L144.431 122.171C143.021 110.289 148.625 87.3352 140.815 91.6622C141.203 83.3279 140.001 38.7688 140.815 36.1307C141.591 33.6324 144.999 33.9722 145.785 37.5597C146.419 40.4976 145.53 85.8862 146.24 95.2297L147.593 94.75C153.908 83.8176 161.633 73.5647 170.627 64.9607V64.9707Z" fill="#859E3C"/>
<path d="M135.855 150.771C136.044 149.872 134.397 151.281 134.047 151.721C134.69 146.664 132.523 137.3 129.985 133.133L136.754 128.367C136.366 135.322 137.228 144.136 135.855 150.771Z" fill="#366542"/>
<path d="M137.208 125.509C137.104 127.897 136.763 128.227 136.754 128.367L129.985 133.134C129.512 132.364 120.944 123.56 118.246 119.553C107.718 103.884 105.475 84.1078 106.052 65.4507C106.724 68.4786 112.471 81.7194 114.184 84.7573C119.912 94.9102 129.834 103.165 130.439 104.304C131.661 106.612 134.264 121.362 137.208 125.509Z" fill="#859E3C"/>
<path d="M132.248 96.429C132.219 103.234 128.622 101.775 137.663 109.77C137.748 110.229 138.061 110.279 138.117 110.719C138.42 113.127 138.221 115.466 138.117 117.864C138.013 120.312 137.332 122.681 137.218 125.489C134.274 121.332 131.67 106.592 130.449 104.284C129.843 103.144 119.922 94.9 114.194 84.7371C112.481 81.7092 106.744 68.4684 106.062 65.4305C105.844 64.4511 104.831 62.2227 106.289 62.0928C110.777 65.8102 115.662 69.3877 119.609 73.7747C123.86 78.5014 132.276 90.4431 132.248 96.419V96.429Z" fill="#58823A"/>
<path d="M137.663 109.78C128.612 101.775 132.219 103.234 132.248 96.439C134.624 99.4269 136.943 105.802 137.663 109.78Z" fill="#90AF3D"/>
<path d="M87.0894 165.541C76.8176 168.439 64.5483 165.481 57.2871 156.957C63.5732 158.176 79.6672 165.371 87.0894 165.541Z" fill="#859E3C"/>
<path d="M143.532 117.884C143.693 120.323 143.485 123.39 144.432 122.171L146.24 121.692C149.023 138.85 144.583 150.222 156.625 135.032C157.212 134.862 158.945 133.893 159.333 133.603C166.471 138.23 157.25 143.407 157.08 146.944C156.038 148.353 155.281 149.762 154.372 151.231C153.179 153.16 152.081 154.179 151.21 156.478C150.424 158.546 149.175 162.244 148.957 164.342C148.692 166.8 148.503 201.986 148.957 203.905C150.264 209.361 156.379 205.474 159.342 205.094C166.5 208.262 160.232 211.2 157.534 214.627C156.19 216.336 153.823 218.564 153.018 220.113C147.064 231.506 149.913 277.494 167.465 288.036L170.627 292.563L165.657 296.141C145.36 295.641 136.745 296.211 117.347 297.09C117.971 294.522 115.216 295.481 114.185 292.084C115.425 290.525 116.854 293.712 118.246 288.986C137.985 279.452 144.252 230.706 127.278 218.445C126.87 215.027 113.134 213.628 115.084 209.151C115.728 207.662 118.369 209.451 117.792 207.002C118.539 207.062 119.306 206.943 120.045 207.002C127.42 207.572 134.813 213.128 136.3 203.425C138.098 191.713 135.646 167.89 125.914 159.336C125.952 159.026 125.886 158.696 125.914 158.386C125.99 157.487 125.365 157.357 125.46 156.478C125.744 153.819 126.7 153.44 128.167 151.231C128.953 151.991 132.229 155.858 133.138 155.518C134.463 155.019 135.552 152.16 135.845 150.751C137.218 144.126 136.366 135.312 136.745 128.347C136.745 128.207 137.095 127.877 137.199 125.489C137.322 122.681 137.994 120.313 138.098 117.864H143.514L143.532 117.884Z" fill="#85513B"/>
<path d="M171.526 203.675C172.35 206.643 171.299 206.873 169.718 208.921C165.941 210.11 164.18 210.5 160.686 212.739C159.664 213.388 158.651 214.297 157.524 214.647C160.223 211.22 166.49 208.282 159.333 205.114C159.484 205.094 159.636 205.134 159.787 205.114C163.687 204.614 167.616 204.154 171.526 203.685V203.675Z" fill="#845E39"/>
<path d="M117.792 207.012C118.369 209.46 115.728 207.672 115.084 209.161C113.134 213.638 126.871 215.037 127.278 218.454C120.963 213.887 118.71 215.276 118.246 215.117C118.133 215.077 119.164 214.467 116.438 213.688C114.052 213.008 111.6 212.808 109.215 212.259C107.122 209.95 107.293 209.161 108.76 206.542C111.799 206.832 114.781 206.792 117.792 207.022V207.012Z" fill="#845E39"/>
<path d="M237.455 295.191C261.871 299.398 261.985 303.695 237.228 307.103C212.301 310.541 132.106 310.071 103.118 309.481C86.8346 309.152 52.0905 308.842 37.6438 305.194C19.183 300.527 40.3324 296.42 46.9026 295.181C55.0632 293.652 63.6971 292.873 71.9619 292.323C83.3602 291.554 109.745 293.093 118.246 288.985C116.845 293.712 115.425 290.524 114.185 292.083C115.207 295.481 117.972 294.522 117.347 297.09C103.885 297.709 90.4131 298.329 76.9321 298.519C75.1428 300.108 75.4647 300.787 77.3865 301.857H220.074C221.399 300.677 220.775 299.448 219.62 298.519C201.623 298.349 183.635 296.58 165.657 296.141L170.628 292.563L167.465 288.036C176.194 293.273 204.879 291.814 216.912 292.803C223.652 293.352 230.791 294.042 237.455 295.181V295.191Z" fill="#7A493F"/>
<path d="M165.657 296.141C183.635 296.59 201.622 298.349 219.619 298.519C220.765 299.448 221.399 300.678 220.073 301.857H77.386C75.4642 300.788 75.1518 300.108 76.9316 298.519C90.4127 298.329 103.875 297.71 117.346 297.09C136.744 296.201 145.369 295.631 165.657 296.141Z" fill="#5B3B35"/>
<path d="M122.761 143.616L117.791 146.954C113.001 139.569 109.034 131.585 104.244 124.31C94.4263 109.41 82.5546 95.9695 73.542 80.4603L75.123 79.2711C77.1111 79.2111 98.393 107.202 101.091 110.969C108.674 121.552 114.847 133.334 122.761 143.616Z" fill="#859E3C"/>
<path d="M144.432 122.171C143.476 123.38 143.694 120.312 143.533 117.884C143.305 114.546 144.697 112.098 141.497 109.3C138.998 108.76 140.636 111.718 138.562 110.249C139.291 108.96 140.683 94.5503 140.816 91.6623C148.617 87.3253 143.021 110.289 144.432 122.171Z" fill="#826C31"/>
<path d="M122.762 143.616C125.649 147.364 129.019 150.681 132.248 154.099C132.55 154.419 132.929 155.098 133.147 155.528C132.238 155.868 128.962 152 128.177 151.241C125.611 148.733 125.829 146.194 123.661 148.623C123.083 152.51 121.786 153.699 125.469 156.487C125.374 157.357 125.999 157.497 125.924 158.396C125.053 157.197 122.033 154.349 121.862 154.109C120.366 152.03 119.23 149.162 117.801 146.964L122.771 143.626L122.762 143.616Z" fill="#826C31"/>
<path d="M143.532 117.884H138.117C138.221 115.476 138.42 113.148 138.117 110.739C138.666 110.789 138.524 110.35 138.572 110.26C140.645 111.719 139.007 108.761 141.506 109.31C144.706 112.108 143.315 114.557 143.542 117.894L143.532 117.884Z" fill="#845E39"/>
<path d="M169.718 208.921C171.289 206.873 172.34 206.643 171.526 203.675C173.997 203.375 204.538 199.258 204.49 201.057C193.13 204.704 181.088 205.354 169.718 208.921Z" fill="#826C31"/>
<path d="M98.3745 206.053L97.4751 209.87C87.44 207.802 76.8275 207.212 67.0007 204.154C66.0255 203.854 53.0462 199.687 57.9691 197.958C71.346 200.687 84.8271 204.464 98.3839 206.063L98.3745 206.053Z" fill="#859E3C"/>
<path d="M108.759 206.533C107.292 209.151 107.122 209.941 109.214 212.249C105.304 211.35 101.394 210.67 97.4746 209.871L98.374 206.053C101.716 206.443 105.408 206.203 108.759 206.533Z" fill="#826C31"/>
<path d="M165.657 136.941C166.433 133.443 167.446 132.824 164.53 130.266C163.915 131.285 162.978 131.325 162.05 131.695C175.417 121.941 187.611 110.649 199.757 99.2871L201.793 101.905C190.811 114.746 177.046 124.6 165.666 136.941H165.657Z" fill="#826C31"/>
<defs>
<linearGradient id="paint0_linear_1074_3927" x1="236.233" y1="127.108" x2="160.574" y2="172.002" gradientUnits="userSpaceOnUse">
<stop stop-color="#4C6F35"/>
<stop offset="1" stop-color="#396441"/>
</linearGradient>
</defs>
</svg>
