<svg width="295" height="258" viewBox="0 0 295 258" fill="none" xmlns="http://www.w3.org/2000/svg">
<path d="M151.409 11.9661C151.617 15.0839 151.342 19.0012 152.564 17.4522L154.874 16.8427C158.433 38.7875 152.762 53.3474 168.156 33.9108C168.904 33.691 171.119 32.4519 171.621 32.0821C180.757 37.998 168.961 44.6334 168.733 49.1503C167.408 50.949 166.433 52.7578 165.268 54.6365C163.744 57.1048 162.334 58.4039 161.226 61.3418C160.222 63.99 158.623 68.7167 158.339 71.4049C158.007 74.5427 157.752 119.561 158.339 122.01C160.005 128.995 167.825 124.018 171.621 123.539C180.785 127.586 172.766 131.353 169.311 135.73C167.588 137.909 164.568 140.767 163.536 142.745C155.915 157.315 159.56 216.145 182.025 229.635C183.376 231.567 184.723 233.499 186.068 235.431C183.947 236.957 181.829 238.482 179.715 240.008C153.756 239.358 142.727 240.088 117.905 241.227C118.7 237.939 115.178 239.169 113.862 234.822C115.443 232.833 117.27 236.9 119.06 230.854C144.318 218.663 152.327 156.306 130.61 140.617C130.089 136.24 112.518 134.461 115.017 128.725C115.841 126.816 119.221 129.115 118.482 125.977C119.438 126.047 120.413 125.907 121.37 125.977C130.808 126.707 140.256 133.812 142.169 121.4C144.469 106.411 141.326 75.9317 128.887 64.9993C128.934 64.5996 128.849 64.1799 128.887 63.7802C128.981 62.631 128.186 62.4611 128.309 61.3418C128.678 57.9442 129.89 57.4545 131.774 54.6365C132.778 55.6158 136.971 60.5624 138.126 60.1227C139.821 59.4831 141.222 55.8257 141.591 54.0269C143.352 45.5428 142.254 34.2706 142.746 25.3668C142.756 25.1769 143.191 24.7572 143.324 21.7093C143.475 18.1218 144.346 15.0839 144.479 11.9561H151.409V11.9661Z" fill="#85513B"/>
<path d="M187.222 121.72C188.273 125.517 186.929 125.807 184.913 128.425C180.075 129.944 177.831 130.444 173.363 133.302C172.056 134.141 170.75 135.29 169.32 135.74C172.776 131.363 180.794 127.596 171.63 123.548C171.82 123.528 172.018 123.568 172.208 123.548C177.197 122.909 182.224 122.319 187.222 121.72Z" fill="#845E39"/>
<path d="M118.482 125.987C119.22 129.115 115.84 126.826 115.017 128.735C112.527 134.471 130.088 136.25 130.609 140.627C122.534 134.791 119.656 136.559 119.059 136.36C118.917 136.31 120.233 135.53 116.749 134.531C113.701 133.651 110.558 133.402 107.509 132.702C104.83 129.744 105.048 128.735 106.932 125.387C110.823 125.767 114.638 125.707 118.482 125.997V125.987Z" fill="#845E39"/>
<path d="M271.555 238.789C302.787 244.175 302.929 249.671 271.262 254.028C239.367 258.425 136.782 257.826 99.6998 257.076C78.8722 256.656 34.4149 256.257 15.9447 251.59C-7.66613 245.614 19.3813 240.368 27.788 238.789C38.2302 236.83 49.2687 235.841 59.8434 235.131C74.4227 234.152 108.173 236.111 119.05 230.864C117.261 236.91 115.434 232.843 113.853 234.831C115.169 239.168 118.691 237.949 117.895 241.237C100.665 242.026 83.4448 242.816 66.1959 243.066C63.9143 245.094 64.3119 245.964 66.7733 247.333H249.308C251.002 245.824 250.198 244.255 248.73 243.066C225.706 242.846 202.701 240.587 179.706 240.018C181.826 238.492 183.944 236.967 186.058 235.441C184.708 233.509 183.36 231.577 182.016 229.645C193.177 236.35 229.872 234.482 245.265 235.741C253.88 236.45 263.025 237.32 271.546 238.789H271.555Z" fill="#7A493F"/>
<path d="M179.715 240.008C202.71 240.577 225.725 242.836 248.739 243.056C250.207 244.245 251.011 245.814 249.317 247.323H66.7824C64.3209 245.954 63.9233 245.084 66.2049 243.056C83.4539 242.806 100.674 242.016 117.904 241.227C142.727 240.088 153.747 239.358 179.715 240.008Z" fill="#5B3B35"/>
<path d="M151.408 11.9658H144.479C144.611 8.88796 144.867 5.90004 144.479 2.82217C145.179 2.88213 144.999 2.3225 145.056 2.21258C147.707 4.08128 145.615 0.303902 148.814 0.993424C152.904 4.57094 151.124 7.70878 151.418 11.9658H151.408Z" fill="#845E39"/>
<path d="M179.714 36.3593C176.893 39.4172 170.986 46.1225 168.742 49.1604C168.969 44.6336 180.765 38.0081 171.63 32.0922C172.804 31.2328 172.946 30.5133 175.095 29.6539C176.287 29.1842 177.48 29.1343 178.276 27.8252C182.006 31.0929 180.709 31.8924 179.724 36.3593H179.714Z" fill="#845E39"/>
<path d="M115.188 228.566C115.462 228.406 115.822 228.306 115.983 228.066C125.829 214.036 140.257 212.127 155.177 211.538C156.407 211.578 157.648 211.647 158.878 211.647C159.314 211.647 159.749 211.458 159.285 211.568C159.56 206.441 159.816 201.734 160.071 197.038C160.573 197.567 161.075 198.077 161.576 198.587C163.773 198.537 165.969 198.487 168.166 198.447C184.127 199.916 198.867 204.552 210.654 216.794C203.762 220.531 197.135 224.599 193.566 232.383C191.388 237.13 189.249 241.897 187.09 246.643C181.609 241.457 176.127 236.27 170.513 230.964C168.705 233.123 166.035 236.33 163.356 239.528C161.794 241.177 160.223 242.826 158.661 244.475C156.407 246.264 154.145 248.052 151.892 249.831C147.366 251.08 142.851 252.339 138.325 253.588C130.619 253.918 122.913 254.258 115.207 254.588C117.877 252.989 118.35 250.91 116.513 248.252C113.796 244.335 111.117 240.378 108.419 236.44C110.672 233.812 112.925 231.194 115.178 228.566H115.188Z" fill="#CB8E33"/>
<path d="M272.246 236.66C273.07 237.65 273.941 238.609 274.698 239.648C275.266 240.428 275.986 241.287 276.099 242.197C276.251 243.386 275.938 245.704 275.73 245.714C270.182 246.024 273.78 256.077 266.585 254.938C261.908 254.198 257.023 255.118 252.261 254.788C245.89 254.338 239.547 253.389 233.763 252.719C230.828 253.559 228.064 255.158 225.47 254.918C218.294 254.238 211.174 252.789 204.036 251.65C208.315 249.012 213.068 246.963 216.76 243.606C224.191 236.85 226.075 226.817 228.897 217.474C230.601 211.818 229.503 210.548 224.04 211.578C223.273 208.55 222.506 205.532 221.645 202.094C228.603 200.845 233.867 203.593 239.149 205.672C247.831 209.089 255.982 213.506 261.567 221.781C262.202 222.72 262.921 223.709 263.167 224.779C264.426 230.285 267.759 233.952 272.265 236.65L272.246 236.66Z" fill="#CB8E33"/>
<path d="M224.021 211.578C229.483 210.548 230.591 211.818 228.877 217.474C226.056 226.827 224.182 236.85 216.741 243.605C213.048 246.963 208.296 249.012 204.017 251.65C199.794 252.669 195.591 253.838 191.331 254.668C185.641 255.777 184.742 254.628 186.474 248.972C186.711 248.202 186.881 247.413 187.09 246.633C189.248 241.877 191.388 237.12 193.565 232.373C197.134 224.589 203.761 220.521 210.653 216.784C215.112 215.045 219.562 213.316 224.021 211.578Z" fill="#FBB044"/>
<path d="M1.67787 253.319C1.46013 251.58 0.437693 249.201 1.14772 248.202C8.21961 238.329 16.0583 228.776 28.4413 227.257C37.8042 226.107 47.2618 227.996 57.1454 231.704C55.5454 234.122 54.7029 236.121 53.2828 237.41C47.5931 242.556 41.714 247.463 35.9297 252.499C35.693 252.709 35.7403 253.269 35.6551 253.668C25.8757 253.778 16.0962 253.928 6.32623 253.978C4.77363 253.978 3.23047 253.548 1.67787 253.319Z" fill="#FBB044"/>
<path d="M37.7946 253.299C39.9815 252.529 42.4051 252.149 44.3174 250.91C49.5527 247.503 54.1632 248.152 58.518 252.469C51.7112 255.607 44.8002 255.787 37.7852 253.299H37.7946Z" fill="#F9AF43"/>
</svg>
