<svg width="403" height="317" viewBox="0 0 403 317" fill="none" xmlns="http://www.w3.org/2000/svg">
<g clip-path="url(#clip0_1773_24720)">
<path d="M330.98 316.9H325.199L337.049 206.641H342.829L330.98 316.9Z" fill="#355389"/>
<path d="M396.584 316.9H402.364L390.659 206.641H384.879L396.584 316.9Z" fill="#355389"/>
<path d="M61.9009 174.27H47.3057V203.894H61.9009V174.27Z" fill="#13375B"/>
<path d="M14.3586 181.062L320.136 179.184L321.293 122.392L0.630371 121.092L14.3586 181.062Z" fill="#184655"/>
<path d="M398.458 198.693H45.1377V214.445H398.458V198.693Z" fill="#184655"/>
<path d="M71.155 198.693H7.28271V214.445H71.155V198.693Z" fill="#355389"/>
<path d="M0.630371 121.092L14.3586 181.062H26.0637L12.48 121.092H0.630371Z" fill="#355389"/>
<path d="M6.41067 316.9H0.630371L12.3355 206.641H18.2603L6.41067 316.9Z" fill="#355389"/>
<path d="M72.0152 316.9H77.7955L66.0904 206.641H60.3101L72.0152 316.9Z" fill="#355389"/>
<path d="M223.175 181.347C215.806 194.208 206.557 199.121 206.557 199.121H167.829C167.829 199.266 228.811 171.521 223.175 181.347Z" fill="#233862"/>
<path d="M193.562 280.911C192.551 282.067 192.406 283.367 192.984 284.668C193.851 287.269 197.03 290.015 200.498 292.905C200.932 293.194 201.366 293.627 201.655 293.916C201.799 294.061 201.799 294.061 201.944 294.205C202.088 294.205 202.088 294.35 202.088 294.35C205.412 297.385 204.111 298.107 210.036 304.321C216.828 311.402 221.452 311.402 222.753 310.824C223.909 310.246 221.597 306.489 219.14 302.298C218.995 302.153 218.851 301.864 218.851 301.72C218.562 301.142 218.128 300.564 217.839 299.986C214.949 294.928 215.672 292.616 216.394 285.101C216.972 279.032 225.932 250.998 225.932 250.998L212.926 248.83C212.926 248.83 209.024 271.084 204.689 274.552C202.377 276.431 199.776 276.431 197.608 277.732C197.464 277.876 197.319 277.876 197.175 278.021C195.874 278.888 194.574 279.755 193.562 280.911Z" fill="#FFB27D"/>
<path d="M193.562 280.911C192.551 282.067 192.406 283.367 192.984 284.668C194.14 287.269 197.03 290.015 200.498 292.905C200.932 293.338 201.366 293.627 201.655 293.916C201.799 294.061 201.799 294.061 201.944 294.205C202.088 294.205 202.088 294.35 202.088 294.35C205.412 297.384 204.111 298.107 210.036 304.321C216.828 311.402 221.452 311.402 222.753 310.824C223.909 310.246 221.597 306.488 219.14 302.298C217.839 301.864 211.77 299.263 207.146 293.483C203.1 288.281 200.354 281.633 197.608 277.731C197.464 277.876 197.319 277.876 197.175 278.02C195.874 278.888 194.574 279.755 193.562 280.911Z" fill="#233862"/>
<path d="M298.037 272.816C298.904 276.862 304.54 276.139 310.898 274.55C317.256 272.96 315.811 274.839 324.771 273.827C333.73 272.816 336.62 269.492 336.909 268.047C337.198 266.891 332.719 266.457 327.95 265.879C327.372 265.735 326.794 265.735 326.071 265.735C320.58 265.012 316.678 261.544 311.765 258.654C307.141 255.908 300.06 244.781 300.06 244.781L287.632 245.793C287.632 245.793 294.135 255.764 296.736 259.955C298.181 262.556 298.181 265.879 297.892 268.48C297.748 269.926 297.603 271.371 298.037 272.816Z" fill="#FFB27D"/>
<path d="M310.757 274.549C317.115 272.96 315.67 274.838 324.63 273.827C333.589 272.815 336.479 269.492 336.768 268.047C337.057 266.89 332.577 266.457 327.809 265.879V266.023C327.809 266.023 322.317 269.925 314.803 270.07C308.734 270.214 302.086 268.48 297.896 268.48C297.751 269.925 297.751 271.37 298.04 272.671C298.763 276.717 304.543 276.139 310.757 274.549Z" fill="#233862"/>
<path d="M250.351 193.337L238.79 224.55L223.617 265.302C223.617 265.302 219.426 265.735 215.525 264.579C211.912 263.568 207.721 260.822 207.721 260.822C207.721 260.822 211.912 217.036 219.86 191.892C221.883 185.389 224.195 180.187 226.652 177.297C238.646 162.846 250.351 193.337 250.351 193.337Z" fill="#233862"/>
<path d="M238.506 143.626C230.847 141.169 209.171 144.348 187.35 148.539L182.726 141.025L135.617 137.268C135.617 137.268 120.01 171.66 128.536 193.77C129.836 196.949 132.293 199.117 136.484 199.117H137.206C137.206 199.117 165.241 199.117 174.345 199.117C197.755 199.117 223.911 183.076 227.234 182.354C232.726 181.198 235.038 192.325 240.529 203.886C246.02 215.591 292.552 255.33 292.552 255.33C292.552 255.33 299.633 255.475 302.667 254.319C305.847 253.163 307.003 251.573 307.003 251.573C307.003 251.573 255.702 149.262 238.506 143.626Z" fill="#2B478B"/>
<path d="M180.989 3.88917C174.92 0.710008 165.816 0.276486 164.226 0.131978C146.452 -2.18014 135.614 23.6867 135.036 31.4901C133.88 45.9408 126.221 48.1085 115.383 57.2124C93.7065 75.4204 100.065 96.5185 111.914 104.466C118.995 109.235 131.567 104.466 131.567 104.466C131.712 104.611 165.816 85.3914 182.579 76.1429C207.723 72.6747 196.307 11.9816 180.989 3.88917Z" fill="#233862"/>
<path d="M168.558 68.3394C168.702 68.3394 160.321 71.2295 154.685 68.7729C149.483 66.4608 145.436 57.7904 145.581 57.7904C148.038 57.6458 150.639 55.6227 152.517 41.8945L153.529 42.1835L170.581 48.2529C170.581 48.2529 169.28 53.7441 168.558 58.9464C167.835 63.5707 167.546 67.7614 168.558 68.3394Z" fill="#FFB27D"/>
<path d="M170.583 48.541C170.583 48.541 169.283 54.0323 168.56 59.2346C158.734 57.5005 154.976 47.674 153.531 42.4717C153.531 42.3272 170.583 48.541 170.583 48.541Z" fill="#ED975D"/>
<path d="M173.187 53.8867C173.187 53.8867 149.777 50.7076 151.944 36.2568C154.112 21.8061 152.523 11.546 167.551 12.9911C182.58 14.4362 184.603 20.361 185.037 25.4187C185.47 30.4765 179.256 54.3202 173.187 53.8867Z" fill="#FFB27D"/>
<path d="M184.312 17.474C184.312 17.474 169.428 30.3351 159.168 31.3467C149.052 32.3583 145.15 29.1791 145.15 29.1791C145.15 29.1791 151.22 24.2658 154.688 16.1734C155.699 13.8613 158.012 12.1272 160.613 11.9827C167.983 11.2602 181.711 10.9711 184.312 17.474Z" fill="#233862"/>
<path d="M174.917 16.3157C174.917 16.3157 179.974 21.0845 181.564 24.6972C183.153 28.1654 183.587 36.4023 182.286 39.726C182.286 39.726 190.09 24.5527 185.61 17.1828C180.986 9.37938 174.917 16.3157 174.917 16.3157Z" fill="#233862"/>
<path d="M188.215 102.733C187.493 149.987 188.071 140.16 182.868 144.64C181.568 145.796 178.1 146.374 173.475 146.663C159.025 147.675 133.447 145.218 132.58 142.617C129.256 133.368 131.568 130.478 128.822 116.317C128.533 114.871 128.244 113.137 127.811 111.403C125.499 101.721 123.187 98.3976 131.424 82.6463C138.938 68.4846 146.741 56.924 147.319 57.3575C167.117 69.0626 168.707 59.2361 168.707 59.2361C168.707 59.2361 188.504 79.7562 188.215 102.733Z" fill="white"/>
<path d="M238.79 224.552L223.617 265.303C223.617 265.303 219.426 265.736 215.525 264.58C211.912 263.569 207.721 260.823 207.721 260.823C207.721 260.823 211.912 217.037 219.86 191.893L238.79 224.552Z" fill="#2B478B"/>
<path d="M168.56 59.2329C168.56 59.2329 188.936 62.7011 191.248 71.3715C193.56 80.042 207.722 131.487 207.722 131.487C207.722 131.487 197.462 133.365 192.693 128.597C187.924 123.828 176.074 84.3772 176.074 84.3772L168.56 59.2329Z" fill="white"/>
<path d="M173.469 146.663C159.018 147.675 133.44 145.218 132.573 142.617C129.249 133.368 131.562 130.478 128.816 116.317L135.752 96.6636C135.752 96.6636 134.596 118.629 141.099 124.409C147.602 130.189 167.544 135.536 170.723 140.305C172.168 142.472 173.18 144.785 173.469 146.663Z" fill="#EBF3FF"/>
<path d="M156.853 137.413C156.853 137.413 171.159 134.234 173.471 135.535C175.784 136.835 181.419 141.459 182.142 143.049C182.864 144.639 176.94 141.893 175.061 141.315C173.905 141.026 170.581 142.182 168.992 142.616C162.2 144.928 158.154 143.772 158.154 143.772L156.853 137.413Z" fill="#FFB27D"/>
<path d="M147.317 57.3584C147.317 57.3584 128.097 58.5145 121.45 67.7629C112.057 80.7686 93.5601 136.404 104.254 143.774C116.248 152.155 158.733 145.941 158.733 145.941C158.733 145.941 160.178 139.294 158.155 136.115C156.132 132.936 124.196 127.734 122.751 126.288C121.306 124.843 141.248 97.5315 141.248 93.0518C141.248 88.572 147.317 57.3584 147.317 57.3584Z" fill="white"/>
<path d="M174.198 139.438C174.198 139.438 177.232 143.34 178.244 143.773C179.256 144.207 179.834 144.062 179.834 144.062L177.81 140.45C177.666 140.594 174.198 139.438 174.198 139.438Z" fill="#FFB27D"/>
<path d="M173.471 135.537L182.142 139.728C182.142 139.728 181.708 140.306 180.697 140.306C179.685 140.306 176.939 139.294 176.939 139.294L173.471 135.537Z" fill="#FFB27D"/>
<path d="M178.103 149.695H247.033L267.697 98.2505H198.912L178.103 149.695Z" fill="#F99746"/>
<path d="M247.756 147.669H156.861V149.692H247.034L247.756 147.669Z" fill="#ED7D2B"/>
<path d="M229.545 123.972C230.123 122.238 228.967 120.648 227.233 120.648C225.499 120.648 223.476 122.094 223.042 123.972C222.609 125.851 223.62 127.296 225.354 127.296C227.088 127.296 229.111 125.851 229.545 123.972Z" fill="white"/>
<path d="M52.5088 123.411C37.769 123.411 25.7749 135.405 25.7749 150.145C25.7749 164.884 37.769 176.878 52.5088 176.878C67.2486 176.878 79.2427 164.884 79.2427 150.145C79.2427 135.405 67.3931 123.411 52.5088 123.411ZM65.8035 151.734H53.6648V163.873C53.6648 164.74 52.9423 165.318 52.2198 165.318C51.4972 165.318 50.7747 164.595 50.7747 163.873V151.734H38.7806C37.9135 151.734 37.3355 151.012 37.3355 150.289C37.3355 149.566 38.058 148.844 38.7806 148.844H50.9192V136.705C50.9192 135.838 51.6417 135.26 52.3643 135.26C53.0868 135.26 53.8094 135.983 53.8094 136.705V148.844H65.948C66.815 148.844 67.3931 149.566 67.3931 150.289C67.2486 151.012 66.6705 151.734 65.8035 151.734Z" fill="white"/>
<circle cx="54.1279" cy="150.93" r="28.6714" fill="#184655"/>
<circle cx="69" cy="150" r="25" fill="#7B8AA6"/>
<g filter="url(#filter0_d_1773_24720)">
<path d="M81.1875 147.188H71.8125V137.812C71.8125 137.067 71.5162 136.351 70.9887 135.824C70.4613 135.296 69.7459 135 69 135C68.2541 135 67.5387 135.296 67.0113 135.824C66.4838 136.351 66.1875 137.067 66.1875 137.812V147.188H56.8125C56.0666 147.188 55.3512 147.484 54.8238 148.011C54.2963 148.539 54 149.254 54 150C54 150.746 54.2963 151.461 54.8238 151.989C55.3512 152.516 56.0666 152.812 56.8125 152.812H66.1875V162.188C66.1875 162.933 66.4838 163.649 67.0113 164.176C67.5387 164.704 68.2541 165 69 165C69.7459 165 70.4613 164.704 70.9887 164.176C71.5162 163.649 71.8125 162.933 71.8125 162.188V152.812H81.1875C81.9334 152.812 82.6488 152.516 83.1762 151.989C83.7037 151.461 84 150.746 84 150C84 149.254 83.7037 148.539 83.1762 148.011C82.6488 147.484 81.9334 147.188 81.1875 147.188Z" fill="white"/>
</g>
</g>
<defs>
<filter id="filter0_d_1773_24720" x="54" y="135" width="36" height="36" filterUnits="userSpaceOnUse" color-interpolation-filters="sRGB">
<feFlood flood-opacity="0" result="BackgroundImageFix"/>
<feColorMatrix in="SourceAlpha" type="matrix" values="0 0 0 0 0 0 0 0 0 0 0 0 0 0 0 0 0 0 127 0" result="hardAlpha"/>
<feOffset dx="4" dy="4"/>
<feGaussianBlur stdDeviation="1"/>
<feComposite in2="hardAlpha" operator="out"/>
<feColorMatrix type="matrix" values="0 0 0 0 0 0 0 0 0 0 0 0 0 0 0 0 0 0 0.25 0"/>
<feBlend mode="normal" in2="BackgroundImageFix" result="effect1_dropShadow_1773_24720"/>
<feBlend mode="normal" in="SourceGraphic" in2="effect1_dropShadow_1773_24720" result="shape"/>
</filter>
<clipPath id="clip0_1773_24720">
<rect width="401.731" height="316.905" fill="white" transform="translate(0.625)"/>
</clipPath>
</defs>
</svg>
