<svg width="672" height="312" viewBox="0 0 672 312" fill="none" xmlns="http://www.w3.org/2000/svg">
<g clip-path="url(#clip0_1773_24553)">
<path d="M96.5499 173.302C95.7806 153.49 93.9533 136.372 91.8375 124.35C88.5677 105.212 85.5864 94.2484 85.4902 94.1523C85.0093 92.4212 78.662 85.6891 64.5247 85.8815C50.2913 86.0738 51.7338 95.0178 51.7338 95.0178C51.7338 95.3063 51.7339 95.5948 51.83 95.7872C51.9262 96.268 65.0056 142.815 64.4285 202.923C64.4285 203.788 64.3324 205.231 64.3324 206.192C64.3324 206.192 97.2231 207.058 97.2231 206.192C98.3772 200.999 97.8002 186.381 96.5499 173.302Z" fill="#D1A586"/>
<path d="M100.687 202.634C100.687 203.5 100.206 204.173 99.6291 204.173C99.0521 204.173 98.6674 203.5 98.6674 202.634H70.5852C70.5852 203.5 70.1043 204.173 69.6235 204.173C69.0464 204.173 68.6618 203.5 68.6618 202.634C68.8541 185.419 67.7962 169.359 66.3536 155.125C62.5068 119.734 55.5824 96.0756 55.4862 95.7871C55.39 95.5948 55.39 95.3063 55.39 95.0178C55.39 95.0178 54.0436 86.0738 68.2771 85.8814C82.5105 85.6891 88.8579 92.5173 89.2425 94.1522C89.2425 94.2484 90.9736 100.5 93.2818 111.655C94.0511 115.406 94.8205 119.638 95.6861 124.35C97.8018 136.372 99.5329 153.586 100.398 173.302C101.456 186.381 101.841 197.441 100.687 202.634Z" fill="#E5BD9E"/>
<path d="M100.683 202.635C100.683 203.501 100.202 204.174 99.6251 204.174C99.048 204.174 98.6634 203.501 98.6634 202.635H70.5812C70.5812 203.501 70.1003 204.174 69.6195 204.174C69.0424 204.174 68.6577 203.501 68.6577 202.635C68.8501 185.421 67.7922 169.36 66.3496 155.126C70.9659 132.718 89.0462 115.504 93.3739 111.657C94.1433 115.407 94.9127 119.639 95.7782 124.351C97.894 136.373 99.6251 153.588 100.491 173.303C101.452 186.382 101.837 197.442 100.683 202.635Z" fill="#DFB697"/>
<path d="M72.218 202.346L72.1218 202.25V202.153V202.057C72.1218 201.48 71.3524 166.089 69.3328 149.163C68.1788 139.065 60.8697 97.1337 60.7735 96.9413C60.6774 96.749 60.6773 96.5566 60.6773 96.2681C60.6773 96.172 60.3888 94.1523 62.0238 92.2289C63.6587 90.4016 66.4477 89.3438 70.3907 89.3438C70.583 89.3438 70.6792 89.3438 70.8716 89.3438C81.0658 89.3438 85.7782 94.2485 86.1629 95.5949C86.2591 95.8834 94.3375 128.293 95.6839 146.566C95.7801 148.297 96.0686 151.182 96.4533 154.837C98.5691 176.283 100.589 199.268 97.6073 199.845C92.8949 200.711 88.1825 200.807 84.6241 200.807C83.4701 200.807 82.316 200.807 81.162 200.807C80.2002 200.807 79.3347 200.807 78.4691 200.807C74.7184 200.807 72.4103 200.999 72.3141 202.153C72.3141 202.153 72.3141 202.153 72.3141 202.25C72.5065 202.25 72.4103 202.346 72.218 202.346ZM70.9677 89.7284C70.7754 89.7284 70.6792 89.7284 70.4869 89.7284C66.5438 89.8246 63.851 90.6902 62.3123 92.5174C60.7735 94.2485 61.062 96.2681 61.062 96.3643C61.062 96.5566 61.062 96.749 61.1582 96.9413C61.1582 97.0375 68.4673 138.872 69.7175 149.259C71.5448 164.839 72.4103 196.287 72.5065 201.48C73.2759 200.711 75.3917 200.518 78.6615 200.518C79.527 200.518 80.3926 200.518 81.3543 200.518C82.4122 200.518 83.5663 200.518 84.8165 200.518C88.3748 200.518 93.0873 200.422 97.7997 199.653C100.781 199.172 97.7997 169.359 96.3571 155.029C95.9724 151.375 95.6839 148.489 95.5877 146.758C94.1452 128.39 86.1629 96.1719 86.0667 95.8834C85.5859 94.4409 80.9696 89.7284 70.9677 89.7284Z" fill="#D1A586"/>
<path d="M66.4496 204.173H176.855C176.855 204.173 174.258 193.882 110.304 195.421C65.1032 196.479 66.4496 204.173 66.4496 204.173Z" fill="#E5BD9E"/>
<path d="M57.5034 311.405C70.2943 247.451 67.0244 208.213 67.0244 207.732C67.0244 206.77 68.8517 205.905 69.8134 205.808C70.7751 205.808 75.199 205.52 75.7761 206.385C76.4493 207.443 79.0459 255.818 59.9077 311.405H57.5034Z" fill="#D1A586"/>
<path d="M160.602 311.405C147.811 247.451 151.081 208.213 151.081 207.732C151.081 206.77 149.253 205.905 148.292 205.808C147.33 205.808 142.906 205.52 142.329 206.385C141.656 207.443 139.059 255.818 158.197 311.405H160.602Z" fill="#D1A586"/>
<path d="M180.989 311.405C168.198 247.451 171.468 208.213 171.468 207.732C171.468 206.77 169.641 205.905 168.679 205.808C167.718 205.808 163.294 205.52 162.717 206.385C162.043 207.443 159.447 255.818 178.585 311.405H180.989Z" fill="#A0795F"/>
<path d="M78.0825 311.405C90.8734 247.451 87.5074 208.213 87.5074 207.732C87.5074 206.77 89.3346 205.905 90.2964 205.808C91.2581 205.808 95.682 205.52 96.259 206.385C96.9322 207.443 99.5288 255.818 80.3906 311.405H78.0825Z" fill="#A0795F"/>
<path d="M66.6411 201.481H176.854C178.2 201.481 179.258 202.539 179.258 203.885V205.039C179.258 206.386 178.2 207.444 176.854 207.444H66.6411C65.2947 207.444 64.2368 206.386 64.2368 205.039V203.885C64.2368 202.539 65.2947 201.481 66.6411 201.481Z" fill="#D1A586"/>
<path d="M154.16 134.35C154.16 134.35 174.356 157.431 178.491 157.046C182.723 156.661 185.319 155.315 188.974 157.046C191.57 158.296 199.937 165.028 197.725 164.548C195.513 164.067 191.378 163.586 190.32 163.49C188.878 163.394 186.473 163.297 184.838 163.009C183.78 162.816 180.126 162.72 178.972 162.72C173.682 162.528 148.485 147.91 148.485 147.91L154.16 134.35Z" fill="#FFB27D"/>
<path d="M140.214 17.2121C140.214 17.2121 139.348 5.67143 122.614 8.65276C118.19 9.42213 115.209 1.63221 107.996 4.42119C92.5123 10.48 91.5506 2.49776 87.0305 13.6537C85.2032 18.2699 73.1817 23.7517 76.8363 31.8302C80.4908 39.9086 74.3358 45.2942 78.6635 51.6416C80.8755 54.9114 80.0099 60.7779 90.3965 60.9703C95.5898 61.0664 103.764 70.7798 109.535 72.5109C115.401 74.242 133.001 71.7415 132.327 63.6631C131.847 57.4119 139.156 57.8928 143.58 50.6799C147.523 44.4287 140.502 42.7938 144.253 32.5996C147.138 25.2905 139.925 23.4632 140.214 17.2121Z" fill="#1C468A"/>
<path d="M231.77 302.171C231.385 306.018 236.771 306.98 243.022 307.268C249.273 307.557 247.35 308.807 255.909 310.442C264.469 311.981 267.931 309.673 268.508 308.519C269.085 307.461 265.046 305.922 260.814 304.095C260.237 303.902 259.756 303.614 259.179 303.421C254.37 301.306 251.678 297.074 248.023 293.035C244.465 289.284 241.195 277.263 241.195 277.263L229.558 274.762C229.558 274.762 232.828 285.63 233.982 290.246C234.655 292.939 233.694 296.016 232.828 298.324C232.347 299.478 231.866 300.825 231.77 302.171Z" fill="#FFB27D"/>
<path d="M243.023 307.269C249.274 307.558 247.351 308.808 255.91 310.443C264.469 311.982 267.931 309.673 268.509 308.519C269.086 307.462 265.046 305.923 260.815 304.096L260.719 304.192C260.719 304.192 254.66 306.211 247.735 304.384C242.061 302.845 236.579 299.479 232.733 298.325C232.252 299.575 231.771 300.826 231.675 302.268C231.386 306.019 236.772 306.981 243.023 307.269Z" fill="#C65447"/>
<path d="M115.881 164.164C115.881 164.164 193.203 158.297 207.725 167.53C222.247 176.762 245.616 283.705 245.616 283.705C245.616 283.705 244.174 284.859 241 285.244C238.019 285.533 231.383 283.802 231.383 283.802C231.383 283.802 197.819 235.908 195.511 223.887C193.107 211.865 193.684 201.094 188.394 200.805C183.105 200.517 115.977 208.98 105.783 191.092C95.5883 173.204 104.051 155.508 104.051 155.508L115.881 164.164Z" fill="#163560"/>
<path d="M205.129 302.554C204.745 306.401 210.13 307.363 216.382 307.651C222.633 307.94 220.709 309.19 229.269 310.825C237.828 312.364 241.29 310.055 241.867 308.901C242.444 307.843 238.405 306.305 234.173 304.477C233.596 304.285 233.115 303.997 232.538 303.804C227.73 301.688 225.037 297.457 221.382 293.418C217.824 289.667 214.554 277.645 214.554 277.645L202.917 275.145C202.917 275.145 206.187 286.012 207.341 290.629C208.015 293.322 207.053 296.399 206.187 298.707C205.706 299.957 205.322 301.208 205.129 302.554Z" fill="#FFB27D"/>
<path d="M216.478 307.747C222.729 308.036 220.806 309.286 229.365 310.921C237.924 312.46 241.387 310.152 241.964 308.997C242.541 307.94 238.501 306.401 234.27 304.574L234.174 304.67C234.174 304.67 228.115 306.689 221.19 304.862C215.516 303.323 210.034 299.957 206.188 298.899C205.707 300.15 205.226 301.4 205.13 302.842C204.841 306.497 210.227 307.363 216.478 307.747Z" fill="#C65447"/>
<path d="M103.768 157.045C103.768 157.045 172.434 160.315 186.668 170.029C200.901 179.742 220.039 287.551 220.039 287.551C220.039 287.551 218.597 288.609 215.327 288.897C212.346 289.089 205.806 287.07 205.806 287.07C205.806 287.07 174.069 237.926 172.146 225.808C170.222 213.691 171.28 202.919 165.895 202.439C160.509 201.958 93.1887 207.728 83.7639 189.455C74.3391 171.279 103.768 157.045 103.768 157.045Z" fill="#1C468A"/>
<path d="M83.1855 69.2405L83.2817 69.1444C83.8587 68.5673 84.4357 67.9903 85.2051 67.4133C90.7831 63.4702 100.881 62.7008 100.881 62.7008C100.881 62.7008 101.939 62.6047 103.67 62.5085C105.017 59.1425 106.459 54.0454 106.94 46.6401L107.902 46.9287L124.636 51.4487C124.636 51.4487 123.866 56.7382 123.578 61.7391C123.482 62.797 123.482 63.9511 123.385 64.9128C123.866 65.1051 124.347 65.2975 124.732 65.3937C124.732 65.3937 134.253 66.5477 136.561 68.952C138.869 71.3563 143.389 87.5132 144.447 90.3983L80.108 91.4562C80.108 91.5524 78.5693 74.7223 83.1855 69.2405Z" fill="#FFB27D"/>
<path d="M163.006 134.444C162.621 134.829 161.659 136.656 160.217 138.772C159.832 139.445 159.351 140.119 158.87 140.792C156.851 143.581 154.254 146.562 151.561 147.62C150.6 148.005 149.542 148.101 148.58 147.908C147.041 147.524 144.637 145.889 142.233 143.581C140.213 141.753 138.29 139.445 136.751 137.233C136.174 136.368 135.693 135.406 135.212 134.541C135.116 135.214 135.02 135.887 135.02 136.464C134.635 139.83 134.635 142.427 135.116 143.677C135.789 145.216 138.097 146.754 140.694 148.197C145.791 151.178 152.138 154.063 150.023 156.66C148.195 158.872 142.521 159.449 136.462 160.507C131.75 161.276 126.653 162.238 123.094 164.354C122.998 164.45 122.806 164.546 122.71 164.642C114.15 169.643 88.4725 185.223 80.8749 184.454C77.8936 184.165 78.4706 178.395 80.2017 170.797C83.0869 158.776 89.0495 142.138 89.0495 134.829C89.0495 130.886 80.2017 91.6479 80.2017 91.6479C80.2017 91.6479 78.5668 74.8178 83.1831 69.2399L85.2027 67.4126C85.4912 67.6049 104.918 78.5685 116.266 79.1456C127.711 79.7226 136.462 68.9513 136.462 68.9513C138.77 71.3556 143.29 87.6087 144.348 90.3977C144.348 90.3977 153.581 126.847 155.889 128.674C158.389 130.694 164.16 133.194 163.006 134.444Z" fill="#6BB7BF"/>
<path d="M124.631 51.4493C124.631 51.4493 123.862 56.7387 123.573 61.7397C114.149 60.8741 109.725 51.834 107.994 46.9292L124.631 51.4493Z" fill="#F4A269"/>
<path d="M127.516 56.4501C127.516 56.4501 105.108 55.296 105.974 41.3511C106.839 27.4062 104.627 17.789 118.957 17.9813C133.286 18.0775 135.787 23.6555 136.556 28.3679C137.422 33.0803 133.383 56.3539 127.516 56.4501Z" fill="#FFB27D"/>
<path d="M128.482 22.8859C128.482 22.8859 123.096 21.6357 121.365 24.2323C119.634 26.829 120.884 28.2715 116.941 29.4256C112.998 30.4835 111.748 30.4835 112.037 33.1763C112.421 35.8691 108.094 37.9849 107.901 40.1007C107.709 42.3126 105.882 43.3705 104.247 43.5629C102.516 43.7552 103.285 15.2883 109.921 14.0381C116.557 12.7879 123 14.2304 124.924 15.8654C126.943 17.5003 128.482 22.8859 128.482 22.8859Z" fill="#1C468A"/>
<path d="M128.481 22.886C128.481 22.886 133.674 22.5013 134.636 25.4827C135.597 28.464 134.347 29.1372 135.693 30.9644C137.04 32.7917 136.271 35.9654 136.271 35.9654C136.271 35.9654 146.561 16.9234 135.693 15.6731C124.826 14.4229 125.018 16.731 128.481 22.886Z" fill="#1C468A"/>
<path d="M160.216 138.775C159.831 139.448 159.35 140.121 158.869 140.794C156.85 143.583 154.253 146.564 151.56 147.622C150.598 148.007 149.541 148.103 148.579 147.911C147.04 147.526 144.636 145.891 142.231 143.583C140.212 141.756 138.288 139.448 136.75 137.236C136.173 136.37 135.692 135.408 135.211 134.543C135.115 135.216 135.019 135.889 135.019 136.466V133.293C135.019 133.293 136.269 77.7054 138.192 102.133C139.635 119.925 153.099 133.004 160.216 138.775Z" fill="#599DAD"/>
<path d="M92.2256 100.496C92.2256 100.496 64.6243 148.005 122.616 164.546C122.808 164.45 122.904 164.354 123.001 164.258C126.559 162.142 131.56 161.18 136.369 160.411C142.427 159.449 148.101 158.776 149.929 156.564C152.045 153.967 145.697 151.082 140.6 148.101C138.003 146.562 132.618 145.119 131.945 143.581C131.464 142.427 92.2256 100.496 92.2256 100.496Z" fill="#599DAD"/>
<path d="M55.7709 153.295L51.347 178.396L39.1332 247.736L28.0734 309.671C27.8811 310.633 27.1117 311.306 26.0538 311.306C25.1882 311.306 24.515 310.536 24.6112 309.767L34.0361 239.465L44.2303 164.355L45.769 153.007L55.7709 153.295Z" fill="#C69D7F"/>
<path d="M51.252 178.396C51.829 167.625 44.2314 164.355 44.2314 164.355L45.7702 153.007L55.6759 153.295L51.252 178.396Z" fill="#A0795F"/>
<path d="M653.192 311.305C652.23 311.305 651.364 310.632 651.172 309.67L641.459 254.66L627.514 175.414L623.571 153.295L633.476 153.006L635.208 165.893L647.325 256.199L654.538 309.767C654.73 310.536 654.057 311.305 653.192 311.305Z" fill="#C69D7F"/>
<path d="M635.304 165.893C628.86 168.778 627.514 175.51 627.514 175.51L623.571 153.391L633.476 153.102L635.304 165.893Z" fill="#A0795F"/>
<path d="M662.616 161.952H8.64766C3.83906 161.952 -0.0078125 158.009 -0.0078125 153.297C-0.0078125 148.488 3.93523 144.641 8.64766 144.641H662.616C667.425 144.641 671.272 148.584 671.272 153.297C671.272 158.105 667.329 161.952 662.616 161.952Z" fill="#E0B594"/>
<path d="M282.932 118.287H146.271L158.966 15.0947H295.626L282.932 118.287Z" fill="#D86713"/>
<path d="M298.418 15.0938L285.723 118.286H149.159L152.044 94.8202L161.854 15.0938H298.418Z" fill="#F1A34F"/>
<path d="M298.418 15.0942L285.723 118.287H149.159L152.044 94.7245C264.854 101.553 268.508 30.3855 267.931 14.998L298.418 15.0942Z" fill="#E78B37"/>
<path d="M234.274 59.6214C233.985 56.3515 232.254 53.0817 228.984 52.697H223.214C219.752 52.3123 216.674 54.909 216.578 58.3711L214.078 136.174C213.982 138.675 211.866 140.79 209.365 140.79H195.228C194.362 140.79 193.593 141.367 193.305 142.137C192.92 143.387 193.882 144.541 195.132 144.541H239.467C239.563 144.541 239.659 144.541 239.756 144.541H240.333C241.679 144.541 242.737 143.387 242.641 142.041L234.274 59.6214Z" fill="#D86713"/>
<path d="M237.351 59.6214C237.063 56.3515 235.332 53.0817 232.062 52.697H226.292C222.829 52.3123 219.752 54.909 219.656 58.3711L217.155 136.174C217.059 138.675 214.943 140.79 212.443 140.79H198.306C197.44 140.79 196.671 141.367 196.382 142.137C195.998 143.387 196.959 144.541 198.209 144.541H242.641C242.737 144.541 242.833 144.541 242.929 144.541H243.506C244.853 144.541 245.911 143.387 245.815 142.041L237.351 59.6214Z" fill="#F1A34F"/>
<path d="M391.412 49.0423L383.814 139.155C383.814 139.155 383.045 144.637 387.084 144.637C393.72 144.637 420.36 144.637 420.36 144.637C420.36 144.637 415.359 143.483 415.359 140.983C415.455 138.001 424.207 48.2729 424.207 48.2729L391.412 49.0423Z" fill="#D86713"/>
<path d="M422.472 142.907C421.125 142.907 395.832 143.003 389.292 142.907C386.407 142.907 385.926 140.406 385.926 138.771C385.926 138.002 386.022 137.425 386.022 137.425L386.215 135.117L386.696 129.154L387.177 123.865L387.754 117.133L388.234 111.458L393.62 47.408L426.415 46.5425C426.415 46.5425 422.664 84.0495 420.067 111.362C419.779 114.44 419.49 117.325 419.202 120.018C419.106 120.883 419.009 121.749 419.009 122.614C418.817 125.211 418.529 127.615 418.336 129.635C418.24 130.693 418.144 131.751 418.048 132.712C417.663 136.367 417.567 138.771 417.567 139.156C417.567 139.445 417.567 139.637 417.663 139.925C418.144 142.811 421.991 142.907 422.472 142.907Z" fill="#EE9849"/>
<path d="M311.684 -0.00488281L330.149 74.1436L332.649 84.2417L341.208 118.767H500.854L469.213 -0.00488281H311.684Z" fill="#F1A34F"/>
<path d="M311.685 -0.00488281L309.088 0.860664L337.844 121.364L341.21 118.767L311.685 -0.00488281Z" fill="#EE9849"/>
<path d="M337.844 121.365H496.527L500.855 118.768H341.21L337.844 121.365Z" fill="#D86713"/>
<path d="M427.862 142.907H393.529V144.542H427.862V142.907Z" fill="#F1A34F"/>
<path d="M493.161 96.9364L467.291 1.53387H311.396V-0.00488281H469.215L495.085 96.6479L493.161 96.9364Z" fill="#F1A34F"/>
<path d="M419.206 121.363L419.013 122.614L386.7 129.153L387.181 123.864L387.373 121.363H419.206Z" fill="#D86713"/>
<path d="M422.472 142.908C421.125 142.908 395.832 143.004 389.292 142.908C386.407 142.908 385.926 140.407 385.926 138.772L418.048 132.713C417.663 136.368 417.567 138.772 417.567 139.157C417.567 139.445 417.567 139.638 417.663 139.926C418.144 142.811 421.991 142.908 422.472 142.908Z" fill="#E78B37"/>
<path d="M411.414 94.7249L341.209 118.768L332.649 84.2422L411.414 94.7249Z" fill="#E78B37"/>
<path d="M311.684 -0.00488281H469.213L494.795 95.4938H334.669L311.684 -0.00488281Z" fill="#699DEE"/>
<path d="M425.263 107.516C424.782 105.208 422.57 103.285 420.166 103.285C417.762 103.285 416.319 105.208 416.8 107.516C417.281 109.824 419.493 111.748 421.897 111.748C424.302 111.748 425.744 109.921 425.263 107.516Z" fill="#D86713"/>
<path d="M487.393 91.3609H339.866L323.132 24.81L321.882 19.7129L320.728 15.2889L318.227 5.09473H463.543L466.428 15.2889L467.582 19.7129L469.025 24.81L487.393 91.3609Z" fill="#E9F3FE"/>
<path d="M466.428 15.2889H320.728L318.227 5.09473H463.543L466.428 15.2889Z" fill="#AFCDFB"/>
<path d="M324.191 9.70971C323.998 9.0365 324.479 8.45947 325.152 8.45947C325.826 8.45947 326.595 9.0365 326.787 9.70971C326.98 10.3829 326.499 10.9599 325.826 10.9599C325.152 10.9599 324.383 10.3829 324.191 9.70971Z" fill="#E9F3FE"/>
<path d="M328.421 9.70971C328.228 9.0365 328.709 8.45947 329.382 8.45947C330.056 8.45947 330.825 9.0365 331.017 9.70971C331.21 10.3829 330.729 10.9599 330.056 10.9599C329.382 10.9599 328.613 10.3829 328.421 9.70971Z" fill="#E9F3FE"/>
<path d="M333.037 9.70971C332.845 9.0365 333.325 8.45947 333.999 8.45947C334.672 8.45947 335.441 9.0365 335.634 9.70971C335.826 10.3829 335.345 10.9599 334.672 10.9599C333.999 10.9599 333.229 10.3829 333.037 9.70971Z" fill="#E9F3FE"/>
<path d="M359.871 38.272H337.656C336.983 38.272 336.309 37.6949 336.117 37.0217C335.925 36.3485 336.405 35.7715 337.079 35.7715H359.294C359.968 35.7715 360.641 36.3485 360.833 37.0217C361.025 37.6949 360.641 38.272 359.871 38.272Z" fill="#AFCDFB"/>
<path d="M361.123 42.9844H338.908C338.234 42.9844 337.561 42.4073 337.369 41.7341C337.177 41.0609 337.657 40.4839 338.331 40.4839H360.546C361.22 40.4839 361.893 41.0609 362.085 41.7341C362.181 42.4073 361.797 42.9844 361.123 42.9844Z" fill="#AFCDFB"/>
<path d="M362.275 47.7939H340.06C339.386 47.7939 338.713 47.2169 338.521 46.5437C338.328 45.8705 338.809 45.2935 339.482 45.2935H361.698C362.371 45.2935 363.045 45.8705 363.237 46.5437C363.429 47.2169 362.948 47.7939 362.275 47.7939Z" fill="#AFCDFB"/>
<path d="M399.683 38.272H377.468C376.795 38.272 376.121 37.6949 375.929 37.0217C375.737 36.3485 376.217 35.7715 376.891 35.7715H399.106C399.78 35.7715 400.453 36.3485 400.645 37.0217C400.837 37.6949 400.357 38.272 399.683 38.272Z" fill="#AFCDFB"/>
<path d="M400.836 42.9844H378.62C377.947 42.9844 377.274 42.4073 377.081 41.7341C376.889 41.0609 377.37 40.4839 378.043 40.4839H400.259C400.932 40.4839 401.605 41.0609 401.797 41.7341C401.99 42.4073 401.509 42.9844 400.836 42.9844Z" fill="#AFCDFB"/>
<path d="M402.087 47.7939H379.872C379.198 47.7939 378.525 47.2169 378.333 46.5437C378.14 45.8705 378.621 45.2935 379.294 45.2935H401.51C402.183 45.2935 402.857 45.8705 403.049 46.5437C403.145 47.2169 402.76 47.7939 402.087 47.7939Z" fill="#AFCDFB"/>
<path d="M437.957 38.272H415.741C415.068 38.272 414.395 37.6949 414.202 37.0217C414.01 36.3485 414.491 35.7715 415.164 35.7715H437.38C438.053 35.7715 438.726 36.3485 438.919 37.0217C439.015 37.6949 438.63 38.272 437.957 38.272Z" fill="#AFCDFB"/>
<path d="M439.109 42.9844H416.894C416.22 42.9844 415.547 42.4073 415.355 41.7341C415.162 41.0609 415.643 40.4839 416.316 40.4839H438.532C439.205 40.4839 439.879 41.0609 440.071 41.7341C440.263 42.4073 439.782 42.9844 439.109 42.9844Z" fill="#AFCDFB"/>
<path d="M440.361 47.7939H418.145C417.472 47.7939 416.799 47.2169 416.606 46.5437C416.414 45.8705 416.895 45.2935 417.568 45.2935H439.784C440.457 45.2935 441.13 45.8705 441.322 46.5437C441.419 47.2169 441.034 47.7939 440.361 47.7939Z" fill="#AFCDFB"/>
<path d="M458.534 22.1154L459.592 26.5393C459.785 27.3087 459.304 27.9819 458.534 27.9819H332.645C331.876 27.9819 331.01 27.3087 330.818 26.5393L329.76 22.1154C329.568 21.3461 330.049 20.6729 330.818 20.6729H456.611C457.476 20.6729 458.342 21.3461 458.534 22.1154Z" fill="#AFCDFB"/>
<path d="M420.066 20.6729L421.893 27.9819H332.645C331.876 27.9819 331.01 27.3087 330.818 26.5393L329.76 22.1154C329.568 21.3461 330.049 20.6729 330.818 20.6729H420.066Z" fill="#F1A34F"/>
<path d="M437.57 23.558H436.127L436.031 22.981H438.147L438.243 23.4618L437.57 25.9623H436.801L437.57 23.558Z" fill="#699DEE"/>
<path d="M438.917 24.424C438.724 23.5585 439.109 22.8853 439.878 22.8853C440.648 22.8853 441.321 23.5585 441.61 24.424C441.802 25.2896 441.513 25.9628 440.648 25.9628C439.782 25.9628 439.109 25.2896 438.917 24.424ZM440.936 24.424C440.84 23.847 440.455 23.4623 440.071 23.4623C439.686 23.4623 439.494 23.847 439.686 24.424C439.782 25.001 440.167 25.3857 440.552 25.3857C440.936 25.3857 441.032 25.001 440.936 24.424Z" fill="#699DEE"/>
<path d="M441.805 23.6546C441.709 23.2699 441.901 22.8853 442.382 22.8853C442.863 22.8853 443.151 23.2699 443.247 23.6546C443.344 24.0393 443.151 24.424 442.67 24.424C442.189 24.424 441.901 24.1355 441.805 23.6546ZM444.113 22.9814H444.594L443.151 25.9628H442.67L444.113 22.9814ZM442.863 23.6546C442.863 23.4623 442.67 23.2699 442.478 23.2699C442.286 23.2699 442.286 23.4623 442.286 23.6546C442.286 23.847 442.478 24.0393 442.67 24.0393C442.863 24.0393 442.863 23.9431 442.863 23.6546ZM444.017 25.1934C443.921 24.8087 444.113 24.424 444.594 24.424C445.075 24.424 445.363 24.8087 445.459 25.1934C445.556 25.5781 445.363 25.9628 444.882 25.9628C444.401 25.9628 444.113 25.6742 444.017 25.1934ZM444.978 25.1934C444.978 25.001 444.786 24.8087 444.594 24.8087C444.401 24.8087 444.401 25.001 444.401 25.1934C444.401 25.3857 444.594 25.5781 444.786 25.5781C444.978 25.5781 445.075 25.3857 444.978 25.1934Z" fill="#699DEE"/>
<path d="M409.591 82.4163H398.436C396.897 82.4163 395.262 81.1661 394.877 79.6273L389.492 57.9887C389.107 56.4499 390.069 55.1035 391.607 55.1035H402.763C404.302 55.1035 405.937 56.3537 406.322 57.9887L411.707 79.6273C412.092 81.1661 411.13 82.4163 409.591 82.4163Z" fill="#AFCDFB"/>
<path d="M428.919 82.4163H417.763C416.224 82.4163 414.589 81.1661 414.204 79.6273L408.819 57.9887C408.434 56.4499 409.396 55.1035 410.934 55.1035H422.09C423.629 55.1035 425.264 56.3537 425.649 57.9887L431.034 79.6273C431.419 81.1661 430.457 82.4163 428.919 82.4163Z" fill="#AFCDFB"/>
<path d="M447.867 82.4163H436.711C435.172 82.4163 433.537 81.1661 433.153 79.6273L427.767 57.9887C427.382 56.4499 428.344 55.1035 429.883 55.1035H441.039C442.577 55.1035 444.212 56.3537 444.597 57.9887L449.983 79.6273C450.367 81.1661 449.406 82.4163 447.867 82.4163Z" fill="#AFCDFB"/>
<path d="M387.569 82.4168H349.773C347.177 82.4168 344.484 80.3011 343.811 77.7044L339.483 59.9126C338.81 57.316 340.445 55.2002 343.041 55.2002H380.837C383.433 55.2002 386.126 57.316 386.799 59.9126L391.223 77.7044C391.8 80.3011 390.165 82.4168 387.569 82.4168Z" fill="#AFCDFB"/>
<path d="M380.259 62.0284H344.964C344.387 62.0284 343.81 61.5475 343.617 60.9705C343.521 60.3935 343.81 59.9126 344.387 59.9126H379.682C380.259 59.9126 380.836 60.3935 381.028 60.9705C381.221 61.4513 380.836 62.0284 380.259 62.0284Z" fill="#699DEE"/>
<path d="M381.319 66.1622H346.024C345.447 66.1622 344.87 65.6813 344.678 65.1043C344.582 64.5272 344.87 64.0464 345.447 64.0464H380.742C381.319 64.0464 381.896 64.5272 382.089 65.1043C382.281 65.6813 381.896 66.1622 381.319 66.1622Z" fill="#699DEE"/>
<path d="M382.376 70.2984H347.08C346.503 70.2984 345.926 69.8175 345.734 69.2405C345.638 68.6635 345.926 68.1826 346.503 68.1826H381.798C382.376 68.1826 382.953 68.6635 383.145 69.2405C383.337 69.8175 382.953 70.2984 382.376 70.2984Z" fill="#699DEE"/>
<path d="M356.604 75.0123H348.237C347.66 75.0123 347.083 74.5314 346.89 73.9544C346.794 73.3773 347.083 72.8965 347.66 72.8965H356.027C356.604 72.8965 357.181 73.3773 357.373 73.9544C357.565 74.5314 357.181 75.0123 356.604 75.0123Z" fill="#699DEE"/>
<path d="M513.551 195.323C513.551 195.323 493.644 205.228 492.393 216C491.239 226.771 495.471 291.783 495.471 291.783C495.471 291.783 516.436 295.726 520.091 291.879C520.091 291.879 525.284 222.251 524.418 219.173C523.457 216 581.833 198.881 587.026 198.977C592.22 198.977 513.551 195.323 513.551 195.323Z" fill="#163560"/>
<path d="M518.648 291.398C518.648 291.398 517.398 311.017 513.647 311.306C513.167 311.306 494.413 311.306 494.413 311.306L470.466 311.21C470.466 311.21 470.659 305.439 477.583 304.189C484.507 302.939 496.337 298.034 500.568 288.802C504.992 279.088 518.648 291.398 518.648 291.398Z" fill="#163560"/>
<path d="M451.422 291.398C451.422 291.398 450.172 311.017 446.421 311.306C445.941 311.306 427.187 311.306 427.187 311.306L403.24 311.21C403.24 311.21 403.433 305.439 410.357 304.189C417.281 302.939 429.11 298.034 433.342 288.802C437.766 279.088 451.422 291.398 451.422 291.398Z" fill="#163560"/>
<path d="M597.511 160.316L597.126 160.413C596.645 158.489 595.491 156.854 593.472 155.7C578.661 147.333 550.579 153.007 550.579 153.007C550.579 153.007 459.793 167.722 451.33 179.743C442.866 191.669 429.787 293.515 429.787 293.515C429.787 293.515 445.655 297.65 452.195 295.246C452.195 295.246 483.451 214.557 486.048 205.806C488.26 198.208 531.441 203.786 553.176 202.247C566.255 201.863 586.643 200.901 592.221 198.978C600.588 196.092 597.511 160.316 597.511 160.316Z" fill="#1C468A"/>
<path d="M565.292 51.257L557.79 60.5857L543.557 61.2589C543.364 59.9125 542.884 53.9498 542.499 48.9489C542.21 44.8135 541.826 41.2551 541.826 41.2551L556.925 28.0796C556.925 28.1758 557.694 32.5997 557.79 33.1767C559.81 44.6211 565.292 51.257 565.292 51.257Z" fill="#7C4A28"/>
<path d="M540.285 47.6977C540.574 47.6015 559.616 43.0814 561.635 43.8508C563.655 44.6202 564.617 48.6594 564.617 48.6594L533.649 53.9488C533.649 53.9488 536.246 49.1403 540.285 47.6977Z" fill="#E58638"/>
<path d="M537.788 42.697C537.788 42.697 557.984 43.6587 558.465 30.964C558.946 18.2693 561.735 9.99856 548.848 8.8445C535.961 7.69043 533.268 12.499 532.114 16.6344C530.96 20.866 532.595 42.12 537.788 42.697Z" fill="#935932"/>
<path d="M532.501 15.3846C532.501 15.3846 537.309 28.6563 539.906 27.4061C542.599 26.0597 545.003 25.0018 545.676 29.2333C546.349 33.4649 543.657 39.2352 552.601 37.6965C561.448 36.1577 568.084 10.4798 564.622 6.82528C554.524 -3.75363 518.652 3.07458 532.501 15.3846Z" fill="#163560"/>
<path d="M597.51 160.315C592.413 166.374 548.943 164.739 536.152 159.642C535.191 159.257 534.421 158.873 533.94 158.488C526.439 152.525 543.365 147.236 524.419 101.554C524.419 101.554 524.419 101.554 524.419 101.458C510.859 68.6634 525.189 57.9883 534.325 52.795C534.325 52.795 560.195 44.8127 574.717 49.3328C593.471 55.1993 602.992 153.872 597.51 160.315Z" fill="#EE9849"/>
<path d="M551.829 137.907C550.963 144.158 545.962 159.449 536.249 159.642C535.287 159.257 534.518 158.872 534.037 158.488C526.536 152.525 543.462 147.235 524.516 101.554C524.516 101.554 524.516 101.554 524.516 101.458C527.69 99.2456 532.787 96.8413 536.153 100.592C541.154 106.459 552.694 131.463 551.829 137.907Z" fill="#E58638"/>
<path d="M459.791 137.812C459.791 137.812 451.616 133.1 449.02 132.715C446.423 132.33 433.921 142.909 435.748 143.775C437.575 144.64 447 140.601 448.347 141.466C449.693 142.332 450.751 144.544 452.29 144.64C453.732 144.64 458.829 144.64 458.829 144.64L459.791 137.812Z" fill="#935932"/>
<path d="M534.323 52.7949C534.323 52.7949 516.435 62.1236 514.127 70.8752C511.819 79.6269 503.163 122.231 499.893 125.212C496.624 128.194 458.636 135.118 458.636 135.118C458.636 135.118 454.212 140.023 455.558 144.543H514.896C514.896 144.543 541.632 105.882 539.709 91.2637C537.881 76.7417 534.323 52.7949 534.323 52.7949Z" fill="#EE9849"/>
<path d="M612.899 200.419H489.703C489.703 200.419 492.588 189.84 563.948 191.379C614.438 192.533 612.899 200.419 612.899 200.419Z" fill="#E5BD9E"/>
<path d="M622.901 311.402C608.571 245.236 612.322 204.651 612.322 204.17C612.322 203.112 610.302 202.247 609.244 202.151C608.09 202.151 603.185 201.862 602.608 202.728C601.839 203.882 598.954 253.891 620.304 311.402H622.901Z" fill="#D1A586"/>
<path d="M507.878 311.402C522.208 245.236 518.457 204.651 518.457 204.17C518.457 203.112 520.476 202.247 521.534 202.151C522.688 202.151 527.593 201.862 528.17 202.728C528.94 203.882 531.825 253.891 510.475 311.402H507.878Z" fill="#D1A586"/>
<path d="M485.086 311.402C499.416 245.236 495.665 204.651 495.665 204.17C495.665 203.112 497.685 202.247 498.743 202.151C499.897 202.151 504.802 201.862 505.379 202.728C506.148 203.882 509.033 253.891 487.683 311.402H485.086Z" fill="#A0795F"/>
<path d="M600.009 311.402C585.68 245.236 589.431 204.651 589.431 204.17C589.431 203.112 587.411 202.247 586.353 202.151C585.199 202.151 580.294 201.862 579.717 202.728C578.948 203.882 576.063 253.891 597.413 311.402H600.009Z" fill="#A0795F"/>
<path d="M612.804 203.787H489.704C488.261 203.787 487.107 202.633 487.107 201.19V200.228C487.107 198.786 488.261 197.632 489.704 197.632H612.804C614.247 197.632 615.401 198.786 615.401 200.228V201.19C615.305 202.633 614.247 203.787 612.804 203.787Z" fill="#D1A586"/>
<path d="M579.239 168.587C580.201 148.102 582.124 130.311 584.432 117.904C588.183 98.0931 591.549 86.7448 591.549 86.6486C592.03 84.9175 599.147 77.897 615.015 78.0893C630.883 78.2817 629.345 87.5142 629.345 87.5142C629.345 87.8027 629.345 88.0912 629.249 88.2836C629.056 88.7644 614.534 136.947 615.207 199.17C615.207 200.035 615.304 201.574 615.207 202.536C615.207 202.536 578.566 203.401 578.47 202.536C577.316 197.15 577.989 182.051 579.239 168.587Z" fill="#D1A586"/>
<path d="M433.728 144.544C433.728 144.544 443.634 136.85 448.538 139.254C453.443 141.659 454.693 144.544 454.693 144.544H433.728Z" fill="#1C468A"/>
<path d="M122.422 139.35C122.422 139.35 131.847 137.234 134.828 138.1C137.809 138.965 144.349 144.543 142.81 144.543C141.272 144.543 134.828 141.562 133.866 142.139C132.905 142.716 128.385 145.024 125.499 143.87C122.614 142.716 122.422 139.35 122.422 139.35Z" fill="#FFB27D"/>
<path d="M81.2583 72.6064C81.2583 72.6064 72.0258 96.9379 70.9679 110.402C69.2368 131.367 69.333 144.447 69.333 144.447C69.333 144.447 75.2956 144.735 90.4908 144.447C105.686 144.158 123.478 144.447 123.478 144.447C123.478 144.447 127.998 140.023 121.843 136.657C115.592 133.291 89.4329 127.04 90.1061 124.443C90.7793 121.846 99.8195 85.3973 99.8195 85.3973L81.2583 72.6064Z" fill="#6BB7BF"/>
<path d="M126.942 144.544C126.942 144.544 132.52 140.601 136.367 141.659C140.214 142.717 142.811 144.544 142.811 144.544H126.942Z" fill="#1C468A"/>
<path d="M185.599 31.1587C175.789 31.1587 167.807 39.141 167.807 48.9505C167.807 58.76 175.789 66.7423 185.599 66.7423C195.408 66.7423 203.391 58.76 203.391 48.9505C203.391 39.141 195.408 31.1587 185.599 31.1587ZM194.351 50.0084H186.272V58.0868C186.272 58.6638 185.791 59.0485 185.31 59.0485C184.733 59.0485 184.349 58.5677 184.349 58.0868V50.0084H176.366C175.789 50.0084 175.405 49.5275 175.405 49.0467C175.405 48.5658 175.886 48.0849 176.366 48.0849H184.445V40.0065C184.445 39.4295 184.926 39.0448 185.407 39.0448C185.984 39.0448 186.368 39.5256 186.368 40.0065V48.0849H194.447C195.024 48.0849 195.408 48.5658 195.408 49.0467C195.408 49.5275 194.928 50.0084 194.351 50.0084Z" fill="white"/>
<circle cx="186.5" cy="50.5" r="20.5" fill="#F1A34F"/>
<circle cx="188" cy="50" r="25" fill="#F7CBAD"/>
<g filter="url(#filter0_d_1773_24553)">
<path d="M200.188 47.1875H190.812V37.8125C190.812 37.0666 190.516 36.3512 189.989 35.8238C189.461 35.2963 188.746 35 188 35C187.254 35 186.539 35.2963 186.011 35.8238C185.484 36.3512 185.188 37.0666 185.188 37.8125V47.1875H175.812C175.067 47.1875 174.351 47.4838 173.824 48.0113C173.296 48.5387 173 49.2541 173 50C173 50.7459 173.296 51.4613 173.824 51.9887C174.351 52.5162 175.067 52.8125 175.812 52.8125H185.188V62.1875C185.188 62.9334 185.484 63.6488 186.011 64.1762C186.539 64.7037 187.254 65 188 65C188.746 65 189.461 64.7037 189.989 64.1762C190.516 63.6488 190.812 62.9334 190.812 62.1875V52.8125H200.188C200.933 52.8125 201.649 52.5162 202.176 51.9887C202.704 51.4613 203 50.7459 203 50C203 49.2541 202.704 48.5387 202.176 48.0113C201.649 47.4838 200.933 47.1875 200.188 47.1875Z" fill="white"/>
</g>
</g>
<defs>
<filter id="filter0_d_1773_24553" x="173" y="35" width="36" height="36" filterUnits="userSpaceOnUse" color-interpolation-filters="sRGB">
<feFlood flood-opacity="0" result="BackgroundImageFix"/>
<feColorMatrix in="SourceAlpha" type="matrix" values="0 0 0 0 0 0 0 0 0 0 0 0 0 0 0 0 0 0 127 0" result="hardAlpha"/>
<feOffset dx="4" dy="4"/>
<feGaussianBlur stdDeviation="1"/>
<feComposite in2="hardAlpha" operator="out"/>
<feColorMatrix type="matrix" values="0 0 0 0 0 0 0 0 0 0 0 0 0 0 0 0 0 0 0.25 0"/>
<feBlend mode="normal" in2="BackgroundImageFix" result="effect1_dropShadow_1773_24553"/>
<feBlend mode="normal" in="SourceGraphic" in2="effect1_dropShadow_1773_24553" result="shape"/>
</filter>
<clipPath id="clip0_1773_24553">
<rect width="671.28" height="311.405" fill="white"/>
</clipPath>
</defs>
</svg>
