<svg width="524" height="364" viewBox="0 0 524 364" fill="none" xmlns="http://www.w3.org/2000/svg">
<g clip-path="url(#clip0_1773_24438)">
<path d="M229.572 59.0473C222.827 66.9253 209.529 63.1287 208.674 59.9016C210.194 51.6439 208.294 41.8677 208.294 41.8677L228.337 46.1389C228.337 46.7084 228.432 47.2778 228.432 47.8473C228.527 50.505 228.717 53.1626 229.097 55.9151C229.382 57.3389 229.572 57.7185 229.572 59.0473Z" fill="#A05E47"/>
<path d="M229.192 56.01C218.838 55.0609 210.954 45.5693 210.954 45.5693L228.527 47.8473C228.622 50.5049 228.717 53.2575 229.192 56.01Z" fill="#2F241C"/>
<path d="M208.291 43.4794C211.046 48.2252 225.104 52.2116 230.138 48.8896C233.178 46.8964 235.647 43.3845 236.217 36.3608V36.2659C236.217 35.8862 236.312 35.4116 236.312 35.032C236.407 34.2727 236.407 33.6082 236.407 32.9438C236.407 32.754 236.407 32.6591 236.407 32.4693C236.407 32.0896 236.407 31.615 236.407 31.2354C236.407 30.7608 236.312 30.2862 236.312 29.9065C235.457 23.0726 234.697 15.3845 227.858 12.0625C221.019 8.74045 211.141 9.12011 206.486 16.0489C206.486 16.0489 203.162 21.9337 204.871 31.8049C206.581 41.4862 206.296 39.9676 208.291 43.4794Z" fill="#A05E47"/>
<path d="M207.153 30.1907C207.153 30.1907 204.399 26.489 200.599 28.8619C196.8 31.2348 200.504 44.9026 208.103 42.2449C208.103 42.15 207.153 30.0958 207.153 30.1907Z" fill="#A05E47"/>
<path d="M206.397 36.8349C206.492 37.0247 206.397 37.2145 206.207 37.3094H206.112C205.922 37.3094 205.732 37.2145 205.732 37.1196C205.732 37.1196 205.162 35.7908 204.117 34.7467C203.452 35.506 202.882 36.2654 202.882 36.2654C202.788 36.3603 202.693 36.3603 202.598 36.4552C202.503 36.4552 202.408 36.4552 202.313 36.3603C202.123 36.2654 202.123 35.9806 202.218 35.7908C202.218 35.7908 202.787 35.0315 203.452 34.1772C202.787 33.7026 201.933 33.2281 200.888 33.2281C200.698 33.2281 200.508 33.0382 200.508 32.8484C200.508 32.6586 200.698 32.4688 200.888 32.4688C204.687 32.8484 206.302 36.7399 206.397 36.8349Z" fill="#2F241C"/>
<path d="M204.971 13.6784L213.045 13.5835C213.045 13.5835 212.855 33.8004 204.876 35.2242L203.451 20.892C203.071 18.3293 203.736 15.8615 204.971 13.6784Z" fill="#7F5044"/>
<path d="M224.348 1.43252C224.443 0.863024 225.012 0.483364 225.582 0.578279C226.152 0.673194 226.532 1.14777 226.532 1.71726C226.817 1.05286 227.482 0.673194 228.147 0.578279C228.812 0.483364 229.572 0.863025 229.857 1.52743C230.427 1.14777 231.092 0.95794 231.662 1.24269C232.232 1.52743 232.516 2.28675 232.137 2.76133C232.516 2.38167 233.181 2.38167 233.561 2.66641C233.941 2.95116 234.131 3.61557 233.941 4.09014C234.416 4.27997 234.891 4.56472 235.366 4.94438C235.651 5.13421 235.936 5.41896 235.936 5.7037C235.936 5.98845 235.556 6.36811 235.271 6.17828C235.841 6.46302 236.506 6.74777 236.791 7.41218C237.076 8.07658 236.791 8.93082 236.126 9.02574C236.506 9.50031 236.981 9.97489 236.981 10.6393C236.981 11.2088 236.411 11.8732 235.841 11.6834C236.316 11.9681 236.411 12.8223 236.031 13.202C235.651 13.5817 234.796 13.4868 234.511 13.0122C234.511 13.6766 233.941 14.2461 233.371 14.2461C232.801 14.2461 232.137 13.7715 232.042 13.202C231.662 13.7715 230.997 14.0562 230.237 14.0562C229.572 13.9613 228.907 13.5817 228.622 12.9173C228.052 13.8664 226.627 14.1512 225.677 13.4868C225.202 14.4359 223.588 14.341 223.208 13.3918C223.208 13.8664 222.828 14.2461 222.353 14.4359C221.878 14.5308 221.403 14.341 221.118 13.9613C220.833 14.4359 220.358 14.8156 219.883 14.9105C219.313 15.0054 218.743 14.6257 218.648 14.0562C218.553 14.6257 218.078 15.1003 217.603 15.1952C217.129 15.2901 216.464 15.0054 216.274 14.4359C215.799 14.8156 215.324 15.2901 214.754 15.48C214.184 15.6698 213.424 15.48 213.139 14.9105C212.569 16.0495 210.859 16.4291 209.91 15.6698C209.625 16.619 208.105 16.7139 207.63 15.9545C207.44 16.4291 207.155 17.0935 206.585 17.1884C206.395 17.1884 206.11 17.1884 205.92 17.1884C205.35 17.1884 204.875 17.3783 204.305 17.3783C203.735 17.3783 203.165 16.9986 203.165 16.524C202.595 16.7139 202.026 16.8088 201.456 16.619C200.981 16.524 200.411 16.2393 200.221 15.7647C200.031 15.2901 200.411 14.6257 200.981 14.7207C200.506 14.4359 200.221 13.8664 200.316 13.2969C200.411 12.7274 200.886 12.2529 201.456 12.2529C200.791 12.063 200.506 11.2088 200.696 10.5444C200.886 9.87997 201.361 9.4054 201.931 9.02574C201.456 8.74099 201.266 7.98167 201.456 7.50709C201.646 6.9376 202.311 6.65285 202.88 6.74777C202.785 6.27319 202.785 5.7037 202.975 5.22913C203.165 4.75455 203.735 4.37489 204.21 4.56472C204.4 3.42574 205.92 2.85624 206.775 3.52065C206.87 2.85624 207.44 2.28675 208.105 2.09692C208.77 1.90709 209.53 2.19184 209.91 2.66641C210.289 2.19184 210.764 1.81218 211.334 1.62235C211.904 1.43252 212.664 1.81218 212.664 2.38167C213.234 1.14777 215.134 0.673194 216.179 1.62235C215.799 1.24269 218.268 1.05286 218.268 1.05286C219.028 0.95794 219.313 0.293533 220.073 0.198618C220.738 0.103702 221.403 0.483363 221.783 1.05286C222.258 0.673194 222.638 0.198618 223.398 0.293533C223.683 0.198618 224.538 0.863024 224.348 1.43252Z" fill="#15191C"/>
<path d="M226.531 159.372C227.576 159.372 228.621 159.277 229.666 159.182C230.901 159.087 232.135 158.992 233.37 158.897C233.37 158.897 238.31 198.951 228.811 202.653C228.906 177.216 226.816 161.175 226.531 159.372Z" fill="#4D5DDB"/>
<path d="M270.233 152.349C283.341 203.983 292.65 273.176 275.552 339.332C275.267 339.616 274.792 339.901 274.127 340.186C269.663 341.894 258.169 341.799 247.246 340.186C245.536 339.901 243.921 339.711 242.306 339.332C250.76 262.735 228.818 208.918 228.818 208.918H228.723C228.723 206.83 228.818 204.742 228.818 202.749C238.317 199.047 233.378 158.993 233.378 158.993C244.681 158.044 257.124 156.05 270.233 152.349Z" fill="#4D5DDB"/>
<path d="M274.124 340.187L270.894 354.424C262.44 360.024 254.176 359.834 246.008 354.424L247.242 340.187C258.166 341.8 269.754 341.895 274.124 340.187Z" fill="#A05E47"/>
<path d="M226.537 159.371C226.727 161.174 228.911 177.215 228.816 202.747C228.816 204.74 228.816 206.828 228.721 208.916C228.246 241.757 224.067 288.076 209.059 339.33C207.824 339.615 206.589 339.899 205.355 340.184C195.001 342.272 185.692 342.557 177.428 341.133C174.864 340.659 172.394 340.089 170.019 339.425C176.573 256.659 176.953 196.577 175.244 154.72C175.244 154.72 195.951 160.794 226.537 159.371Z" fill="#4D5DDB"/>
<path d="M205.348 340.187L202.024 354.424C192.24 358.22 183.786 358.6 177.042 354.424L177.422 341.136C185.781 342.559 194.995 342.275 205.348 340.187Z" fill="#A05E47"/>
<path d="M188.253 342.557C184.454 342.557 180.844 342.272 177.425 341.702C174.765 341.228 172.295 340.658 169.921 339.899L170.301 338.76C172.58 339.519 175.05 340.089 177.615 340.469C185.879 341.892 195.187 341.513 205.351 339.519C206.396 339.33 207.441 339.045 208.77 338.76C224.063 286.367 227.768 239.194 228.243 208.821C228.243 206.353 228.338 204.455 228.338 202.652C228.433 178.163 226.438 162.313 226.058 159.37C226.058 159.275 226.058 159.275 226.058 159.275L227.198 159.085C227.198 159.085 227.198 159.18 227.198 159.275C227.578 162.218 229.573 178.163 229.478 202.652C229.478 204.455 229.478 206.448 229.383 208.916C229.098 228.184 227.578 247.831 225.013 267.289C221.689 291.872 216.559 316.17 209.72 339.519L209.625 339.899L209.245 339.994C207.821 340.279 206.586 340.563 205.446 340.848C199.462 341.987 193.667 342.557 188.253 342.557Z" fill="#130E40"/>
<path d="M263.297 342.082C258.548 342.082 252.943 341.702 247.244 340.848C245.344 340.563 243.729 340.279 242.21 339.994L241.64 339.899L241.735 339.329C246.104 299.845 242.21 266.529 238.22 245.553C233.851 222.868 228.437 209.296 228.342 209.201L229.386 208.726C229.481 208.821 234.991 222.489 239.36 245.363C241.925 258.746 243.635 272.699 244.394 286.652C245.344 304.021 244.869 321.58 242.97 338.95C244.299 339.235 245.724 339.424 247.434 339.709C258.643 341.323 269.851 341.323 274.03 339.709C274.6 339.519 274.98 339.235 275.265 339.045L276.12 339.899C275.74 340.279 275.17 340.563 274.505 340.848C272.131 341.607 268.141 342.082 263.297 342.082Z" fill="#130E40"/>
<path d="M229.005 203.222L228.53 202.083C232.14 200.66 234.04 192.782 234.04 179.399C233.945 169.053 232.805 159.087 232.71 158.992L233.85 158.897C233.85 158.992 235.084 169.053 235.179 179.399C235.369 193.541 233.28 201.609 229.005 203.222Z" fill="#130E40"/>
<path d="M307.271 56.8623C306.226 56.103 304.611 57.0521 304.611 57.0521C304.611 57.0521 304.516 55.4386 303.282 54.7742C302.047 54.0148 299.482 55.5335 299.482 55.5335C299.482 55.5335 299.007 53.7301 297.202 53.825C295.493 53.9199 294.543 57.6216 294.448 57.9064C294.448 57.3369 295.398 44.1437 293.403 45.947C291.313 47.8454 289.508 60.7538 289.318 61.2284C289.128 61.703 288.274 62.1776 286.754 63.886C285.234 65.5945 284.854 67.6826 286.184 70.8148C287.514 73.947 289.983 78.6928 289.983 78.6928C293.308 80.4013 299.387 82.1098 301.097 77.8386C302.142 75.1809 304.801 69.3911 305.181 67.9674C305.466 67.1131 305.561 66.6386 305.561 66.6386C305.751 66.4487 306.986 65.6894 307.841 63.1267C308.886 60.2792 308.316 57.6216 307.271 56.8623Z" fill="#A05E47"/>
<path d="M239.453 103.465C238.218 89.5124 236.413 75.7497 236.224 61.7023C236.224 61.3226 236.224 61.0379 236.319 60.6582C226.63 61.7023 216.941 62.8413 207.252 63.8853C208.107 65.2141 208.677 66.8277 208.582 68.8209C208.202 82.204 210.197 95.4921 209.817 108.875C209.437 121.973 207.537 135.167 205.638 148.075C204.213 157.567 202.503 166.963 200.508 176.36C204.403 177.973 208.392 179.302 212.477 180.251C212.857 180.346 216.181 181.011 216.941 181.106C219.221 181.485 221.595 181.77 223.875 181.77C224.92 181.77 225.965 181.675 226.915 181.675C229.764 181.485 232.519 181.201 235.369 180.726C236.888 169.431 238.313 158.136 239.263 146.841C240.498 132.414 240.783 117.987 239.453 103.465Z" fill="white"/>
<path d="M227.772 67.8703L222.453 63.5991C221.598 62.9347 220.458 63.1245 219.793 63.8838L215.519 69.1991C214.854 69.9584 215.044 71.1923 215.804 71.8567L221.123 76.1279C221.978 76.7923 223.118 76.6025 223.783 75.8431L228.057 70.5279C228.722 69.7686 228.532 68.5347 227.772 67.8703Z" fill="#130E40"/>
<path d="M225.202 71.0039C225.202 71.0039 244.959 160.604 236.126 169.146C234.606 173.133 230.616 182.245 227.007 181.77C224.252 181.485 222.257 175.695 220.738 165.54C218.933 153.675 216.558 127.573 219.883 71.0039C221.592 71.0039 223.397 71.0039 225.202 71.0039Z" fill="#130E40"/>
<path d="M232.14 53.8255L221.312 62.5577L206.304 49.7441L200.319 57.6221L214.567 71.2899L221.501 63.7916L228.246 70.2458L239.359 59.0458L232.14 53.8255Z" fill="#95BCF5"/>
<path d="M300.627 130.421C300.627 130.421 311.646 108.78 303.097 73.3764C302.242 73.2815 289.229 76.5086 286.379 71.0036C286.379 70.8137 279.35 87.5188 279.92 95.2069C280.49 102.8 300.627 130.421 300.627 130.421Z" fill="#462779"/>
<path d="M206.207 49.6475C207.822 56.3864 209.817 65.4983 211.622 76.4136C211.907 78.3119 215.041 97.0102 215.611 112.007C216.086 126.814 214.186 146.271 205.352 181.39C205.447 182.244 158.904 169.146 155.579 167.912C152.255 166.678 154.819 127.003 163.083 103.654C171.062 80.9695 172.962 73.4712 178.946 66.922C188.16 56.6712 199.178 51.9254 206.207 49.6475Z" fill="#462779"/>
<path d="M253.415 63.2231C261.964 70.5316 264.529 79.6434 270.418 118.084C276.592 158.328 276.117 163.549 272.318 169.054C262.344 183.576 240.022 183.955 232.708 183.86C232.708 183.86 232.898 181.582 233.088 177.881C235.273 146.464 236.983 121.501 235.843 94.4502C235.463 84.579 234.513 70.6265 232.138 53.9214C237.552 54.6807 246.006 56.8638 253.415 63.2231Z" fill="#462779"/>
<path d="M301.197 127.669C301.197 127.669 276.026 71.7641 247.815 59.52C246.485 63.6963 256.743 154.435 294.358 137.445C300.722 134.978 301.197 127.669 301.197 127.669Z" fill="#462779"/>
<path d="M184.362 98.9106C184.362 98.9106 184.267 155.67 174.009 173.799" stroke="#15191C" stroke-width="0.894212" stroke-miterlimit="10"/>
<path d="M253.609 84.6743C253.609 84.6743 261.873 136.498 282.865 139.44" stroke="#15191C" stroke-width="0.237822" stroke-miterlimit="10"/>
<path d="M176.003 181.579C176.288 179.586 176.478 178.162 176.478 178.162C176.858 176.643 177.333 175.22 177.713 173.701C170.969 170.664 163.18 169.715 156.151 168.006C155.961 167.911 155.771 167.911 155.581 167.911C154.251 182.148 154.346 193.918 155.391 194.392C157.48 195.342 159.38 190.121 159.665 189.457C159.475 190.216 157.765 196.765 160.045 197.525C161.755 198.094 163.275 193.918 164.034 191.26C163.37 193.918 162.61 198.474 164.699 199.138C167.074 199.898 168.784 193.633 169.354 191.165C168.974 193.064 168.499 197.145 170.969 197.809C172.298 198.189 173.533 194.203 174.483 189.837C176.003 191.45 177.903 192.874 179.042 191.925C181.227 189.931 176.003 181.579 176.003 181.579Z" fill="#A05E47"/>
<path d="M271.178 354.893L246.196 353.184L246.006 361.632H282.007L271.178 354.893Z" fill="#03233E"/>
<path d="M202.22 353.277L177.239 351.568L177.144 360.016H213.144L202.22 353.277Z" fill="#03233E"/>
<path d="M389.913 131.648C390.768 131.078 391.908 131.837 391.908 131.837C391.908 131.837 392.003 130.604 392.953 130.034C393.903 129.465 395.898 130.604 395.898 130.604C395.898 130.604 396.277 129.18 397.702 129.275C399.032 129.37 399.792 132.217 399.792 132.407C399.792 131.932 399.032 121.776 400.647 123.2C402.262 124.624 403.592 134.59 403.781 134.97C403.971 135.349 404.636 135.634 405.776 137.058C406.916 138.482 407.296 140 406.251 142.373C405.206 144.841 403.307 148.448 403.307 148.448C400.742 149.776 396.088 151.105 394.758 147.783C393.903 145.695 391.908 141.234 391.623 140.19C391.433 139.526 391.338 139.146 391.338 139.146C391.148 139.051 390.293 138.387 389.533 136.488C388.679 134.4 389.058 132.312 389.913 131.648Z" fill="#FD9B88"/>
<path d="M504.57 97.6674C502.48 108.867 482.628 132.786 482.628 132.786C482.628 132.786 461.92 101.274 464.105 90.0742C466.29 78.8742 476.928 71.5657 488.137 73.6538C499.345 75.742 506.659 86.5623 504.57 97.6674Z" fill="#130E40"/>
<path d="M490.515 82.1017C492.225 86.1831 490.895 90.5492 487.571 91.9729C484.246 93.3966 480.067 91.2136 478.452 87.2271C476.837 83.2407 478.072 78.7797 481.397 77.3559C484.721 75.9322 488.806 78.1153 490.515 82.1017Z" fill="#F7C825"/>
<path d="M490.26 99.6328C492.985 88.1033 485.84 76.5498 474.302 73.8274C462.764 71.1049 451.201 78.2445 448.477 89.774C445.752 101.303 452.897 112.857 464.436 115.579C475.974 118.302 487.536 111.162 490.26 99.6328Z" fill="#130E40"/>
<path d="M456.033 128.144C463.062 136.117 476.645 132.036 477.405 128.714C475.696 120.266 477.5 110.3 477.5 110.3L457.078 115.046C457.078 115.616 457.078 116.185 456.983 116.755C456.888 119.412 456.793 122.165 456.413 125.107C456.223 126.341 456.033 126.816 456.033 128.144Z" fill="#FD9B88"/>
<path d="M456.415 125.011C466.959 123.872 474.938 114.096 474.938 114.096L456.985 116.754C456.89 119.411 456.795 122.164 456.415 125.011Z" fill="#2F241C"/>
<path d="M477.5 111.811C474.746 116.746 460.403 121.018 455.178 117.696C452.044 115.702 449.479 112.19 448.719 104.977V104.882C448.719 104.502 448.624 104.028 448.624 103.648C448.529 102.889 448.529 102.224 448.529 101.465C448.529 101.275 448.529 101.18 448.529 100.99C448.529 100.611 448.529 100.136 448.529 99.7566C448.529 99.282 448.529 98.8074 448.624 98.3328C449.384 91.3091 450.049 83.4311 456.983 80.0142C463.917 76.5023 473.986 76.6921 478.83 83.7159C478.83 83.7159 482.345 89.6955 480.825 99.7566C479.305 109.818 479.495 108.204 477.5 111.811Z" fill="#FD9B88"/>
<path d="M473.699 81.7248C473.699 81.7248 475.409 93.0197 478.258 95.6774C481.108 98.335 484.527 93.3994 484.527 93.3994C484.527 93.3994 480.538 75.8401 473.699 81.7248Z" fill="#130E40"/>
<path d="M460.117 80.1138C460.117 80.1138 464.961 89.985 473.035 88.9409C481.109 87.8969 476.834 80.6833 476.834 80.6833C476.834 80.6833 463.251 72.7104 460.117 80.1138Z" fill="#130E40"/>
<path d="M462.301 79.732C462.301 79.732 456.697 90.7422 449.383 87.61C442.069 84.4778 454.512 74.6066 459.451 75.8405C464.581 77.0744 462.301 79.732 462.301 79.732Z" fill="#130E40"/>
<path d="M478.453 98.1459C478.453 98.1459 481.302 94.3493 485.197 96.6273C489.091 98.9053 485.672 112.953 477.693 110.485L478.453 98.1459Z" fill="#FD9B88"/>
<path d="M479.396 104.98C479.301 105.17 479.396 105.36 479.586 105.455H479.681C479.871 105.455 480.061 105.36 480.061 105.17C480.061 105.17 480.536 103.841 481.676 102.702C482.436 103.461 482.911 104.221 483.006 104.221C483.101 104.316 483.196 104.316 483.291 104.41C483.386 104.41 483.481 104.41 483.576 104.316C483.766 104.221 483.766 103.936 483.671 103.746C483.671 103.746 483.101 102.987 482.341 102.132C483.006 101.563 483.861 101.183 484.905 101.088C485.095 101.088 485.285 100.899 485.285 100.709C485.285 100.519 485.095 100.329 484.905 100.329C481.011 100.804 479.491 104.79 479.396 104.98Z" fill="#2F241C"/>
<path d="M496.114 147.025V223.147C496.114 226.184 493.644 228.652 490.605 228.652H430.288V228.367C430.288 224.571 431.522 220.964 433.802 217.927C437.887 212.422 443.491 201.791 439.121 188.883C438.362 186.794 437.792 184.706 437.317 182.808C434.277 170.279 436.462 159.744 449.855 137.723L465.148 132.978C465.148 132.978 484.24 135.161 496.114 147.025Z" fill="#F9AE3B"/>
<path d="M465.148 132.978L441.211 180.34L437.316 182.808L414.329 197.425C407.87 201.506 399.321 198.279 397.232 190.876L392.672 174.456C391.438 170.089 391.533 165.439 392.767 161.072L393.147 159.744L391.438 149.683L404.356 144.842L413.095 175.784L434.372 147.879C437.696 143.513 442.351 140.191 447.575 138.388L449.665 137.723L465.148 132.978Z" fill="#F9AE3B"/>
<path d="M437.221 182.999C437.126 182.999 437.126 182.904 437.031 182.904C434.086 170.565 434.086 162.592 442.445 150.443C442.445 150.348 442.635 150.348 442.635 150.443C442.73 150.538 442.73 150.633 442.635 150.633C434.371 162.687 434.276 170.565 437.221 182.809C437.411 182.904 437.411 182.999 437.221 182.999Z" fill="black"/>
<path d="M450.518 138.672L481.864 137.628L481.484 127.947C481.389 125.384 479.109 123.486 476.545 123.865L448.143 128.326C446.244 128.611 445.009 130.414 445.294 132.313L445.769 134.876C446.244 137.153 448.238 138.767 450.518 138.672Z" fill="#F9AE3B"/>
<path d="M505.893 208.53C505.608 213.561 501.333 217.452 496.299 217.452H456.405L453.84 205.113L463.054 203.405C463.054 200.937 464.858 198.849 467.233 198.374L483.856 194.862V155.662L465.143 132.978C465.143 132.978 484.236 135.161 496.109 147.025C500.764 151.676 504.373 157.94 505.133 166.103C506.938 183.852 506.558 199.323 505.893 208.53Z" fill="#F9AE3B"/>
<path d="M483.29 214.035C470.752 209.385 458.213 204.734 445.77 200.083C446.435 195.812 447.005 191.54 447.67 187.364C450.709 187.934 453.844 188.408 456.884 188.978C458.403 186.795 459.638 185.466 462.678 185.846C467.902 186.51 473.886 187.554 479.206 188.313C483.29 177.208 485.095 168.856 484.905 156.896C484.905 156.801 485 156.707 485.095 156.707C485.19 156.707 485.285 156.707 485.285 156.896C485.475 169.046 483.385 177.398 479.585 188.788C477.971 188.598 481.58 189.073 478.636 188.693C475.786 188.313 466.857 186.89 462.488 186.32C460.113 186.035 458.023 187.174 456.979 189.357C456.979 189.357 457.169 189.547 456.884 189.452C456.409 189.357 457.833 189.642 456.409 189.357C454.984 189.073 449.854 188.218 447.765 187.839C447.005 191.825 446.53 195.907 445.865 199.988C458.308 204.639 470.752 209.195 483.195 213.846C483.29 213.846 483.29 213.94 483.29 214.035C483.385 214.13 483.29 214.13 483.29 214.035Z" fill="black"/>
<path d="M478.35 136.964H452.798C452.703 136.964 452.608 136.868 452.608 136.773C452.608 136.678 452.703 136.583 452.798 136.583H478.35C478.445 136.583 478.54 136.678 478.54 136.773C478.54 136.868 478.445 136.964 478.35 136.964Z" fill="black"/>
<path d="M447.099 189.831L441.874 189.072C441.874 189.072 434.75 180.15 429.431 178.441C424.112 176.733 414.043 178.726 414.138 180.814C414.233 182.902 422.497 180.909 424.777 181.289C427.151 181.574 429.621 183.757 429.621 183.757C429.621 183.757 424.302 183.946 421.262 184.706C417.083 185.845 411.763 188.028 413.853 190.685C414.613 191.54 419.837 188.597 421.262 188.313C422.687 188.028 428.196 188.408 428.196 188.408C428.196 188.408 423.257 188.502 419.647 191.54C416.133 194.482 413.853 197.709 415.848 198.848C417.558 199.797 420.692 194.672 421.642 194.197C422.592 193.723 426.771 192.869 426.771 192.869C426.771 192.869 423.542 195.526 422.117 197.33C420.692 199.133 419.932 201.031 421.927 201.221C423.827 201.316 426.771 197.33 429.526 195.336C429.526 195.336 431.806 200.177 438.36 197.235L445.864 197.994L447.099 189.831Z" fill="#FD9B88"/>
<path d="M335.865 322.054C334.345 333.349 332.825 344.549 331.305 355.749C337.195 355.085 343.084 354.42 348.973 353.756C351.823 342.936 354.672 332.115 357.522 321.295C350.303 321.58 343.084 321.769 335.865 322.054Z" fill="#FD9B88"/>
<path d="M364.455 323.951C363.98 334.296 363.505 344.642 362.935 354.988C370.249 354.513 377.658 354.039 384.972 353.469L385.162 325.849C378.228 325.185 371.389 324.615 364.455 323.951Z" fill="#FD9B88"/>
<path d="M355.041 337.244C364.16 315.224 374.229 291.116 376.698 284.756C383.537 267.197 387.717 256.661 387.717 256.661C387.717 256.661 358.936 239.387 352.951 249.922C347.252 259.794 337.944 304.119 331.484 337.244H355.041Z" fill="#2E226A"/>
<path d="M386.855 337.243C386 313.135 384.385 286.559 381.061 275.833C375.552 257.799 398.159 228.091 376.407 232.457C358.834 235.969 348.005 248.592 348.005 261.121C348.005 277.067 354.654 309.243 361.304 337.243H386.855Z" fill="#462779"/>
<path d="M376.417 232.458L376.607 273.367C437.779 290.451 486.413 281.15 497.431 256.946C499.711 252.011 502.181 242.424 496.007 226.289C456.112 228.282 416.217 230.37 376.417 232.458Z" fill="#462779"/>
<path d="M508.824 359.931C509.584 361.829 511.769 362.778 513.763 362.019C515.663 361.26 516.613 359.077 515.853 357.083L487.072 285.802C486.312 283.904 484.127 282.954 482.133 283.714C480.233 284.473 479.283 286.656 480.043 288.649L508.824 359.931Z" fill="#95BCF5"/>
<path d="M430.268 359.931C429.509 361.829 427.324 362.778 425.329 362.019C423.429 361.26 422.479 359.077 423.239 357.083L452.021 285.802C452.78 283.904 454.965 282.954 456.96 283.714C458.86 284.473 459.809 286.656 459.05 288.649L430.268 359.931Z" fill="#95BCF5"/>
<path d="M493.531 283.429H444.518V293.775H493.531V283.429Z" fill="#95BCF5"/>
<path d="M499.611 320.542H441.099V328.325H499.611V320.542Z" fill="#95BCF5"/>
<path d="M480.521 248.88C491.159 232.84 488.025 205.789 490.4 191.362C491.919 182.345 512.532 181.111 518.611 192.311C524.69 203.511 524.69 231.701 518.611 253.056C512.532 274.412 501.513 286.562 493.439 286.562H444.426C428.088 286.562 424.478 262.073 441.576 261.599C458.769 261.219 469.882 264.826 480.521 248.88Z" fill="#95BCF5"/>
<path d="M449.085 243.467H388.578C383.734 243.467 379.174 245.366 375.85 248.972C372.525 252.579 370.816 257.135 371.1 261.976L375.28 336.294C375.47 336.294 375.66 336.294 375.755 336.294L371.67 261.976C371.385 257.23 373.095 252.769 376.325 249.352C379.554 245.935 383.924 244.037 388.673 244.037H449.18C449.275 244.037 449.465 243.942 449.465 243.752C449.465 243.562 449.275 243.467 449.085 243.467Z" fill="black"/>
<path d="M359.989 355.176L384.971 353.467L385.161 362.01H349.16L359.989 355.176Z" fill="#03233E"/>
<path d="M329.5 355.176L354.482 353.467L354.672 362.01H318.671L329.5 355.176Z" fill="#03233E"/>
<path d="M336.157 357.934C335.492 360.402 332.927 361.825 330.552 361.161C328.083 360.497 326.658 357.934 327.323 355.561L356.579 208.442C357.244 205.975 359.808 204.551 362.183 205.215C364.653 205.88 366.078 208.442 365.413 210.815L336.157 357.934Z" fill="#95BCF5"/>
<path d="M435.892 357.934C436.557 360.402 439.122 361.825 441.496 361.161C443.966 360.497 445.391 357.934 444.726 355.561L415.47 208.442C414.805 205.975 412.24 204.551 409.866 205.215C407.396 205.88 405.971 208.442 406.636 210.815L435.892 357.934Z" fill="#95BCF5"/>
<path d="M123.193 357.934C122.529 360.402 119.964 361.825 117.589 361.161C115.12 360.497 113.695 357.934 114.36 355.561L143.616 208.442C144.281 205.975 146.845 204.551 149.22 205.215C151.69 205.88 153.114 208.442 152.45 210.815L123.193 357.934Z" fill="#95BCF5"/>
<path d="M222.925 357.934C223.59 360.402 226.154 361.825 228.529 361.161C230.999 360.497 232.424 357.934 231.759 355.561L202.503 208.442C201.838 205.975 199.273 204.551 196.898 205.215C194.429 205.88 193.004 208.442 193.669 210.815L222.925 357.934Z" fill="#95BCF5"/>
<path d="M212.67 200.091H132.881V212.715H212.67V200.091Z" fill="#95BCF5"/>
<path d="M425.156 200.091H212.67V212.715H425.156V200.091Z" fill="#95BCF5"/>
<path d="M319.055 192.497H387.066L370.728 149.975H302.622L319.055 192.497Z" fill="#D6D6D6"/>
<path d="M318.485 192.497H384.311L368.448 149.975H302.622L318.485 192.497Z" fill="#EBEBEB"/>
<path d="M420.214 192.499H318.388V200.472H420.214V192.499Z" fill="#D6D6D6"/>
<path d="M308.423 201.229H293.985C285.626 201.229 278.787 194.49 278.787 186.042L278.977 174.462H323.811L323.621 186.042C323.526 194.395 316.782 201.229 308.423 201.229Z" fill="#462779"/>
<path d="M318.868 196.956V194.488C323.333 194.488 330.647 190.786 330.647 186.515C330.647 182.244 323.333 178.542 318.868 178.542V176.074C324.472 176.074 333.116 180.535 333.116 186.515C333.116 192.495 324.472 196.956 318.868 196.956Z" fill="#462779"/>
<path d="M177.343 350.906H5.7959V364.099H177.343V350.906Z" fill="#462779"/>
<path d="M42.1767 162.878H31.1582V364.098H42.1767V162.878Z" fill="#462779"/>
<path d="M158.44 162.878H147.421V364.098H158.44V162.878Z" fill="#462779"/>
<path d="M174.209 157.091H14.4402V166.582H174.209V157.091Z" fill="#462779"/>
<path d="M71.054 207.87H79.6028L36.0986 14.812L27.6448 15.0018L71.054 207.87Z" fill="#462779"/>
<path d="M134.881 207.87H143.43L99.9258 14.812L91.377 15.0018L134.881 207.87Z" fill="#462779"/>
<path d="M44.2667 221.824H171.265L127.286 26.5835H0.287598L44.2667 221.824Z" fill="#462779"/>
<path d="M48.7284 221.824H175.631L131.747 26.5835H4.74927L48.7284 221.824Z" fill="white"/>
<path d="M158.439 199.896H58.1325L57.9426 199.137L23.4622 46.1338L25.3619 45.6592L59.6523 197.903H158.439V199.896Z" fill="#4E2894"/>
<path d="M178.958 212.709H40.6562V223.055H178.958V212.709Z" fill="#462779"/>
<path d="M66.588 193.062L64.7832 192.493L78.7463 151.299L95.1791 142.757L104.108 119.693L112.752 117.794L123.01 82.2959L142.198 95.9637L141.058 97.5773L124.15 85.4281L114.367 119.408L105.533 121.401L96.6989 144.086L80.3611 152.628L66.588 193.062Z" fill="#95BCF5"/>
<path d="M59.3696 163.069L57.9448 161.74L78.0821 138.77L83.7814 125.103L84.8262 90.7432L103.159 54.8652L133.65 62.0788L133.175 63.9771L104.204 57.0483L86.726 91.2178L85.5861 125.672L79.6019 139.909L59.3696 163.069Z" fill="#95BCF5"/>
<path d="M63.7398 193.064L61.8401 192.495L68.2042 168.386L82.8323 164.115L96.1305 114.949L109.049 113.62L116.458 65.8778L130.801 45.0913L132.321 46.2303L118.358 66.6371L110.664 115.424L97.6503 116.752L84.4471 165.634L69.819 169.905L63.7398 193.064Z" fill="#F9AE3B"/>
<path d="M352.675 153.673C342.987 153.673 335.103 161.551 335.103 171.232C335.103 180.914 342.987 188.886 352.675 188.886C362.364 188.886 370.248 181.008 370.248 171.327C370.248 161.646 362.364 153.673 352.675 153.673ZM361.414 172.276H353.435V180.249C353.435 180.819 352.96 181.198 352.485 181.198C352.011 181.198 351.536 180.724 351.536 180.249V172.276H343.652C343.082 172.276 342.702 171.802 342.702 171.327C342.702 170.758 343.177 170.378 343.652 170.378H351.631V162.405C351.631 161.836 352.106 161.456 352.58 161.456C353.15 161.456 353.53 161.93 353.53 162.405V170.378H361.509C362.079 170.378 362.459 170.853 362.459 171.327C362.364 171.897 361.889 172.276 361.414 172.276Z" fill="white"/>
<ellipse cx="351.5" cy="172" rx="18.5" ry="20" fill="#EBEBEB"/>
</g>
<defs>
<clipPath id="clip0_1773_24438">
<rect width="523" height="364" fill="white" transform="translate(0.273438)"/>
</clipPath>
</defs>
</svg>
