<svg width="645" height="522" viewBox="0 0 645 522" fill="none" xmlns="http://www.w3.org/2000/svg">
<path d="M341.296 266.264L312.484 313.613C310.844 312.458 308.998 311.619 307.05 311.094L336.272 263.114C337.605 264.689 339.348 265.739 341.296 266.264Z" fill="#462779"/>
<path d="M333.811 253.353C334.323 251.358 335.349 249.468 336.784 248.103C338.63 246.213 341.193 245.059 344.064 245.059C349.908 245.059 354.625 249.888 354.625 255.872C354.625 261.857 349.908 266.686 344.064 266.686C343.141 266.686 342.218 266.581 341.398 266.266C339.45 265.741 337.707 264.586 336.374 263.116C334.631 261.227 333.606 258.602 333.606 255.872C333.503 255.032 333.606 254.193 333.811 253.353Z" fill="#80ACDF"/>
<path d="M303.671 229.623L336.686 248.101C335.25 249.466 334.225 251.355 333.713 253.35L300.287 234.557L301.518 233.298C302.543 232.248 303.363 230.988 303.671 229.623Z" fill="#462779"/>
<path d="M295.675 201.173C299.059 197.709 304.596 197.709 307.979 201.173C310.337 203.588 311.055 207.052 310.132 210.097C309.722 211.462 309.005 212.722 307.979 213.772L306.749 215.032L302.34 219.546C301.007 216.921 299.264 214.507 297.008 212.302C294.855 210.097 292.497 208.312 289.934 206.947L295.675 201.173Z" fill="#95BCF5"/>
<path d="M338.733 255.871C338.733 258.811 341.092 261.331 343.963 261.331C346.833 261.331 349.192 258.916 349.192 255.871C349.192 252.827 346.833 250.412 343.963 250.412C341.092 250.412 338.733 252.932 338.733 255.871Z" fill="#95BCF5"/>
<path d="M290.033 206.946C292.597 208.311 294.955 210.095 297.108 212.3C299.261 214.505 301.004 216.92 302.44 219.544C306.643 227.628 307.156 237.182 303.875 245.686L256.3 210.62C265.836 202.221 279.37 201.066 290.033 206.946Z" fill="#95BCF5"/>
<path d="M303.773 245.689C302.44 249.049 300.595 252.198 298.031 255.033L284.805 241.489L268.502 224.796L255.276 211.253C255.583 210.938 255.891 210.728 256.198 210.413L303.773 245.689Z" fill="#80ACDF"/>
<path d="M357.191 311.724C357.191 308.994 355.037 306.79 352.372 306.79H308.488C305.822 306.79 303.669 308.994 303.669 311.724C303.669 314.454 305.822 316.659 308.488 316.659H352.372C355.037 316.659 357.191 314.454 357.191 311.724Z" fill="#95BCF5"/>
<path d="M372.674 510.467C371.854 513.406 369.085 515.296 366.419 514.561C363.754 513.826 362.318 510.782 363.138 507.842L399.23 328.418C400.05 325.478 402.818 323.589 405.484 324.324C408.15 325.058 409.585 328.103 408.765 331.043L372.674 510.467Z" fill="#95BCF5"/>
<path d="M481.157 507.525C481.773 510.464 484.541 512.144 487.207 511.199C489.873 510.254 491.513 507.21 490.898 504.27L463.317 326.526C462.702 323.586 459.933 321.907 457.268 322.746C454.602 323.691 452.961 326.736 453.576 329.676L481.157 507.525Z" fill="#95BCF5"/>
<path d="M141.058 516.766C140.237 519.706 137.469 521.596 134.803 520.861C132.137 520.126 130.702 517.081 131.522 514.142L167.613 334.718C168.434 331.778 171.202 329.888 173.868 330.623C176.534 331.358 177.969 334.403 177.149 337.343L141.058 516.766Z" fill="#95BCF5"/>
<path d="M249.534 513.825C250.149 516.764 252.918 518.444 255.583 517.499C258.249 516.554 259.89 513.51 259.274 510.57L231.693 332.826C231.078 329.886 228.31 328.206 225.644 329.046C222.978 329.991 221.338 333.036 221.953 335.975L249.534 513.825Z" fill="#95BCF5"/>
<path d="M244.41 317.184H158.283V331.147H244.41V317.184Z" fill="#95BCF5"/>
<path d="M473.776 317.184H244.412V331.147H473.776V317.184Z" fill="#95BCF5"/>
<path d="M264.303 309.415H188.634L204.937 246.212H280.605L264.303 309.415Z" fill="white"/>
<path d="M275.273 250.516L261.124 305.215H193.966L208.115 250.516H275.273ZM280.605 246.212H204.937L188.634 309.31H264.303L280.605 246.212Z" fill="#EBEBEB"/>
<path d="M264.302 309.311H215.292V316.661H263.482C263.994 316.661 264.302 316.241 264.302 315.821C264.302 315.716 264.302 309.206 264.302 309.311Z" fill="#D3D3D3"/>
<path d="M215.295 309.31H140.959C140.036 309.31 139.421 310.045 139.421 310.885V314.979C139.421 315.924 140.139 316.554 140.959 316.554H215.295V309.31Z" fill="#EBEBEB"/>
<path d="M132.451 200.017C132.348 198.862 132.041 197.812 131.733 196.762C130.605 193.507 128.555 192.458 126.504 192.038C126.504 190.883 126.094 189.623 125.479 188.573C124.556 187.103 123.223 185.843 121.788 184.898C115.328 180.384 106.921 179.229 99.1281 180.174C97.4876 180.384 95.9496 180.699 94.4117 181.224C92.7712 181.854 91.2332 182.799 89.6952 183.744C87.6446 185.003 85.5939 186.263 83.6458 187.523C83.2357 187.733 82.8256 188.048 82.3129 188.048C81.3901 188.048 80.0572 186.788 79.1344 186.473C78.4167 186.263 77.699 186.158 76.9812 186.053C76.5711 186.053 75.3407 186.368 75.0331 186.158C76.7762 187.208 78.1091 188.888 78.6217 190.778C75.3407 190.778 72.5724 194.767 73.8027 197.917C74.0078 196.552 75.7509 195.712 76.8787 196.342C74.4179 199.807 74.7255 204.636 76.4686 208.626C77.8015 211.67 79.7496 214.4 81.8002 217.025C82.4154 217.76 83.0306 218.495 83.5433 219.334C83.7483 219.649 83.9534 219.964 84.1585 220.279C83.8509 227.104 83.0306 232.668 83.0306 232.668C94.7193 234.873 96.3598 226.579 96.5648 223.009C105.28 217.235 115.841 211.04 121.172 211.565C129.478 212.405 132.861 205.896 132.451 200.017Z" fill="#F9AE3B"/>
<path d="M154.186 383.955L108.559 388.574L100.869 401.278L94.4094 411.881L73.4929 446.317L55.8574 475.399L61.5992 487.472L76.6714 493.562C76.6714 493.562 86.9246 481.488 99.536 466.265C109.174 454.716 120.247 441.278 129.168 429.939C132.141 426.265 134.807 422.8 137.268 419.755C146.496 407.682 153.365 395.923 154.186 383.955Z" fill="#2E226A"/>
<path d="M51.2424 482.854L77.4906 505.321L76.6703 493.352L55.8564 475.189L51.2424 482.854Z" fill="#03233E"/>
<path d="M177.46 270.778C177.46 270.778 180.741 263.954 177.768 263.219C175.717 262.694 170.488 273.718 170.488 273.718L129.168 304.374C129.168 304.374 125.477 297.025 120.35 287.576L104.868 295.555L93.897 308.993C97.7932 317.183 103.74 328.836 109.687 336.71C119.94 350.149 132.244 343.219 140.344 335.765C155.826 321.592 187.611 276.552 187.611 276.552L177.46 270.778Z" fill="#FFB5AE"/>
<path d="M93.9989 308.995C107.328 301.331 115.941 292.827 120.452 287.578C114.403 276.449 106.405 262.485 100.048 253.876L89.59 299.021C89.4875 299.021 91.2305 303.221 93.9989 308.995Z" fill="#4D5DDB"/>
<path d="M93.1766 261.12L101.687 238.338C101.687 238.338 110.504 241.383 115.734 238.338C120.963 235.293 120.245 225.32 120.245 225.32C120.245 225.32 123.218 225.005 123.321 223.85C123.423 222.695 121.27 222.17 121.065 219.125C120.86 216.081 121.168 207.157 121.168 207.157C121.168 207.157 111.735 212.301 107.121 209.991C107.121 209.991 107.531 217.76 105.378 217.236C103.225 216.711 104.045 208.417 97.3804 208.102C90.7158 207.787 88.05 216.921 94.8171 222.275C94.8171 222.275 94.3044 231.304 82.9234 232.774L72.7727 250.832C72.7727 250.832 93.1766 261.225 93.1766 261.12Z" fill="#FFB5AE"/>
<path d="M99.639 243.903L101.69 238.339C96.6656 236.659 93.5896 234.244 93.5896 234.244C93.5896 234.244 95.2301 240.649 99.639 243.903Z" fill="#FD9894"/>
<path d="M116.657 354.875C111.53 354.245 106.404 353.93 101.072 353.72L46.1149 358.76L17.5085 373.038C17.5085 373.038 15.1502 398.025 47.3453 398.025H120.656L119.323 474.561L118.707 510.467L131.832 516.136L145.673 512.357C145.673 512.357 148.339 496.608 151.518 476.976C154.799 457.028 158.592 432.986 160.643 417.028C164.949 385.531 160.335 360.124 116.657 354.875Z" fill="#462779"/>
<path d="M145.779 512.354L118.813 510.464L118.71 519.914H157.57L145.779 512.354Z" fill="#03233E"/>
<path d="M17.6136 373.037C17.6136 373.037 60.677 368.943 101.075 353.719C101.075 353.719 102.92 293.877 99.9467 253.771C99.9467 253.771 89.8986 242.643 78.3125 239.808C66.8289 237.078 48.2706 248.522 33.301 288.207C15.8706 334.612 17.6136 373.037 17.6136 373.037Z" fill="#4D5DDB"/>
<path d="M156.545 321.592C156.442 320.438 156.237 319.283 156.237 318.338C156.135 313.508 156.135 308.679 156.135 303.849L87.0282 310.674L85.0801 293.456C85.0801 293.456 67.8548 289.991 67.4447 290.096C66.932 290.201 47.4509 297.235 47.4509 297.235C47.656 302.485 47.9636 307.734 48.3737 312.668C50.3218 337.341 63.3434 347.524 87.6434 343.325C111.944 339.125 155.93 321.592 155.93 321.592C155.93 321.592 156.135 321.592 156.545 321.592Z" fill="#FD9894"/>
<path d="M85.0757 293.457L82.3073 268.47L58.2123 247.262C48.2667 255.976 46.7288 276.659 47.549 297.236C55.5465 298.916 70.9263 300.701 85.0757 293.457Z" fill="#4D5DDB"/>
<path d="M122.811 511.831L89.3858 413.982H93.5896V397.919H29.1996V413.982H34.8388L1.31091 511.831C0.285596 514.77 1.51598 518.235 4.07928 519.39C6.64257 520.545 9.51347 519.18 10.5388 516.135L27.2515 467.211H96.8707L113.583 516.135C114.609 519.075 117.48 520.545 120.043 519.39C122.606 518.235 123.837 514.875 122.811 511.831ZM31.3528 455.242L45.5022 413.982H78.62L92.7694 455.242H31.3528Z" fill="#95BCF5"/>
<path d="M100.356 216.816C100.459 217.026 100.356 217.236 100.151 217.236H100.048C99.8434 217.236 99.7409 217.131 99.6383 217.026C99.6383 217.026 99.1257 215.766 98.1004 214.821C97.4852 215.556 96.9725 216.291 96.9725 216.291C96.87 216.396 96.87 216.396 96.7674 216.396C96.6649 216.396 96.5624 216.396 96.4598 216.291C96.2548 216.186 96.2548 215.976 96.3573 215.766C96.3573 215.766 96.87 215.031 97.4852 214.296C96.87 213.771 96.0497 213.456 95.1269 213.351C94.9219 213.351 94.8193 213.141 94.8193 212.931C94.8193 212.721 95.0244 212.616 95.2295 212.616C98.8181 212.931 100.254 216.606 100.356 216.816Z" fill="#2F241C"/>
<path d="M141.778 312.983L147.52 312.143C147.52 312.143 155.21 302.274 160.951 300.384C166.693 298.495 177.561 300.699 177.459 303.009C177.254 305.319 168.436 303.114 165.975 303.534C163.412 303.849 160.746 306.264 160.746 306.264C160.746 306.264 166.488 306.474 169.769 307.314C174.28 308.573 180.022 310.988 177.767 313.928C176.946 314.873 171.307 311.618 169.769 311.303C168.231 310.988 162.284 311.513 162.284 311.513C162.284 311.513 167.616 311.723 171.512 314.978C175.306 318.232 177.767 321.802 175.613 323.062C173.768 324.112 170.384 318.442 169.359 317.917C168.334 317.392 163.822 316.448 163.822 316.448C163.822 316.448 167.308 319.387 168.846 321.382C170.384 323.377 171.204 325.476 169.051 325.686C167.001 325.791 163.822 321.382 160.849 319.177C160.849 319.177 158.388 324.532 151.313 321.277L143.213 322.117L141.778 312.983Z" fill="#FD9894"/>
<path d="M169.054 285.476L172.95 281.172C172.95 281.172 172.848 268.573 176.026 263.324C179.205 258.075 189.048 252.72 190.381 254.715C191.714 256.71 183.511 260.699 181.768 262.589C180.025 264.479 179.41 268.048 179.41 268.048C179.41 268.048 184.024 264.479 187.1 263.009C191.304 261.119 197.353 259.23 197.353 262.904C197.353 264.164 190.893 265.319 189.561 266.054C188.228 266.789 183.819 271.093 183.819 271.093C183.819 271.093 188.023 267.734 193.047 267.734C198.071 267.838 202.069 268.993 201.147 271.303C200.429 273.298 194.277 271.093 193.149 271.408C192.021 271.723 187.92 273.928 187.92 273.928C187.92 273.928 192.431 274.033 194.79 274.453C197.148 274.873 199.096 276.133 197.661 277.602C196.225 279.072 190.996 277.707 187.305 277.812C187.305 277.812 188.74 283.587 181.256 285.581L175.514 291.461L169.054 285.476Z" fill="#FFB5AE"/>
<path d="M85.0801 263.219V293.35C85.0801 293.35 68.3674 302.169 47.4509 297.13" stroke="#15191C" stroke-width="0.225259" stroke-miterlimit="10"/>
<path d="M101.176 353.72C101.176 353.72 44.5784 372.618 17.7151 373.038" stroke="#03233E" stroke-width="0.423487" stroke-linecap="round" stroke-linejoin="round"/>
<path d="M235.283 258.182C224.825 258.182 216.315 266.896 216.315 277.604C216.315 288.313 224.825 297.027 235.283 297.027C245.741 297.027 254.252 288.313 254.252 277.604C254.252 266.896 245.741 258.182 235.283 258.182ZM244.716 278.759H236.103V287.578C236.103 288.208 235.591 288.628 235.078 288.628C234.463 288.628 234.053 288.103 234.053 287.578V278.759H225.543C224.927 278.759 224.517 278.234 224.517 277.709C224.517 277.184 225.03 276.659 225.543 276.659H234.155V267.841C234.155 267.211 234.668 266.791 235.181 266.791C235.796 266.791 236.206 267.316 236.206 267.841V276.554H244.819C245.434 276.554 245.844 277.079 245.844 277.604C245.741 278.234 245.229 278.759 244.716 278.759Z" fill="#95BCF5"/>
<circle cx="235.5" cy="277.5" r="19.5" fill="white"/>
<circle cx="233" cy="279" r="25" fill="#9CC0F6"/>
<g filter="url(#filter0_d_1773_25840)">
<path d="M245.188 276.188H235.812V266.812C235.812 266.067 235.516 265.351 234.989 264.824C234.461 264.296 233.746 264 233 264C232.254 264 231.539 264.296 231.011 264.824C230.484 265.351 230.188 266.067 230.188 266.812V276.188H220.812C220.067 276.188 219.351 276.484 218.824 277.011C218.296 277.539 218 278.254 218 279C218 279.746 218.296 280.461 218.824 280.989C219.351 281.516 220.067 281.812 220.812 281.812H230.188V291.188C230.188 291.933 230.484 292.649 231.011 293.176C231.539 293.704 232.254 294 233 294C233.746 294 234.461 293.704 234.989 293.176C235.516 292.649 235.812 291.933 235.812 291.188V281.812H245.188C245.933 281.812 246.649 281.516 247.176 280.989C247.704 280.461 248 279.746 248 279C248 278.254 247.704 277.539 247.176 277.011C246.649 276.484 245.933 276.188 245.188 276.188Z" fill="white"/>
</g>
<defs>
<filter id="filter0_d_1773_25840" x="218" y="264" width="36" height="36" filterUnits="userSpaceOnUse" color-interpolation-filters="sRGB">
<feFlood flood-opacity="0" result="BackgroundImageFix"/>
<feColorMatrix in="SourceAlpha" type="matrix" values="0 0 0 0 0 0 0 0 0 0 0 0 0 0 0 0 0 0 127 0" result="hardAlpha"/>
<feOffset dx="4" dy="4"/>
<feGaussianBlur stdDeviation="1"/>
<feComposite in2="hardAlpha" operator="out"/>
<feColorMatrix type="matrix" values="0 0 0 0 0 0 0 0 0 0 0 0 0 0 0 0 0 0 0.25 0"/>
<feBlend mode="normal" in2="BackgroundImageFix" result="effect1_dropShadow_1773_25840"/>
<feBlend mode="normal" in="SourceGraphic" in2="effect1_dropShadow_1773_25840" result="shape"/>
</filter>
</defs>
</svg>
