<svg width="751" height="466" viewBox="0 0 751 466" fill="none" xmlns="http://www.w3.org/2000/svg">
<path d="M309.382 447.2H703.976C688.973 458.933 670.027 465.954 649.639 465.954H88.7642C39.9089 465.954 -0.00244141 426.042 -0.00244141 377.187V88.7676C-0.00244141 39.9123 39.9089 0.000976562 88.7642 0.000976562H649.639C672.431 0.000976562 693.301 8.75262 708.977 22.9861H309.382C267.644 22.9861 233.599 57.1271 233.599 98.7695V371.417C233.503 413.155 267.644 447.2 309.382 447.2Z" fill="#C2D9EF"/>
<path d="M319.288 447.2H709.65C694.743 458.933 676.086 465.954 655.89 465.954H101.074C52.7957 465.954 13.269 426.042 13.269 377.187V88.7676C13.269 39.9123 52.7957 0.000976562 101.074 0.000976562H655.89C678.394 0.000976562 699.071 8.75262 714.651 22.9861H319.288C278.03 22.9861 244.274 57.1271 244.274 98.7695V371.417C244.37 413.155 278.03 447.2 319.288 447.2Z" fill="#9ABEDB"/>
<path d="M288.609 416.33C284.185 432.294 251.583 441.719 215.807 447.201H82.6087C50.4873 432.006 50.5835 413.829 47.9868 363.82C42.6974 260.435 98.9579 210.426 124.059 218.697C125.117 219.081 126.175 219.37 127.232 219.851C134.542 222.64 142.716 227.737 150.602 239.662C150.602 239.662 175.511 279.862 196.092 303.809C202.727 311.502 208.882 317.561 213.595 320.062C213.691 320.062 213.691 320.158 213.787 320.158C214.076 320.254 214.268 320.35 214.557 320.543C225.424 325.351 240.715 335.449 254.756 348.144C276.299 367.763 294.86 393.826 288.609 416.33Z" fill="#F99746"/>
<path d="M254.566 348.047C235.909 353.625 139.737 380.457 117.136 351.99C100.787 331.409 110.981 278.611 120.022 244.374C123.772 230.333 142.237 227.159 150.316 239.18C150.412 239.277 150.508 239.373 150.508 239.565C150.508 239.565 175.417 279.765 195.997 303.712C201.96 311.309 207.826 317.176 213.501 319.965C213.597 319.965 213.597 320.061 213.693 320.061C213.885 320.157 214.174 320.253 214.462 320.446C225.234 325.254 240.621 335.352 254.566 348.047Z" fill="#FA6400"/>
<path d="M202.339 252.548C202.339 252.548 207.821 260.626 210.898 277.649C213.591 292.555 215.995 298.037 219.939 301.115C223.882 304.192 245.809 313.136 245.809 313.136L244.174 316.983C244.174 316.983 211.956 312.559 208.398 307.27C204.84 301.98 190.991 270.147 192.049 262.838C193.107 255.529 202.339 252.548 202.339 252.548Z" fill="#7F5044"/>
<path d="M281.108 430.082C280.819 433.256 285.147 434.025 290.244 434.218C295.341 434.506 293.802 435.468 300.727 436.718C307.651 437.968 310.44 436.045 310.921 435.18C311.402 434.314 308.132 433.064 304.67 431.621C304.189 431.429 303.804 431.236 303.323 431.044C299.476 429.313 297.264 425.851 294.283 422.677C291.398 419.6 288.705 409.886 288.705 409.886L279.28 407.867C279.28 407.867 281.973 416.618 282.839 420.369C283.416 422.581 282.55 425.081 281.877 426.909C281.588 427.87 281.204 428.928 281.108 430.082Z" fill="#7F5044"/>
<path d="M290.242 434.218C295.339 434.506 293.8 435.468 300.724 436.718C307.649 437.968 310.438 436.045 310.919 435.179C311.399 434.314 308.13 433.064 304.667 431.621L304.571 431.717C304.571 431.717 299.666 433.352 294.088 431.813C289.472 430.563 285.048 427.87 281.875 426.909C281.49 427.967 281.105 428.928 281.009 430.082C280.817 433.16 285.144 433.929 290.242 434.218Z" fill="#C65447"/>
<path d="M187.242 318.33C187.242 318.33 249.85 313.617 261.679 321.022C273.509 328.428 292.358 415.175 292.358 415.175C292.358 415.175 291.204 416.136 288.607 416.425C286.203 416.713 280.818 415.271 280.818 415.271C280.818 415.271 253.601 376.514 251.774 366.704C249.946 356.895 250.331 348.239 246.003 347.951C241.676 347.662 187.339 354.586 179.068 340.064C170.797 325.542 177.625 311.213 177.625 311.213L187.242 318.33Z" fill="#2E226A"/>
<path d="M257.158 440.083C256.869 443.257 261.197 444.026 266.294 444.219C271.391 444.507 269.853 445.469 276.777 446.719C283.701 447.969 286.49 446.046 286.971 445.18C287.452 444.315 284.182 443.065 280.72 441.622C280.239 441.43 279.854 441.237 279.374 441.045C275.527 439.314 273.315 435.852 270.333 432.678C267.448 429.601 264.755 419.887 264.755 419.887L255.331 417.868C255.331 417.868 258.023 426.619 258.889 430.37C259.466 432.582 258.6 435.082 257.927 436.91C257.639 437.968 257.254 439.025 257.158 440.083Z" fill="#A05E47"/>
<path d="M266.292 444.219C271.389 444.507 269.85 445.469 276.775 446.719C283.699 447.969 286.488 446.046 286.969 445.18C287.45 444.315 284.18 443.065 280.718 441.622L280.622 441.718C280.622 441.718 275.717 443.353 270.139 441.814C265.523 440.564 261.099 437.871 257.925 436.91C257.54 437.968 257.156 438.929 257.059 440.083C256.867 443.257 261.195 444.026 266.292 444.219Z" fill="#C65447"/>
<path d="M175.026 322.178C175.026 322.178 230.613 324.775 242.154 332.757C253.694 340.643 269.178 427.967 269.178 427.967C269.178 427.967 268.024 428.833 265.331 429.025C262.927 429.218 257.637 427.583 257.637 427.583C257.637 427.583 231.959 387.767 230.421 377.958C228.882 368.148 229.651 359.397 225.324 359.012C220.996 358.627 166.466 363.34 158.773 348.529C151.079 333.719 175.026 322.178 175.026 322.178Z" fill="#462779"/>
<path d="M194.84 199.75C192.339 198.115 189.262 197.73 187.146 197.73C187.723 197.153 188.877 197.057 188.877 197.057C187.531 196.769 184.453 197.923 184.453 197.923C166.373 189.556 161.66 216.676 161.564 223.024C161.468 229.371 161.083 236.68 151.466 241.777C132.52 251.779 146.561 272.36 146.561 272.36C146.658 272.456 154.063 287.17 154.063 287.17C153.967 281.977 179.452 256.491 192.339 249.278C195.609 245.047 197.244 237.353 197.34 236.68C196.378 242.835 195.128 246.201 194.07 248.124C205.13 239.18 201.379 204.078 194.84 199.75Z" fill="#15191C"/>
<path d="M192.049 245.43C191.761 245.334 191.376 245.142 190.992 245.045C190.992 244.18 191.088 243.314 191.088 242.449C191.376 238.409 191.953 234.082 191.953 234.082L178.393 230.427L177.624 230.235C177.239 236.198 176.085 240.237 174.931 243.026C173.488 243.122 172.623 243.122 172.623 243.122C172.43 243.891 178.393 256.297 186.279 256.586C188.876 256.778 195.992 247.161 192.049 245.43Z" fill="#7F5044"/>
<path d="M191.955 234.083C191.955 234.083 191.378 238.41 191.089 242.45C183.395 241.68 179.837 234.467 178.395 230.428L191.955 234.083Z" fill="#8E4F3D"/>
<path d="M177.047 228.889C177.047 228.889 173.488 222.253 172.815 216.771C172.43 212.828 175.316 198.595 189.645 201.672C189.645 201.672 193.781 202.346 197.531 205.327C200.513 207.635 204.744 212.54 198.878 224.754L197.243 228.889H177.047Z" fill="#15191C"/>
<path d="M194.26 238.124C194.26 238.124 176.083 237.258 176.853 225.91C177.622 214.562 175.795 206.868 187.336 206.964C198.876 207.06 200.896 211.581 201.665 215.331C202.338 219.178 198.972 238.028 194.26 238.124Z" fill="#A05E47"/>
<path d="M195.608 207.252C195.608 207.252 189.741 220.235 181.951 221.678C174.161 223.12 170.988 220.908 170.988 220.908C170.988 220.908 177.143 216.677 178.874 208.598C178.97 208.502 192.338 200.616 195.608 207.252Z" fill="#15191C"/>
<path d="M194.361 208.213C194.361 208.213 197.919 211.387 198.592 214.368C199.266 217.349 199.362 223.216 201.093 223.216C201.093 223.216 205.421 214.464 201.574 209.079C197.438 203.308 194.361 208.213 194.361 208.213Z" fill="#15191C"/>
<path d="M212.441 319.195C210.998 320.926 206.382 321.503 201.477 322.273C197.63 322.946 193.591 323.715 190.706 325.446C184.166 329.293 162.72 342.276 156.469 341.699C154.065 341.507 154.449 336.794 155.988 330.639C158.296 320.926 163.201 307.366 163.201 301.499C163.201 298.326 164.259 290.728 165.701 282.073C165.797 281.399 165.894 280.63 166.086 279.957C168.875 263.127 172.818 243.219 172.818 243.219C172.818 243.219 177.146 252.74 185.705 252.74C194.264 252.74 192.245 245.527 192.245 245.527C192.245 245.527 200.035 246.489 201.766 248.413C203.497 250.336 208.209 258.895 209.171 261.203C209.171 261.203 209.363 264.185 202.054 265.531C202.054 265.531 203.882 273.513 204.074 278.899C204.266 282.842 201.381 295.248 200.516 302.942C200.227 305.635 200.227 307.751 200.612 308.808C201.189 310.059 203.016 311.309 205.132 312.463C209.075 314.867 214.172 317.175 212.441 319.195Z" fill="#462779"/>
<path d="M204.939 312.462C209.652 320.444 192.245 322.849 189.36 324.58C182.82 328.427 162.816 342.372 156.469 341.795C154.065 341.602 154.449 336.89 155.988 330.735C158.296 321.021 163.201 307.461 163.201 301.595C163.201 298.421 164.259 290.823 165.701 282.168L173.299 274.955C173.299 274.955 181.377 295.921 189.071 299.287C193.11 301.114 197.342 302.268 200.419 303.037C200.131 305.73 200.131 307.846 200.516 308.904C200.996 309.962 202.824 311.212 204.939 312.462Z" fill="#2E226A"/>
<path d="M170.316 249.471C170.316 249.471 163.873 245.528 157.622 253.029C151.37 260.434 162.045 313.617 171.278 316.406C181.568 319.484 211.285 315.925 211.285 315.925L210.708 311.309C210.708 311.309 179.068 305.25 177.818 303.519C176.471 301.788 173.586 250.336 170.316 249.471Z" fill="#A05E47"/>
<path d="M172.624 243.219C172.624 243.219 159.352 244.373 155.505 248.797C151.658 253.125 150.504 264.954 150.504 264.954C150.504 264.954 162.141 274.379 176.278 270.724L172.624 243.219Z" fill="#462779"/>
<path d="M231.87 318.33H214.367V320.349H231.87V318.33Z" fill="#9E332E"/>
<path d="M228.212 320.155C228.405 319.482 244.369 294.478 244.369 294.478H279.857L262.065 319.482L228.212 320.155Z" fill="#9E332E"/>
<path d="M229.655 320.444C229.848 319.771 245.812 294.478 245.812 294.478H279.761L262.835 320.444H229.655Z" fill="#B5453C"/>
<path d="M259.567 307.557C259.183 308.518 258.125 309.384 257.067 309.384C256.009 309.384 255.528 308.518 255.913 307.557C256.298 306.595 257.355 305.729 258.413 305.729C259.471 305.729 259.952 306.499 259.567 307.557Z" fill="#9E332E"/>
<path d="M208.111 310.924C208.111 310.924 218.401 308.904 219.555 309.481C220.709 309.962 227.153 315.828 226.48 316.983C225.806 318.137 223.21 319.002 220.132 317.944C217.151 316.983 210.707 316.502 209.457 314.963C208.496 313.424 208.111 310.924 208.111 310.924Z" fill="#A05E47"/>
<path d="M427.193 355.454H308.324C304.574 355.454 301.496 352.376 301.496 348.626C301.496 344.875 304.574 341.797 308.324 341.797H427.193C430.943 341.797 434.021 344.875 434.021 348.626C434.021 352.376 430.943 355.454 427.193 355.454Z" fill="#E0B594"/>
<path d="M348.235 355.36L344.484 370.074L334.097 410.659L324.769 446.915C324.672 447.493 323.903 447.877 323.038 447.877C322.268 447.877 321.691 447.396 321.883 446.915L329.866 405.85L338.425 361.803L339.771 355.167L348.235 355.36Z" fill="#C69D7F"/>
<path d="M344.483 370.074C344.964 363.726 338.521 361.899 338.521 361.899L339.867 355.263L348.33 355.456L344.483 370.074Z" fill="#A0795F"/>
<path d="M391.998 355.36L395.748 370.075L406.135 410.659L415.463 446.916C415.56 447.493 416.329 447.878 417.195 447.878C417.964 447.878 418.541 447.397 418.349 446.916L410.366 405.754L401.807 361.708L400.461 355.072L391.998 355.36Z" fill="#C69D7F"/>
<path d="M395.745 370.074C395.264 363.726 401.707 361.899 401.707 361.899L400.361 355.263L391.898 355.456L395.745 370.074Z" fill="#A0795F"/>
<path d="M408.438 447.872C408.438 447.872 381.51 424.887 404.88 381.321C428.25 337.755 509.803 325.253 527.018 292.458L521.921 456.335L408.438 447.872Z" fill="#F99746"/>
<path d="M750.043 88.7676V377.187C750.043 426.042 710.132 465.954 661.277 465.954H100.402C80.0138 465.954 61.068 458.933 46.0652 447.2H440.658C482.397 447.2 516.442 413.059 516.442 371.417V98.7695C516.442 57.0309 482.301 22.9861 440.658 22.9861C440.658 22.9861 118.002 21.7358 57.1249 22.9861C32.3126 23.4669 20.6758 53.4725 20.6758 53.4725C25.1959 15.5808 77.7057 0.000976562 100.402 0.000976562H661.277C710.132 0.000976562 750.043 39.9123 750.043 88.7676Z" fill="#C2D9EF"/>
<path d="M411.904 320.927L411.711 326.121L411.23 336.796L411.038 341.797H397.382L397.093 336.796L396.42 326.121L396.131 320.927H411.904Z" fill="#C45446"/>
<path d="M412.192 317.465H396.035L395.362 320.927H412.577L412.192 317.465Z" fill="#DDE3F2"/>
<path d="M411.714 326.12L411.233 336.795H397.096L396.422 326.12H411.714Z" fill="#E37970"/>
<path d="M343.043 322.465L342.947 324.581L342.85 326.12L342.37 336.026V336.891L342.177 341.796H328.617L328.328 336.891V336.026L327.751 326.12L327.655 324.581L327.463 321.792V321.696C327.463 321.696 330.637 321.119 332.56 322.369C334.483 323.619 336.503 321.215 338.234 321.888C339.965 322.561 340.061 323.427 341.504 322.85C341.889 322.658 342.466 322.465 343.043 322.465Z" fill="#E37970"/>
<path opacity="0.2" d="M343.135 320.926L343.039 322.465L342.943 324.58V326.119L342.462 335.929V336.794L342.27 341.795H328.614L328.325 336.794L328.229 335.929L327.652 326.119L327.556 324.58L327.363 321.695V320.926H343.135Z" fill="#E37970"/>
<path opacity="0.2" d="M343.235 320.927C343.235 320.831 343.235 320.735 343.235 320.735C343.235 316.407 339.677 312.849 335.349 312.849C331.021 312.849 327.463 316.407 327.463 320.735C327.463 320.831 327.463 320.927 327.463 320.927H343.235Z" fill="#E37970"/>
<path d="M333.905 340.45L333.231 340.354C333.231 339.873 335.54 310.637 335.828 308.617C336.213 306.501 338.329 305.828 338.329 305.828L349.388 303.905L349.484 304.578L338.425 306.501C338.232 306.598 336.694 307.078 336.405 308.81C336.213 310.733 333.905 340.354 333.905 340.45Z" fill="#C45446"/>
<path d="M342.942 324.582V326.12L342.461 335.93H328.228L327.651 326.12L327.555 324.582H342.942Z" fill="#C45446"/>
<path d="M750.043 353.914V377.284C750.043 426.139 710.131 466.05 661.276 466.05H100.402C80.0134 466.05 62.3177 459.03 47.2188 447.297H440.658C467.105 447.297 490.571 433.544 504.131 412.771C598.957 418.157 703.592 375.553 750.043 353.914Z" fill="#B2CEE7"/>
<path d="M646.277 402.479C646.277 402.479 636.082 390.649 645.603 383.052C645.603 383.052 652.528 378.82 658.298 379.205C658.298 379.205 650.22 392.669 652.816 394.016C655.413 395.362 660.702 378.339 660.702 378.339C660.702 378.339 676.571 376.801 681.668 379.301C681.668 379.301 668.108 390.361 670.993 391.034C673.878 391.707 688.496 380.84 688.496 380.84C688.496 380.84 703.21 383.34 702.441 392.381C701.672 401.421 696.574 404.114 694.363 403.921C692.151 403.729 679.071 398.728 678.783 400.555C678.494 402.382 686.38 408.345 691.862 408.634C691.862 408.634 681.476 420.078 674.551 416.808C667.627 413.538 667.05 408.249 662.722 406.229C658.394 404.306 654.74 404.306 656.471 406.229C658.202 408.153 666.088 410.172 668.492 414.5C670.897 418.828 673.205 421.809 665.992 420.751C658.779 419.693 647.238 414.404 646.661 408.441L646.277 402.479Z" fill="#82B378"/>
<path d="M695.228 392.477C695.228 392.477 655.125 390.939 646.277 402.383C646.277 402.383 644.354 408.249 638.295 413.539L637.333 416.136C637.333 416.136 644.257 408.827 646.758 408.346C646.758 408.442 642.911 394.208 695.228 392.477Z" fill="#82B378"/>
<path d="M638.294 413.635C638.294 413.635 629.638 419.982 629.061 431.331L630.6 431.427C630.6 431.427 633.389 419.694 638.294 415.077C643.295 410.557 638.294 413.635 638.294 413.635Z" fill="#82B378"/>
<path d="M610.697 387.478C610.697 387.478 626.854 378.438 619.352 366.128C619.352 366.128 613.294 358.53 606.85 356.607C606.85 356.607 610.312 374.976 606.85 375.361C603.388 375.841 604.446 354.684 604.446 354.684C604.446 354.684 587.423 346.509 580.691 347.086C580.691 347.086 591.27 364.974 587.808 364.589C584.346 364.108 572.517 346.028 572.517 346.028C572.517 346.028 555.013 342.758 552.224 353.145C549.436 363.531 553.956 368.629 556.552 369.302C559.149 369.975 575.787 369.783 575.306 371.898C574.825 374.014 563.669 377.476 557.418 375.553C557.418 375.553 564.342 392.575 573.382 391.71C582.422 390.844 585.211 385.266 590.886 384.785C596.464 384.305 600.599 385.843 597.81 387.382C595.021 388.921 585.5 387.863 580.98 391.71C576.46 395.557 572.805 397.961 581.172 399.692C589.539 401.423 604.638 400.365 607.716 393.922L610.697 387.478Z" fill="#A8D29F"/>
<path d="M560.305 356.512C560.305 356.512 605.602 371.13 610.795 387.575C610.795 387.575 610.603 394.884 615.123 403.347V406.617C615.123 406.617 610.41 395.654 607.814 394.115C607.717 394.019 617.815 379.785 560.305 356.512Z" fill="#82B378"/>
<path d="M615.028 403.251C615.028 403.251 622.048 413.83 618.009 426.813L616.182 426.332C616.182 426.332 617.913 412.099 614.259 404.982C610.7 397.769 615.028 403.251 615.028 403.251Z" fill="#82B378"/>
<path d="M636.468 375.072C636.468 375.072 615.118 363.146 625.12 346.893C625.12 346.893 633.102 336.988 641.565 334.391C641.565 334.391 637.045 358.53 641.565 359.107C646.085 359.684 644.643 331.794 644.643 331.794C644.643 331.794 667.051 321.023 675.899 321.889C675.899 321.889 661.954 345.451 666.474 344.874C670.994 344.297 686.67 320.446 686.67 320.446C686.67 320.446 709.655 316.215 713.406 329.871C717.156 343.527 711.097 350.356 707.731 351.221C704.365 352.087 682.438 351.798 683.015 354.587C683.592 357.472 698.403 361.992 706.577 359.396C706.577 359.396 697.441 381.9 685.516 380.746C673.59 379.592 669.936 372.187 662.531 371.61C655.125 371.033 649.74 373.052 653.394 374.976C657.049 376.995 669.551 375.649 675.514 380.746C681.477 385.843 686.285 388.92 675.225 391.229C664.166 393.537 644.258 392.094 640.315 383.535L636.468 375.072Z" fill="#A8D29F"/>
<path d="M702.92 334.103C702.92 334.103 643.197 353.434 636.369 374.976C636.369 374.976 636.657 384.593 630.695 395.749V399.981C630.695 399.981 636.946 385.459 640.312 383.535C640.408 383.535 627.04 364.782 702.92 334.103Z" fill="#82B378"/>
<path d="M630.792 395.749C630.792 395.749 621.56 409.694 626.849 426.717L629.253 426.044C629.253 426.044 626.945 407.29 631.754 397.865C636.562 388.537 630.792 395.749 630.792 395.749Z" fill="#82B378"/>
<path d="M635.701 463.647C658.782 463.647 677.44 444.99 677.44 421.909H593.962C593.962 444.99 612.716 463.647 635.701 463.647Z" fill="#F1A34F"/>
<path d="M645.989 463.359C644.258 463.551 642.527 463.647 640.796 463.647C617.715 463.647 599.058 444.99 599.058 421.909H609.444C609.444 443.163 625.409 460.762 645.989 463.359Z" fill="#FFB973"/>
<path d="M678.012 465.762H593.38C593.38 462.877 595.689 460.569 598.574 460.569H672.915C675.8 460.665 678.108 462.973 678.012 465.762Z" fill="#F1A34F"/>
<path d="M678.401 421.909H592.615V423.159H678.401V421.909Z" fill="#D86713"/>
<path d="M640.118 142.337C627.712 142.337 617.614 152.339 617.614 164.841C617.614 177.343 627.616 187.345 640.118 187.345C652.621 187.345 662.623 177.343 662.623 164.841C662.527 152.339 652.525 142.337 640.118 142.337ZM651.178 166.091H641.08V176.189C641.08 176.863 640.503 177.44 639.83 177.44C639.157 177.44 638.58 176.863 638.58 176.189V166.091H628.482C627.808 166.091 627.231 165.514 627.231 164.841C627.231 164.168 627.808 163.591 628.482 163.591H638.58V153.493C638.58 152.82 639.157 152.243 639.83 152.243C640.503 152.243 641.08 152.82 641.08 153.493V163.591H651.178C651.851 163.591 652.428 164.168 652.428 164.841C652.428 165.514 651.948 166.091 651.178 166.091Z" fill="white"/>
</svg>
