<svg width="298" height="332" viewBox="0 0 298 332" fill="none" xmlns="http://www.w3.org/2000/svg">
<path d="M294.335 0.489746H129.112V317.472H294.335V0.489746Z" fill="#B2B2C2"/>
<path d="M297.223 0.489746H126.229V14.3385H297.223V0.489746Z" fill="#C6C7DD"/>
<path d="M290.876 21.0708H132.48V70.5993H290.876V21.0708Z" fill="#C6C7DD"/>
<path d="M290.876 77.2349H132.481V126.763H290.876V77.2349Z" fill="#C6C7DD"/>
<path d="M245.676 95.9878H181.337V101.95H245.676V95.9878Z" fill="#B2B2C2"/>
<path d="M290.876 133.398H132.481V182.926H290.876V133.398Z" fill="#C6C7DD"/>
<path d="M245.676 152.247H181.337V158.209H245.676V152.247Z" fill="#B2B2C2"/>
<path d="M290.876 189.564H132.481V239.092H290.876V189.564Z" fill="#C6C7DD"/>
<path d="M245.676 208.413H181.337V214.375H245.676V208.413Z" fill="#B2B2C2"/>
<path d="M290.876 245.729H132.481V295.257H290.876V245.729Z" fill="#C6C7DD"/>
<path d="M245.676 264.577H181.337V270.54H245.676V264.577Z" fill="#B2B2C2"/>
<path d="M145.945 317.473H136.905V329.783H145.945V317.473Z" fill="#9494A1"/>
<path d="M285.876 317.473H276.835V329.783H285.876V317.473Z" fill="#9494A1"/>
<path d="M135.561 195.525C135.561 195.044 135.657 194.563 135.657 194.083C135.946 191.39 136.33 188.697 137.004 186.196C137.773 183.504 139.023 181.099 140.274 178.503C140.37 178.214 140.754 177.926 140.947 178.118L141.043 178.407C141.716 181.965 143.447 185.235 146.044 187.831C146.717 188.505 147.871 189.082 148.448 188.408L148.64 187.928C149.506 185.235 148.544 182.157 147.583 179.657C146.525 177.156 144.217 174.56 145.371 171.867C147.679 166.77 150.756 162.057 154.315 157.73C156.142 155.518 158.258 153.498 160.662 151.767L161.143 151.575C161.335 151.671 161.431 151.959 161.431 152.152C161.431 156.095 162.489 159.461 163.355 163.211C163.547 163.788 164.124 164.558 164.701 164.269C165.086 164.077 165.182 159.942 165.182 159.365C165.278 158.21 165.086 157.249 165.182 156.095C165.278 153.017 166.336 149.363 167.971 146.766C168.933 145.227 170.183 143.881 171.433 142.534C175.472 138.495 179.896 134.745 184.993 132.148C185.667 131.859 191.245 129.647 191.245 129.167C191.245 131.667 191.148 134.167 191.725 136.668C192.495 135.129 193.168 133.494 193.841 131.859C194.418 130.417 194.899 128.493 195.669 127.243C196.919 125.32 199.708 125.512 201.727 125.224C203.939 124.935 206.055 124.743 208.267 124.646C208.652 124.646 209.133 124.646 209.421 124.839C209.71 125.031 209.998 125.32 210.094 125.608C210.671 126.762 210.768 128.109 210.671 129.359C210.575 132.725 210.287 136.091 209.71 139.457C209.613 140.322 209.421 141.188 209.036 142.054C207.209 145.9 201.246 147.824 197.688 149.459C197.303 149.651 196.919 149.844 196.823 150.228C196.053 152.344 205.478 149.651 206.247 149.459H206.632C207.017 149.555 207.017 150.036 206.921 150.421C205.574 157.826 202.785 165.327 200.189 172.444C199.035 175.714 197.88 179.657 195.957 182.638C194.226 185.235 191.148 186.581 188.456 187.735C184.993 189.178 181.435 190.62 177.973 192.159C174.415 193.698 181.82 194.275 182.878 194.179C184.801 193.986 186.628 193.602 188.552 193.602C189.129 193.602 189.802 193.698 189.994 194.275C190.091 194.66 189.994 195.044 189.802 195.333C187.975 198.699 184.801 201.68 182.397 204.565C173.164 216.01 162.682 223.223 148.833 228.224C145.659 229.378 141.812 230.339 139.119 228.224C138.062 227.358 137.388 226.108 136.907 224.761C136.138 222.646 135.946 220.337 135.753 218.126C135.561 210.528 134.888 203.027 135.561 195.525Z" fill="#3BABAB"/>
<path d="M86.1242 177.159C85.8356 176.87 85.5471 176.678 85.3548 176.39C83.9122 174.947 82.3735 173.504 81.2194 171.869C79.9692 170.138 79.1036 168.215 78.1419 166.291L78.2381 165.714L78.4304 165.811C80.9309 167.061 83.7199 167.542 86.5088 167.157C87.1821 167.061 88.1438 166.676 87.9514 166.003L87.7591 165.618C86.5089 163.791 84.2007 162.925 82.1811 162.348C80.1615 161.771 77.4687 161.964 76.4108 160.04C74.3912 156.193 72.9486 152.154 71.9869 147.923C71.506 145.711 71.2175 143.499 71.3137 141.287L71.506 140.902L71.9869 140.998C74.3912 142.826 76.8917 143.787 79.5845 145.038C80.0653 145.23 80.7385 145.23 80.8347 144.749C80.8347 144.46 78.4304 142.441 78.1419 142.152C77.4687 141.575 76.7955 141.191 76.1223 140.614C74.295 139.075 72.5639 136.767 71.6984 134.555C71.2175 133.208 70.929 131.862 70.8328 130.419C70.2558 126.092 70.0635 121.668 70.929 117.34C71.0252 116.763 72.3716 112.339 72.0831 112.147C73.6218 113.301 75.0644 114.551 76.8917 115.32C76.3146 114.166 75.6414 112.916 74.9682 111.762C74.3912 110.704 73.4295 109.55 73.0448 108.492C72.4678 106.857 73.9103 105.222 74.6797 103.876C75.5453 102.433 76.4108 100.991 77.3725 99.6444C77.5649 99.3559 77.7572 99.1635 78.0457 98.9712C78.2381 98.875 78.5266 98.875 78.8151 98.875C79.7768 99.0673 80.6424 99.6444 81.4117 100.221C83.4313 101.856 85.3548 103.684 87.0859 105.511C87.5667 105.992 88.0476 106.473 88.3361 107.146C89.7787 110.031 88.2399 114.551 87.5667 117.532C87.4706 117.821 87.4706 118.206 87.5667 118.398C88.5285 119.937 91.3174 112.82 91.5098 112.339L91.7021 112.051L92.4715 112.339C96.3184 116.667 99.5882 121.86 102.666 126.765C104.108 129.073 106.032 131.573 106.897 134.074C107.667 136.286 106.993 138.786 106.416 140.998C105.647 143.787 104.878 146.672 104.204 149.461C103.435 152.347 107.282 148.115 107.763 147.442C108.532 146.192 109.205 144.941 110.071 143.691C110.359 143.306 110.744 143.018 111.129 143.114C111.417 143.21 111.61 143.499 111.706 143.691C112.86 146.384 113.245 149.654 113.918 152.539C116.514 163.503 116.034 173.312 112.475 184.083C111.706 186.584 110.456 189.373 107.955 189.95C106.897 190.142 105.839 190.046 104.878 189.661C103.243 189.084 101.8 188.122 100.261 187.257C95.2605 184.179 90.3557 181.006 86.1242 177.159Z" fill="#3BABAB"/>
<path d="M114.206 152.345C112.379 147.825 110.648 143.208 109.494 138.496C109.205 137.438 109.301 135.899 110.359 135.707C113.052 135.226 115.553 139.458 116.899 141.285C119.015 144.17 120.554 147.248 123.92 148.979C124.208 149.171 124.593 149.267 124.977 149.267C125.17 149.171 125.458 149.075 125.651 148.883C127.093 147.536 127.382 145.132 126.228 143.593C124.689 141.381 122.188 139.554 120.265 137.631C116.803 134.168 111.706 130.321 110.455 125.321C110.071 123.878 110.071 122.339 110.071 120.8C110.167 108.49 110.648 92.5259 119.015 82.6202C119.303 82.2355 124.208 90.4101 124.785 90.9872C125.17 91.3719 125.554 91.6604 126.035 91.8527C126.516 92.0451 127.093 91.7565 127.286 91.2757C127.382 90.891 127.286 90.5063 127.189 90.1216C126.132 87.525 124.785 85.1207 123.727 82.6202C122.958 80.9853 121.131 78.1001 121.419 76.2729C121.515 75.6958 121.804 75.1188 122.092 74.6379C126.805 66.848 132.19 59.6351 138.249 52.9031C139.115 51.9414 140.076 50.9797 141.23 50.595C143.923 49.8256 144.789 52.8069 145.654 54.6342C147.193 57.904 148.54 61.3662 149.694 64.8284C149.982 65.694 150.271 66.6557 150.367 67.6174C150.559 70.0217 148.924 72.426 147.963 74.4456C146.616 77.0422 145.174 79.4465 143.442 81.7547C144.116 82.0432 144.789 81.7547 145.366 81.4662C148.059 80.1197 149.982 78.2925 152.002 75.9844C152.579 76.1767 152.963 76.8499 153.156 77.5231C153.733 80.5044 154.406 83.3896 154.983 86.3709C155.56 89.0637 154.791 91.0833 153.829 93.68C152.002 98.7771 149.309 103.586 145.943 107.817C150.463 107.529 154.31 104.163 156.329 100.412C156.714 100.027 157.195 100.701 157.291 101.278C158.253 106.663 160.465 112.722 159.118 118.204C158.061 122.82 154.887 127.917 151.906 131.476C150.174 133.399 148.251 135.226 146.905 137.438C146.712 137.727 146.616 138.015 146.712 138.304C146.905 138.688 147.385 138.688 147.77 138.688C149.79 138.592 151.906 137.823 153.54 136.573C154.695 135.707 155.752 134.553 157.195 134.168C157.676 134.072 156.329 142.535 156.233 142.92C155.368 146.767 154.214 150.518 152.963 154.268C150.848 160.327 148.155 166.097 144.885 171.675C142.673 175.522 138.73 183.312 133.056 181.87C131.709 181.485 130.555 180.619 129.594 179.561C123.823 173.599 120.265 166.963 116.995 159.269C116.13 156.961 115.168 154.653 114.206 152.345Z" fill="#62BDB1"/>
<path d="M61.2175 205.528C56.5051 203.893 51.4079 202.835 46.5032 203.22C41.5022 203.701 36.5975 204.374 31.5965 204.47C29.5769 204.47 27.1726 204.855 28.2305 202.258C28.519 201.585 30.6348 199.084 29.9616 198.315C28.9037 197.257 23.999 200.046 22.9411 200.431C15.7282 203.604 4.57224 197.834 1.01388 191.006C0.725368 190.333 0.436853 189.659 0.533025 188.986C0.725368 188.121 1.39857 187.447 1.9756 186.87C3.89904 185.043 8.32295 180.138 11.0158 179.85C12.4583 179.754 14.7665 181.196 16.4014 181.389C18.5172 181.677 20.7291 181.581 22.7487 181.1C21.1138 179.465 19.5751 177.83 17.9401 176.195C17.7478 176.003 17.4593 175.714 17.5554 175.426C17.6516 175.137 17.9401 175.041 18.2286 174.945C21.6908 173.791 24.9607 172.348 28.3267 171.002C29.9616 170.329 31.6927 169.656 33.4238 169.175C35.4434 168.502 36.309 168.598 38.2324 169.559C44.2912 172.541 48.9075 177.638 54.1969 181.581C54.6778 181.966 55.2548 182.35 55.928 182.35C56.0242 181.773 55.8319 181.1 55.6395 180.523C53.9084 175.618 49.6769 170.521 46.0223 166.867C50.7347 165.809 56.0242 166.001 60.1596 168.79C65.9299 172.733 71.1232 178.215 75.5471 183.601C76.7011 180.908 75.4509 177.83 74.2007 175.137C76.2203 174.368 78.1437 176.195 79.4901 177.83C82.3753 181.292 85.3566 184.755 88.1456 188.409C90.2614 191.102 90.9346 193.699 92.281 196.776C95.647 204.662 97.859 212.837 99.1092 221.396C99.4939 224.089 100.456 230.34 97.4743 232.071C95.1662 233.321 91.8963 231.206 90.4537 229.571C87.3762 226.109 84.3949 222.55 81.1251 219.377C78.9131 217.261 76.1241 215.626 74.1045 213.222L74.0083 212.645L74.393 212.452C77.0858 212.164 80.548 213.318 82.9523 212.164C83.4332 211.971 83.914 211.49 83.914 211.01C84.0102 210.433 83.5294 209.952 83.0485 209.567C82.2791 209.086 81.3174 208.894 80.4519 208.798C77.3744 208.509 74.5854 209.182 71.604 209.375C69.1036 209.567 66.3146 207.836 64.0065 206.874C63.1409 206.201 62.1792 205.816 61.2175 205.528Z" fill="#3BABAB"/>
<path d="M129.979 277.945C129.498 277.945 129.113 277.561 129.113 277.08L129.306 261.692C129.979 214.28 130.652 165.232 133.73 117.627C133.922 114.645 134.114 111.664 134.307 108.779C135.172 93.5838 136.134 78.004 139.019 62.8088C139.115 62.328 139.5 62.0394 139.981 62.1356C140.462 62.2318 140.75 62.6165 140.654 63.0973C137.769 78.1963 136.807 93.7762 135.941 108.875C135.749 111.856 135.557 114.838 135.364 117.819C132.287 165.424 131.614 214.376 130.941 261.788L130.748 277.176C130.748 277.561 130.364 277.945 129.979 277.945Z" fill="#38A4A1"/>
<path d="M130.174 258.712H129.981C129.5 258.616 129.212 258.135 129.308 257.75C132.001 245.344 137.386 232.265 145.369 218.897C149.023 212.742 152.485 206.298 155.755 200.047C160.371 191.295 165.18 182.255 170.758 173.984L172.201 171.773C182.106 156.77 190.666 143.787 203.553 130.899C203.841 130.611 204.418 130.611 204.707 130.899C204.995 131.188 204.995 131.765 204.707 132.054C191.916 144.844 183.357 157.731 173.547 172.638L172.104 174.85C166.623 183.121 161.814 192.161 157.198 200.816C153.832 207.068 150.466 213.511 146.715 219.762C138.829 233.034 133.443 245.921 130.847 258.135C130.847 258.52 130.558 258.712 130.174 258.712Z" fill="#2F9A99"/>
<path d="M120.265 254.576C119.88 254.576 119.495 254.288 119.495 253.807C118.149 235.727 116.706 216.973 111.417 199.374C109.494 193.123 107.089 186.871 104.685 180.813C103.819 178.601 102.954 176.485 102.185 174.273C98.53 164.56 95.164 154.558 91.9903 144.844L79.2956 106.856C79.1033 106.472 79.3918 105.991 79.8726 105.799C80.2573 105.606 80.7382 105.895 80.9305 106.376L93.529 144.363C96.7027 154.077 100.069 164.079 103.723 173.792C104.589 176.004 105.358 178.12 106.224 180.332C108.628 186.391 111.032 192.642 112.956 198.989C118.341 216.781 119.784 235.631 121.13 253.807C121.13 254.192 120.746 254.576 120.265 254.576Z" fill="#2F9A99"/>
<path d="M105.168 260.057C104.783 260.057 104.495 259.865 104.399 259.48C102.764 254.383 101.225 249.19 99.7823 244.189C97.5704 236.687 95.3584 228.994 92.5695 221.3C90.8384 216.684 88.5302 210.336 85.8374 206.008C78.336 194.275 63.4294 189.563 52.1773 187.832C41.5022 186.101 30.5386 188.024 19.8635 189.852C17.5554 190.236 15.2473 190.621 13.0353 191.006C12.5545 191.102 12.1698 190.813 12.0736 190.332C11.9774 189.852 12.2659 189.467 12.7468 189.371C15.0549 188.986 17.2669 188.601 19.575 188.217C30.3463 186.389 41.5022 184.466 52.4658 186.197C64.0064 188.024 79.3939 192.833 87.1838 205.143C89.9728 209.567 92.3771 216.01 94.1082 220.723C96.8972 228.417 99.2053 236.206 101.321 243.708C102.764 248.709 104.302 253.806 105.937 258.903C106.034 259.384 105.841 259.769 105.36 259.961L105.168 260.057Z" fill="#2F9A99"/>
<path d="M176.333 257.941C176.333 255.633 176.237 253.324 176.237 251.113C176.237 250.247 175.564 249.574 174.698 249.574H80.6423C76.3145 249.574 71.8906 249.381 67.5629 249.574C67.4667 249.574 67.4667 249.574 67.3705 249.574C66.7935 249.574 66.4088 249.766 66.2165 250.151C66.0241 250.343 65.8318 250.728 65.8318 251.113C65.7356 260.249 65.4471 269.481 65.5433 278.714C65.6395 287.177 66.3127 295.736 69.294 303.719C71.8906 310.931 76.2184 317.279 82.4695 321.799C88.336 326.03 95.5489 328.242 102.569 329.589C108.051 330.55 113.725 331.32 119.303 331.32C121.323 331.32 123.246 331.32 125.266 331.32C128.151 331.32 131.132 330.839 134.018 330.454C141.327 329.493 148.636 327.954 155.175 324.492C161.811 321.029 167.101 315.644 170.467 309.008C174.218 301.699 175.756 293.62 176.237 285.446C176.91 276.31 176.526 267.077 176.333 257.941Z" fill="#462779"/>
<path d="M212.776 28.0918C202.966 28.0918 194.984 36.0741 194.984 45.8836C194.984 55.6931 202.966 63.6754 212.776 63.6754C222.585 63.6754 230.567 55.6931 230.567 45.8836C230.567 36.0741 222.585 28.0918 212.776 28.0918ZM221.527 46.9415H213.449V55.0199C213.449 55.597 212.968 55.9816 212.487 55.9816C211.91 55.9816 211.525 55.5008 211.525 55.0199V46.9415H203.543C202.966 46.9415 202.581 46.4606 202.581 45.9798C202.581 45.4989 203.062 45.018 203.543 45.018H211.622V36.9396C211.622 36.3626 212.102 35.9779 212.583 35.9779C213.16 35.9779 213.545 36.4587 213.545 36.9396V45.018H221.623C222.201 45.018 222.585 45.4989 222.585 45.9798C222.585 46.5568 222.104 46.9415 221.527 46.9415Z" fill="white"/>
</svg>
