<svg width="521" height="251" viewBox="0 0 521 251" fill="none" xmlns="http://www.w3.org/2000/svg">
<path d="M404.319 248.064H404.497C405.539 248.064 406.37 247.21 406.348 246.168L403.543 124.686L395.283 123.722L402.324 246.168C402.379 247.221 403.255 248.053 404.319 248.053V248.064Z" fill="#B0D4FF"/>
<path d="M452.422 248.064H452.6C453.642 248.064 454.473 247.21 454.451 246.168L451.646 124.686L443.386 123.722L450.427 246.168C450.482 247.221 451.358 248.053 452.422 248.053V248.064Z" fill="#95C0F4"/>
<path d="M319.665 248.064H319.487C318.445 248.064 317.614 247.21 317.636 246.168L320.441 124.686L328.701 123.722L321.661 246.168C321.605 247.221 320.729 248.053 319.665 248.053V248.064Z" fill="#B0D4FF"/>
<path d="M457.893 117.158V33.9154C457.893 19.2693 446.019 7.39502 431.373 7.39502H371.402C356.756 7.39502 344.882 19.2693 344.882 33.9154V120.34L457.893 117.158Z" fill="#B0D4FF"/>
<path d="M444.748 130.294L334.131 130.294V117.156L457.897 117.156C457.897 124.407 452.01 130.294 444.759 130.294H444.748Z" fill="#95C0F4"/>
<path d="M407.172 130.294H320.925C317.3 130.294 314.351 127.345 314.351 123.72C314.351 120.094 317.3 117.145 320.925 117.145L407.172 117.145C410.798 117.145 413.747 120.094 413.747 123.72C413.747 127.345 410.798 130.294 407.172 130.294Z" fill="#CAE5FF"/>
<path d="M53.7757 248.387H53.5983C52.5561 248.387 51.7246 247.533 51.7468 246.491L54.5518 125.009L62.8117 124.045L55.7714 246.491C55.716 247.544 54.8401 248.376 53.7757 248.376V248.387Z" fill="#B0D4FF"/>
<path d="M5.64681 248.387H5.46942C4.42723 248.387 3.59569 247.533 3.61787 246.491L6.42291 125.009L14.6828 124.045L7.6425 246.491C7.58706 247.544 6.71118 248.376 5.64681 248.376V248.387Z" fill="#95C0F4"/>
<path d="M138.412 248.387H138.59C139.632 248.387 140.464 247.533 140.441 246.491L137.636 125.009L129.376 124.045L136.417 246.491C136.472 247.544 137.348 248.376 138.412 248.376V248.387Z" fill="#B0D4FF"/>
<path d="M0.187256 117.481V34.2387C0.187256 19.5926 12.0616 7.71826 26.7077 7.71826H86.678C101.324 7.71826 113.198 19.5926 113.198 34.2387V120.663L0.187256 117.481Z" fill="#B0D4FF"/>
<path d="M0.187256 117.48H123.953V130.619H13.3255C6.07452 130.63 0.187256 124.731 0.187256 117.48Z" fill="#95C0F4"/>
<path d="M137.144 117.48H50.9079C47.2768 117.48 44.3333 120.422 44.3333 124.05C44.3333 127.678 47.2768 130.619 50.9079 130.619H137.144C140.775 130.619 143.718 127.678 143.718 124.05C143.718 120.422 140.775 117.48 137.144 117.48Z" fill="#B0D4FF"/>
<path d="M81.9736 59.9339H162.067L186.159 0.019043H106.188L81.9736 59.9339Z" fill="#F99746"/>
<path d="M163.006 57.5938H57.2461V59.9331H162.064L163.006 57.5938Z" fill="#ED7D2B"/>
<path d="M141.853 29.9732C142.452 27.8666 141.244 26.1592 139.137 26.1592C137.03 26.1592 134.835 27.8666 134.225 29.9732C133.627 32.0797 134.835 33.7871 136.942 33.7871C139.048 33.7871 141.244 32.0797 141.853 29.9732Z" fill="white"/>
<path d="M500.293 250.602H500.526C501.901 250.602 502.998 249.404 502.965 247.952L499.262 77.8644L488.341 76.5117L497.654 247.952C497.732 249.427 498.896 250.591 500.293 250.591V250.602Z" fill="#78ACEA"/>
<path d="M57.6325 250.602H57.3996C56.0248 250.602 54.9272 249.404 54.9605 247.952L58.6636 77.8644L69.5844 76.5117L60.2712 247.952C60.1936 249.427 59.0294 250.591 57.6325 250.591V250.602Z" fill="#78ACEA"/>
<path d="M49.6485 60.4692H510.108C515.774 60.4692 520.375 65.0704 520.375 70.7359C520.375 76.4015 515.774 81.0026 510.108 81.0026H49.6485C43.983 81.0026 39.3818 76.4015 39.3818 70.7359C39.3818 65.0704 43.983 60.4692 49.6485 60.4692Z" fill="#78ACEA"/>
<path d="M358.761 60.4681H278.667L254.575 0.553223H334.546L358.761 60.4681Z" fill="#2B478B"/>
<path d="M277.726 58.1406H383.497V60.4689H278.668L277.726 58.1406Z" fill="#2B478B"/>
<path d="M298.89 30.5117C298.292 28.4052 299.5 26.6978 301.607 26.6978C303.713 26.6978 305.908 28.4052 306.518 30.5117C307.117 32.6183 305.908 34.3257 303.802 34.3257C301.695 34.3257 299.5 32.6183 298.89 30.5117Z" fill="white"/>
</svg>
