<svg width="225" height="240" viewBox="0 0 225 240" fill="none" xmlns="http://www.w3.org/2000/svg">
<path d="M55.9951 199.495C58.4378 195.22 62.3055 193.592 66.1732 195.831C69.0231 197.459 70.448 200.513 69.2266 203.566L67.3946 202.548C68.0053 200.513 66.9874 198.477 65.1554 197.459C62.5091 196.034 59.6592 197.256 57.8271 200.513C55.9951 203.973 56.4022 207.027 59.0485 208.452C61.0841 209.469 62.9162 209.469 64.3411 208.045L66.1732 209.062C64.1376 211.505 61.0841 211.709 58.2343 210.08C54.3666 208.045 53.5523 203.973 55.9951 199.495Z" fill="#2B478B"/>
<path d="M69.0161 208.854C70.441 205.393 73.0873 203.969 76.1407 205.19C79.1942 206.411 80.212 209.261 78.9906 212.722C77.5657 216.182 74.9194 217.607 71.8659 216.386C68.8125 215.368 67.7947 212.315 69.0161 208.854ZM77.1586 212.111C78.1764 209.668 77.5657 207.633 75.5301 206.818C73.4944 206.004 71.8659 207.022 70.8481 209.668C69.8303 212.315 70.441 214.147 72.4766 214.961C74.5123 215.572 76.1407 214.554 77.1586 212.111Z" fill="#2B478B"/>
<path d="M81.6425 213.946L82.0496 212.114L88.9707 213.946L88.5636 215.778L81.6425 213.946Z" fill="#2B478B"/>
<path d="M99.7608 215.168C99.7608 213.947 98.743 212.929 97.1145 212.522C95.0788 212.115 93.6539 213.54 93.2468 216.186C92.8397 218.833 93.8575 220.665 95.8931 220.868C97.5216 221.072 98.5394 220.461 99.1501 219.24L100.982 219.443C100.371 221.682 98.3358 222.904 95.6895 222.497C92.4325 222.09 90.804 219.443 91.4147 215.779C92.0254 212.115 94.4681 210.283 97.5216 210.69C100.371 211.097 101.796 213.133 101.796 215.168H99.7608Z" fill="#2B478B"/>
<path d="M104.438 211.911L106.27 212.114L106.067 213.946H106.27C106.678 212.725 107.899 212.114 109.324 212.114C109.731 212.114 109.935 212.114 110.138 212.318L109.935 214.15C109.731 214.15 109.324 213.946 108.917 213.946C107.288 213.946 106.067 214.964 106.067 216.593L105.66 223.717L103.828 223.514L104.438 211.911Z" fill="#2B478B"/>
<path d="M121.126 220.457C120.719 222.493 118.887 223.918 116.444 223.918C113.187 224.122 111.151 221.882 110.948 218.218C110.744 214.554 112.78 212.111 116.037 212.111C119.09 211.908 121.126 214.147 121.33 217.811V218.625L112.984 218.829C113.187 221.068 114.408 222.493 116.444 222.493C117.869 222.493 118.887 221.679 119.294 220.661L121.126 220.457ZM112.984 217.2L119.294 216.997C119.09 214.961 117.869 213.74 116.037 213.74C114.205 213.74 112.984 215.165 112.984 217.2Z" fill="#2B478B"/>
<path d="M123.98 220.053C123.776 218.018 124.997 216.593 127.644 215.982L130.901 215.371L130.697 214.354C130.494 212.929 129.476 212.318 127.847 212.522C126.422 212.725 125.608 213.539 125.404 214.557L123.572 214.761C123.572 212.725 124.997 211.097 127.644 210.893C130.29 210.486 132.326 211.707 132.529 213.946L133.751 221.885L131.918 222.089L131.715 220.257H131.511C130.901 221.682 129.679 222.496 128.254 222.903C126.015 223.31 124.183 222.292 123.98 220.053ZM131.104 218.018L130.901 217L127.847 217.611C126.219 218.018 125.608 218.628 125.608 219.85C125.812 221.071 126.829 221.478 128.254 221.275C130.29 221.071 131.511 219.646 131.104 218.018Z" fill="#2B478B"/>
<path d="M136.595 206.413L137.205 209.263L139.444 208.652L139.851 210.281L137.612 210.891L139.241 217.405C139.444 218.627 140.055 219.034 141.276 218.627C141.48 218.627 141.887 218.423 142.091 218.423L142.498 220.052C142.294 220.255 141.887 220.255 141.48 220.459C139.241 221.07 138.223 220.459 137.612 218.22L135.984 211.502L134.152 211.909L133.745 210.281L135.577 209.874L134.966 207.024L136.595 206.413Z" fill="#2B478B"/>
<path d="M142.914 213.742C141.693 210.281 142.914 207.431 145.968 206.414C149.021 205.396 151.667 206.821 153.092 210.281C154.314 213.742 153.092 216.592 150.039 217.61C146.782 218.831 144.135 217.406 142.914 213.742ZM151.057 210.892C150.242 208.246 148.41 207.228 146.375 208.042C144.339 208.653 143.728 210.688 144.543 213.131C145.357 215.778 147.189 216.795 149.225 215.981C151.26 215.37 152.074 213.538 151.057 210.892Z" fill="#2B478B"/>
<path d="M153.088 203.77L154.717 202.956L155.531 204.585C155.328 203.363 156.142 202.142 157.363 201.531C157.567 201.328 157.974 201.328 158.177 201.124L158.992 202.753C158.788 202.753 158.381 202.956 157.974 203.16C156.549 203.77 155.938 205.399 156.549 206.824L159.602 213.338L157.77 214.152L153.088 203.77Z" fill="#2B478B"/>
<path d="M163.073 198.475C165.312 197.254 167.348 197.457 168.569 199.086L166.94 200.104C166.33 199.289 165.108 199.086 163.887 199.9C162.666 200.511 162.258 201.732 162.666 202.546C163.073 203.157 163.887 203.361 165.108 202.953L166.94 202.343C169.18 201.732 170.401 201.936 171.215 203.361C172.233 205.193 171.215 207.432 168.976 208.653C166.737 210.078 164.498 209.671 163.276 208.043L164.905 207.025C165.719 207.839 166.737 208.043 168.162 207.228C169.587 206.414 169.994 205.396 169.587 204.378C169.18 203.768 168.569 203.564 167.144 203.971L165.312 204.582C163.073 205.193 161.851 204.989 161.037 203.564C160.223 201.732 161.037 199.696 163.073 198.475Z" fill="#2B478B"/>
<path d="M199.91 111.961C199.91 106.872 194.414 102.801 166.322 102.801C163.269 102.801 160.215 102.801 156.958 103.004C160.012 101.986 162.862 100.765 165.712 99.7473C191.768 88.7549 195.025 82.8516 193.193 78.1697C191.157 73.4877 184.643 71.6557 158.587 82.648C156.348 83.6658 153.905 84.6837 151.462 85.905C153.498 84.073 155.33 82.2409 157.162 80.6124C177.111 60.6633 177.925 53.9457 174.465 50.2816C170.801 46.6175 164.083 47.6353 144.134 67.5844C142.098 69.62 139.859 72.0628 137.824 74.302C139.249 71.4521 140.47 68.6022 141.691 65.7524C152.277 39.6964 150.648 32.9788 145.763 31.1468C140.877 29.1111 134.974 32.5717 124.388 58.6277C123.371 60.8669 122.556 63.3096 121.742 65.7524C121.946 63.106 121.946 60.4597 121.946 58.017C121.946 29.9254 117.874 24.4292 112.785 24.4292C107.696 24.4292 103.625 29.9254 103.625 58.017C103.625 61.0704 103.625 64.1239 103.829 67.3809C102.811 64.3274 101.59 61.4775 100.572 58.6277C89.5793 32.5717 83.676 29.3147 78.9941 31.1468C74.3121 32.9788 72.4801 39.6964 83.4725 65.7524C84.4903 67.9915 85.5081 70.4343 86.7294 72.877C84.8974 70.8414 83.0653 69.0094 81.4368 67.1773C61.4877 47.2282 54.7702 46.4139 51.106 49.8745C47.4419 53.5386 48.4597 60.2562 68.4088 80.2053C70.4445 82.2409 72.8872 84.4801 75.1264 86.5157C72.2765 85.0908 69.4267 83.8694 66.5768 82.648C40.5208 72.0628 33.8032 73.6913 31.9712 78.5768C30.1391 83.4623 33.1925 89.5692 59.2485 100.154C61.4877 101.172 63.9305 101.986 66.3732 102.801C63.7269 102.597 61.0806 102.597 58.6378 102.597C30.5462 102.597 25.05 106.668 25.05 111.757C25.05 116.847 30.5462 120.918 58.6378 120.918C61.6913 120.918 64.7447 120.918 68.0017 120.714C64.9483 121.732 62.0984 122.953 59.2485 123.971C33.1925 134.964 29.9355 140.867 31.7676 145.549C33.5997 150.231 40.3172 152.063 66.3732 141.07C68.6124 140.053 71.0551 139.035 73.4979 137.813C71.4623 139.645 69.6302 141.478 67.7981 143.106C47.849 163.055 47.0348 169.773 50.4953 173.437C54.1595 177.101 60.877 176.083 80.8261 156.134C82.8618 154.098 85.101 151.656 87.1366 149.416C85.7116 152.266 84.4903 155.116 83.2689 157.966C72.6836 184.022 74.3121 190.74 79.1976 192.572C83.8796 194.404 89.7829 190.943 100.572 164.887C101.59 162.648 102.404 160.205 103.218 157.559C103.014 160.205 103.014 162.852 103.014 165.294C103.014 193.386 107.086 198.882 112.175 198.882C117.264 198.882 121.335 193.386 121.335 165.294C121.335 162.241 121.335 159.187 121.131 155.93C122.149 158.984 123.371 161.834 124.388 164.684C135.381 190.74 141.284 193.997 145.966 192.165C150.648 190.129 152.48 183.615 141.488 157.559C140.47 155.32 139.452 152.877 138.231 150.434C140.063 152.47 141.895 154.302 143.523 156.134C163.472 176.083 170.19 176.897 173.854 173.437C177.518 169.773 176.5 163.055 156.551 143.106C154.516 141.07 152.073 138.831 149.834 136.796C152.684 138.221 155.534 139.442 158.383 140.663C184.439 151.249 191.157 149.62 192.989 144.735C194.821 140.053 191.361 134.149 165.305 123.361C163.065 122.343 160.623 121.528 157.976 120.714C160.623 120.918 163.269 120.918 165.712 120.918C194.414 121.121 199.91 117.05 199.91 111.961ZM131.717 79.1875C139.656 79.1875 146.17 85.7015 146.17 93.6404C146.17 101.579 139.656 108.093 131.717 108.093C123.778 108.093 117.264 101.579 117.264 93.6404C117.264 85.7015 123.574 79.1875 131.717 79.1875ZM117.06 70.6379C120.521 70.6379 123.167 73.2842 123.167 76.7447C123.167 80.2053 120.521 82.8516 117.06 82.8516C113.6 82.8516 110.953 80.2053 110.953 76.7447C110.953 73.2842 113.803 70.6379 117.06 70.6379ZM99.1468 74.5055C107.086 74.5055 113.6 81.0195 113.6 88.9585C113.6 96.8974 107.086 103.411 99.1468 103.411C91.2078 103.411 84.6938 96.8974 84.6938 88.9585C84.6938 81.0195 91.0043 74.5055 99.1468 74.5055ZM70.0373 117.05C70.0373 109.111 76.5513 102.597 84.4903 102.597C92.4292 102.597 98.9432 109.111 98.9432 117.05C98.9432 124.989 92.4292 131.503 84.4903 131.503C76.5513 131.503 70.0373 124.989 70.0373 117.05ZM86.1188 144.938C82.6582 144.938 80.0119 142.292 80.0119 138.831C80.0119 135.371 82.6582 132.724 86.1188 132.724C89.5793 132.724 92.2256 135.371 92.2256 138.831C92.2256 142.292 89.3758 144.938 86.1188 144.938ZM107.9 155.32C99.961 155.32 93.447 148.806 93.447 140.867C93.447 132.928 99.961 126.414 107.9 126.414C115.839 126.414 122.353 132.928 122.353 140.867C122.353 148.806 115.839 155.32 107.9 155.32ZM135.992 139.442C128.053 139.442 121.539 132.928 121.539 124.989C121.539 117.05 128.053 110.536 135.992 110.536C143.93 110.536 150.444 117.05 150.444 124.989C150.444 132.928 144.134 139.442 135.992 139.442ZM148.612 113.59C145.152 113.59 142.506 110.943 142.506 107.483C142.506 104.022 145.152 101.376 148.612 101.376C152.073 101.376 154.719 104.022 154.719 107.483C154.719 110.943 152.073 113.59 148.612 113.59Z" fill="#2B478B"/>
</svg>
