<svg width="43" height="44" viewBox="0 0 43 44" fill="none" xmlns="http://www.w3.org/2000/svg">
<path d="M21.4999 0C17.2794 0 13.1537 1.28043 9.64445 3.67938C6.13523 6.07833 3.40012 9.48804 1.78501 13.4773C0.16989 17.4666 -0.252698 21.8564 0.570682 26.0914C1.39406 30.3264 3.42643 34.2165 6.41077 37.2698C9.39512 40.3231 13.1974 42.4024 17.3368 43.2448C21.4762 44.0872 25.7668 43.6548 29.6661 42.0024C33.5653 40.35 36.898 37.5517 39.2428 33.9614C41.5876 30.3711 42.8391 26.1501 42.8391 21.8321C42.8328 16.0439 40.5825 10.4946 36.582 6.40169C32.5815 2.30878 27.1575 0.0065193 21.4999 0ZM21.4999 40.3055C17.9287 40.3055 14.4377 39.222 11.4684 37.1922C8.49902 35.1623 6.1847 32.2771 4.81807 28.9016C3.45143 25.526 3.09386 21.8116 3.79056 18.2282C4.48727 14.6447 6.20696 11.3531 8.73218 8.76951C11.2574 6.18596 14.4747 4.42655 17.9773 3.71375C21.4799 3.00095 25.1104 3.36679 28.4097 4.76499C31.7091 6.16319 34.5291 8.53097 36.5131 11.5689C38.4972 14.6068 39.5562 18.1785 39.5562 21.8321C39.551 26.7299 37.6469 31.4256 34.2619 34.8889C30.8768 38.3521 26.2871 40.3002 21.4999 40.3055Z" fill="#FA6400"/>
<path d="M31.2824 24.7435L29.341 26.7274V16.2346C29.341 15.7892 29.1681 15.362 28.8603 15.0471C28.5524 14.7321 28.1349 14.5552 27.6996 14.5552C27.2642 14.5552 26.8467 14.7321 26.5389 15.0471C26.231 15.362 26.0581 15.7892 26.0581 16.2346V26.7341L24.1255 24.7435C23.8143 24.4469 23.4028 24.2854 22.9775 24.293C22.5523 24.3007 22.1465 24.477 21.8458 24.7847C21.545 25.0924 21.3727 25.5075 21.3652 25.9425C21.3577 26.3776 21.5156 26.7987 21.8055 27.1171L26.533 31.9761C26.6835 32.1317 26.8628 32.255 27.0605 32.3388C27.2608 32.4246 27.4758 32.4687 27.693 32.4687C27.9102 32.4687 28.1252 32.4246 28.3255 32.3388C28.5231 32.255 28.7024 32.1317 28.853 31.9761L33.5958 27.1238C33.8857 26.8054 34.0436 26.3843 34.036 25.9493C34.0285 25.5142 33.8563 25.0991 33.5555 24.7914C33.2548 24.4837 32.849 24.3074 32.4238 24.2998C31.9985 24.2921 31.587 24.4536 31.2758 24.7502L31.2824 24.7435Z" fill="#FA6400"/>
<path d="M21.1987 16.5408L16.4647 11.6884C16.3142 11.5329 16.1349 11.4096 15.9372 11.3257C15.7369 11.2399 15.5219 11.1958 15.3047 11.1958C15.0876 11.1958 14.8726 11.2399 14.6722 11.3257C14.4746 11.4096 14.2953 11.5329 14.1448 11.6884L9.3954 16.5408C9.08688 16.8555 8.91321 17.2828 8.9126 17.7285C8.91198 18.1743 9.08447 18.602 9.39212 18.9177C9.69976 19.2333 10.1174 19.411 10.5531 19.4116C10.9888 19.4122 11.4068 19.2358 11.7154 18.921L13.6567 16.9371V27.43C13.6567 27.8754 13.8296 28.3025 14.1375 28.6175C14.4453 28.9324 14.8628 29.1094 15.2982 29.1094C15.7335 29.1094 16.151 28.9324 16.4589 28.6175C16.7667 28.3025 16.9396 27.8754 16.9396 27.43V16.9304L18.8788 18.9143C19.19 19.211 19.6015 19.3725 20.0268 19.3648C20.452 19.3571 20.8578 19.1808 21.1585 18.8732C21.4593 18.5655 21.6315 18.1503 21.639 17.7153C21.6465 17.2802 21.4887 16.8591 21.1987 16.5408Z" fill="#FA6400"/>
</svg>
