<svg width="125" height="125" viewBox="0 0 152 153" fill="none" xmlns="http://www.w3.org/2000/svg">
<rect y="0.5" width="152" height="152" rx="76" fill="#7323F4"/>
<path d="M59.5791 69.2376C47.6791 70.0834 47.7083 87.3209 59.5791 88.1667H87.7541C91.1666 88.1959 94.4625 86.9127 97 84.6085C105.342 77.3168 100.879 62.7334 89.8833 61.3334C85.9458 37.5917 51.5583 46.6043 59.6958 69.2376" stroke="white" stroke-width="5" stroke-miterlimit="10" stroke-linecap="round" stroke-linejoin="round"/>
<path d="M76 88.1665V96.9165" stroke="white" stroke-width="5" stroke-miterlimit="10" stroke-linecap="round" stroke-linejoin="round"/>
<path d="M76.0003 108.583C79.222 108.583 81.8337 105.971 81.8337 102.75C81.8337 99.5282 79.222 96.9165 76.0003 96.9165C72.7787 96.9165 70.167 99.5282 70.167 102.75C70.167 105.971 72.7787 108.583 76.0003 108.583Z" stroke="white" stroke-width="5" stroke-miterlimit="10" stroke-linecap="round" stroke-linejoin="round"/>
<path d="M93.4997 102.75H81.833" stroke="white" stroke-width="5" stroke-miterlimit="10" stroke-linecap="round" stroke-linejoin="round"/>
<path d="M70.1667 102.75H58.5" stroke="white" stroke-width="5" stroke-miterlimit="10" stroke-linecap="round" stroke-linejoin="round"/>
</svg>
