<svg width="126" height="125" viewBox="0 0 126 125" fill="none" xmlns="http://www.w3.org/2000/svg">
<circle cx="63.0117" cy="62.5" r="62.5" fill="#7323F4"/>
<path d="M63.5737 83.7705C70.6664 83.7705 76.4305 78.0226 76.4305 70.9498V60.266C76.4305 53.1932 70.6664 47.4453 63.5737 47.4453C56.481 47.4453 50.7168 53.1932 50.7168 60.266V70.9498C50.7168 78.0226 56.481 83.7705 63.5737 83.7705Z" stroke="white" stroke-width="1.5" stroke-linecap="round" stroke-linejoin="round"/>
<path d="M44.2871 66.6763V70.9498C44.2871 81.5696 52.9226 90.1808 63.5724 90.1808C74.2222 90.1808 82.8577 81.5696 82.8577 70.9498V66.6763" stroke="white" stroke-width="1.5" stroke-linecap="round" stroke-linejoin="round"/>
<path d="M57.3789 59.154C61.1931 57.7651 65.3502 57.7651 69.1644 59.154" stroke="white" stroke-width="1.5" stroke-linecap="round" stroke-linejoin="round"/>
<path d="M59.3506 65.5656C61.922 64.8596 64.6433 64.8596 67.2147 65.5656" stroke="white" stroke-width="1.5" stroke-linecap="round" stroke-linejoin="round"/>
</svg>
