<svg width="125" height="126" viewBox="0 0 125 126" fill="none" xmlns="http://www.w3.org/2000/svg">
<circle cx="62.5" cy="63" r="62.5" fill="#7323F4"/>
<path d="M62.3923 88.3973C76.7747 88.3973 88.4339 76.738 88.4339 62.3556C88.4339 47.9732 76.7747 36.314 62.3923 36.314C48.0098 36.314 36.3506 47.9732 36.3506 62.3556C36.3506 76.738 48.0098 88.3973 62.3923 88.3973Z" stroke="white" stroke-width="1.5" stroke-linecap="round" stroke-linejoin="round"/>
<path d="M53.9814 62.9546V58.6056C53.9814 53.1889 57.8096 50.9754 62.4971 53.6837L66.2731 55.8712L70.0492 58.0587C74.7367 60.7671 74.7367 65.1941 70.0492 67.9025L66.2731 70.09L62.4971 72.2775C57.8096 74.9858 53.9814 72.7723 53.9814 67.3556V62.9546Z" stroke="white" stroke-width="1.5" stroke-miterlimit="10" stroke-linecap="round" stroke-linejoin="round"/>
</svg>
