<svg width="47" height="47" viewBox="0 0 47 47" fill="none" xmlns="http://www.w3.org/2000/svg">
<path d="M13.5603 18.2778L7.46148 24.3766C6.47182 25.3531 5.6851 26.5157 5.14661 27.7974C4.60812 29.0792 4.3285 30.4549 4.32384 31.8451C4.31919 33.2354 4.58959 34.6129 5.11948 35.8983C5.64937 37.1836 6.42828 38.3515 7.41137 39.3345C8.39445 40.3176 9.56229 41.0965 10.8476 41.6264C12.133 42.1563 13.5105 42.4267 14.9008 42.4221C16.291 42.4174 17.6667 42.1378 18.9485 41.5993C20.2302 41.0608 21.3928 40.2741 22.3693 39.2844L24.401 37.2528C24.6757 36.9877 24.8949 36.6705 25.0457 36.3199C25.1965 35.9692 25.276 35.592 25.2795 35.2102C25.283 34.8285 25.2104 34.4499 25.0661 34.0965C24.9217 33.7431 24.7083 33.422 24.4385 33.1519C24.1687 32.8818 23.8478 32.6682 23.4946 32.5235C23.1413 32.3788 22.7628 32.3058 22.381 32.309C21.9993 32.3121 21.622 32.3912 21.2712 32.5418C20.9203 32.6923 20.603 32.9111 20.3376 33.1856L18.3021 35.2192C17.4021 36.1112 16.1853 36.6103 14.9181 36.6073C13.6509 36.6044 12.4365 36.0996 11.5406 35.2034C10.6447 34.3073 10.1402 33.0927 10.1376 31.8255C10.135 30.5583 10.6345 29.3417 11.5267 28.4418L17.6256 22.343C18.2848 21.6835 19.122 21.2307 20.0348 21.0401C20.9475 20.8494 21.8961 20.9292 22.7641 21.2697C23.0734 21.3923 23.3634 21.5176 23.6343 21.6453L24.5236 22.0613C25.712 22.5979 26.6262 22.8279 27.7896 21.6664C29.461 19.9951 29.0278 18.4522 26.9904 17.0473C24.9608 15.6507 22.5062 15.0091 20.0528 15.2339C17.5995 15.4587 15.3023 16.5356 13.5603 18.2778ZM25.0795 6.7586L23.0478 8.79027C22.5238 9.33225 22.2337 10.0583 22.2399 10.8122C22.2461 11.566 22.5481 12.2872 23.0809 12.8205C23.6137 13.3538 24.3347 13.6565 25.0885 13.6634C25.8423 13.6703 26.5687 13.3809 27.1111 12.8574L29.1447 10.8258C29.5866 10.368 30.1152 10.0028 30.6998 9.75151C31.2843 9.50022 31.913 9.36786 32.5493 9.36215C33.1855 9.35644 33.8165 9.4775 34.4054 9.71827C34.9944 9.95903 35.5295 10.3147 35.9795 10.7644C36.4295 11.2142 36.7855 11.7491 37.0266 12.3379C37.2677 12.9267 37.3891 13.5577 37.3837 14.1939C37.3784 14.8301 37.2464 15.4589 36.9954 16.0436C36.7445 16.6283 36.3796 17.1571 35.9221 17.5993L29.8232 23.6981C29.164 24.3576 28.3267 24.8104 27.414 25.0011C26.5012 25.1917 25.5527 25.1119 24.6846 24.7714C24.3754 24.6488 24.0854 24.5235 23.8145 24.3958L22.9251 23.9798C21.7368 23.4432 20.8206 23.2132 19.6591 24.3747C17.9878 26.046 18.421 27.5889 20.4584 28.9938C22.488 30.3904 24.9426 31.032 27.3959 30.8072C29.8493 30.5824 32.1465 29.5055 33.8885 27.7633L39.9873 21.6645C40.977 20.688 41.7637 19.5254 42.3022 18.2437C42.8407 16.9619 43.1203 15.5863 43.1249 14.196C43.1296 12.8057 42.8592 11.4282 42.3293 10.1429C41.7994 8.8575 41.0205 7.68966 40.0374 6.70657C39.0543 5.72348 37.8865 4.94457 36.6011 4.41468C35.3158 3.88479 33.9383 3.61439 32.548 3.61905C31.1577 3.6237 29.7821 3.90333 28.5003 4.44182C27.2185 4.98031 26.056 5.76895 25.0795 6.7586Z" fill="white"/>
</svg>
